<svg width="40" height="32" viewBox="0 0 40 32" fill="none" xmlns="http://www.w3.org/2000/svg">
<path d="M16.9103 15.707V32H0.5V21.2161C0.5 17.1526 1.2033 13.4408 2.60989 10.0806C4.01648 6.72039 6.39988 3.36019 9.76007 0L15.8553 4.68865C13.9799 6.79854 12.4951 8.71307 11.4011 10.4322C10.3852 12.1514 9.721 13.9096 9.40843 15.707H16.9103ZM39.533 15.707V32H23.1227V21.2161C23.1227 17.1526 23.826 13.4408 25.2326 10.0806C26.6392 6.72039 29.0226 3.36019 32.3828 0L38.478 4.68865C36.6026 6.79854 35.1178 8.71307 34.0238 10.4322C33.0079 12.1514 32.3437 13.9096 32.0311 15.707H39.533Z" fill="#F2C94C"/>
</svg>
