<svg width="456" height="133" viewBox="0 0 456 133" fill="none" xmlns="http://www.w3.org/2000/svg">
<g clip-path="url(#clip0)">
<rect width="456" height="132.945" rx="26.5889" fill="#EF2463"/>
<path d="M149.153 45.9826H144.984V43.5257H156.337V45.9826H152.168V56.5543H149.153V45.9826ZM161.285 46.392C162.836 46.392 164.027 46.7643 164.858 47.5088C165.69 48.2409 166.105 49.3514 166.105 50.8404V56.5543H163.388V55.3073C162.842 56.2379 161.824 56.7032 160.335 56.7032C159.566 56.7032 158.896 56.5729 158.325 56.3124C157.767 56.0518 157.339 55.692 157.041 55.2329C156.743 54.7737 156.594 54.2526 156.594 53.6694C156.594 52.7388 156.942 52.0067 157.637 51.4732C158.344 50.9396 159.43 50.6729 160.894 50.6729H163.202C163.202 50.04 163.009 49.5561 162.625 49.2211C162.24 48.8737 161.663 48.7 160.894 48.7C160.36 48.7 159.833 48.7868 159.312 48.9605C158.803 49.1218 158.369 49.3452 158.009 49.6306L156.967 47.6018C157.513 47.2172 158.164 46.9194 158.921 46.7084C159.69 46.4975 160.478 46.392 161.285 46.392ZM161.061 54.7489C161.558 54.7489 161.998 54.6373 162.383 54.4139C162.767 54.1782 163.04 53.8369 163.202 53.3902V52.3666H161.21C160.019 52.3666 159.423 52.7574 159.423 53.5391C159.423 53.9114 159.566 54.2092 159.851 54.4325C160.149 54.6435 160.553 54.7489 161.061 54.7489ZM175.191 56.0704C174.906 56.2813 174.552 56.4426 174.131 56.5543C173.721 56.6536 173.287 56.7032 172.828 56.7032C171.637 56.7032 170.712 56.3992 170.054 55.7912C169.409 55.1832 169.087 54.2898 169.087 53.1111V48.9977H167.542V46.7643H169.087V44.3261H171.99V46.7643H174.484V48.9977H171.99V53.0738C171.99 53.4957 172.096 53.8245 172.307 54.0603C172.53 54.2836 172.84 54.3953 173.237 54.3953C173.696 54.3953 174.087 54.2712 174.41 54.0231L175.191 56.0704ZM180.86 46.392C182.411 46.392 183.602 46.7643 184.434 47.5088C185.265 48.2409 185.681 49.3514 185.681 50.8404V56.5543H182.963V55.3073C182.417 56.2379 181.4 56.7032 179.911 56.7032C179.142 56.7032 178.472 56.5729 177.901 56.3124C177.342 56.0518 176.914 55.692 176.617 55.2329C176.319 54.7737 176.17 54.2526 176.17 53.6694C176.17 52.7388 176.517 52.0067 177.212 51.4732C177.919 50.9396 179.005 50.6729 180.469 50.6729H182.777C182.777 50.04 182.585 49.5561 182.2 49.2211C181.816 48.8737 181.239 48.7 180.469 48.7C179.936 48.7 179.408 48.7868 178.887 48.9605C178.379 49.1218 177.944 49.3452 177.584 49.6306L176.542 47.6018C177.088 47.2172 177.74 46.9194 178.496 46.7084C179.266 46.4975 180.054 46.392 180.86 46.392ZM180.637 54.7489C181.133 54.7489 181.574 54.6373 181.958 54.4139C182.343 54.1782 182.616 53.8369 182.777 53.3902V52.3666H180.786C179.595 52.3666 178.999 52.7574 178.999 53.5391C178.999 53.9114 179.142 54.2092 179.427 54.4325C179.725 54.6435 180.128 54.7489 180.637 54.7489ZM198.419 56.7032C197.352 56.7032 196.39 56.4861 195.534 56.0518C194.69 55.6051 194.026 54.9909 193.542 54.2092C193.071 53.4275 192.835 52.5403 192.835 51.5476C192.835 50.555 193.071 49.6678 193.542 48.8861C194.026 48.1044 194.69 47.4964 195.534 47.0621C196.39 46.6154 197.352 46.392 198.419 46.392C199.473 46.392 200.392 46.6154 201.173 47.0621C201.968 47.4964 202.545 48.123 202.904 48.9419L200.652 50.1517C200.131 49.2335 199.38 48.7744 198.4 48.7744C197.643 48.7744 197.017 49.0226 196.52 49.5189C196.024 50.0152 195.776 50.6915 195.776 51.5476C195.776 52.4038 196.024 53.08 196.52 53.5764C197.017 54.0727 197.643 54.3209 198.4 54.3209C199.393 54.3209 200.144 53.8617 200.652 52.9435L202.904 54.172C202.545 54.9661 201.968 55.5865 201.173 56.0332C200.392 56.4799 199.473 56.7032 198.419 56.7032ZM208.615 46.392C210.166 46.392 211.357 46.7643 212.189 47.5088C213.02 48.2409 213.436 49.3514 213.436 50.8404V56.5543H210.718V55.3073C210.172 56.2379 209.155 56.7032 207.666 56.7032C206.896 56.7032 206.226 56.5729 205.656 56.3124C205.097 56.0518 204.669 55.692 204.371 55.2329C204.074 54.7737 203.925 54.2526 203.925 53.6694C203.925 52.7388 204.272 52.0067 204.967 51.4732C205.674 50.9396 206.76 50.6729 208.224 50.6729H210.532C210.532 50.04 210.34 49.5561 209.955 49.2211C209.57 48.8737 208.993 48.7 208.224 48.7C207.691 48.7 207.163 48.7868 206.642 48.9605C206.133 49.1218 205.699 49.3452 205.339 49.6306L204.297 47.6018C204.843 47.2172 205.494 46.9194 206.251 46.7084C207.021 46.4975 207.808 46.392 208.615 46.392ZM208.392 54.7489C208.888 54.7489 209.328 54.6373 209.713 54.4139C210.098 54.1782 210.371 53.8369 210.532 53.3902V52.3666H208.541C207.349 52.3666 206.754 52.7574 206.754 53.5391C206.754 53.9114 206.896 54.2092 207.182 54.4325C207.48 54.6435 207.883 54.7489 208.392 54.7489ZM218.837 47.8624C219.184 47.3785 219.649 47.0124 220.232 46.7643C220.828 46.5161 221.511 46.392 222.28 46.392V49.0722C221.957 49.0474 221.74 49.035 221.628 49.035C220.797 49.035 220.146 49.2707 219.674 49.7422C219.203 50.2013 218.967 50.8962 218.967 51.8268V56.5543H216.063V46.5409H218.837V47.8624ZM227.991 46.392C229.542 46.392 230.733 46.7643 231.564 47.5088C232.396 48.2409 232.811 49.3514 232.811 50.8404V56.5543H230.094V55.3073C229.548 56.2379 228.53 56.7032 227.041 56.7032C226.272 56.7032 225.602 56.5729 225.031 56.3124C224.473 56.0518 224.045 55.692 223.747 55.2329C223.449 54.7737 223.3 54.2526 223.3 53.6694C223.3 52.7388 223.648 52.0067 224.343 51.4732C225.05 50.9396 226.136 50.6729 227.6 50.6729H229.908C229.908 50.04 229.715 49.5561 229.331 49.2211C228.946 48.8737 228.369 48.7 227.6 48.7C227.066 48.7 226.539 48.7868 226.018 48.9605C225.509 49.1218 225.075 49.3452 224.715 49.6306L223.673 47.6018C224.219 47.2172 224.87 46.9194 225.627 46.7084C226.396 46.4975 227.184 46.392 227.991 46.392ZM227.767 54.7489C228.264 54.7489 228.704 54.6373 229.089 54.4139C229.473 54.1782 229.746 53.8369 229.908 53.3902V52.3666H227.916C226.725 52.3666 226.129 52.7574 226.129 53.5391C226.129 53.9114 226.272 54.2092 226.557 54.4325C226.855 54.6435 227.259 54.7489 227.767 54.7489ZM159.073 69.392C160.326 69.392 161.319 69.7643 162.051 70.5088C162.796 71.2409 163.168 72.3452 163.168 73.8217V79.5543H160.264V74.2684C160.264 73.4743 160.097 72.8849 159.762 72.5003C159.439 72.1032 158.974 71.9047 158.366 71.9047C157.683 71.9047 157.144 72.128 156.747 72.5747C156.35 73.009 156.151 73.6604 156.151 74.529V79.5543H153.247V74.2684C153.247 72.6926 152.615 71.9047 151.349 71.9047C150.679 71.9047 150.145 72.128 149.748 72.5747C149.351 73.009 149.153 73.6604 149.153 74.529V79.5543H146.249V69.5409H149.022V70.6949C149.395 70.273 149.848 69.9504 150.381 69.7271C150.927 69.5037 151.523 69.392 152.168 69.392C152.875 69.392 153.514 69.5347 154.085 69.8201C154.656 70.0931 155.115 70.4964 155.462 71.0299C155.872 70.5088 156.387 70.1055 157.007 69.8201C157.64 69.5347 158.329 69.392 159.073 69.392ZM175.688 74.5849C175.688 74.6221 175.669 74.8826 175.632 75.3666H168.057C168.193 75.987 168.516 76.4771 169.025 76.8369C169.534 77.1968 170.166 77.3767 170.923 77.3767C171.444 77.3767 171.904 77.3022 172.301 77.1533C172.71 76.992 173.089 76.7439 173.436 76.4089L174.981 78.084C174.038 79.1635 172.66 79.7032 170.849 79.7032C169.72 79.7032 168.721 79.4861 167.852 79.0518C166.984 78.6051 166.314 77.9909 165.842 77.2092C165.371 76.4275 165.135 75.5403 165.135 74.5476C165.135 73.5674 165.364 72.6864 165.824 71.9047C166.295 71.1106 166.934 70.4964 167.741 70.0621C168.56 69.6154 169.472 69.392 170.477 69.392C171.457 69.392 172.344 69.603 173.138 70.0249C173.932 70.4467 174.553 71.0547 174.999 71.8489C175.458 72.6306 175.688 73.5426 175.688 74.5849ZM170.495 71.5883C169.838 71.5883 169.285 71.7744 168.839 72.1466C168.392 72.5189 168.119 73.0276 168.02 73.6729H172.952C172.853 73.04 172.58 72.5375 172.133 72.1653C171.686 71.7806 171.14 71.5883 170.495 71.5883ZM183.707 69.392C184.948 69.392 185.947 69.7643 186.704 70.5088C187.473 71.2533 187.858 72.3576 187.858 73.8217V79.5543H184.954V74.2684C184.954 73.4743 184.781 72.8849 184.433 72.5003C184.086 72.1032 183.583 71.9047 182.926 71.9047C182.193 71.9047 181.61 72.1342 181.176 72.5933C180.742 73.04 180.525 73.7101 180.525 74.6035V79.5543H177.621V69.5409H180.394V70.7135C180.779 70.2916 181.257 69.969 181.827 69.7457C182.398 69.5099 183.025 69.392 183.707 69.392ZM200.929 69.5409V77.8792C200.929 79.7156 200.451 81.0805 199.495 81.9739C198.54 82.8673 197.144 83.314 195.308 83.314C194.34 83.314 193.422 83.1961 192.553 82.9604C191.684 82.7246 190.965 82.3834 190.394 81.9367L191.548 79.8521C191.97 80.1995 192.503 80.4725 193.149 80.6711C193.794 80.882 194.439 80.9875 195.084 80.9875C196.089 80.9875 196.828 80.7579 197.299 80.2988C197.783 79.8521 198.025 79.1697 198.025 78.2515V77.8234C197.268 78.6547 196.213 79.0704 194.861 79.0704C193.943 79.0704 193.099 78.8719 192.33 78.4748C191.573 78.0653 190.971 77.4946 190.524 76.7625C190.078 76.0304 189.854 75.1866 189.854 74.2312C189.854 73.2758 190.078 72.432 190.524 71.7C190.971 70.9679 191.573 70.4033 192.33 70.0062C193.099 69.5968 193.943 69.392 194.861 69.392C196.313 69.392 197.417 69.8697 198.174 70.8252V69.5409H200.929ZM195.438 76.688C196.207 76.688 196.834 76.4647 197.318 76.018C197.814 75.5589 198.062 74.9633 198.062 74.2312C198.062 73.4991 197.814 72.9097 197.318 72.4631C196.834 72.004 196.207 71.7744 195.438 71.7744C194.669 71.7744 194.036 72.004 193.539 72.4631C193.043 72.9097 192.795 73.4991 192.795 74.2312C192.795 74.9633 193.043 75.5589 193.539 76.018C194.036 76.4647 194.669 76.688 195.438 76.688ZM213.961 69.5409V77.8792C213.961 79.7156 213.483 81.0805 212.528 81.9739C211.572 82.8673 210.176 83.314 208.34 83.314C207.372 83.314 206.454 83.1961 205.585 82.9604C204.717 82.7246 203.997 82.3834 203.426 81.9367L204.58 79.8521C205.002 80.1995 205.536 80.4725 206.181 80.6711C206.826 80.882 207.471 80.9875 208.117 80.9875C209.122 80.9875 209.86 80.7579 210.331 80.2988C210.815 79.8521 211.057 79.1697 211.057 78.2515V77.8234C210.3 78.6547 209.246 79.0704 207.893 79.0704C206.975 79.0704 206.131 78.8719 205.362 78.4748C204.605 78.0653 204.003 77.4946 203.557 76.7625C203.11 76.0304 202.886 75.1866 202.886 74.2312C202.886 73.2758 203.11 72.432 203.557 71.7C204.003 70.9679 204.605 70.4033 205.362 70.0062C206.131 69.5968 206.975 69.392 207.893 69.392C209.345 69.392 210.449 69.8697 211.206 70.8252V69.5409H213.961ZM208.47 76.688C209.239 76.688 209.866 76.4647 210.35 76.018C210.846 75.5589 211.094 74.9633 211.094 74.2312C211.094 73.4991 210.846 72.9097 210.35 72.4631C209.866 72.004 209.239 71.7744 208.47 71.7744C207.701 71.7744 207.068 72.004 206.572 72.4631C206.075 72.9097 205.827 73.4991 205.827 74.2312C205.827 74.9633 206.075 75.5589 206.572 76.018C207.068 76.4647 207.701 76.688 208.47 76.688ZM226.751 69.5409V79.5543H223.996V78.3631C223.612 78.7974 223.153 79.1324 222.619 79.3682C222.086 79.5915 221.509 79.7032 220.888 79.7032C219.573 79.7032 218.531 79.3248 217.761 78.5679C216.992 77.811 216.607 76.688 216.607 75.1991V69.5409H219.511V74.771C219.511 76.384 220.187 77.1906 221.54 77.1906C222.234 77.1906 222.793 76.9672 223.215 76.5205C223.637 76.0614 223.847 75.3852 223.847 74.4918V69.5409H226.751ZM235.527 69.392C236.768 69.392 237.767 69.7643 238.524 70.5088C239.293 71.2533 239.678 72.3576 239.678 73.8217V79.5543H236.774V74.2684C236.774 73.4743 236.6 72.8849 236.253 72.5003C235.906 72.1032 235.403 71.9047 234.745 71.9047C234.013 71.9047 233.43 72.1342 232.996 72.5933C232.562 73.04 232.344 73.7101 232.344 74.6035V79.5543H229.441V69.5409H232.214V70.7135C232.599 70.2916 233.077 69.969 233.647 69.7457C234.218 69.5099 234.845 69.392 235.527 69.392ZM246.348 69.392C247.899 69.392 249.091 69.7643 249.922 70.5088C250.753 71.2409 251.169 72.3514 251.169 73.8404V79.5543H248.452V78.3073C247.906 79.2379 246.888 79.7032 245.399 79.7032C244.63 79.7032 243.96 79.5729 243.389 79.3124C242.831 79.0518 242.403 78.692 242.105 78.2329C241.807 77.7737 241.658 77.2526 241.658 76.6694C241.658 75.7388 242.006 75.0067 242.7 74.4732C243.408 73.9396 244.493 73.6729 245.958 73.6729H248.265C248.265 73.04 248.073 72.5561 247.688 72.2211C247.304 71.8737 246.727 71.7 245.958 71.7C245.424 71.7 244.897 71.7868 244.375 71.9605C243.867 72.1218 243.432 72.3452 243.073 72.6306L242.03 70.6018C242.576 70.2172 243.228 69.9194 243.985 69.7084C244.754 69.4975 245.542 69.392 246.348 69.392ZM246.125 77.7489C246.621 77.7489 247.062 77.6373 247.447 77.4139C247.831 77.1782 248.104 76.8369 248.265 76.3902V75.3666H246.274C245.083 75.3666 244.487 75.7574 244.487 76.5391C244.487 76.9114 244.63 77.2092 244.915 77.4325C245.213 77.6435 245.616 77.7489 246.125 77.7489ZM258.096 75.6271L256.7 77.0044V79.5543H253.797V65.744H256.7V73.5612L260.944 69.5409H264.406L260.237 73.7845L264.778 79.5543H261.26L258.096 75.6271ZM269.941 69.392C271.492 69.392 272.683 69.7643 273.514 70.5088C274.346 71.2409 274.761 72.3514 274.761 73.8404V79.5543H272.044V78.3073C271.498 79.2379 270.481 79.7032 268.992 79.7032C268.222 79.7032 267.552 79.5729 266.982 79.3124C266.423 79.0518 265.995 78.692 265.697 78.2329C265.399 77.7737 265.251 77.2526 265.251 76.6694C265.251 75.7388 265.598 75.0067 266.293 74.4732C267 73.9396 268.086 73.6729 269.55 73.6729H271.858C271.858 73.04 271.666 72.5561 271.281 72.2211C270.896 71.8737 270.319 71.7 269.55 71.7C269.016 71.7 268.489 71.7868 267.968 71.9605C267.459 72.1218 267.025 72.3452 266.665 72.6306L265.623 70.6018C266.169 70.2172 266.82 69.9194 267.577 69.7084C268.346 69.4975 269.134 69.392 269.941 69.392ZM269.718 77.7489C270.214 77.7489 270.654 77.6373 271.039 77.4139C271.424 77.1782 271.697 76.8369 271.858 76.3902V75.3666H269.866C268.675 75.3666 268.08 75.7574 268.08 76.5391C268.08 76.9114 268.222 77.2092 268.508 77.4325C268.806 77.6435 269.209 77.7489 269.718 77.7489ZM283.475 69.392C284.716 69.392 285.715 69.7643 286.472 70.5088C287.241 71.2533 287.626 72.3576 287.626 73.8217V79.5543H284.722V74.2684C284.722 73.4743 284.549 72.8849 284.201 72.5003C283.854 72.1032 283.351 71.9047 282.694 71.9047C281.962 71.9047 281.378 72.1342 280.944 72.5933C280.51 73.04 280.293 73.7101 280.293 74.6035V79.5543H277.389V69.5409H280.162V70.7135C280.547 70.2916 281.025 69.969 281.596 69.7457C282.166 69.5099 282.793 69.392 283.475 69.392ZM304.035 79.5543L301.522 75.9249H301.373H298.749V79.5543H295.734V66.5257H301.373C302.527 66.5257 303.526 66.7181 304.37 67.1027C305.226 67.4874 305.884 68.0333 306.343 68.7406C306.802 69.4479 307.031 70.2854 307.031 71.2533C307.031 72.2211 306.796 73.0586 306.324 73.7659C305.865 74.4608 305.207 74.9943 304.351 75.3666L307.273 79.5543H304.035ZM303.979 71.2533C303.979 70.5212 303.743 69.9628 303.272 69.5782C302.8 69.1811 302.111 68.9826 301.206 68.9826H298.749V73.524H301.206C302.111 73.524 302.8 73.3254 303.272 72.9284C303.743 72.5313 303.979 71.9729 303.979 71.2533ZM319.024 74.5849C319.024 74.6221 319.006 74.8826 318.968 75.3666H311.393C311.53 75.987 311.852 76.4771 312.361 76.8369C312.87 77.1968 313.502 77.3767 314.259 77.3767C314.781 77.3767 315.24 77.3022 315.637 77.1533C316.046 76.992 316.425 76.7439 316.772 76.4089L318.317 78.084C317.374 79.1635 315.997 79.7032 314.185 79.7032C313.056 79.7032 312.057 79.4861 311.188 79.0518C310.32 78.6051 309.65 77.9909 309.178 77.2092C308.707 76.4275 308.471 75.5403 308.471 74.5476C308.471 73.5674 308.701 72.6864 309.16 71.9047C309.631 71.1106 310.27 70.4964 311.077 70.0621C311.896 69.6154 312.808 69.392 313.813 69.392C314.793 69.392 315.68 69.603 316.474 70.0249C317.268 70.4467 317.889 71.0547 318.335 71.8489C318.795 72.6306 319.024 73.5426 319.024 74.5849ZM313.831 71.5883C313.174 71.5883 312.622 71.7744 312.175 72.1466C311.728 72.5189 311.455 73.0276 311.356 73.6729H316.288C316.189 73.04 315.916 72.5375 315.469 72.1653C315.022 71.7806 314.477 71.5883 313.831 71.5883ZM325.257 75.6271L323.861 77.0044V79.5543H320.957V65.744H323.861V73.5612L328.104 69.5409H331.566L327.397 73.7845L331.938 79.5543H328.421L325.257 75.6271ZM339.163 69.392C340.093 69.392 340.937 69.6092 341.694 70.0435C342.463 70.4653 343.065 71.0671 343.5 71.8489C343.934 72.6182 344.151 73.5177 344.151 74.5476C344.151 75.5775 343.934 76.4833 343.5 77.265C343.065 78.0343 342.463 78.6361 341.694 79.0704C340.937 79.4923 340.093 79.7032 339.163 79.7032C337.786 79.7032 336.737 79.2689 336.017 78.4004V79.5543H333.244V65.744H336.148V70.6018C336.88 69.7953 337.885 69.392 339.163 69.392ZM338.66 77.3209C339.405 77.3209 340.013 77.0727 340.484 76.5764C340.968 76.0676 341.21 75.3914 341.21 74.5476C341.21 73.7039 340.968 73.0338 340.484 72.5375C340.013 72.0288 339.405 71.7744 338.66 71.7744C337.916 71.7744 337.302 72.0288 336.818 72.5375C336.346 73.0338 336.11 73.7039 336.11 74.5476C336.11 75.3914 336.346 76.0676 336.818 76.5764C337.302 77.0727 337.916 77.3209 338.66 77.3209ZM355.903 74.5849C355.903 74.6221 355.885 74.8826 355.847 75.3666H348.272C348.409 75.987 348.731 76.4771 349.24 76.8369C349.749 77.1968 350.382 77.3767 351.139 77.3767C351.66 77.3767 352.119 77.3022 352.516 77.1533C352.925 76.992 353.304 76.7439 353.651 76.4089L355.196 78.084C354.253 79.1635 352.876 79.7032 351.064 79.7032C349.935 79.7032 348.936 79.4861 348.068 79.0518C347.199 78.6051 346.529 77.9909 346.057 77.2092C345.586 76.4275 345.35 75.5403 345.35 74.5476C345.35 73.5674 345.58 72.6864 346.039 71.9047C346.51 71.1106 347.149 70.4964 347.956 70.0621C348.775 69.6154 349.687 69.392 350.692 69.392C351.672 69.392 352.559 69.603 353.353 70.0249C354.148 70.4467 354.768 71.0547 355.215 71.8489C355.674 72.6306 355.903 73.5426 355.903 74.5849ZM350.71 71.5883C350.053 71.5883 349.501 71.7744 349.054 72.1466C348.607 72.5189 348.334 73.0276 348.235 73.6729H353.167C353.068 73.04 352.795 72.5375 352.348 72.1653C351.902 71.7806 351.356 71.5883 350.71 71.5883ZM360.61 70.8624C360.957 70.3785 361.422 70.0124 362.005 69.7643C362.601 69.5161 363.284 69.392 364.053 69.392V72.0722C363.73 72.0474 363.513 72.035 363.401 72.035C362.57 72.035 361.919 72.2707 361.447 72.7422C360.976 73.2013 360.74 73.8962 360.74 74.8268V79.5543H357.836V69.5409H360.61V70.8624Z" fill="white"/>
<path d="M413.458 55.8371L420.105 62.4843L413.458 69.1316" stroke="white" stroke-width="2.65889" stroke-linecap="round"/>
<path d="M94.4893 31.8792C85.6024 31.5855 77.1375 28.8476 69.0554 25.8546C60.9733 22.8616 52.966 19.5445 44.2925 17.9579C38.713 16.9376 32.3325 16.796 27.8375 19.6463C23.5106 22.3912 22.1132 27.1346 21.3624 31.5282C20.7969 34.8371 20.4644 38.3145 22.0126 41.4163C23.0885 43.5657 24.9987 45.3735 26.3199 47.4328C30.9143 54.6006 27.6694 63.438 22.6861 70.4349C20.3552 73.7181 17.6403 76.8492 15.8382 80.3442C14.036 83.8391 13.2018 87.8419 14.7782 91.4059C16.3424 94.9395 20.0669 97.5932 24.1019 99.4594C32.2981 103.25 41.9567 104.336 51.3748 104.95C72.2242 106.305 93.184 105.72 114.087 105.135C121.824 104.917 129.593 104.695 137.204 103.555C141.429 102.922 145.792 101.917 148.859 99.4886C152.754 96.4067 153.719 91.1883 151.109 87.32C146.731 80.8391 134.626 79.2291 131.567 72.2731C129.882 68.4447 131.612 64.1798 134.06 60.6287C139.31 53.0104 148.111 46.3282 148.575 37.6207C148.894 31.6405 144.663 25.651 138.122 22.8218C131.264 19.8557 121.756 20.2289 116.697 25.1385C111.49 30.1943 102.336 32.139 94.4893 31.8792Z" fill="white" fill-opacity="0.3"/>
<path d="M95.4255 105.732L71.5029 105.44L71.5729 104.855L72.7297 95.2018H93.7386L95.2844 104.855L95.4022 105.586L95.4255 105.732Z" fill="#D0D2D5"/>
<path opacity="0.1" d="M95.4022 105.586H83.4642L71.5029 105.439L71.5729 104.855H95.2844L95.4022 105.586Z" fill="black"/>
<path d="M99.26 105H67.5166V105.731H99.26V105Z" fill="#D0D2D5"/>
<path d="M129.545 37.2233C129.546 36.9733 129.496 36.7255 129.397 36.4941C129.298 36.2626 129.152 36.0521 128.967 35.8744C128.783 35.6968 128.564 35.5555 128.322 35.4587C128.08 35.3619 127.821 35.3115 127.559 35.3102H38.9093C38.6471 35.3113 38.3877 35.3617 38.1458 35.4584C37.904 35.5551 37.6846 35.6964 37.5 35.874C37.3154 36.0517 37.1694 36.2623 37.0702 36.4938C36.971 36.7253 36.9206 36.9732 36.9219 37.2233V88.4718H129.545V37.2233Z" fill="#444053"/>
<path d="M36.9219 87.9621V93.9645C36.9219 94.4672 37.1313 94.9493 37.504 95.3048C37.8767 95.6603 38.3822 95.86 38.9093 95.86H127.559C128.086 95.8597 128.591 95.6598 128.963 95.3044C129.336 94.949 129.545 94.467 129.545 93.9645V87.9621H36.9219Z" fill="#D0D2D5"/>
<path opacity="0.1" d="M126.172 38.5287H40.7559V84.5998H126.172V38.5287Z" fill="#EF2463"/>
<path d="M83.6941 93.5817C84.0078 93.5819 84.3174 93.5141 84.5996 93.3836C84.8818 93.2531 85.1293 93.0632 85.3233 92.8281C85.3822 92.7564 85.4359 92.681 85.484 92.6023L84.348 92.4245L85.5748 92.4338C85.6931 92.1893 85.7577 91.9242 85.7644 91.6549C85.7712 91.3857 85.72 91.118 85.6141 90.8683L83.9665 91.6873L85.4865 90.6226C85.3437 90.3889 85.1521 90.1858 84.9235 90.0257C84.6949 89.8656 84.4343 89.7521 84.1578 89.692C83.8813 89.632 83.5948 89.6268 83.3162 89.6768C83.0375 89.7268 82.7725 89.8308 82.5378 89.9825C82.303 90.1342 82.1034 90.3303 81.9514 90.5586C81.7994 90.7869 81.6982 91.0425 81.6541 91.3097C81.61 91.5768 81.6239 91.8498 81.695 92.1116C81.7661 92.3734 81.8929 92.6185 82.0674 92.8317C82.2614 93.0658 82.5086 93.255 82.7904 93.3849C83.0722 93.5148 83.3812 93.5821 83.6941 93.5817Z" fill="#EF2463"/>
<path opacity="0.1" d="M85.7646 95.8616L95.3079 105.002L93.8443 95.8616H85.7646Z" fill="black"/>
<path d="M99.0113 46.8412H43.5846C43.4084 46.8412 43.2656 46.9774 43.2656 47.1455V78.5966C43.2656 78.7646 43.4084 78.9008 43.5846 78.9008H99.0113C99.1874 78.9008 99.3302 78.7646 99.3302 78.5966V47.1455C99.3302 46.9774 99.1874 46.8412 99.0113 46.8412Z" fill="white"/>
<path d="M126.197 38.5339H40.8115V41.2251H126.197V38.5339Z" fill="white"/>
<path d="M43.5366 39.0015H41.2744C41.2216 39.0015 41.1787 39.0424 41.1787 39.0928V40.5477C41.1787 40.5981 41.2216 40.6389 41.2744 40.6389H43.5366C43.5895 40.6389 43.6323 40.5981 43.6323 40.5477V39.0928C43.6323 39.0424 43.5895 39.0015 43.5366 39.0015Z" fill="#EF2463"/>
<path opacity="0.3" d="M96.0695 39.0015H70.4491C70.4098 39.0015 70.3779 39.0319 70.3779 39.0694V40.5711C70.3779 40.6086 70.4098 40.6389 70.4491 40.6389H96.0695C96.1088 40.6389 96.1407 40.6086 96.1407 40.5711V39.0694C96.1407 39.0319 96.1088 39.0015 96.0695 39.0015Z" fill="#EF2463"/>
<path d="M95.3764 39.9879H95.3139L95.2906 39.9692C95.3693 39.8801 95.4127 39.7675 95.4133 39.651C95.4125 39.5554 95.3821 39.4621 95.3258 39.3829C95.2695 39.3037 95.1898 39.2422 95.0969 39.2061C95.004 39.17 94.9019 39.161 94.8036 39.1802C94.7053 39.1993 94.6151 39.2459 94.5445 39.3138C94.4739 39.3818 94.426 39.4682 94.4068 39.5621C94.3876 39.656 94.3981 39.7532 94.4368 39.8415C94.4756 39.9297 94.5409 40.005 94.6245 40.058C94.7081 40.1109 94.8062 40.139 94.9066 40.1388C95.0287 40.138 95.1467 40.0967 95.2403 40.0218L95.2636 40.0405V40.1013L95.6562 40.4756L95.7788 40.3586L95.3764 39.9879ZM94.9053 39.9879C94.8351 39.9881 94.7664 39.9685 94.7079 39.9314C94.6494 39.8943 94.6038 39.8416 94.5768 39.7798C94.5498 39.718 94.5427 39.6499 94.5563 39.5842C94.57 39.5185 94.6038 39.4582 94.6534 39.4109C94.7031 39.3635 94.7664 39.3313 94.8353 39.3183C94.9041 39.3053 94.9755 39.3121 95.0404 39.3378C95.1052 39.3635 95.1606 39.4071 95.1994 39.4628C95.2383 39.5186 95.2589 39.5841 95.2587 39.651C95.259 39.6954 95.2501 39.7393 95.2324 39.7803C95.2148 39.8213 95.1888 39.8586 95.1559 39.8899C95.123 39.9213 95.084 39.9461 95.0409 39.9629C94.9979 39.9797 94.9518 39.9882 94.9053 39.9879Z" fill="#444053"/>
<path d="M124.97 40.6389C125.444 40.6389 125.829 40.2724 125.829 39.8202C125.829 39.3681 125.444 39.0015 124.97 39.0015C124.496 39.0015 124.111 39.3681 124.111 39.8202C124.111 40.2724 124.496 40.6389 124.97 40.6389Z" fill="#EF2463"/>
<path d="M111.055 44.15H103.677C103.512 44.15 103.379 44.2773 103.379 44.4343V49.014C103.379 49.171 103.512 49.2983 103.677 49.2983H111.055C111.22 49.2983 111.353 49.171 111.353 49.014V44.4343C111.353 44.2773 111.22 44.15 111.055 44.15Z" fill="white"/>
<path d="M123.668 44.15H113.512C113.471 44.15 113.438 44.182 113.438 44.2214V44.8974C113.438 44.9368 113.471 44.9687 113.512 44.9687H123.668C123.709 44.9687 123.743 44.9368 123.743 44.8974V44.2214C123.743 44.182 123.709 44.15 123.668 44.15Z" fill="white"/>
<path d="M123.668 45.9034H113.512C113.471 45.9034 113.438 45.9354 113.438 45.9748V46.6508C113.438 46.6902 113.471 46.7221 113.512 46.7221H123.668C123.709 46.7221 123.743 46.6902 123.743 46.6508V45.9748C123.743 45.9354 123.709 45.9034 123.668 45.9034Z" fill="white"/>
<path d="M123.668 47.6595H113.512C113.471 47.6595 113.438 47.6914 113.438 47.7308V48.4068C113.438 48.4462 113.471 48.4782 113.512 48.4782H123.668C123.709 48.4782 123.743 48.4462 123.743 48.4068V47.7308C123.743 47.6914 123.709 47.6595 123.668 47.6595Z" fill="white"/>
<path d="M111.055 52.2236H103.677C103.512 52.2236 103.379 52.3509 103.379 52.5079V57.0875C103.379 57.2445 103.512 57.3718 103.677 57.3718H111.055C111.22 57.3718 111.353 57.2445 111.353 57.0875V52.5079C111.353 52.3509 111.22 52.2236 111.055 52.2236Z" fill="white"/>
<path d="M123.668 52.2236H113.512C113.471 52.2236 113.438 52.2555 113.438 52.2949V52.9709C113.438 53.0103 113.471 53.0423 113.512 53.0423H123.668C123.709 53.0423 123.743 53.0103 123.743 52.9709V52.2949C123.743 52.2555 123.709 52.2236 123.668 52.2236Z" fill="white"/>
<path d="M123.668 53.977H113.512C113.471 53.977 113.438 54.0089 113.438 54.0483V54.7243C113.438 54.7637 113.471 54.7957 113.512 54.7957H123.668C123.709 54.7957 123.743 54.7637 123.743 54.7243V54.0483C123.743 54.0089 123.709 53.977 123.668 53.977Z" fill="white"/>
<path d="M123.662 55.733H113.518C113.474 55.733 113.438 55.7676 113.438 55.8102V56.4745C113.438 56.5172 113.474 56.5517 113.518 56.5517H123.662C123.706 56.5517 123.743 56.5172 123.743 56.4745V55.8102C123.743 55.7676 123.706 55.733 123.662 55.733Z" fill="white"/>
<path d="M111.055 60.2945H103.677C103.512 60.2945 103.379 60.4218 103.379 60.5788V65.1584C103.379 65.3155 103.512 65.4427 103.677 65.4427H111.055C111.22 65.4427 111.353 65.3155 111.353 65.1584V60.5788C111.353 60.4218 111.22 60.2945 111.055 60.2945Z" fill="white"/>
<path d="M123.662 60.2945H113.518C113.474 60.2945 113.438 60.3291 113.438 60.3717V61.036C113.438 61.0786 113.474 61.1132 113.518 61.1132H123.662C123.706 61.1132 123.743 61.0786 123.743 61.036V60.3717C123.743 60.3291 123.706 60.2945 123.662 60.2945Z" fill="white"/>
<path d="M123.662 62.0505H113.518C113.474 62.0505 113.438 62.0851 113.438 62.1277V62.792C113.438 62.8347 113.474 62.8692 113.518 62.8692H123.662C123.706 62.8692 123.743 62.8347 123.743 62.792V62.1277C123.743 62.0851 123.706 62.0505 123.662 62.0505Z" fill="white"/>
<path d="M123.662 63.8065H113.518C113.474 63.8065 113.438 63.8411 113.438 63.8837V64.548C113.438 64.5907 113.474 64.6252 113.518 64.6252H123.662C123.706 64.6252 123.743 64.5907 123.743 64.548V63.8837C123.743 63.8411 123.706 63.8065 123.662 63.8065Z" fill="white"/>
<path d="M111.055 68.368H103.677C103.512 68.368 103.379 68.4953 103.379 68.6523V73.2319C103.379 73.3889 103.512 73.5162 103.677 73.5162H111.055C111.22 73.5162 111.353 73.3889 111.353 73.2319V68.6523C111.353 68.4953 111.22 68.368 111.055 68.368Z" fill="white"/>
<path d="M123.662 68.368H113.518C113.474 68.368 113.438 68.4025 113.438 68.4452V69.1095C113.438 69.1521 113.474 69.1867 113.518 69.1867H123.662C123.706 69.1867 123.743 69.1521 123.743 69.1095V68.4452C123.743 68.4025 123.706 68.368 123.662 68.368Z" fill="white"/>
<path d="M123.662 70.124H113.518C113.474 70.124 113.438 70.1586 113.438 70.2012V70.8655C113.438 70.9082 113.474 70.9427 113.518 70.9427H123.662C123.706 70.9427 123.743 70.9082 123.743 70.8655V70.2012C123.743 70.1586 123.706 70.124 123.662 70.124Z" fill="white"/>
<path d="M123.662 71.8801H113.518C113.474 71.8801 113.438 71.9146 113.438 71.9573V72.6216C113.438 72.6642 113.474 72.6988 113.518 72.6988H123.662C123.706 72.6988 123.743 72.6642 123.743 72.6216V71.9573C123.743 71.9146 123.706 71.8801 123.662 71.8801Z" fill="white"/>
<path d="M111.055 76.4415H103.677C103.512 76.4415 103.379 76.5688 103.379 76.7259V81.3055C103.379 81.4625 103.512 81.5898 103.677 81.5898H111.055C111.22 81.5898 111.353 81.4625 111.353 81.3055V76.7259C111.353 76.5688 111.22 76.4415 111.055 76.4415Z" fill="white"/>
<path d="M123.662 76.4415H113.518C113.474 76.4415 113.438 76.4761 113.438 76.5187V77.183C113.438 77.2257 113.474 77.2602 113.518 77.2602H123.662C123.706 77.2602 123.743 77.2257 123.743 77.183V76.5187C123.743 76.4761 123.706 76.4415 123.662 76.4415Z" fill="white"/>
<path d="M123.662 78.1975H113.518C113.474 78.1975 113.438 78.2321 113.438 78.2747V78.939C113.438 78.9816 113.474 79.0162 113.518 79.0162H123.662C123.706 79.0162 123.743 78.9816 123.743 78.939V78.2747C123.743 78.2321 123.706 78.1975 123.662 78.1975Z" fill="white"/>
<path d="M123.662 79.9536H113.518C113.474 79.9536 113.438 79.9881 113.438 80.0307V80.6951C113.438 80.7377 113.474 80.7723 113.518 80.7723H123.662C123.706 80.7723 123.743 80.7377 123.743 80.6951V80.0307C123.743 79.9881 123.706 79.9536 123.662 79.9536Z" fill="white"/>
<path opacity="0.1" d="M63.9677 55.3356H51.3525V55.9589H63.9677V55.3356Z" fill="#EF2463"/>
<path opacity="0.1" d="M53.6872 52.0391H52.4727V55.3364H53.6872V52.0391Z" fill="#EF2463"/>
<path opacity="0.1" d="M55.4636 52.0391H54.249V55.3364H55.4636V52.0391Z" fill="#EF2463"/>
<path opacity="0.1" d="M57.238 52.0391H56.0234V55.3364H57.238V52.0391Z" fill="#EF2463"/>
<path opacity="0.1" d="M59.0134 52.0391H57.7988V55.3364H59.0134V52.0391Z" fill="#EF2463"/>
<path opacity="0.1" d="M60.7888 52.0391H59.5742V55.3364H60.7888V52.0391Z" fill="#EF2463"/>
<path opacity="0.1" d="M62.5651 52.0391H61.3506V55.3364H62.5651V52.0391Z" fill="#EF2463"/>
<path opacity="0.1" d="M53.6872 52.6626H52.4727V53.0193H53.6872V52.6626Z" fill="#EF2463"/>
<path opacity="0.1" d="M55.4636 52.6626H54.249V53.0193H55.4636V52.6626Z" fill="#EF2463"/>
<path opacity="0.1" d="M57.238 52.6626H56.0234V53.0193H57.238V52.6626Z" fill="#EF2463"/>
<path opacity="0.1" d="M59.0134 52.6626H57.7988V53.0193H59.0134V52.6626Z" fill="#EF2463"/>
<path opacity="0.1" d="M60.7888 52.6626H59.5742V53.0193H60.7888V52.6626Z" fill="#EF2463"/>
<path opacity="0.1" d="M62.5651 52.6626H61.3506V53.0193H62.5651V52.6626Z" fill="#EF2463"/>
<path opacity="0.1" d="M53.6872 54.2653H52.4727V54.622H53.6872V54.2653Z" fill="#EF2463"/>
<path opacity="0.1" d="M55.4636 54.2653H54.249V54.622H55.4636V54.2653Z" fill="#EF2463"/>
<path opacity="0.1" d="M57.238 54.2653H56.0234V54.622H57.238V54.2653Z" fill="#EF2463"/>
<path opacity="0.1" d="M59.0134 54.2653H57.7988V54.622H59.0134V54.2653Z" fill="#EF2463"/>
<path opacity="0.1" d="M60.7888 54.2653H59.5742V54.622H60.7888V54.2653Z" fill="#EF2463"/>
<path opacity="0.1" d="M62.5651 54.2653H61.3506V54.622H62.5651V54.2653Z" fill="#EF2463"/>
<path opacity="0.1" d="M91.6249 56.9409H79.0098V57.5643H91.6249V56.9409Z" fill="#EF2463"/>
<path opacity="0.1" d="M81.3464 53.6419H80.1318V56.9391H81.3464V53.6419Z" fill="#EF2463"/>
<path opacity="0.1" d="M83.1208 53.6419H81.9062V56.9391H83.1208V53.6419Z" fill="#EF2463"/>
<path opacity="0.1" d="M84.8971 53.6419H83.6826V56.9391H84.8971V53.6419Z" fill="#EF2463"/>
<path opacity="0.1" d="M86.6725 53.6419H85.458V56.9391H86.6725V53.6419Z" fill="#EF2463"/>
<path opacity="0.1" d="M88.4479 53.6419H87.2334V56.9391H88.4479V53.6419Z" fill="#EF2463"/>
<path opacity="0.1" d="M90.2233 53.6419H89.0088V56.9391H90.2233V53.6419Z" fill="#EF2463"/>
<path opacity="0.1" d="M81.3464 54.2653H80.1318V54.622H81.3464V54.2653Z" fill="#EF2463"/>
<path opacity="0.1" d="M83.1208 54.2653H81.9062V54.622H83.1208V54.2653Z" fill="#EF2463"/>
<path opacity="0.1" d="M84.8971 54.2653H83.6826V54.622H84.8971V54.2653Z" fill="#EF2463"/>
<path opacity="0.1" d="M86.6725 54.2653H85.458V54.622H86.6725V54.2653Z" fill="#EF2463"/>
<path opacity="0.1" d="M88.4479 54.2653H87.2334V54.622H88.4479V54.2653Z" fill="#EF2463"/>
<path opacity="0.1" d="M90.2233 54.2653H89.0088V54.622H90.2233V54.2653Z" fill="#EF2463"/>
<path opacity="0.1" d="M81.3464 55.8707H80.1318V56.2274H81.3464V55.8707Z" fill="#EF2463"/>
<path opacity="0.1" d="M83.1208 55.8707H81.9062V56.2274H83.1208V55.8707Z" fill="#EF2463"/>
<path opacity="0.1" d="M84.8971 55.8707H83.6826V56.2274H84.8971V55.8707Z" fill="#EF2463"/>
<path opacity="0.1" d="M86.6725 55.8707H85.458V56.2274H86.6725V55.8707Z" fill="#EF2463"/>
<path opacity="0.1" d="M88.4479 55.8707H87.2334V56.2274H88.4479V55.8707Z" fill="#EF2463"/>
<path opacity="0.1" d="M90.2233 55.8707H89.0088V56.2274H90.2233V55.8707Z" fill="#EF2463"/>
<path opacity="0.1" d="M91.6249 61.4842H79.0098V62.1076H91.6249V61.4842Z" fill="#EF2463"/>
<path opacity="0.1" d="M81.3464 58.1878H80.1318V61.485H81.3464V58.1878Z" fill="#EF2463"/>
<path opacity="0.1" d="M83.1208 58.1878H81.9062V61.485H83.1208V58.1878Z" fill="#EF2463"/>
<path opacity="0.1" d="M84.8971 58.1878H83.6826V61.485H84.8971V58.1878Z" fill="#EF2463"/>
<path opacity="0.1" d="M86.6725 58.1878H85.458V61.485H86.6725V58.1878Z" fill="#EF2463"/>
<path opacity="0.1" d="M88.4479 58.1878H87.2334V61.485H88.4479V58.1878Z" fill="#EF2463"/>
<path opacity="0.1" d="M90.2233 58.1878H89.0088V61.485H90.2233V58.1878Z" fill="#EF2463"/>
<path opacity="0.1" d="M81.3464 58.8112H80.1318V59.1679H81.3464V58.8112Z" fill="#EF2463"/>
<path opacity="0.1" d="M83.1208 58.8112H81.9062V59.1679H83.1208V58.8112Z" fill="#EF2463"/>
<path opacity="0.1" d="M84.8971 58.8112H83.6826V59.1679H84.8971V58.8112Z" fill="#EF2463"/>
<path opacity="0.1" d="M86.6725 58.8112H85.458V59.1679H86.6725V58.8112Z" fill="#EF2463"/>
<path opacity="0.1" d="M88.4479 58.8112H87.2334V59.1679H88.4479V58.8112Z" fill="#EF2463"/>
<path opacity="0.1" d="M90.2233 58.8112H89.0088V59.1679H90.2233V58.8112Z" fill="#EF2463"/>
<path opacity="0.1" d="M81.3464 60.414H80.1318V60.7707H81.3464V60.414Z" fill="#EF2463"/>
<path opacity="0.1" d="M83.1208 60.414H81.9062V60.7707H83.1208V60.414Z" fill="#EF2463"/>
<path opacity="0.1" d="M84.8971 60.414H83.6826V60.7707H84.8971V60.414Z" fill="#EF2463"/>
<path opacity="0.1" d="M86.6725 60.414H85.458V60.7707H86.6725V60.414Z" fill="#EF2463"/>
<path opacity="0.1" d="M88.4479 60.414H87.2334V60.7707H88.4479V60.414Z" fill="#EF2463"/>
<path opacity="0.1" d="M90.2233 60.414H89.0088V60.7707H90.2233V60.414Z" fill="#EF2463"/>
<path opacity="0.1" d="M59.0905 62.3886C58.9964 62.2736 58.9103 62.1528 58.8328 62.027L60.6497 61.7427L58.6868 61.7567C58.4986 61.3658 58.3958 60.9423 58.3848 60.5122C58.3739 60.0821 58.4549 59.6544 58.623 59.2551L61.2545 60.5562L58.8242 58.8526C59.0503 58.4743 59.356 58.1446 59.722 57.8843C60.0881 57.624 60.5066 57.4387 60.9513 57.34C61.396 57.2413 61.8573 57.2314 62.3062 57.3108C62.7552 57.3903 63.182 57.5574 63.56 57.8016C63.938 58.0459 64.259 58.3621 64.5028 58.7303C64.7465 59.0985 64.9079 59.5108 64.9766 59.9413C65.0453 60.3719 65.02 60.8113 64.9022 61.232C64.7844 61.6527 64.5767 62.0457 64.2921 62.3862C64.44 62.5642 64.5667 62.7573 64.6699 62.9619L62.312 64.1319L64.8257 63.3281C65.0016 63.8252 65.0449 64.3562 64.9517 64.8732C64.8585 65.3902 64.6318 65.877 64.2921 66.2895C64.6772 66.7553 64.9171 67.3151 64.9843 67.9049C65.0514 68.4946 64.9431 69.0905 64.6717 69.6243C64.4003 70.158 63.9769 70.6081 63.4498 70.9231C62.9227 71.238 62.3132 71.405 61.6913 71.405C61.0693 71.405 60.4599 71.238 59.9328 70.9231C59.4057 70.6081 58.9822 70.158 58.7108 69.6243C58.4394 69.0905 58.3311 68.4946 58.3983 67.9049C58.4654 67.3151 58.7053 66.7553 59.0905 66.2895C58.6317 65.7329 58.3823 65.0453 58.3823 64.3373C58.3823 63.6292 58.6317 62.9417 59.0905 62.3851V62.3886Z" fill="#EF2463"/>
<path opacity="0.1" d="M65.0012 64.3389C65.0012 65.0462 64.7514 65.7329 64.2921 66.2882C64.6772 66.754 64.9171 67.3138 64.9843 67.9035C65.0514 68.4932 64.9431 69.0891 64.6717 69.6229C64.4003 70.1567 63.9768 70.6068 63.4497 70.9217C62.9227 71.2366 62.3132 71.4036 61.6913 71.4036C61.0693 71.4036 60.4599 71.2366 59.9328 70.9217C59.4057 70.6068 58.9822 70.1567 58.7108 69.6229C58.4394 69.0891 58.3311 68.4932 58.3983 67.9035C58.4654 67.3138 58.7053 66.754 59.0904 66.2882C58.6451 65.7535 65.0012 63.9843 65.0012 64.3389Z" fill="#EF2463"/>
<path opacity="0.2" d="M62.221 72.2417C62.2268 72.2501 62.2321 72.2586 62.237 72.2675H61.1132C61.1194 72.2593 61.1231 72.2499 61.1292 72.2417C61.0325 72.0814 60.9825 71.8993 60.9844 71.7143C60.9839 71.5875 61.0067 71.4616 61.0519 71.3423C61.1145 71.3517 61.1918 71.3622 61.2813 71.3716C61.542 71.3964 61.8046 71.3964 62.0652 71.3716C62.1405 71.3646 62.2178 71.3552 62.2971 71.3435C62.2965 71.3454 62.2965 71.3475 62.2971 71.3494C62.3418 71.4667 62.3642 71.5906 62.3633 71.7154C62.3658 71.8998 62.3167 72.0815 62.221 72.2417Z" fill="#3F3D56"/>
<path opacity="0.1" d="M58.1822 72.2679H51.9255C51.912 72.234 51.8997 72.1977 51.8887 72.1626C51.6683 71.4865 51.6938 70.7592 51.9611 70.0986C51.3503 69.6959 50.8991 69.1091 50.68 68.4324C50.4608 67.7557 50.4864 67.0285 50.7527 66.3673C50.627 66.2848 50.5076 66.1937 50.3957 66.0947L52.042 65.3119L50.17 65.8782C49.8689 65.5579 49.6397 65.1823 49.4962 64.7745C49.3528 64.3667 49.2982 63.9352 49.3357 63.5065L52.2567 64.0097L49.4081 63.0654C49.5064 62.6397 49.696 62.2379 49.965 61.8855C50.234 61.533 50.5765 61.2374 50.9711 61.0174C51.3657 60.7974 51.8038 60.6576 52.2578 60.6069C52.7118 60.5562 53.1719 60.5957 53.6091 60.7228C54.0463 60.8499 54.4512 61.062 54.7983 61.3457C55.1454 61.6294 55.4272 61.9785 55.6259 62.3711C55.8246 62.7636 55.936 63.1912 55.9531 63.6269C55.9701 64.0625 55.8924 64.4968 55.7249 64.9024C55.9225 65.0335 56.1047 65.1846 56.2684 65.3529L54.3766 67.1325L56.5297 65.6559C56.8523 66.0817 57.0586 66.5776 57.1297 67.0985C57.2008 67.6195 57.1346 68.1492 56.937 68.6396C57.5311 69.032 57.9744 69.599 58.1992 70.2541C58.4241 70.9092 58.4181 71.6164 58.1822 72.2679Z" fill="#EF2463"/>
<path opacity="0.1" d="M58.1823 72.267H51.9256C51.9121 72.2331 51.8998 72.1968 51.8888 72.1617C51.6684 71.4856 51.6939 70.7583 51.9612 70.0977C51.3723 69.7093 56.8966 66.2284 57.0058 66.5677C57.2262 67.2442 57.2007 67.9719 56.9334 68.6328C57.5295 69.0251 57.9744 69.5929 58.1999 70.2492C58.4255 70.9056 58.4193 71.6144 58.1823 72.267Z" fill="#EF2463"/>
<path opacity="0.1" d="M86.492 67.9925C86.112 68.6008 85.5281 69.0691 84.8346 69.3217C84.8642 69.5468 84.8688 69.7743 84.8481 70.0003L82.1969 69.8482L84.7867 70.3841C84.7105 70.7208 84.5771 71.0433 84.3917 71.3389C84.1659 71.7009 83.8654 72.0154 83.5084 72.2632H79.8991V72.3533H76.2188C76.2261 72.3229 76.2335 72.2937 76.2421 72.2632C76.3763 71.7791 76.6294 71.3324 76.9802 70.96C77.3311 70.5875 77.7698 70.2999 78.2601 70.1209C78.166 69.4185 78.322 68.7063 78.7031 68.0986C79.0842 67.4909 79.6683 67.0229 80.3617 66.7698C80.3422 66.6251 80.3332 66.4793 80.3347 66.3334L82.046 66.9781L80.3531 66.0292C80.403 65.6015 80.544 65.1881 80.7674 64.8143C80.9908 64.4404 81.2919 64.1141 81.6522 63.8552L83.2115 66.2632L82.0424 63.6118C82.6792 63.2757 83.4144 63.149 84.1343 63.2514C84.8542 63.3537 85.5187 63.6793 86.0252 64.1779C86.5316 64.6765 86.8517 65.3203 86.9361 66.0098C87.0205 66.6993 86.8644 67.3961 86.492 67.9925Z" fill="#EF2463"/>
<path opacity="0.1" d="M84.3917 71.3434C84.1659 71.7053 83.8654 72.0196 83.5084 72.2674H79.8991V72.3575H76.2188C76.2261 72.3271 76.2335 72.2978 76.2421 72.2674C76.3763 71.7835 76.6294 71.337 76.9802 70.9647C77.3311 70.5923 77.7698 70.3049 78.2601 70.1259C78.2295 69.892 78.9422 69.9271 79.893 70.0791C81.7565 70.3774 84.518 71.1423 84.3917 71.3434Z" fill="#EF2463"/>
<g opacity="0.1">
<path opacity="0.1" d="M77.8885 57.5158C77.8334 57.6305 77.7588 57.7356 77.6677 57.827C77.4972 57.9979 77.2702 58.1301 77.0948 58.2951C76.5697 58.7958 76.5807 59.5283 76.1624 60.0876C76.1233 60.1508 76.0614 60.1983 75.9882 60.221C75.8287 60.2608 75.6913 60.1227 75.6201 60.001C75.5391 59.8528 75.4777 59.6956 75.4373 59.533C75.4288 59.5739 75.4202 59.6149 75.4128 59.65C75.3407 60.0652 75.4136 60.4915 75.6201 60.8633C75.6876 60.9803 75.825 61.1219 75.9882 61.0833C76.0612 61.0598 76.123 61.012 76.1624 60.9487C76.5807 60.3895 76.5697 59.6617 77.0948 59.1574C77.2702 58.9889 77.4972 58.8579 77.6677 58.6894C77.7967 58.5645 77.8914 58.4111 77.9432 58.2429C77.995 58.0747 78.0023 57.8968 77.9646 57.7252C77.9457 57.6534 77.9203 57.5833 77.8885 57.5158Z" fill="black"/>
<path opacity="0.1" d="M76.7459 54.0519C76.6726 54.0855 76.6086 54.1352 76.5594 54.1969C76.5349 54.2571 76.5349 54.3238 76.5594 54.384C76.6078 54.5658 76.6697 54.744 76.7447 54.9174C76.8869 54.8265 76.9895 54.6893 77.0333 54.5315C77.0771 54.3737 77.0591 54.2061 76.9827 54.0601C76.9588 54.0119 76.93 53.9661 76.8968 53.9232C76.8532 53.9728 76.8024 54.0161 76.7459 54.0519Z" fill="black"/>
<path opacity="0.1" d="M65.9249 55.1359C65.4903 54.7945 65.204 54.3115 65.1214 53.7804C65.0994 53.8852 65.0871 53.9917 65.0846 54.0985C65.0564 54.6092 65.1976 55.1154 65.4882 55.5453C65.576 55.3623 65.7315 55.2166 65.9249 55.1359Z" fill="black"/>
<path opacity="0.1" d="M75.4172 58.7933C75.4638 58.53 75.5668 58.2504 75.427 58.0093C75.2712 57.7402 74.8737 57.6232 74.5094 57.5553C74.145 57.4875 73.7475 57.4302 73.4936 57.2137C73.3669 57.0897 73.2632 56.9461 73.1869 56.789C73.0139 56.4976 72.7734 56.2039 72.398 56.0799C71.8006 55.8798 71.1075 56.1665 70.4695 56.067C70.2855 56.0378 70.1113 55.9769 69.926 55.95C69.6139 55.9065 69.2953 55.9354 68.9974 56.0343C68.1251 56.3081 67.5571 56.9984 67.297 57.711C67.0369 58.4235 67.0308 59.1759 66.9486 59.9153C66.9278 60.0955 66.8026 60.3366 66.5806 60.2921C66.5573 60.0031 66.529 59.7071 66.3426 59.4532C66.2398 59.3179 66.0968 59.215 65.9322 59.1579C65.7676 59.1007 65.5887 59.0919 65.4188 59.1326C65.3157 59.1106 65.2241 59.0547 65.1599 58.9746C65.1734 59.0819 65.1734 59.1903 65.1599 59.2976C65.1255 59.4281 65.1066 59.562 65.1035 59.6965C65.1193 59.7714 65.1583 59.8401 65.2153 59.8937C65.2724 59.9473 65.345 59.9833 65.4237 59.9973C65.5938 59.9567 65.7727 59.9657 65.9373 60.023C66.102 60.0804 66.2448 60.1835 66.3475 60.319C66.534 60.5682 66.5622 60.8689 66.5855 61.1568C66.8075 61.2012 66.9327 60.9614 66.9535 60.78C67.0357 60.0417 67.0419 59.2894 67.3019 58.5756C67.562 57.8619 68.13 57.1716 69.0023 56.8989C69.3003 56.8005 69.6188 56.7716 69.931 56.8147C70.1162 56.844 70.2904 56.906 70.4744 56.9317C71.1124 57.0323 71.8055 56.7445 72.4029 56.9446C72.7783 57.0709 73.0163 57.3623 73.1918 57.6536C73.2681 57.8107 73.3718 57.9543 73.4985 58.0784C73.7524 58.296 74.1499 58.3522 74.5143 58.42C74.8786 58.4879 75.2503 58.5979 75.4135 58.8459C75.4074 58.8284 75.4135 58.8108 75.4172 58.7933Z" fill="black"/>
<path opacity="0.1" d="M65.155 58.4322C65.1752 58.2143 65.1615 57.9948 65.1145 57.7808C65.0785 58.0068 65.0707 58.236 65.0912 58.4638C65.0912 58.5223 65.1047 58.5807 65.1133 58.6381C65.1268 58.569 65.1452 58.5012 65.155 58.4322Z" fill="black"/>
</g>
<path d="M59.1514 77.0776V74.9666C59.1514 74.9508 59.158 74.9356 59.1697 74.9244C59.1814 74.9132 59.1973 74.9069 59.2139 74.9069H59.4654C59.482 74.9069 59.4979 74.9132 59.5097 74.9244C59.5214 74.9356 59.528 74.9508 59.528 74.9666V75.8449L60.5487 74.9432C60.5727 74.9241 60.6018 74.9119 60.6328 74.9078C60.6637 74.9037 60.6953 74.908 60.7238 74.9202C60.7523 74.9324 60.7766 74.952 60.794 74.9767C60.8115 75.0015 60.8212 75.0304 60.8223 75.0601V76.9724C60.8212 77.0022 60.8115 77.0311 60.794 77.0558C60.7766 77.0805 60.7523 77.1001 60.7238 77.1123C60.6953 77.1245 60.6637 77.1288 60.6328 77.1247C60.6018 77.1207 60.5727 77.1084 60.5487 77.0893L59.528 76.1935V77.0671C59.528 77.0829 59.5214 77.0981 59.5097 77.1093C59.4979 77.1205 59.482 77.1268 59.4654 77.1268H59.2139C59.1991 77.127 59.1846 77.1222 59.1732 77.1132C59.1617 77.1042 59.154 77.0916 59.1514 77.0776Z" fill="#444053"/>
<path d="M83.8137 74.968V77.079C83.8137 77.0869 83.812 77.0948 83.8088 77.1021C83.8056 77.1094 83.8009 77.116 83.7949 77.1216C83.789 77.1272 83.782 77.1315 83.7742 77.1345C83.7665 77.1374 83.7582 77.1388 83.7499 77.1386H83.5045C83.488 77.1386 83.472 77.1324 83.4603 77.1212C83.4486 77.11 83.442 77.0948 83.442 77.079V76.2007L82.4213 77.1012C82.3972 77.1202 82.368 77.1323 82.337 77.1363C82.306 77.1403 82.2744 77.136 82.2459 77.1239C82.2173 77.1117 82.1929 77.0922 82.1753 77.0676C82.1578 77.0429 82.1478 77.014 82.1465 76.9843V75.065C82.1478 75.0352 82.1578 75.0064 82.1753 74.9817C82.1929 74.9571 82.2173 74.9376 82.2459 74.9254C82.2744 74.9133 82.306 74.9089 82.337 74.9129C82.368 74.917 82.3972 74.9291 82.4213 74.9481L83.442 75.8439V74.9715C83.442 74.9556 83.4486 74.9405 83.4603 74.9293C83.472 74.9181 83.488 74.9118 83.5045 74.9118H83.7499C83.7661 74.9115 83.7818 74.9171 83.7937 74.9276C83.8056 74.9381 83.8127 74.9525 83.8137 74.968Z" fill="#444053"/>
<path d="M71.065 77.1683H70.5657C70.5006 77.1683 70.4382 77.1436 70.3922 77.0998C70.3462 77.0559 70.3203 76.9964 70.3203 76.9344V75.187C70.3203 75.1249 70.3462 75.0654 70.3922 75.0216C70.4382 74.9777 70.5006 74.9531 70.5657 74.9531H71.065C71.13 74.9531 71.1925 74.9777 71.2385 75.0216C71.2845 75.0654 71.3103 75.1249 71.3103 75.187V76.9344C71.3103 76.9964 71.2845 77.0559 71.2385 77.0998C71.1925 77.1436 71.13 77.1683 71.065 77.1683ZM72.6475 76.9344V75.187C72.6475 75.1249 72.6217 75.0654 72.5757 75.0216C72.5297 74.9777 72.4673 74.9531 72.4022 74.9531H71.898C71.8329 74.9531 71.7705 74.9777 71.7245 75.0216C71.6785 75.0654 71.6526 75.1249 71.6526 75.187V76.9344C71.6526 76.9964 71.6785 77.0559 71.7245 77.0998C71.7705 77.1436 71.8329 77.1683 71.898 77.1683H72.3973C72.4299 77.1689 72.4623 77.1633 72.4927 77.1518C72.523 77.1403 72.5507 77.1232 72.574 77.1014C72.5973 77.0796 72.6158 77.0537 72.6284 77.025C72.641 76.9963 72.6476 76.9655 72.6475 76.9344Z" fill="#444053"/>
<path opacity="0.6" d="M86.2029 72.119H56.7598V72.4313H86.2029V72.119Z" fill="#444053"/>
<path d="M65.8518 73.0152C66.2806 73.0152 66.6283 72.6838 66.6283 72.2749C66.6283 71.866 66.2806 71.5345 65.8518 71.5345C65.4229 71.5345 65.0752 71.866 65.0752 72.2749C65.0752 72.6838 65.4229 73.0152 65.8518 73.0152Z" fill="#444053"/>
<path d="M65.8515 72.119H56.7598V72.4313H65.8515V72.119Z" fill="#444053"/>
<path d="M131.359 107.381C135.389 107.381 138.655 106.782 138.655 106.043C138.655 105.303 135.389 104.704 131.359 104.704C127.33 104.704 124.063 105.303 124.063 106.043C124.063 106.782 127.33 107.381 131.359 107.381Z" fill="white" fill-opacity="0.2"/>
<path d="M131.238 106.532C131.706 106.532 132.087 106.058 132.087 105.473C132.087 104.888 131.706 104.413 131.238 104.413C130.769 104.413 130.389 104.888 130.389 105.473C130.389 106.058 130.769 106.532 131.238 106.532Z" fill="#3F3D56"/>
<path d="M131.238 105.236C131.706 105.236 132.087 104.762 132.087 104.176C132.087 103.591 131.706 103.117 131.238 103.117C130.769 103.117 130.389 103.591 130.389 104.176C130.389 104.762 130.769 105.236 131.238 105.236Z" fill="#3F3D56"/>
<path d="M131.238 103.943C131.706 103.943 132.087 103.468 132.087 102.883C132.087 102.298 131.706 101.823 131.238 101.823C130.769 101.823 130.389 102.298 130.389 102.883C130.389 103.468 130.769 103.943 131.238 103.943Z" fill="#3F3D56"/>
<path d="M131.238 102.646C131.706 102.646 132.087 102.172 132.087 101.587C132.087 101.001 131.706 100.527 131.238 100.527C130.769 100.527 130.389 101.001 130.389 101.587C130.389 102.172 130.769 102.646 131.238 102.646Z" fill="#3F3D56"/>
<path d="M131.238 101.35C131.706 101.35 132.087 100.876 132.087 100.29C132.087 99.7052 131.706 99.2308 131.238 99.2308C130.769 99.2308 130.389 99.7052 130.389 100.29C130.389 100.876 130.769 101.35 131.238 101.35Z" fill="#3F3D56"/>
<path d="M131.238 100.051C131.706 100.051 132.087 99.5768 132.087 98.9916C132.087 98.4064 131.706 97.9319 131.238 97.9319C130.769 97.9319 130.389 98.4064 130.389 98.9916C130.389 99.5768 130.769 100.051 131.238 100.051Z" fill="#3F3D56"/>
<path d="M131.238 98.7549C131.706 98.7549 132.087 98.2805 132.087 97.6953C132.087 97.1101 131.706 96.6357 131.238 96.6357C130.769 96.6357 130.389 97.1101 130.389 97.6953C130.389 98.2805 130.769 98.7549 131.238 98.7549Z" fill="#3F3D56"/>
<path d="M134.416 88.8272C134.532 88.6859 134.638 88.5374 134.733 88.3826L132.5 88.0316L134.914 88.0491C135.145 87.5685 135.271 87.0479 135.285 86.5192C135.298 85.9906 135.198 85.4649 134.991 84.9742L131.755 86.5772L134.741 84.4839C134.461 84.0226 134.085 83.6212 133.636 83.3047C133.186 82.9882 132.673 82.7634 132.128 82.6442C131.584 82.5251 131.019 82.5142 130.47 82.6123C129.921 82.7103 129.399 82.9152 128.936 83.2142C128.473 83.5131 128.08 83.8997 127.781 84.3499C127.482 84.8001 127.284 85.3042 127.198 85.8308C127.112 86.3573 127.141 86.8952 127.282 87.4107C127.424 87.9262 127.675 88.4084 128.021 88.8272C127.841 89.0451 127.685 89.2804 127.557 89.5292L130.455 90.9649L127.366 89.9762C127.149 90.5876 127.095 91.2409 127.21 91.8771C127.324 92.5133 127.603 93.1122 128.021 93.6198C127.549 94.1921 127.256 94.8795 127.174 95.6034C127.093 96.3273 127.226 97.0584 127.56 97.7132C127.894 98.368 128.414 98.9201 129.061 99.3063C129.708 99.6926 130.456 99.8974 131.219 99.8974C131.982 99.8974 132.73 99.6926 133.377 99.3063C134.024 98.9201 134.544 98.368 134.878 97.7132C135.212 97.0584 135.345 96.3273 135.264 95.6034C135.182 94.8795 134.889 94.1921 134.417 93.6198C134.981 92.9358 135.287 92.0911 135.287 91.2211C135.287 90.3512 134.981 89.5065 134.417 88.8225L134.416 88.8272Z" fill="#EF2463"/>
<path opacity="0.1" d="M127.151 91.2273C127.15 92.0975 127.456 92.9427 128.021 93.6259C127.549 94.1983 127.256 94.8857 127.175 95.6096C127.093 96.3334 127.227 97.0646 127.56 97.7194C127.894 98.3742 128.414 98.9263 129.061 99.3125C129.708 99.6988 130.456 99.9036 131.219 99.9036C131.983 99.9036 132.731 99.6988 133.378 99.3125C134.025 98.9263 134.545 98.3742 134.878 97.7194C135.212 97.0646 135.346 96.3334 135.264 95.6096C135.183 94.8857 134.889 94.1983 134.418 93.6259C134.962 92.9672 127.151 90.7921 127.151 91.2273Z" fill="black"/>
<path d="M49.5213 114.588C56.2289 114.588 61.6666 113.487 61.6666 112.13C61.6666 110.773 56.2289 109.673 49.5213 109.673C42.8136 109.673 37.376 110.773 37.376 112.13C37.376 113.487 42.8136 114.588 49.5213 114.588Z" fill="white" fill-opacity="0.2"/>
<path d="M53.5881 111.843C53.3427 111.757 53.0802 111.772 52.8238 111.745C52.2914 111.686 51.7957 111.457 51.4178 111.094C51.1749 110.86 50.9838 110.581 50.856 110.275C50.9369 110.303 51.0179 110.332 51.1013 110.364C50.856 109.818 51.1136 109.204 51.3393 108.652C51.7221 107.716 52.084 106.775 52.4251 105.829C53.2838 103.431 54.0199 100.938 54.0039 98.3872C54.0039 97.4652 53.826 96.5935 53.7917 95.6727C53.7659 94.9894 53.8763 94.3072 53.8714 93.6228C53.8714 93.5268 53.8714 93.432 53.8641 93.3361C54.0835 93.1529 54.256 92.924 54.3681 92.6672C54.4801 92.4104 54.5289 92.1324 54.5106 91.8548C54.4981 91.7101 54.4764 91.5664 54.4456 91.4242C54.4021 91.1773 54.3448 90.9328 54.2738 90.6918C54.1929 90.4379 54.0825 90.1945 53.988 89.9464C53.8052 89.4655 53.6813 88.9648 53.5255 88.4757C53.5832 88.4813 53.6396 88.4959 53.6923 88.519C53.653 88.475 53.626 88.4223 53.6138 88.3657C53.5222 88.0543 53.4727 87.7331 53.4666 87.4098L53.5709 87.3653C53.6178 87.0496 53.6008 86.7282 53.5206 86.4187C53.5795 85.9168 53.6715 85.4113 53.7279 84.9117C53.7488 84.7245 53.7402 84.4893 53.5598 84.4437C53.523 84.1757 53.5083 83.9043 53.4936 83.634C53.4421 82.6909 53.3909 81.7482 53.3402 80.8059C53.2887 79.8594 53.2372 78.914 53.2176 77.9662C53.2041 77.3648 53.1967 76.7423 53.047 76.1667C53.0729 75.8908 53.0433 75.6129 52.9599 75.3476C52.7317 74.6585 52.0227 74.112 51.3038 74.1507C51.0894 73.8581 50.8243 73.6025 50.5198 73.3948C50.6634 73.0882 50.8351 72.7723 50.9762 72.5243C52.1269 72.1674 52.9685 71.0851 52.9685 69.798C52.9702 69.3269 52.8546 68.8621 52.6312 68.4419C52.6523 68.3903 52.6703 68.3376 52.6851 68.284C52.7467 68.0313 52.7275 67.7668 52.6299 67.5246C52.5954 67.4316 52.5544 67.3409 52.5072 67.2532C52.4753 67.1947 52.441 67.1362 52.4054 67.08L52.3429 66.9899C52.3048 66.9349 52.2656 66.8823 52.2202 66.8308C52.133 66.7192 52.0397 66.6122 51.9405 66.5102C51.8183 66.3841 51.6835 66.2697 51.5381 66.1685C51.3408 66.0287 51.1152 65.9295 50.8756 65.8772C50.7371 65.8511 50.596 65.8389 50.4548 65.8409C50.3702 65.8409 50.2843 65.8409 50.1996 65.8479C50.0279 65.8573 49.8574 65.869 49.6868 65.8678C49.6304 65.8678 49.5727 65.8678 49.5163 65.8596C49.2161 65.8215 48.9193 65.7624 48.6281 65.6829L48.4809 65.6537C48.4306 65.6443 48.3815 65.6361 48.3312 65.6303C48.1966 65.6131 48.0609 65.6053 47.9252 65.6069H47.789C47.653 65.6131 47.5174 65.6264 47.3829 65.6467L47.248 65.6666C46.9072 65.7175 46.5751 65.8115 46.2604 65.9462C46.2199 65.9638 46.1782 65.9836 46.1377 66.0047L46.1132 66.0176C46.0801 66.034 46.0469 66.0515 46.015 66.0702L45.9966 66.0808L45.8924 66.1439L45.8838 66.1498C44.9097 66.7746 44.3343 67.9587 44.1883 69.1334C44.0252 70.4521 44.311 71.7813 44.5969 73.0789L44.8545 74.2489C44.8655 74.3016 44.8778 74.3531 44.8888 74.4057C44.5266 74.6892 44.248 75.0578 44.0804 75.4752C43.835 76.0602 43.8289 76.6932 43.8485 77.3274C43.8485 77.4561 43.8559 77.5848 43.8694 77.7135C43.8387 77.9569 43.8117 78.2014 43.7945 78.4471C43.7172 79.5821 43.862 80.7229 43.824 81.8602C43.7945 82.7365 43.6559 83.6153 43.7234 84.4858C43.7823 85.258 43.9994 86.0069 44.2141 86.7522L44.5233 87.8146C44.5333 87.8696 44.5602 87.9205 44.6005 87.9608C44.6513 87.9934 44.7134 88.0055 44.7735 87.9948C44.5724 88.4305 44.4043 88.8794 44.2705 89.338C44.1781 89.6189 44.1172 89.9084 44.089 90.2015C44.0485 90.7374 44.1785 91.2698 44.3086 91.7904C44.5049 92.5705 44.7003 93.3536 44.895 94.1399C45.0324 94.6898 45.1694 95.2394 45.306 95.7885C45.5758 96.872 45.847 97.9625 45.8973 99.0776C45.9253 99.6376 45.8841 100.199 45.7746 100.75C45.4207 102.399 45.3692 104.095 45.6225 105.761C45.8272 107.167 46.1593 108.553 46.6149 109.904C46.7143 109.854 46.8149 109.807 46.918 109.764L46.875 109.84C46.7335 110.074 46.6027 110.314 46.4824 110.559C46.4014 110.719 46.3313 110.884 46.2727 111.052C46.1156 111.52 46.0911 112.018 46.069 112.511C46.0578 112.606 46.0665 112.702 46.0948 112.793C46.1623 112.97 46.3561 113.06 46.5364 113.109C47.0664 113.253 47.6172 113.201 48.1681 113.133C48.1706 113.145 48.1743 113.156 48.1791 113.167C48.2466 113.344 48.4392 113.434 48.6208 113.483C49.3789 113.689 50.1788 113.495 50.9603 113.425C51.7417 113.355 52.5097 113.406 53.2617 113.234C53.3738 113.211 53.4814 113.172 53.5807 113.117C53.774 112.988 53.9159 112.8 53.9831 112.585C54.0066 112.529 54.0223 112.47 54.0297 112.41C54.0604 112.154 53.831 111.928 53.5881 111.843ZM50.9934 101.007C50.9511 101.281 50.8685 101.548 50.748 101.8C50.1579 102.997 49.7347 104.263 49.4893 105.564C49.3283 106.424 49.2352 107.295 49.2108 108.168C49.1986 108.811 49.2243 109.485 48.9434 110.063L49.0452 110.048C49.0133 110.104 48.9827 110.165 48.9532 110.209L48.9385 110.235C48.7686 109.959 48.6549 109.655 48.6036 109.339C48.6036 109.328 48.5484 109.32 48.4637 109.316C48.1169 107.467 47.9967 105.587 48.1055 103.712C48.1072 103.485 48.1402 103.259 48.2036 103.039C48.2662 102.851 48.3717 102.679 48.449 102.496C48.5716 102.19 48.654 101.87 48.6944 101.544C48.828 100.711 48.8797 99.8682 48.8489 99.0261C48.8195 98.2316 49.0121 97.4418 49.1765 96.6509C49.255 96.2753 49.3274 95.8985 49.3666 95.5218L49.374 95.4457C50.1039 96.5942 50.614 97.8572 50.8805 99.1759C51.0287 99.7754 51.0669 100.395 50.9934 101.007ZM45.7427 84.0973L45.7819 84.1301C45.9005 84.2296 46.0097 84.3388 46.1083 84.4565C46.1573 84.5078 46.1927 84.5696 46.2113 84.6367C46.2481 84.8075 46.0997 84.9526 45.9782 85.0778C45.9255 85.1321 45.8759 85.1891 45.8298 85.2487C45.8036 84.8649 45.7758 84.4811 45.7464 84.0973H45.7427Z" fill="url(#paint0_linear)"/>
<path d="M44.0454 76.7636L43.9104 77.757C43.865 78.094 43.8196 78.4298 43.7951 78.7679C43.7129 79.8935 43.865 81.0238 43.8258 82.1517C43.7939 83.0199 43.6491 83.8869 43.7191 84.7539C43.7816 85.5191 44.0098 86.2633 44.238 87.0004L44.5619 88.0535C44.5729 88.1085 44.6012 88.1591 44.6428 88.1986C44.7052 88.2338 44.7794 88.2451 44.8502 88.2302L46.288 88.1061C46.196 87.7036 46.0941 87.2871 46.0426 86.8741C46.0034 86.5511 45.98 86.2259 45.9555 85.9006C45.8794 84.8873 45.7923 83.874 45.7101 82.8584L45.5568 81.0799C45.4918 80.3077 45.4243 79.532 45.2207 78.782C45.0163 78.0244 44.6117 77.3295 44.0454 76.7636Z" fill="#EF2463"/>
<path opacity="0.1" d="M44.0454 76.7636L43.9104 77.757C43.865 78.094 43.8196 78.4298 43.7951 78.7679C43.7129 79.8935 43.865 81.0238 43.8258 82.1517C43.7939 83.0199 43.6491 83.8869 43.7191 84.7539C43.7816 85.5191 44.0098 86.2633 44.238 87.0004L44.5619 88.0535C44.5729 88.1085 44.6012 88.1591 44.6428 88.1986C44.7052 88.2338 44.7794 88.2451 44.8502 88.2302L46.288 88.1061C46.196 87.7036 46.0941 87.2871 46.0426 86.8741C46.0034 86.5511 45.98 86.2259 45.9555 85.9006C45.8794 84.8873 45.7923 83.874 45.7101 82.8584L45.5568 81.0799C45.4918 80.3077 45.4243 79.532 45.2207 78.782C45.0163 78.0244 44.6117 77.3295 44.0454 76.7636Z" fill="black"/>
<path d="M46.6067 110.581C46.5223 110.739 46.4485 110.902 46.3858 111.07C46.2215 111.532 46.1969 112.028 46.1724 112.516C46.1615 112.61 46.1707 112.705 46.1994 112.796C46.2705 112.971 46.4742 113.06 46.6643 113.108C47.4605 113.313 48.2996 113.121 49.1179 113.051C49.9362 112.98 50.7446 113.032 51.5347 112.862C51.6514 112.841 51.7642 112.803 51.8696 112.751C52.0697 112.627 52.219 112.441 52.2929 112.225C52.3167 112.169 52.3327 112.111 52.3407 112.051C52.3665 111.794 52.1322 111.572 51.877 111.487C51.6218 111.403 51.3433 111.416 51.0747 111.39C50.5213 111.336 50.0021 111.11 49.5975 110.746C49.193 110.382 48.9256 109.9 48.837 109.377C48.8272 109.321 47.5071 109.354 47.3648 109.427C47.2029 109.512 47.1047 109.724 47.0127 109.868C46.868 110.1 46.7326 110.337 46.6067 110.581Z" fill="#A26565"/>
<path opacity="0.1" d="M46.6067 110.581C46.5223 110.739 46.4485 110.902 46.3858 111.07C46.2215 111.532 46.1969 112.028 46.1724 112.516C46.1615 112.61 46.1707 112.705 46.1994 112.796C46.2705 112.971 46.4742 113.06 46.6643 113.108C47.4605 113.313 48.2996 113.121 49.1179 113.051C49.9362 112.98 50.7446 113.032 51.5347 112.862C51.6514 112.841 51.7642 112.803 51.8696 112.751C52.0697 112.627 52.219 112.441 52.2929 112.225C52.3167 112.169 52.3327 112.111 52.3407 112.051C52.3665 111.794 52.1322 111.572 51.877 111.487C51.6218 111.403 51.3433 111.416 51.0747 111.39C50.5213 111.336 50.0021 111.11 49.5975 110.746C49.193 110.382 48.9256 109.9 48.837 109.377C48.8272 109.321 47.5071 109.354 47.3648 109.427C47.2029 109.512 47.1047 109.724 47.0127 109.868C46.868 110.1 46.7326 110.337 46.6067 110.581Z" fill="black"/>
<path d="M48.7965 110.953C48.7115 111.111 48.6378 111.274 48.5757 111.441C48.41 111.909 48.3855 112.399 48.3622 112.887C48.3508 112.981 48.3599 113.076 48.3892 113.167C48.4591 113.342 48.6628 113.431 48.8529 113.48C49.6491 113.684 50.4895 113.492 51.3065 113.422C52.1236 113.352 52.9345 113.403 53.7233 113.234C53.8405 113.211 53.9534 113.172 54.0582 113.117C54.2585 112.993 54.408 112.807 54.4815 112.59C54.5053 112.535 54.5213 112.476 54.5293 112.417C54.5551 112.161 54.3208 111.937 54.0656 111.853C53.8104 111.769 53.5319 111.783 53.2633 111.756C52.7102 111.702 52.1912 111.475 51.7867 111.111C51.3822 110.748 51.1147 110.267 51.0256 109.743C51.0158 109.687 49.6957 109.72 49.5534 109.792C49.3902 109.878 49.2921 110.09 49.2001 110.234C49.0602 110.471 48.9228 110.71 48.7965 110.953Z" fill="#A26565"/>
<path d="M54.5048 98.5234C54.522 101.052 53.7515 103.523 52.8474 105.895C52.4892 106.835 52.1093 107.768 51.7077 108.692C51.4697 109.24 51.201 109.848 51.4562 110.389C50.7201 110.122 49.9718 109.965 49.1977 110.088C49.4921 109.515 49.4639 108.848 49.4774 108.216C49.5024 107.35 49.5992 106.488 49.7669 105.636C50.0267 104.34 50.4721 103.085 51.0906 101.905C51.2156 101.656 51.302 101.391 51.347 101.119C51.4476 100.517 51.3691 99.8994 51.2378 99.3038C50.9554 97.9884 50.4188 96.7345 49.6553 95.6064L49.6479 95.6813C49.6021 96.0576 49.5357 96.4313 49.4492 96.801C49.2762 97.5838 49.0738 98.3678 49.1044 99.1552C49.1364 99.9902 49.0822 100.826 48.9425 101.651C48.8975 101.975 48.8089 102.292 48.6787 102.594C48.5941 102.775 48.4837 102.945 48.4174 103.133C48.3511 103.35 48.3164 103.575 48.3144 103.8C48.2162 105.704 48.3144 107.637 48.7217 109.503C48.0383 109.452 47.355 109.64 46.7441 109.933C46.2664 108.597 45.9173 107.222 45.7013 105.826C45.4351 104.174 45.4892 102.49 45.8608 100.858C45.9766 100.313 46.0199 99.7569 45.9896 99.202C45.9368 98.0963 45.6522 97.0152 45.3688 95.941L44.937 94.303C44.7325 93.5229 44.5281 92.7464 44.3236 91.9734C44.1874 91.4574 44.05 90.9297 44.093 90.3985C44.1229 90.107 44.1871 89.8198 44.2843 89.542C44.5906 88.5973 45.0488 87.7037 45.6424 86.893C48.0064 87.0193 50.3987 86.8087 52.7578 86.6356C52.8722 86.614 52.9909 86.6332 53.0915 86.6894C53.1719 86.7673 53.2199 86.8704 53.2265 86.9796L54.1134 91.7768C54.2571 92.4436 54.3412 93.1207 54.3649 93.801C54.3649 94.4796 54.2545 95.1559 54.2815 95.8334C54.3183 96.7461 54.4999 97.6096 54.5048 98.5234Z" fill="#454B69"/>
<path opacity="0.1" d="M49.6504 95.6815C49.6046 96.0578 49.5382 96.4315 49.4517 96.8012C48.9376 95.9529 48.3831 95.1257 47.9096 94.2563C47.7869 94.0329 47.6716 93.8059 47.555 93.5789L47.2054 92.9002C47.1404 92.7727 47.0754 92.6452 47.0165 92.5153C46.9206 92.3287 46.8469 92.1325 46.7969 91.9303C46.9686 91.8998 47.3931 92.3421 47.5207 92.458C47.7809 92.7037 48.0267 92.9631 48.2568 93.2349C48.5362 93.537 48.7929 93.8576 49.0247 94.1943C49.3216 94.6519 49.5333 95.1551 49.6504 95.6815Z" fill="black"/>
<path d="M51.6191 72.4088C51.6191 72.4088 50.3064 74.4037 50.5493 74.8215C50.7922 75.2392 46.415 74.4506 46.415 74.4506C46.415 74.4506 48.7987 72.4556 48.5546 71.6202C48.3104 70.7848 51.6191 72.4088 51.6191 72.4088Z" fill="#EFB7B9"/>
<path d="M50.452 73.013C52.091 73.013 53.4196 71.7458 53.4196 70.1827C53.4196 68.6195 52.091 67.3523 50.452 67.3523C48.813 67.3523 47.4844 68.6195 47.4844 70.1827C47.4844 71.7458 48.813 73.013 50.452 73.013Z" fill="#EFB7B9"/>
<path d="M51.6635 74.4991C51.3457 74.0786 50.9146 73.7479 50.4158 73.542C50.1284 73.4438 49.8312 73.374 49.5288 73.3337L48.345 73.1348C48.0555 73.0857 47.7451 73.04 47.4752 73.1535C47.3387 73.2203 47.2144 73.3076 47.1071 73.4121C46.6962 73.776 46.2975 74.175 45.781 74.3856C45.6399 74.4429 45.4927 74.485 45.3516 74.5424C44.7738 74.7764 44.3419 75.2748 44.0978 75.8294C43.8402 76.4074 43.8328 77.0358 43.8525 77.6641C43.8521 77.881 43.8747 78.0974 43.9199 78.31C43.979 78.5124 44.054 78.7104 44.1444 78.902C44.3075 79.3122 44.4444 79.7315 44.5542 80.1575C44.8609 81.2768 45.1161 82.4079 45.3197 83.5506C45.337 83.7143 45.3874 83.8733 45.4681 84.0187C45.5825 84.1642 45.7209 84.291 45.8779 84.3943C46.0024 84.4918 46.117 84.6003 46.2202 84.7184C46.2716 84.7666 46.3099 84.826 46.3318 84.8915C46.3698 85.06 46.2091 85.2051 46.0865 85.328C45.8224 85.5849 45.6316 85.9018 45.5319 86.2488C45.4704 86.32 45.4389 86.4105 45.4436 86.5027C45.4692 86.5668 45.4788 86.6357 45.4718 86.704C45.4477 86.7661 45.4096 86.8224 45.3602 86.8689C45.3036 86.9393 45.2634 87.0203 45.2422 87.1067C45.2211 87.1931 45.2194 87.2827 45.2375 87.3697C46.1571 87.7508 47.1412 87.9704 48.1426 88.0179C48.3879 88.0296 48.6333 88.0296 48.8786 88.0577C49.0528 88.0788 49.2246 88.1127 49.3988 88.1326C49.6516 88.1552 49.9057 88.1615 50.1594 88.1513C51.4807 88.1256 52.84 88.094 54.0533 87.5944C54.1674 87.0011 53.9208 86.3962 53.7662 85.8112C53.5208 84.8752 53.4595 83.9169 53.2755 82.9726C53.1528 82.3279 52.9688 81.6926 52.8645 81.0432C52.7602 80.3938 52.7418 79.7211 52.9234 79.0892C53.089 78.5299 53.1393 77.9589 53.3111 77.4008C53.4828 76.8427 53.603 76.2378 53.4092 75.6855C53.1638 75.0022 52.4192 74.4605 51.6635 74.4991Z" fill="#EF2463"/>
<path d="M53.1211 68.6809C53.2658 68.1789 52.9812 67.6559 52.6426 67.2475C52.2746 66.8088 51.8059 66.4133 51.2306 66.3033C50.7632 66.2132 50.2786 66.322 49.8026 66.2857C49.3818 66.2542 48.9769 66.1091 48.5586 66.0517C48.179 66.0127 47.7955 66.0265 47.4201 66.0927C47.0639 66.1432 46.7156 66.236 46.3835 66.3688C45.1199 66.9035 44.3801 68.221 44.2084 69.528C44.0366 70.8349 44.3372 72.1524 44.6365 73.4383L44.9076 74.6013C45.1898 75.8123 45.472 77.028 45.5468 78.266C45.6216 79.5039 45.4818 80.7746 44.9481 81.9048C46.674 81.0207 48.0112 79.5768 48.7181 77.8342C48.9095 77.3557 49.0518 76.8584 49.2652 76.388C49.448 75.9832 49.6823 75.5994 49.8443 75.1864C50.0273 74.7202 50.1152 74.225 50.1031 73.7273C50.0933 73.3529 50.0283 72.9808 50.0393 72.6064C50.0504 72.232 50.151 71.8423 50.4221 71.5709C50.6675 71.331 51.0048 71.2199 51.3152 71.0643C51.8038 70.8249 52.2308 70.4852 52.5653 70.0697C52.7604 69.8263 52.7714 69.7187 52.8205 69.4426C52.8696 69.1664 53.045 68.9465 53.1211 68.6809Z" fill="#A26565"/>
<path d="M53.1242 89.9409C53.1549 90.2322 53.0997 90.5259 53.1659 90.8149C53.2162 91.0302 53.3328 91.2244 53.4015 91.435C53.4694 91.6782 53.5045 91.9287 53.5057 92.1804C53.5156 92.391 53.4984 92.6484 53.3021 92.7467C53.2162 92.79 53.1132 92.79 53.0236 92.8274C52.934 92.8648 52.858 92.9666 52.9095 93.0462C52.961 93.1258 53.0494 93.1129 53.1303 93.1281C53.2113 93.1433 53.2984 93.2229 53.253 93.2872C53.2345 93.3083 53.2097 93.3234 53.1819 93.3305C53.1 93.3546 53.0222 93.3901 52.9512 93.4358C52.9165 93.4599 52.8894 93.4926 52.8727 93.5303C52.8561 93.5681 52.8506 93.6094 52.8568 93.65C52.8617 93.6693 52.8712 93.6874 52.8845 93.7028C52.8978 93.7182 52.9146 93.7305 52.9336 93.7388C52.9526 93.7471 52.9733 93.7513 52.9942 93.7509C53.0151 93.7505 53.0356 93.7456 53.0543 93.7365C53.0183 93.8099 52.9986 93.8896 52.9966 93.9706C53.3107 94.0993 53.6628 93.9308 53.9572 93.7681C54.0845 93.7004 54.2074 93.6254 54.3252 93.5435C54.5634 93.3691 54.7532 93.1417 54.8781 92.8813C55.003 92.6209 55.0591 92.3352 55.0417 92.0493C55.0277 91.9057 55.0043 91.7631 54.9718 91.6222C54.9265 91.3769 54.8663 91.1343 54.7914 90.8956C54.7068 90.6441 54.5915 90.4042 54.4921 90.1573C54.2811 89.632 54.1449 89.082 53.9535 88.5497C53.9407 88.4945 53.9082 88.4452 53.8615 88.4104C53.8193 88.3906 53.7722 88.3821 53.7253 88.3859C53.5106 88.3751 53.2953 88.394 53.0862 88.442C52.9635 88.4771 52.7537 88.559 52.696 88.676C52.6384 88.793 52.7304 88.8913 52.7856 88.9884C52.9619 89.2821 53.0769 89.6055 53.1242 89.9409Z" fill="#EFB7B9"/>
<path opacity="0.1" d="M52.9245 75.7245C52.9875 75.7861 53.0404 75.8563 53.0815 75.9328C53.5035 76.6641 53.5085 77.5381 53.5281 78.3724C53.5502 79.3084 53.6041 80.2445 53.6581 81.1864L53.8188 83.9945C53.8348 84.2625 53.8495 84.5304 53.89 84.796C54.0789 84.8416 54.0863 85.0757 54.0654 85.264C53.9293 86.4084 53.5919 87.5866 53.9427 88.6876C53.9563 88.7441 53.9845 88.7964 54.0249 88.8397C53.8468 88.7865 53.6562 88.784 53.4766 88.8327C53.3011 88.8678 53.1318 88.9298 52.9552 88.9684C52.7319 89.0164 52.4792 89.0375 52.3271 89.2025C52.1546 88.7079 52.0173 88.2029 51.9161 87.6907C51.8327 87.2227 51.8093 86.7407 51.6106 86.3077C51.5309 86.1334 51.4229 85.9719 51.3248 85.8046C50.8107 84.9294 50.558 83.9407 50.3114 82.9649C50.2008 82.5023 50.1742 82.025 50.2329 81.5538C50.2686 81.3389 50.2891 81.1219 50.2943 80.9044C50.2793 80.6748 50.2478 80.4465 50.1998 80.2211C50.0956 79.5595 50.1446 78.8841 50.3433 78.2425C50.5273 77.647 50.6893 77.0198 51.0794 76.519C51.4695 76.0182 52.2731 75.7327 52.9245 75.7245Z" fill="black"/>
<path d="M53.0715 75.631C53.1345 75.693 53.1874 75.7636 53.2285 75.8405C53.6505 76.5706 53.6554 77.4458 53.6751 78.28C53.6971 79.2161 53.7511 80.1521 53.8051 81.0882L53.9658 83.8963C53.9818 84.1643 53.9965 84.4322 54.037 84.6978C54.2259 84.7434 54.2333 84.9775 54.2112 85.1658C54.0762 86.3101 53.7389 87.4872 54.0885 88.5894C54.102 88.6459 54.1303 88.6982 54.1707 88.7415C53.9925 88.6883 53.8019 88.6858 53.6223 88.7345C53.4469 88.7696 53.2776 88.8316 53.1009 88.8691C52.8776 88.9182 52.6249 88.9381 52.4728 89.1031C52.3009 88.6063 52.1649 88.0988 52.0655 87.5843C51.9821 87.1163 51.9588 86.6354 51.76 86.2025C51.6737 86.0303 51.5783 85.8624 51.4742 85.6994C50.9589 84.8242 50.7074 83.8343 50.4609 82.8585C50.3502 82.3959 50.3236 81.9186 50.3823 81.4474C50.4747 81.0063 50.4634 80.5511 50.3492 80.1147C50.245 79.4535 50.294 78.7785 50.4928 78.1373C50.6768 77.5417 50.8387 76.9146 51.2288 76.4138C51.619 75.913 52.4201 75.6404 53.0715 75.631Z" fill="#EF2463"/>
<g opacity="0.1">
<path opacity="0.1" d="M52.6428 67.2471C52.2747 66.8083 51.8061 66.4128 51.2307 66.3028C50.7633 66.2127 50.2787 66.3215 49.8027 66.2853C49.3819 66.2537 48.9771 66.1086 48.5588 66.0512C48.1792 66.0122 47.7957 66.026 47.4203 66.0922C47.064 66.1427 46.7158 66.2355 46.3836 66.3683C46.2042 66.445 46.0329 66.5378 45.8721 66.6456C46.1677 66.5361 46.475 66.4576 46.7885 66.4116C47.1635 66.3454 47.5466 66.3316 47.9257 66.3707C48.3453 66.4222 48.7489 66.5661 49.1709 66.5977C49.6457 66.6339 50.1303 66.5263 50.5989 66.6152C51.1743 66.7252 51.6454 67.1219 52.0097 67.5606C52.3496 67.9678 52.6329 68.4908 52.4894 68.994C52.4133 69.2584 52.2367 69.4901 52.1888 69.7627C52.141 70.0353 52.1287 70.1465 51.9324 70.3898C51.6808 70.702 51.3765 70.972 51.032 71.189C51.1264 71.1469 51.2234 71.1047 51.3154 71.0591C51.804 70.8197 52.2309 70.4801 52.5655 70.0646C52.7605 69.8212 52.7716 69.7135 52.8206 69.4374C52.8697 69.1613 53.0451 68.9343 53.1212 68.6687C53.266 68.1784 52.9814 67.6554 52.6428 67.2471Z" fill="black"/>
<path opacity="0.1" d="M50.4212 71.5774C50.4721 71.5271 50.5275 71.4813 50.5869 71.4405C50.3035 71.5715 50.0054 71.6862 49.7882 71.9085C49.5171 72.1788 49.4202 72.5696 49.4054 72.944C49.3907 73.3184 49.4607 73.6905 49.4692 74.0638C49.4813 74.5618 49.3934 75.0574 49.2104 75.524C49.0485 75.937 48.8141 76.3196 48.6313 76.7256C48.4191 77.1937 48.2768 77.6921 48.0854 78.1707C47.4721 79.6815 46.3831 80.974 44.9681 81.8704C44.9608 81.8856 44.9546 81.902 44.9473 81.9172C46.6731 81.033 48.0103 79.5891 48.7172 77.8466C48.9086 77.368 49.0509 76.8707 49.2644 76.4004C49.4472 75.9955 49.6815 75.6118 49.8434 75.1987C50.0265 74.7326 50.1143 74.2373 50.1023 73.7397C50.0925 73.3652 50.0274 72.9932 50.0385 72.6187C50.0495 72.2443 50.1501 71.8488 50.4212 71.5774Z" fill="black"/>
</g>
<path d="M66.6655 65.0207C66.6655 64.3449 66.8149 63.7861 67.1138 63.3443C67.4257 62.9025 67.874 62.4151 68.4588 61.8823C68.8876 61.4925 69.1995 61.1676 69.3945 60.9077C69.6024 60.6348 69.7063 60.3294 69.7063 59.9915C69.7063 59.5107 69.5114 59.1338 69.1216 58.8609C68.7447 58.575 68.2379 58.4321 67.6011 58.4321C66.9903 58.4321 66.4445 58.5621 65.9637 58.822C65.4959 59.0689 65.0995 59.4197 64.7746 59.8746L62.416 58.4906C62.9618 57.6589 63.696 57.0156 64.6187 56.5608C65.5544 56.106 66.659 55.8785 67.9325 55.8785C69.4269 55.8785 70.6225 56.1969 71.5192 56.8337C72.4288 57.4705 72.8837 58.3541 72.8837 59.4847C72.8837 60.0175 72.7927 60.4853 72.6108 60.8882C72.4418 61.2911 72.2274 61.6354 71.9675 61.9213C71.7206 62.1942 71.3957 62.5126 70.9929 62.8765C70.512 63.3053 70.1612 63.6692 69.9403 63.9681C69.7193 64.254 69.6089 64.6048 69.6089 65.0207H66.6655ZM68.1469 69.9134C67.6141 69.9134 67.1658 69.7444 66.8019 69.4066C66.451 69.0557 66.2756 68.6334 66.2756 68.1395C66.2756 67.6457 66.451 67.2364 66.8019 66.9115C67.1528 66.5736 67.6011 66.4047 68.1469 66.4047C68.6927 66.4047 69.141 66.5736 69.4919 66.9115C69.8428 67.2364 70.0182 67.6457 70.0182 68.1395C70.0182 68.6334 69.8363 69.0557 69.4724 69.4066C69.1216 69.7444 68.6797 69.9134 68.1469 69.9134Z" fill="#EF2463"/>
<path d="M355.101 28.7875H343.045V17.2895H355.101V28.7875Z" fill="white" fill-opacity="0.2"/>
<path d="M367.157 21.8903H347.064V41.0537H367.157V21.8903ZM347.938 22.7235H366.284V40.2205H347.938V22.7235Z" fill="white" fill-opacity="0.2"/>
<path d="M251.741 103.875C255.996 103.875 259.445 107.165 259.445 111.223C259.445 115.281 255.996 118.571 251.741 118.571C247.486 118.571 244.036 115.281 244.036 111.223C244.036 107.165 247.486 103.875 251.741 103.875Z" fill="white" fill-opacity="0.2"/>
<circle r="8.70787" transform="matrix(1 0 0 -1 246.214 106.091)" stroke="white" stroke-opacity="0.2" stroke-width="0.664723"/>
<path d="M211.537 -0.139751C199.945 -0.139751 190.547 8.82351 190.547 19.8803C190.547 30.937 199.945 39.9003 211.537 39.9003C223.13 39.9003 232.528 30.937 232.528 19.8803C232.528 8.82351 223.13 -0.139751 211.537 -0.139751Z" fill="white" fill-opacity="0.2"/>
<circle cx="184.163" cy="6.01789" r="24.2974" transform="rotate(-180 184.163 6.01789)" stroke="white" stroke-opacity="0.2" stroke-width="0.664723"/>
<path d="M408.586 219.45C453.184 219.45 489.467 184.845 489.467 142.31C489.467 99.7753 453.184 65.1703 408.586 65.1703C363.988 65.1703 327.705 99.7753 327.705 142.31C327.705 184.845 363.988 219.45 408.586 219.45ZM408.586 66.1787C452.601 66.1787 488.41 100.331 488.41 142.31C488.41 184.289 452.601 218.442 408.586 218.442C364.571 218.442 328.763 184.289 328.763 142.31C328.763 100.331 364.571 66.1787 408.586 66.1787Z" fill="white" fill-opacity="0.2"/>
</g>
<defs>
<linearGradient id="paint0_linear" x1="49.1139" y1="113.571" x2="49.1139" y2="65.6104" gradientUnits="userSpaceOnUse">
<stop stop-color="#808080" stop-opacity="0.25"/>
<stop offset="0.54" stop-color="#808080" stop-opacity="0.12"/>
<stop offset="1" stop-color="#808080" stop-opacity="0.1"/>
</linearGradient>
<clipPath id="clip0">
<rect width="456" height="133" fill="white"/>
</clipPath>
</defs>
</svg>
