<svg width="456" height="133" viewBox="0 0 456 133" fill="none" xmlns="http://www.w3.org/2000/svg">
<g clip-path="url(#clip0)">
<mask id="mask0" mask-type="alpha" maskUnits="userSpaceOnUse" x="0" y="0" width="456" height="133">
<rect width="456" height="132.945" rx="26.5889" fill="white"/>
</mask>
<g mask="url(#mask0)">
<path d="M78.4369 69.7974C17.2731 69.7974 -39.9314 94.3921 -57.2142 106.357C-62.3104 66.6953 -50.5668 -14.3638 -50.5668 -9.04601C-50.5668 -3.72822 279.579 -6.83026 444.652 -9.04601L472.618 57.1676C472.618 91.7332 365.597 113.669 277.189 113.669C188.781 113.669 145.574 69.7974 78.4369 69.7974Z" fill="#FF2F6F"/>
</g>
<circle opacity="0.2" cx="80.4319" cy="89.738" r="40.5481" fill="white"/>
<circle opacity="0.2" cx="80.4314" cy="89.738" r="53.8426" fill="white"/>
<circle opacity="0.2" cx="80.4317" cy="89.7379" r="69.7959" fill="white"/>
<path fill-rule="evenodd" clip-rule="evenodd" d="M0 81.7996C22.9687 75.0079 50.2836 69.7968 78.4373 69.7968C109.7 69.7968 135.773 79.3095 163.638 89.4758C195.614 101.142 229.949 113.669 277.189 113.669C344.472 113.669 422.535 100.963 456 79.6554V106.355C456 121.04 444.096 132.944 429.411 132.944H26.5889C11.9043 132.944 0 121.04 0 106.355V81.7996Z" fill="#FFE4E4"/>
<path fill-rule="evenodd" clip-rule="evenodd" d="M115.424 73.6914C115.057 73.6722 114.775 73.3594 114.795 72.9928L117.31 24.9985C117.329 24.6319 117.642 24.3503 118.008 24.3695C118.375 24.3887 118.657 24.7015 118.637 25.0681L116.122 73.0624C116.103 73.429 115.79 73.7106 115.424 73.6914Z" fill="#572A00"/>
<path d="M118.604 25.6992C118.604 25.6992 123.716 23.7794 127.145 23.9174C132.009 24.1132 133.69 28.0053 138.511 28.6534C143.071 29.2663 150.194 27.3548 150.194 27.3548L149.195 46.4117C149.195 46.4117 142.072 48.3232 137.512 47.7104C132.691 47.0623 131.01 43.1701 126.146 42.9743C122.717 42.8363 117.605 44.7562 117.605 44.7562L118.604 25.6992Z" fill="white"/>
<path fill-rule="evenodd" clip-rule="evenodd" d="M118.109 35.148C119.854 34.0279 124.413 32.7553 127.06 33.228C128.874 33.552 130.99 34.5666 133.003 35.5323C135.087 36.5318 137.062 37.4788 138.479 37.5531C140.709 37.6699 146.874 37.3719 149.677 37.2082L149.678 37.2079L150.194 27.3548C150.194 27.3548 143.071 29.2663 138.511 28.6534C136.205 28.3434 134.617 27.2908 133.055 26.2558C131.353 25.1273 129.682 24.0195 127.145 23.9174C123.716 23.7794 118.604 25.6992 118.604 25.6992L118.109 35.148Z" fill="#FF0000"/>
<path opacity="0.1" d="M59.3995 118.268C63.2784 118.268 66.423 117.284 66.423 116.072C66.423 114.859 63.2784 113.876 59.3995 113.876C55.5205 113.876 52.376 114.859 52.376 116.072C52.376 117.284 55.5205 118.268 59.3995 118.268Z" fill="#EF2463"/>
<path opacity="0.1" d="M69.9356 103.338C71.8751 103.338 73.4473 102.748 73.4473 102.021C73.4473 101.293 71.8751 100.703 69.9356 100.703C67.9961 100.703 66.4238 101.293 66.4238 102.021C66.4238 102.748 67.9961 103.338 69.9356 103.338Z" fill="#EF2463"/>
<path opacity="0.1" d="M89.689 106.85C91.8709 106.85 93.6397 106.26 93.6397 105.533C93.6397 104.805 91.8709 104.215 89.689 104.215C87.5071 104.215 85.7383 104.805 85.7383 105.533C85.7383 106.26 87.5071 106.85 89.689 106.85Z" fill="#EF2463"/>
<path opacity="0.1" d="M97.1514 116.512C101.03 116.512 104.175 115.528 104.175 114.316C104.175 113.103 101.03 112.12 97.1514 112.12C93.2725 112.12 90.1279 113.103 90.1279 114.316C90.1279 115.528 93.2725 116.512 97.1514 116.512Z" fill="#EF2463"/>
<path d="M61.1563 56.3836L55.6961 59.422C55.6961 59.422 49.1291 57.8082 50.9355 56.43C51.7395 55.8173 52.0767 54.508 52.201 53.2425C52.2394 52.8466 52.2579 52.4544 52.2645 52.0898C52.2756 51.4466 52.25 50.8034 52.1878 50.1628C52.1878 50.1628 59.8035 48.9299 58.8514 50.7817C58.62 51.2315 58.6385 51.7929 58.7958 52.3868C58.8615 52.6252 58.9428 52.8595 59.0392 53.0884C59.7281 54.7385 61.1563 56.3836 61.1563 56.3836Z" fill="#FFCCD0"/>
<path opacity="0.1" d="M58.4459 50.725C58.2351 51.1504 58.252 51.6813 58.3953 52.2429C57.6107 52.9092 56.6083 53.2752 55.5718 53.2739C54.431 53.2739 53.9937 52.3188 53.2192 51.6149C53.159 51.5592 52.7879 51.7109 52.7374 51.6528C52.7542 50.6278 52.376 50.1431 52.376 50.1431C52.376 50.1431 59.3168 48.9736 58.4459 50.725Z" fill="black"/>
<path d="M60.2774 48.8841C60.2768 49.9414 59.8949 50.963 59.2018 51.7613C58.5087 52.5595 57.5511 53.0808 56.5047 53.2294C55.4583 53.378 54.3934 53.1439 53.5056 52.5702C52.6179 51.9964 51.9669 51.1215 51.6722 50.1061C51.3775 49.0907 51.4588 48.003 51.9013 47.0428C52.3438 46.0826 53.1178 45.3144 54.081 44.8792C55.0442 44.444 56.132 44.3711 57.1447 44.6739C58.1573 44.9766 59.0268 45.6347 59.5933 46.5273C60.0406 47.2319 60.2779 48.0494 60.2774 48.8841Z" fill="#FFCCD0"/>
<path opacity="0.1" d="M59.3995 46.6168C59.3236 46.6569 59.2439 46.6883 59.1617 46.7104C58.824 46.8015 58.4709 46.7623 58.1249 46.7268C58.0703 46.7147 58.0134 46.7222 57.9632 46.7484C57.9026 46.7901 57.8871 46.8749 57.8645 46.9508C57.7706 47.2457 57.4841 47.4178 57.2082 47.519C56.645 47.7215 56.0373 47.7378 55.4652 47.5658C55.3893 47.5356 55.3084 47.5223 55.2274 47.5266C55.0408 47.5506 54.9302 47.7645 54.9005 47.9619C54.8707 48.1593 54.8886 48.3694 54.8184 48.5529C54.6995 48.8743 54.3595 49.0211 54.0646 49.1628C53.7698 49.3045 53.4452 49.531 53.4309 49.8765C53.4214 50.0752 53.5201 50.2561 53.5498 50.4535C53.5722 50.6273 53.5457 50.8043 53.4735 50.962C53.4013 51.1197 53.2868 51.251 53.1444 51.3393C53.0774 51.6971 52.9881 52.0497 52.8769 52.3947C52.4287 51.9549 52.074 51.4183 51.8364 50.8208C51.5989 50.2232 51.484 49.5786 51.4994 48.93C51.5149 48.2814 51.6603 47.6438 51.9261 47.0599C52.1918 46.4759 52.5716 45.9591 53.0402 45.5441C53.5087 45.129 54.0551 44.8253 54.6429 44.6532C55.2307 44.4811 55.8462 44.4446 56.4483 44.5461C57.0504 44.6477 57.6251 44.885 58.1341 45.2421C58.643 45.5992 59.0745 46.0678 59.3995 46.6168Z" fill="black"/>
<path d="M59.0576 44.2174C58.6285 43.9073 58.1081 43.7382 57.5724 43.7349C57.1252 43.7492 56.6963 43.9175 56.2502 43.9436C55.2577 44.0029 54.2357 43.3603 53.3154 43.7243C52.639 43.9922 52.2028 44.7533 51.4773 44.828C51.2739 44.8481 51.0693 44.8102 50.8646 44.8197C50.66 44.8292 50.4406 44.9038 50.3438 45.0781C50.2816 45.2351 50.27 45.4066 50.3108 45.5701C50.4023 46.3227 50.3 47.0855 50.013 47.7905C49.8745 48.1284 49.6907 48.4793 49.7556 48.8373C49.8209 49.1064 49.9813 49.345 50.209 49.5119C50.2477 49.6321 50.3183 49.7404 50.4137 49.826C50.5987 49.992 50.8413 50.1189 50.9357 50.3453C51.0815 50.6926 50.8132 51.1253 51.0117 51.4478C51.1 51.5688 51.2184 51.6662 51.356 51.7311C51.7702 51.9682 52.1934 52.1895 52.6255 52.395C52.7503 52.0463 52.8506 51.6899 52.9257 51.3281C53.0725 51.2453 53.1906 51.1223 53.2649 50.9745C53.3393 50.8268 53.3667 50.661 53.3436 50.4982C53.3093 50.3157 53.2076 50.1426 53.2211 49.9576C53.237 49.634 53.5691 49.4206 53.8742 49.2878C54.1793 49.155 54.5273 49.0175 54.6523 48.7176C54.7246 48.5445 54.705 48.3489 54.7356 48.164C54.7663 47.979 54.8802 47.7775 55.0726 47.755C55.1561 47.7513 55.2395 47.7642 55.3177 47.7929C55.9076 47.9531 56.5336 47.9374 57.1141 47.7479C57.3996 47.6542 57.695 47.4918 57.7905 47.2156C57.8138 47.1456 57.8298 47.065 57.8935 47.0259C57.9447 47.0013 58.003 46.9942 58.0589 47.0057C58.4155 47.0389 58.7807 47.0745 59.1275 46.9915C59.4296 46.9069 59.6994 46.7381 59.9031 46.5063C60.1069 46.2744 60.2356 45.9896 60.2732 45.6875C60.343 45.071 59.5318 44.5375 59.0576 44.2174Z" fill="#333333"/>
<path opacity="0.1" d="M59.0662 43.9192C58.8955 43.7991 58.7135 43.6962 58.5228 43.612C58.6132 43.6636 58.7035 43.7189 58.789 43.7791C59.2615 44.1109 60.0699 44.6664 59.9954 45.3067C59.9583 45.6198 59.8304 45.9151 59.6275 46.1555C59.4247 46.3959 59.156 46.5708 58.8549 46.6585C58.5082 46.7457 58.1455 46.7076 57.7902 46.6732C57.734 46.6619 57.6758 46.6693 57.6241 46.6941C57.5606 46.7347 57.546 46.817 57.5215 46.8907C57.4275 47.1783 57.1332 47.3454 56.8487 47.4425C56.2701 47.6402 55.6455 47.6565 55.0574 47.4892C54.9795 47.4598 54.8964 47.4464 54.8132 47.4499C54.6215 47.4732 54.5079 47.6822 54.4774 47.8739C54.4469 48.0656 54.4664 48.2683 54.3944 48.4478C54.2723 48.7587 53.9218 48.9025 53.6178 49.0401C53.3138 49.1777 52.9841 49.3977 52.9682 49.7332C52.9584 49.9249 53.0585 50.1019 53.0903 50.2936C53.1133 50.4624 53.086 50.6342 53.0119 50.7873C52.9378 50.9405 52.8201 51.068 52.6739 51.1538C52.5986 51.5258 52.499 51.8924 52.376 52.2512C52.4688 52.2992 52.5591 52.3496 52.6519 52.395C52.7763 52.0335 52.8762 51.664 52.9511 51.289C53.0973 51.2032 53.215 51.0757 53.2891 50.9225C53.3632 50.7694 53.3905 50.5975 53.3675 50.4288C53.3333 50.2395 53.2319 50.0601 53.2454 49.8684C53.2612 49.5329 53.5921 49.3117 53.8962 49.174C54.2002 49.0364 54.547 48.8939 54.6716 48.5829C54.7436 48.4035 54.7241 48.2007 54.7546 48.009C54.7851 47.8173 54.8987 47.6084 55.0904 47.5851C55.1736 47.5813 55.2567 47.5947 55.3346 47.6244C55.9224 47.7904 56.5462 47.7741 57.1247 47.5777C57.4092 47.4806 57.7035 47.3122 57.7987 47.0259C57.8219 46.9534 57.8378 46.8698 57.9013 46.8293C57.9523 46.8038 58.0104 46.7965 58.0661 46.8084C58.4215 46.8428 58.7853 46.8797 59.1309 46.7936C59.432 46.7059 59.7008 46.531 59.9038 46.2906C60.1069 46.0503 60.2351 45.7551 60.2726 45.4418C60.3471 44.804 59.5387 44.251 59.0662 43.9192Z" fill="black"/>
<path d="M49.7541 50.286C49.7541 50.286 48.7249 51.9397 48.2628 51.9397C48.0389 51.9562 47.8197 52.0124 47.6158 52.1056C47.4114 52.1896 47.2128 52.2867 47.0212 52.3965L45.3525 50.6734C45.3525 50.6734 45.5649 50.4506 45.8522 50.1374C46.4017 49.5371 47.2261 48.605 47.3398 48.2807C47.5171 47.7856 50.4623 46.5911 50.606 47.4006C50.7496 48.2101 49.7541 50.286 49.7541 50.286Z" fill="#FFCCD0"/>
<path d="M76.958 79.394C76.958 79.394 76.7666 79.6679 76.4652 80.0691C75.6307 81.1803 73.9519 83.2588 73.1642 83.1315C72.0936 82.9589 72.6692 79.5654 73.3089 79.4174C73.6973 79.3278 74.6145 78.7773 75.2782 78.3567C75.7134 78.0841 76.03 77.8673 76.03 77.8673L76.958 79.394Z" fill="#FFC3BF"/>
<path d="M72.1235 83.0364C69.8372 83.7591 70.1336 80.3811 70.226 79.8974C70.2945 79.5314 70.0904 78.6921 69.9892 78.3158C69.9579 78.2003 69.9355 78.1253 69.9355 78.1253L70.5149 76.9893C70.5149 76.9893 73.3448 77.032 73.3448 77.3275C73.3448 77.4487 73.5101 77.7893 73.7037 78.1495C73.9837 78.669 74.3248 79.2313 74.3248 79.2313C74.3248 79.2313 74.4097 82.316 72.1235 83.0364Z" fill="#FFCCD0"/>
<path d="M61.1553 111.286C61.1553 111.286 57.8731 112.849 58.189 111.694C58.2514 111.382 58.2314 111.062 58.1305 110.758C57.9547 110.182 57.705 109.625 57.3862 109.096C57.062 108.534 56.7656 108.125 56.7656 108.125C56.7656 108.125 60.0868 106.322 60.1271 107.003C60.1959 107.49 60.2939 107.975 60.4207 108.454C60.6238 109.298 60.8826 110.278 61.0329 110.835L61.1553 111.286Z" fill="#FF748E"/>
<path opacity="0.1" d="M61.1563 111.242C61.1563 111.242 58.2983 112.889 58.5733 111.671C58.6277 111.343 58.6103 111.006 58.5225 110.686C58.8491 110.55 59.195 110.471 59.5462 110.453C59.923 110.165 60.857 110.658 61.0497 110.767L61.1563 111.242Z" fill="black"/>
<path d="M59.2436 110.452C59.2436 110.452 57.6164 110.524 57.7961 111.274C57.9758 112.023 57.2217 114.128 57.2217 114.128C57.2217 114.128 56.4296 115.306 56.9332 115.842C57.4368 116.378 61.8236 116.77 62.0032 116.306C62.1829 115.841 61.4971 112.951 61.4971 112.951L60.8518 110.79C60.8518 110.79 59.6839 110.131 59.2436 110.452Z" fill="#05083B"/>
<path d="M70.8125 95.69L68.5474 96.3101C68.4651 95.9968 68.3499 95.6926 68.2035 95.4022C68.1261 95.2485 68.0373 95.1006 67.9376 94.9595C67.5784 94.4559 67.0428 94.0541 66.2835 94.2798C64.6217 94.7759 66.2835 91.0898 66.2835 91.0898C66.2835 91.0898 66.7335 90.9038 67.1873 90.6954L67.2934 90.6446C67.6602 90.4697 68.0092 90.2861 68.0949 90.1795C68.2585 89.9785 69.7694 91.5636 70.3434 92.1788C70.4789 92.3239 70.5607 92.4157 70.5607 92.4157L70.6668 93.7986L70.8125 95.69Z" fill="#FF748E"/>
<path opacity="0.1" d="M70.8125 95.69L68.6344 96.3101C68.5553 95.9968 68.4445 95.6926 68.3037 95.4022C68.3922 95.1083 68.6295 94.6134 69.2059 94.6878C69.8697 94.7747 69.7763 92.433 68.8446 91.8687C67.9128 91.3044 67.3535 91.2697 67.3535 91.2697C67.294 91.0841 67.2847 90.8858 67.3265 90.6954L67.4285 90.6446C67.7813 90.4697 68.1169 90.2861 68.1992 90.1795C68.3566 89.9785 69.8095 91.5636 70.3614 92.1788C70.4708 92.7865 70.5187 93.3583 70.6724 93.7986L70.8125 95.69Z" fill="black"/>
<path d="M67.3529 90.7047C67.3032 90.5498 67.2888 90.3854 67.3107 90.2241C67.3325 90.0627 67.3901 89.9084 67.4791 89.7726C67.5681 89.6369 67.6861 89.5232 67.8246 89.4401C67.963 89.357 68.1181 89.3066 68.2785 89.2926C68.8233 89.2454 69.416 89.3787 69.7693 90.0199C70.5524 91.4332 70.2111 93.0876 70.926 93.7422C71.6409 94.3967 71.9474 96.5299 71.4373 96.8414C70.9272 97.1529 69.2364 98.6668 69.0772 97.805C68.9179 96.9433 68.2318 94.947 68.2318 94.947C68.2318 94.947 68.3683 93.947 69.1562 94.05C69.804 94.1349 69.713 91.8465 68.8053 91.295C67.8977 90.7435 67.3529 90.7096 67.3529 90.7096V90.7047Z" fill="#05083B"/>
<path opacity="0.1" d="M60.2774 108.731C59.4619 108.978 58.2829 109.313 57.3618 109.484C57.0504 108.825 56.7656 108.345 56.7656 108.345C56.7656 108.345 59.9565 106.231 59.9953 107.029C60.0614 107.601 60.1556 108.169 60.2774 108.731Z" fill="black"/>
<path opacity="0.1" d="M67.7182 94.5535C67.392 94.0415 66.9055 93.633 66.2158 93.8625C64.7064 94.3669 66.2158 90.6193 66.2158 90.6193C66.2158 90.6193 66.6907 90.3999 67.133 90.1666C67.4059 90.1464 67.8785 90.1767 68.0306 90.5752C68.2454 91.1363 68.2918 93.3392 67.7182 94.5535Z" fill="black"/>
<path d="M67.6427 94.6913C66.9892 95.8134 63.864 95.4544 63.864 95.4544C61.3924 93.8832 59.247 87.2787 59.247 87.2787L58.9196 95.5859C58.9196 95.5859 59.7122 96.3478 59.5264 96.8431C59.3405 97.3383 59.6667 98.2341 59.6667 98.2341C59.6667 98.2341 60.3658 105.642 60.1787 106.092C59.9917 106.542 60.8323 107.618 60.8323 107.618C60.8323 107.618 56.4012 108.966 55.9802 108.516C55.5593 108.067 55.9802 107.569 55.9802 107.569V106.669C54.0699 102.898 54.0219 99.1714 53.8878 99.0363C53.7536 98.9012 53.6551 98.0884 53.6059 97.8704C53.5567 97.6523 53.6059 96.881 53.6059 96.881C53.6059 96.881 53.6601 96.253 53.3806 95.894C53.1012 95.535 53.6059 94.4567 53.6059 94.4567C53.5259 93.6155 53.2913 92.7947 52.9129 92.0325C52.3073 90.8654 51.5356 86.3747 51.5356 86.3747C51.5356 86.3747 51.3276 85.7005 51.5146 85.3426C51.7017 84.9848 50.5816 82.9184 50.5816 82.9184C50.5816 82.9184 50.8623 81.4361 50.9078 81.0771C50.9534 80.7181 49.7422 79.9763 49.7422 79.9763L50.3084 78.5296L50.9078 76.9893C50.9078 76.9893 64.8068 77.2582 65.3669 77.4371C65.6377 77.5236 65.8851 78.0165 66.0697 78.5035C66.1967 78.8459 66.3051 79.1943 66.3946 79.5474C66.3946 79.5474 66.2543 84.3509 66.5337 85.204C66.8131 86.0571 66.7196 86.5074 66.7196 86.5074C66.7196 86.5074 66.3946 88.2136 66.626 88.7966C66.8575 89.3795 66.8599 90.504 66.8599 90.504C66.8599 90.504 67.7929 90.3239 68.0255 90.8594C68.2582 91.395 68.2939 93.5692 67.6427 94.6913Z" fill="#AACAF5"/>
<path d="M95.4546 115.146C95.2843 115.123 94.4703 112.453 94.5197 111.53C94.5496 110.975 94.7421 110.024 94.8916 109.356C94.9904 108.918 95.0697 108.608 95.0697 108.608L98.215 108.937C98.215 108.937 98.2566 109.266 98.3073 109.727C98.4087 110.634 98.5427 112.049 98.4621 112.455C98.332 113.071 99.2006 113.212 99.7415 114.818C100.282 116.423 95.6275 115.17 95.4546 115.146Z" fill="#05083B"/>
<path d="M91.8585 100.336C91.7103 100.557 91.6459 101.053 91.6183 101.47C91.5919 101.844 91.5976 102.157 91.5976 102.157C91.5976 102.157 91.6631 103.797 90.8357 104.716C90.0082 105.634 88.8981 104.776 88.4407 103.197C88.1235 102.099 88.9625 100.897 89.5037 100.266C89.7416 99.9895 89.9209 99.8227 89.9209 99.8227C89.9209 99.8227 92.1378 99.9156 91.8585 100.336Z" fill="#05083B"/>
<path d="M93.4841 55.9247C93.4841 55.9247 90.263 55.6369 90.1488 57.5506C90.0346 59.4643 90.3183 60.9379 92.7846 61.1718C95.2508 61.4056 94.3614 55.9621 94.3614 55.9621L93.4841 55.9247Z" fill="#575A89"/>
<path d="M98.9062 56.8807C98.9062 56.8807 102.443 56.4085 102.418 57.588C102.392 58.7675 99.7176 60.3006 99.7176 60.3006L98.9062 56.8807Z" fill="#575A89"/>
<path opacity="0.15" d="M93.4832 55.9247C93.4832 55.9247 90.2631 55.6369 90.1489 57.5506C90.0347 59.4643 90.3171 60.9379 92.7837 61.1718C95.2502 61.4056 94.3619 55.9621 94.3619 55.9621L93.4832 55.9247Z" fill="black"/>
<path opacity="0.15" d="M98.9062 56.9041C98.9062 56.9041 102.443 56.3138 102.418 57.7881C102.392 59.2625 99.7162 61.1789 99.7162 61.1789L98.9062 56.9041Z" fill="black"/>
<path d="M94.1523 55.5381C93.2709 55.9068 92.4419 56.3989 91.6883 57.001C91.5817 57.0687 91.5016 57.1734 91.4619 57.2966C91.4556 57.396 91.4576 57.4957 91.4679 57.5947C91.4487 58.0936 90.724 58.136 90.3982 58.5064C90.167 58.7683 90.1706 59.1799 90.2784 59.5166C90.3862 59.8533 90.5911 60.1502 90.7204 60.4794C90.8615 60.8485 90.9128 61.2482 90.8698 61.6429C90.8267 62.0376 90.6906 62.4151 90.4737 62.7418C90.1023 63.2893 89.5286 63.646 89.0794 64.125C88.4804 64.7698 88.1127 65.8186 88.5894 66.5719C88.8805 67.0334 89.4136 67.2741 89.725 67.7193C90.0604 68.202 90.0844 68.8493 90.0041 69.4392C89.9239 70.0291 89.7526 70.6091 89.7478 71.2052C89.737 72.3701 90.3862 73.4751 91.2906 74.1623C92.195 74.8495 93.327 75.1601 94.4422 75.2224C94.8387 75.2461 95.2508 75.2386 95.6113 75.0665C95.9719 74.8944 96.2546 74.5676 96.5013 74.2359C97.2453 73.239 97.8165 72.1147 98.1891 70.9134C98.3508 70.3933 98.485 69.8408 98.8324 69.4317C99.0866 69.1651 99.3823 68.945 99.7068 68.7807L101.302 67.8503C101.826 67.5447 102.4 67.1731 102.537 66.5657C102.693 65.8772 102.233 65.0766 102.607 64.4854C102.727 64.2933 102.923 64.1624 103.061 63.9865C103.448 63.4777 103.3 62.7269 103.026 62.1444C102.803 61.6677 102.512 61.2284 102.164 60.8411C101.863 60.5094 101.512 60.2038 101.347 59.781C101.22 59.4567 101.215 59.0913 101.101 58.7621C100.862 58.0761 100.212 57.6583 99.7763 57.0883C99.4169 56.6156 99.1977 56.0282 98.7773 55.6154C98.0957 54.9444 97.3398 55.1589 96.5013 55.1851C96.0869 55.1988 95.7012 55.0392 95.2927 55.0317C94.8135 55.018 94.6039 55.3498 94.1523 55.5381Z" fill="#663D5C"/>
<path d="M99.7842 56.7862L92.7607 56.0523C92.7607 56.0523 92.7858 55.9667 92.8288 55.8077C92.9976 55.1746 93.1334 54.5328 93.2357 53.885C93.4158 52.7108 96.041 52.4099 96.041 52.4099C96.7026 52.3474 97.368 52.4773 97.9608 52.7848C98.5537 53.0922 99.05 53.5646 99.3928 54.148L99.69 56.1489L99.7842 56.7862Z" fill="#FF748E"/>
<path d="M100.662 64.6707L99.627 67.4297L95.2573 68.2041C95.2573 68.2041 90.1441 67.0602 92.506 64.6707C92.7808 64.3963 93.0351 64.1006 93.2667 63.7861C93.4977 63.4765 93.6831 63.1329 93.8167 62.7666C94.1948 61.6701 93.6072 61.1372 93.6072 61.1372C93.6072 61.1372 97.9108 59.084 97.9757 61.406C97.9899 61.9285 98.1403 62.4372 98.4107 62.8779C98.5608 63.1215 98.7378 63.346 98.938 63.5469C99.4366 64.0351 100.022 64.4169 100.662 64.6707Z" fill="#FFC3BF"/>
<path d="M116.316 61.7663C116.187 61.7663 115.686 62.1222 115.266 62.4402C114.924 62.7 114.635 62.9348 114.635 62.9348L113.832 60.4851C114.021 60.396 114.202 60.2941 114.374 60.1802C114.566 60.0497 114.733 59.8955 114.733 59.7627C114.733 59.4507 116.316 57.6279 117.79 59.1283C119.25 61.7663 116.559 61.7663 116.316 61.7663Z" fill="#FFC3BF"/>
<path opacity="0.1" d="M61.1563 56.4714L55.6961 59.4208C55.6961 59.4208 49.1291 57.8543 50.9355 56.5164C51.7395 55.9217 52.0767 54.6507 52.201 53.4223C53.296 55.1409 55.0918 55.2467 55.913 55.1871C56.1603 55.1713 56.4089 55.1725 56.6562 55.1664C57.7935 55.1372 58.8382 53.5914 59.0365 53.2727C59.7281 54.8745 61.1563 56.4714 61.1563 56.4714Z" fill="black"/>
<path opacity="0.1" d="M66.4239 78.2195C66.4239 78.2358 66.4239 78.2511 66.4239 78.2636C66.377 78.5903 64.412 79.1355 64.412 79.1355C64.412 79.1355 55.3855 80.0064 54.5906 79.4229C53.85 78.8864 51.0432 78.3191 50.6211 78.2348L51.2222 76.9893C51.2222 76.9893 65.16 77.2068 65.7216 77.3514C65.9907 77.4262 66.2388 77.8248 66.4239 78.2195Z" fill="black"/>
<path d="M65.949 73.2154C65.949 73.2154 67.1553 75.2068 66.3164 75.661C65.4775 76.1153 66.1315 77.5174 66.0849 77.925C66.0384 78.3326 64.0888 79.0116 64.0888 79.0116C64.0888 79.0116 55.133 80.0993 54.3444 79.3702C53.5557 78.641 50.3521 77.8748 50.3521 77.8748C49.9256 76.8091 49.3815 75.7918 48.7294 74.841C47.7081 73.3911 49.0539 70.7183 49.0539 70.7183C49.0539 70.7183 48.7294 68.9982 48.0338 68.4985C47.3382 67.9989 46.4124 63.2952 46.1834 61.8907C45.9544 60.4862 42.981 62.3891 42.981 62.3891C42.981 62.3891 39.2226 62.6163 38.4351 62.3891C38.4194 62.3848 38.4045 62.3779 38.3911 62.3688C37.8057 61.9827 41.4967 57.8134 41.4967 57.8134C41.4967 57.8134 44.2815 57.3161 44.2338 56.4985C44.2019 55.9271 45.5552 55.0904 46.3708 54.6397C46.7222 54.4449 46.9733 54.323 46.9733 54.323H48.0865C48.5041 54.323 48.3192 53.6894 48.3192 53.6894C48.3192 53.6894 49.1544 53.7803 49.6185 53.3727C50.0826 52.9651 52.3568 53.9357 52.3568 53.9357C53.3695 55.6426 55.0436 55.743 55.8066 55.688C56.0356 55.6737 56.2658 55.6749 56.4948 55.6677C57.6692 55.6367 58.7359 53.7552 58.7359 53.7552C58.7359 53.7552 62.0547 53.9644 64.3692 55.4143C66.6838 56.8643 69.0559 61.0755 69.0559 61.0755C69.0559 61.0755 65.5755 65.289 65.0146 65.1994C64.4537 65.1097 65.6624 67.2375 65.6624 67.2375L65.949 73.2154Z" fill="#DCE6F2"/>
<path opacity="0.1" d="M46.2295 54.1533C46.102 54.5886 45.9563 55.0934 45.9082 55.3093C45.8179 55.7251 44.861 56.1421 44.861 56.1421C44.861 56.1421 43.9474 57.3883 44.0388 57.6199C44.1303 57.8516 43.2637 58.7283 42.8978 59.5599C42.5318 60.3915 38.7065 62.056 38.7065 62.056C38.6006 62.0619 38.4943 62.055 38.39 62.0352C37.8146 61.6414 41.4425 57.3883 41.4425 57.3883C41.4425 57.3883 44.1797 56.881 44.1327 56.047C44.0978 55.4666 45.4279 54.613 46.2295 54.1533Z" fill="black"/>
<path opacity="0.1" d="M47.1084 52.1684C46.9499 52.2337 46.7958 52.3093 46.6472 52.3945L45.3525 51.0553C45.3525 51.0553 45.5173 50.8821 45.7401 50.6387C45.7557 51.1284 46.7169 51.8827 47.1084 52.1684Z" fill="black"/>
<path d="M45.2004 50.6387L43.8542 51.4412C43.8542 51.4412 42.4626 51.706 41.9522 52.8216C41.4419 53.9372 39.9658 54.2055 39.9658 54.2055L39.0394 55.6776C39.0394 55.6776 36.7201 56.619 36.5806 59.4233C36.441 62.2275 38.343 62.0545 38.343 62.0545C38.343 62.0545 42.2386 60.4494 42.6094 59.6457C42.9803 58.8419 43.8627 57.9982 43.7697 57.7734C43.6767 57.5487 44.6044 56.3472 44.6044 56.3472C44.6044 56.3472 45.5835 55.9447 45.6704 55.5434C45.7573 55.1422 46.2273 53.7053 46.2273 53.7053L47.1085 52.8216C47.1085 52.8216 44.8761 51.3518 45.2004 50.6387Z" fill="#DCE6F2"/>
<path opacity="0.1" d="M73.4473 77.7572C72.6552 77.7205 70.3676 77.6364 69.9854 77.8672C69.9563 77.7908 69.9355 77.7411 69.9355 77.7411L70.4742 76.9893C70.4742 76.9893 73.1053 77.0175 73.1053 77.2131C73.1136 77.2934 73.2673 77.5188 73.4473 77.7572Z" fill="black"/>
<path d="M67.7322 59.4213L69.4996 60.8079L70.3126 63.3495C70.3126 63.3495 71.3655 65.4751 71.9879 66.5849C72.6102 67.6947 72.8488 69.4496 72.8488 69.4496C72.8488 69.4496 72.9915 70.2813 73.2793 70.5582C73.5672 70.835 73.2793 71.7143 73.2793 71.7143C73.2793 71.7143 73.6139 72.7302 73.9004 73.1009C74.187 73.4717 73.9004 75.1802 73.9004 75.1802L74.0267 75.8729C74.0267 75.8729 74.5216 76.6132 74.235 76.6583C73.9484 76.7034 74.0431 77.6339 74.0431 77.6339C74.0431 77.6339 70.7418 77.3108 70.5992 77.8657C70.5992 77.8657 70.0727 76.479 70.1687 76.0168C70.2646 75.5546 69.4983 74.3095 69.4983 74.3095C69.4983 74.3095 69.1638 73.8009 69.3077 73.246C69.4516 72.6911 68.6853 71.1204 68.6853 71.1204C68.6853 71.1204 68.5414 69.7338 68.2548 69.8264C67.9683 69.9191 67.7764 69.2264 67.7284 68.9484C67.6804 68.6703 66.6755 66.8227 66.6755 66.8227L64.667 64.4653L67.7322 59.4213Z" fill="#DCE6F2"/>
<path opacity="0.1" d="M98.9073 62.9915C98.1798 63.5433 97.2839 63.8326 96.3677 63.8115C95.4515 63.7904 94.5701 63.4601 93.8694 62.8753C94.2841 61.7305 93.6396 61.1742 93.6396 61.1742C93.6396 61.1742 98.359 59.0304 98.4302 61.4548C98.4458 62.0003 98.6107 62.5315 98.9073 62.9915Z" fill="black"/>
<path d="M95.8335 63.814C98.0154 63.814 99.7842 62.0445 99.7842 59.8617C99.7842 57.6788 98.0154 55.9093 95.8335 55.9093C93.6516 55.9093 91.8828 57.6788 91.8828 59.8617C91.8828 62.0445 93.6516 63.814 95.8335 63.814Z" fill="#FFC3BF"/>
<path opacity="0.1" d="M100.662 64.8736L99.627 67.4752L95.2573 68.2055C95.2573 68.2055 90.1441 67.1269 92.506 64.8736C92.7808 64.6149 93.0351 64.3361 93.2667 64.0395C94.385 66.783 96.2766 66.5239 96.2766 66.5239C98.8959 66.0382 98.979 64.322 98.9426 63.814C99.4398 64.2738 100.024 64.6338 100.662 64.8736Z" fill="black"/>
<path opacity="0.1" d="M115.588 62.4611C115.169 62.7096 114.815 62.9343 114.815 62.9343L113.832 60.591C114.063 60.5057 114.285 60.4082 114.496 60.2994C114.921 60.6943 115.33 61.7076 115.588 62.4611Z" fill="black"/>
<path opacity="0.1" d="M76.958 79.0848C76.958 79.0848 76.7579 79.3033 76.4429 79.6232C76.0744 79.2784 75.4876 78.6976 75.2021 78.2576C75.657 78.0402 75.988 77.8673 75.988 77.8673L76.958 79.0848Z" fill="black"/>
<path d="M115.587 62.8841L113.893 63.4051C113.893 63.4051 111.424 64.645 111.071 65.2267C110.719 65.8084 104.933 67.6422 104.933 67.6422C105.109 68.332 103.309 71.0243 103.309 71.0243C103.309 71.0243 103.098 73.3717 102.392 74.5108C101.771 75.5079 102.238 78.0326 102.364 78.6532C102.38 78.7406 102.392 78.7904 102.392 78.7904C102.392 78.7904 88.1385 79.6879 87.7859 79.0661C87.7683 79.0337 87.7557 78.9989 87.7487 78.9629C87.5538 78.1941 88.7219 75.7702 89.0918 75.4083C89.4791 75.0282 88.9292 72.4403 88.9292 72.4403C88.9292 72.4403 85.4224 74.6833 84.8228 75.7192C84.2232 76.7551 78.0848 79.1365 78.0848 79.1365L77.0917 79.6223C77.0917 79.6223 74.9752 77.6209 75.2222 77.1024C75.4692 76.5838 77.2779 75.9353 77.2779 75.9353C77.2779 75.9353 81.0876 73.1058 81.3743 72.9321C81.5946 72.769 81.7851 72.5707 81.9379 72.3456L82.2917 72.1027C82.2917 72.1027 82.54 71.8598 83.2091 71.5853C83.8781 71.3109 85.4671 69.3423 85.4671 69.3423C85.4671 69.3423 87.1243 67.6167 87.3365 66.7921C87.5035 66.2189 87.7543 65.6725 88.0814 65.1697C88.8567 65.0466 89.5848 64.7248 90.1916 64.237C91.2431 63.4148 93.0058 63.4124 93.0294 63.4124C94.2434 66.4861 96.3425 66.2055 96.3425 66.2055C99.7066 65.585 99.2312 63.1027 99.2312 63.1027C99.2312 63.1027 101.622 61.7535 102.151 61.7887C102.68 61.824 105.186 61.926 105.786 62.2369C106.385 62.5478 108.044 61.9612 108.044 61.9612C108.044 61.9612 108.925 61.2702 109.948 61.0978C110.971 60.9253 112.7 60.2695 112.7 60.2695C112.7 60.2695 113.652 59.2689 114.288 59.4413C114.923 59.6137 115.587 62.8841 115.587 62.8841Z" fill="#FF748E"/>
<path opacity="0.1" d="M102.418 79.1175C102.418 79.1175 87.8905 80.034 87.5311 79.3991C87.5131 79.366 87.5003 79.3304 87.4932 79.2936C87.5046 79.2808 87.5173 79.2692 87.5311 79.2589L89.8693 79.4809C89.8693 79.4809 90.9283 77.7781 91.3686 76.791C91.3686 76.791 92.9249 74.1122 92.9249 73.2317C92.9249 73.2317 99.8648 73.0903 100.909 72.5967C100.909 72.5967 101.102 78.6736 101.668 79.022L102.388 78.9774C102.407 79.0667 102.418 79.1175 102.418 79.1175Z" fill="black"/>
<path opacity="0.1" d="M91.8569 100.373C91.6928 100.609 91.6215 101.135 91.591 101.579C90.7856 101.542 89.5681 101.192 89.5681 101.192C89.5166 100.88 89.4092 100.577 89.25 100.294C89.5134 100 89.7118 99.8227 89.7118 99.8227C89.7118 99.8227 92.166 99.926 91.8569 100.373Z" fill="black"/>
<path opacity="0.1" d="M98.0283 109.486C97.3265 109.486 96.1094 109.447 95.3945 109.193C95.4707 108.851 95.5319 108.608 95.5319 108.608L97.9572 108.869C97.9572 108.869 97.9943 109.125 98.0283 109.486Z" fill="black"/>
<path d="M103.193 84.6678C102.885 86.4969 102.469 88.3063 101.946 90.0868C101.946 90.0868 101.273 92.6533 101.308 93.3751C101.343 94.0969 100.809 98.4957 100.809 98.4957C100.809 98.4957 100.206 100.748 100.349 101.768C100.491 102.788 99.1015 108.102 99.1015 108.102L99.1726 109.474C99.1726 109.474 94.9547 109.651 94.5294 108.629L94.7065 107.433L95.0607 104.126C95.0607 104.126 95.5221 100.431 95.3101 99.5456C95.0981 98.6604 94.7576 95.1183 94.7576 95.1183L94.7214 98.9179C94.7214 98.9179 94.0841 100.115 93.3745 100.396C92.6649 100.677 92.5589 101.139 91.8156 101.206C91.0722 101.273 89.547 100.784 89.547 100.784C89.4892 100.387 89.3567 100.005 89.1566 99.657C88.8373 99.1296 89.1566 97.3344 89.1566 97.3344C89.1566 97.3344 89.4397 96.1384 89.0144 95.8574C88.5891 95.5764 88.1639 93.6759 88.341 93.1126C88.3796 92.9888 88.3509 92.7709 88.2848 92.4936C88.119 91.7755 87.7174 90.6476 87.5877 89.62C87.5284 89.226 87.5338 88.825 87.6039 88.4327C87.9219 86.8839 87.7448 84.5947 87.7448 84.5947C87.7448 84.5947 87.1786 79.6338 87.7448 79.2463L90.0496 79.4692C90.0496 79.4692 91.0934 77.7693 91.5275 76.7838C91.5275 76.7838 93.0615 74.1096 93.0615 73.2293C93.0615 73.2293 99.9022 73.0894 100.931 72.5967C100.931 72.5967 101.122 78.6632 101.679 79.0098L102.416 78.9653C102.416 78.9653 103.654 81.8178 103.193 84.6678Z" fill="#575A89"/>
<path d="M99.7842 97.6077C99.7749 97.7761 99.7345 97.9397 99.6661 98.0856C99.4493 98.6767 98.9783 99.5784 98.7113 99.7696C98.2737 100.088 96.305 98.9093 96.2729 98.4791C96.2683 98.1853 96.2986 97.8922 96.3627 97.6093C96.4089 97.3703 96.4551 97.1887 96.4551 97.1887C96.4551 97.1887 99.1913 97.9598 99.6636 97.5965H99.6713C99.7431 97.5296 99.7778 97.5423 99.7842 97.6077Z" fill="#FFC3BF"/>
<path opacity="0.1" d="M94.5071 70.4578C94.4959 70.9083 94.5071 71.9463 94.5071 72.6792C94.5071 73.1368 94.5157 73.4753 94.5157 73.4753H92.6706C92.6706 73.4753 92.6533 73.1654 92.6347 72.6792C92.6137 72.1179 92.5914 71.3242 92.5951 70.5019C92.5951 70.2933 92.5951 70.0836 92.6025 69.8738C92.6149 69.2661 92.6458 68.6726 92.7052 68.1756C92.9329 66.2438 91.0049 64.1237 91.0049 64.1237C91.4492 63.616 92.6137 63.8853 92.6137 63.8853C92.6137 63.8853 93.2671 65.6932 93.7757 67.0315C94.1065 67.9225 94.3436 68.8431 94.4835 69.7797C94.5092 69.9349 94.52 70.0921 94.5157 70.2492C94.5133 70.2933 94.5108 70.3625 94.5071 70.4578Z" fill="black"/>
<path d="M94.508 70.4578C94.4968 70.9083 94.508 71.9463 94.508 72.6792C94.508 73.1368 94.5166 73.4753 94.5166 73.4753H92.6704C92.6704 73.4753 92.6543 73.1654 92.6358 72.6792C92.6147 72.1179 92.5925 71.3242 92.5962 70.5019C92.5962 70.2933 92.5962 70.0836 92.6036 69.8738C92.616 69.2661 92.6469 68.6726 92.7063 68.1756C92.934 66.2438 91.0049 64.1237 91.0049 64.1237C91.4503 63.616 92.6135 63.8853 92.6135 63.8853C92.6135 63.8853 93.2656 65.6932 93.7754 67.0315C94.1056 67.9227 94.3427 68.8433 94.4832 69.7797C94.5089 69.9349 94.5197 70.0921 94.5154 70.2492C94.5142 70.2933 94.5104 70.3625 94.508 70.4578Z" fill="#575A89"/>
<path opacity="0.1" d="M102.4 69.6709C102.368 69.8385 102.338 70.1136 102.307 70.4353C102.242 71.0847 102.174 71.9249 102.067 72.4679C102.008 72.7638 101.935 72.9693 101.845 73.0072L101.407 73.1796L100.917 73.3716L100.273 73.4756L100.393 73.1796C100.469 72.995 100.574 72.7394 100.682 72.4679C100.931 71.849 101.201 71.1409 101.219 70.955C101.228 70.8731 101.255 70.6848 101.288 70.4353C101.316 70.2176 101.347 69.9534 101.371 69.6709C101.439 68.9017 101.456 67.9979 101.219 67.5319C100.795 66.6979 99.7842 63.5671 99.7842 63.5671C99.8642 63.3415 100.024 63.1548 100.232 63.044C100.441 62.9333 100.682 62.9065 100.908 62.969C100.908 62.969 101.831 66.0717 101.846 66.49C101.862 66.9082 102.536 68.975 102.4 69.6709Z" fill="black"/>
<path d="M102.399 69.5998C102.367 69.7656 102.337 70.0378 102.306 70.3561C102.242 70.9986 102.173 71.8299 102.065 72.3672C102.005 72.66 101.932 72.8633 101.842 72.9008L101.411 73.0714C101.236 73.1454 101.072 73.244 100.924 73.3643L100.211 73.4756C100.211 73.4756 100.321 73.2505 100.396 73.0714C100.47 72.8923 100.577 72.6358 100.687 72.3672C100.937 71.7549 101.21 71.0543 101.226 70.8703C101.235 70.7893 101.262 70.6029 101.295 70.3561C101.324 70.1407 101.355 69.8793 101.38 69.5998C101.449 68.8387 101.464 67.9444 101.226 67.4834C100.801 66.6581 99.7842 63.5604 99.7842 63.5604C99.8646 63.3372 100.025 63.1525 100.235 63.0429C100.444 62.9333 100.686 62.9068 100.914 62.9687C100.914 62.9687 101.84 66.0386 101.857 66.4524C101.874 66.8663 102.536 68.9113 102.399 69.5998Z" fill="#575A89"/>
<path d="M94.5158 70.5401C94.5158 70.5841 94.509 70.6691 94.5067 70.7864L92.7607 70.8406C92.7607 70.5841 92.7607 70.3261 92.7675 70.0682L94.4864 69.9626C94.5098 70.1536 94.5197 70.3469 94.5158 70.5401Z" fill="white"/>
<path d="M94.5166 73.4746H92.7931C92.7931 73.4746 92.7781 73.1329 92.7607 72.5967H94.5085C94.5132 73.1014 94.5166 73.4746 94.5166 73.4746Z" fill="white"/>
<path d="M102.419 69.082C102.393 69.2745 102.369 69.5905 102.345 69.96H101.541C101.564 69.7099 101.589 69.4065 101.609 69.082H102.419Z" fill="white"/>
<path d="M101.541 71.7186C101.509 72.0837 101.471 72.3371 101.423 72.3839L101.197 72.5966H100.663C100.704 72.3688 100.759 72.0535 100.816 71.7186H101.541Z" fill="white"/>
<path opacity="0.05" d="M62.0342 59.4213C62.0342 59.4213 62.4657 63.3696 63.821 63.759C65.1762 64.1484 64.4986 62.2977 64.4986 62.2977L63.3511 60.7927L62.0342 59.4213Z" fill="black"/>
<path opacity="0.05" d="M52.376 66.448C52.376 66.448 57.5906 70.6756 59.8493 69.8557C62.1079 69.0358 54.8112 69.4798 52.376 66.448Z" fill="black"/>
<path opacity="0.05" d="M58.5225 72.5862C58.5225 72.5862 61.8102 72.7294 62.7902 71.9522C63.7701 71.175 58.5225 72.5862 58.5225 72.5862Z" fill="black"/>
<path opacity="0.05" d="M55.8905 77.0241C55.7304 76.9168 62.4938 76.7171 64.3241 75.4212C66.1543 74.1254 60.27 79.9721 55.8905 77.0241Z" fill="black"/>
<path opacity="0.05" d="M45.3525 57.6653C45.3525 57.6653 46.9548 59.009 47.1004 60.0926C47.2461 61.1762 45.3525 57.6653 45.3525 57.6653Z" fill="black"/>
<path opacity="0.05" d="M48.9121 58.5433C48.9121 58.5433 48.793 62.1299 50.2447 62.8114C51.6964 63.4929 48.4369 61.2535 48.9121 58.5433Z" fill="black"/>
<path opacity="0.05" d="M68.1787 68.347C68.1787 68.347 71.0866 66.5545 71.5527 67.7196C72.0189 68.8847 71.152 69.0819 71.152 69.0819L68.1787 68.347Z" fill="black"/>
<path opacity="0.05" d="M71.6914 71.7186C70.6479 72.459 69.8652 72.3945 69.9406 73.0494C70.0159 73.7042 70.1087 73.4505 70.8137 73.2821C71.5187 73.1138 71.6914 71.7186 71.6914 71.7186Z" fill="black"/>
<path opacity="0.05" d="M72.5684 74.3527C72.5684 74.3527 71.2706 76.0163 70.8644 76.1054C70.4582 76.1945 72.5684 74.3527 72.5684 74.3527Z" fill="black"/>
<path opacity="0.1" d="M91.8821 83.4759C91.7153 83.3158 97.3826 83.4759 98.7283 83.1354C98.7283 83.1354 99.4106 84.0967 98.1036 84.3237C96.7966 84.5507 91.0049 84.8912 91.0049 84.8912C91.0049 84.8912 92.7581 84.3249 91.8821 83.4759Z" fill="black"/>
<path opacity="0.1" d="M90.0397 91.3387C89.7986 91.7136 88.9945 92.301 88.2589 92.7972C88.0767 92.0723 87.6356 90.9337 87.4932 89.8964L88.9205 89.284C88.874 89.284 90.5178 90.5913 90.0397 91.3387Z" fill="black"/>
<path opacity="0.1" d="M83.9814 72.5716C83.9814 72.5716 88.0085 72.008 89.2491 70.8406C89.2491 70.8406 88.7803 72.8407 83.9814 72.5716Z" fill="black"/>
<path opacity="0.1" d="M82.2266 74.7916C82.2266 74.7916 83.0816 75.7793 84.5283 74.7916C85.975 73.804 82.2266 74.7916 82.2266 74.7916Z" fill="black"/>
<path opacity="0.1" d="M91.0059 74.3527C91.0059 74.3527 88.7958 76.4728 89.3346 76.9391C89.8734 77.4054 91.0059 74.3527 91.0059 74.3527Z" fill="black"/>
<path opacity="0.1" d="M91.0059 70.8409C91.0059 70.8409 89.893 70.7855 90.1732 72.1958C90.4533 73.6061 91.0059 70.8409 91.0059 70.8409Z" fill="black"/>
<path opacity="0.1" d="M94.99 58.6777C95.1201 58.6649 95.2457 58.6265 95.3584 58.5651C95.8841 58.3432 96.4743 58.2877 97.0375 58.4072C97.8446 58.581 98.5165 59.0999 99.3037 59.341C99.7569 59.4805 100.364 59.4695 100.588 59.0791C100.785 58.7328 100.552 58.3179 100.323 57.9875C99.9252 57.4012 99.4892 56.7905 98.8279 56.4576C98.4473 56.2864 98.0406 56.1696 97.6219 56.1113C96.7817 55.9608 95.9203 55.8457 95.0709 55.9485C94.4082 56.0293 92.4906 56.4381 92.7928 57.3792C92.9439 57.8504 93.4766 57.7843 93.8755 57.9446C94.2545 58.0988 94.5673 58.6875 94.99 58.6777Z" fill="black"/>
<path d="M94.99 58.6778C95.1198 58.6638 95.2452 58.6255 95.3584 58.5652C95.8839 58.3428 96.4743 58.2873 97.0375 58.4074C97.8446 58.5811 98.5165 59.0987 99.3037 59.341C99.7569 59.4805 100.364 59.4695 100.588 59.0792C100.785 58.7316 100.552 58.318 100.323 57.9877C99.9252 57.4015 99.4892 56.7909 98.8279 56.4581C98.4475 56.2863 98.0408 56.1695 97.6219 56.1118C96.7817 55.9612 95.9203 55.8462 95.0709 55.9478C94.4082 56.0285 92.4906 56.4373 92.7928 57.3795C92.9439 57.8506 93.4766 57.7833 93.8755 57.9448C94.2545 58.0978 94.5673 58.6839 94.99 58.6778Z" fill="#663D5C"/>
<path opacity="0.1" d="M99.7842 56.7872L92.7607 55.9489C92.7607 55.9489 92.7858 55.8511 92.8288 55.6695C94.3024 55.2127 97.9454 54.3241 99.69 56.0537L99.7842 56.7872Z" fill="black"/>
<path d="M91.8828 56.6821C91.8828 56.6821 98.1703 54.4491 99.7842 57.5746C99.7842 57.5657 96.4421 58.0972 91.8828 56.6821Z" fill="#575A89"/>
<path opacity="0.1" d="M94.877 92.7723C94.8229 92.8014 94.7604 92.8061 94.7031 92.7852C94.6458 92.7644 94.5985 92.7198 94.5715 92.6612C94.5228 92.5402 94.5067 92.4067 94.5248 92.2761L94.5556 91.691C94.6023 90.7998 94.6502 89.8963 94.9055 89.0471C95.1934 88.1489 95.6604 87.3305 96.2735 86.65" fill="black"/>
<path opacity="0.1" d="M93.6396 75.8526C93.6396 75.8526 97.4444 74.9951 98.342 75.294C99.2396 75.5929 98.9367 76.0572 98.342 76.1037C97.7473 76.1503 93.6396 75.8526 93.6396 75.8526Z" fill="black"/>
<path opacity="0.1" d="M65.5316 79.6233C65.5316 79.6233 65.7688 80.0221 64.2426 80.4201C62.7164 80.818 65.5316 79.6233 65.5316 79.6233Z" fill="black"/>
<path opacity="0.1" d="M64.667 84.0136C64.667 84.0136 62.258 83.9798 63.0834 84.6891C63.9088 85.3984 64.667 84.0136 64.667 84.0136Z" fill="black"/>
<path opacity="0.1" d="M51.498 79.6233C51.498 79.6233 55.0074 81.7994 56.4616 82.0307C57.9159 82.262 53.8045 82.9849 51.498 79.6233Z" fill="black"/>
<path opacity="0.1" d="M55.0098 93.6766C55.0098 93.6766 55.152 94.6805 56.3671 95.1824C57.5822 95.6844 58.5118 95.2943 58.5215 95.1824C58.5312 95.0706 55.0098 93.6766 55.0098 93.6766Z" fill="black"/>
<path opacity="0.1" d="M58.5225 112.12C58.5225 112.12 59.957 114.095 60.2783 112.12H58.5225Z" fill="black"/>
<path opacity="0.1" d="M69.9346 95.4327C69.9346 95.4327 69.6258 96.2809 69.0566 96.3106L69.9346 95.4327Z" fill="black"/>
<path opacity="0.1" d="M100.586 58.7346C100.364 59.1685 99.7555 59.1793 99.3023 59.0248C98.5151 58.7536 97.8445 58.184 97.0361 57.9901C96.4729 57.8577 95.8827 57.9192 95.357 58.1651C95.2444 58.2332 95.1188 58.2758 94.9886 58.2898C94.5659 58.2966 94.2531 57.6484 93.8754 57.4762C93.4778 57.2972 92.9477 57.3704 92.7927 56.8484C92.7866 56.8284 92.7817 56.808 92.7781 56.7874C92.7508 56.9099 92.7558 57.0377 92.7927 57.1575C92.9438 57.6796 93.4765 57.605 93.8754 57.784C94.2531 57.9535 94.5659 58.5976 94.9886 58.5976C95.1185 58.5823 95.2439 58.5399 95.357 58.4729C95.8825 58.2263 96.4729 58.1648 97.0361 58.2979C97.8432 58.4905 98.5151 59.0641 99.3023 59.3326C99.7555 59.4858 100.363 59.475 100.586 59.0424C100.659 58.8945 100.68 58.7256 100.646 58.5637C100.635 58.6234 100.614 58.6809 100.586 58.7346Z" fill="black"/>
<path opacity="0.1" d="M99.7842 97.5996C99.7747 97.7642 99.7333 97.924 99.6632 98.0666L96.2725 97.5996C96.3198 97.3661 96.3672 97.1887 96.3672 97.1887C96.3672 97.1887 99.1713 97.9421 99.6553 97.5872H99.6632L99.7842 97.5996Z" fill="black"/>
<path d="M96.335 97.1887C96.3227 97.224 96.2725 97.663 96.2725 97.663L99.7842 98.0666V97.7008L96.335 97.1887Z" fill="#575A89"/>
<path opacity="0.1" d="M113.207 98.184C115.013 98.184 116.477 97.9849 116.477 97.7393C116.477 97.4936 115.013 97.2945 113.207 97.2945C111.401 97.2945 109.937 97.4936 109.937 97.7393C109.937 97.9849 111.401 98.184 113.207 98.184Z" fill="#EF2463"/>
<path opacity="0.1" d="M125.734 99.4413C127.54 99.4413 129.004 99.2422 129.004 98.9965C129.004 98.7509 127.54 98.5518 125.734 98.5518C123.928 98.5518 122.464 98.7509 122.464 98.9965C122.464 99.2422 123.928 99.4413 125.734 99.4413Z" fill="#EF2463"/>
<path opacity="0.1" d="M140.488 97.7372C142.294 97.7372 143.758 97.5381 143.758 97.2925C143.758 97.0468 142.294 96.8477 140.488 96.8477C138.682 96.8477 137.218 97.0468 137.218 97.2925C137.218 97.5381 138.682 97.7372 140.488 97.7372Z" fill="#EF2463"/>
<path opacity="0.1" d="M120.719 102.896C122.003 102.896 123.044 102.754 123.044 102.58C123.044 102.405 122.003 102.264 120.719 102.264C119.435 102.264 118.395 102.405 118.395 102.58C118.395 102.754 119.435 102.896 120.719 102.896Z" fill="#EF2463"/>
<path opacity="0.1" d="M133.719 102.579C135.003 102.579 136.044 102.437 136.044 102.263C136.044 102.088 135.003 101.947 133.719 101.947C132.435 101.947 131.395 102.088 131.395 102.263C131.395 102.437 132.435 102.579 133.719 102.579Z" fill="#EF2463"/>
<path d="M125.803 98.8971C125.803 98.8971 121.215 84.0033 126.521 78.0382C130.488 73.576 134.992 74.1098 137.009 74.6615C137.531 74.799 138.017 75.0474 138.432 75.3894C138.848 75.7314 139.183 76.1589 139.415 76.6421C140.12 78.1492 139.992 80.5959 135.015 83.4506C126.681 88.2309 126.16 94.7879 126.16 94.7879L125.803 98.8971Z" fill="#EF2463"/>
<path d="M136.292 76.7782C136.292 76.7782 122.773 80.9656 125.803 98.9011" stroke="#565987" stroke-width="1.32945" stroke-miterlimit="10"/>
<path d="M128.395 78.2745C128.395 78.2745 130.256 79.5174 129.664 81.3849" stroke="#565987" stroke-width="1.32945" stroke-miterlimit="10"/>
<path d="M134.934 79.3816C134.934 79.3816 133.796 78.2353 132.411 78.8671" stroke="#565987" stroke-width="1.32945" stroke-miterlimit="10"/>
<path d="M129.591 85.1485C129.591 85.1485 127.593 84.1438 127.076 85.4021" stroke="#565987" stroke-width="1.32945" stroke-miterlimit="10"/>
<path d="M124.646 87.2438C124.646 87.2438 126.148 87.1254 126.174 87.8364" stroke="#565987" stroke-width="1.32945" stroke-miterlimit="10"/>
<path d="M125.618 99.0152C125.618 99.0152 130.989 88.1937 132.464 88.4273C133.165 88.5403 133.489 89.2231 133.638 89.9069C133.819 90.7939 133.717 91.7149 133.346 92.5417C132.58 94.2761 130.532 97.5662 125.618 99.0152Z" fill="#EF2463"/>
<path d="M132.424 90.4808C132.424 90.4808 126.786 98.5798 125.696 98.936" stroke="#565987" stroke-width="1.32945" stroke-miterlimit="10"/>
<path d="M132.943 91.7459H131.627" stroke="#565987" stroke-width="1.32945" stroke-miterlimit="10"/>
<path d="M131.367 94.7098L129.305 94.7975" stroke="#565987" stroke-width="1.32945" stroke-miterlimit="10"/>
<path d="M130.112 92.3382L130.336 93.402" stroke="#565987" stroke-width="1.32945" stroke-miterlimit="10"/>
<path d="M127.918 95.5775L127.957 96.5452" stroke="#565987" stroke-width="1.32945" stroke-miterlimit="10"/>
<path d="M125.778 99.0152C125.778 99.0152 120.407 88.1937 118.932 88.4273C118.231 88.5403 117.907 89.2231 117.758 89.9069C117.577 90.7939 117.679 91.7148 118.05 92.5417C118.816 94.2761 120.864 97.5662 125.778 99.0152Z" fill="#EF2463"/>
<path d="M118.97 90.4808C118.97 90.4808 124.607 98.5798 125.691 98.936" stroke="#565987" stroke-width="1.32945" stroke-miterlimit="10"/>
<path d="M118.452 91.7459H119.769" stroke="#565987" stroke-width="1.32945" stroke-miterlimit="10"/>
<path d="M120.028 94.7098L122.091 94.7975" stroke="#565987" stroke-width="1.32945" stroke-miterlimit="10"/>
<path d="M121.283 92.3382L121.059 93.402" stroke="#565987" stroke-width="1.32945" stroke-miterlimit="10"/>
<path d="M123.477 95.5775L123.438 96.5452" stroke="#565987" stroke-width="1.32945" stroke-miterlimit="10"/>
<path d="M134.999 101.542C135.145 101.425 135.252 101.266 135.305 101.087C135.329 100.997 135.32 100.902 135.281 100.817C135.242 100.733 135.176 100.664 135.092 100.622C134.895 100.548 134.685 100.682 134.526 100.819C134.367 100.955 134.186 101.109 133.978 101.081C134.085 100.985 134.165 100.863 134.21 100.727C134.255 100.591 134.264 100.446 134.236 100.306C134.227 100.248 134.202 100.194 134.165 100.149C134.058 100.034 133.857 100.083 133.727 100.174C133.312 100.463 133.194 101.019 133.194 101.522C133.152 101.342 133.187 101.152 133.186 100.967C133.185 100.781 133.134 100.576 132.973 100.475C132.875 100.423 132.764 100.397 132.653 100.4C132.466 100.394 132.259 100.412 132.131 100.547C131.973 100.715 132.014 100.996 132.151 101.181C132.289 101.366 132.499 101.482 132.691 101.604C132.846 101.695 132.978 101.819 133.077 101.968C133.089 101.989 133.098 102.011 133.106 102.034H134.275C134.537 101.903 134.781 101.738 134.999 101.542Z" fill="#EF2463"/>
<path d="M114.532 97.183C114.677 97.0646 114.784 96.9056 114.837 96.7266C114.861 96.6365 114.852 96.541 114.813 96.4563C114.775 96.3715 114.708 96.3024 114.624 96.2607C114.427 96.1867 114.218 96.3209 114.059 96.4572C113.9 96.5935 113.718 96.7488 113.51 96.7192C113.617 96.6233 113.697 96.5015 113.742 96.3658C113.787 96.23 113.796 96.085 113.768 95.9448C113.759 95.8869 113.734 95.8325 113.696 95.7874C113.59 95.6722 113.39 95.7219 113.259 95.8127C112.845 96.1012 112.726 96.6579 112.726 97.1608C112.684 96.9801 112.719 96.791 112.718 96.6061C112.717 96.4213 112.666 96.2142 112.505 96.1138C112.406 96.0617 112.296 96.0358 112.185 96.0388C111.998 96.0325 111.791 96.0515 111.663 96.1857C111.505 96.3536 111.547 96.6357 111.684 96.8195C111.822 97.0034 112.031 97.1206 112.218 97.2485C112.372 97.3394 112.504 97.4636 112.604 97.6119C112.615 97.6329 112.625 97.6548 112.633 97.6774H113.801C114.066 97.5464 114.312 97.38 114.532 97.183Z" fill="#EF2463"/>
<path d="M121.352 101.542C121.499 101.425 121.605 101.266 121.659 101.087C121.682 100.997 121.674 100.902 121.635 100.817C121.596 100.733 121.529 100.664 121.445 100.622C121.249 100.548 121.039 100.682 120.88 100.819C120.721 100.955 120.538 101.109 120.33 101.081C120.437 100.985 120.517 100.863 120.563 100.727C120.608 100.592 120.617 100.447 120.59 100.306C120.58 100.248 120.555 100.194 120.517 100.149C120.41 100.034 120.211 100.083 120.081 100.174C119.666 100.463 119.547 101.019 119.547 101.522C119.505 101.342 119.54 101.152 119.54 100.967C119.54 100.781 119.486 100.576 119.326 100.475C119.228 100.423 119.118 100.397 119.006 100.4C118.82 100.394 118.612 100.412 118.485 100.547C118.327 100.715 118.367 100.996 118.505 101.181C118.643 101.366 118.852 101.482 119.045 101.604C119.199 101.695 119.331 101.819 119.431 101.968C119.442 101.989 119.451 102.011 119.459 102.034H120.632C120.894 101.903 121.136 101.738 121.352 101.542Z" fill="#EF2463"/>
<path d="M140.699 92.7304C140.699 92.7304 141.136 93.298 140.496 94.1551C139.856 95.0122 139.328 95.7404 139.541 96.2689C139.541 96.2689 140.508 94.6835 141.294 94.6561C142.08 94.6286 141.563 93.689 140.699 92.7304Z" fill="#EF2463"/>
<path opacity="0.1" d="M140.699 92.7304C140.737 92.7851 140.767 92.8449 140.788 92.908C141.556 93.801 141.962 94.6349 141.228 94.6561C140.54 94.6751 139.716 95.8916 139.521 96.1991C139.527 96.2229 139.534 96.2462 139.544 96.2689C139.544 96.2689 140.511 94.6835 141.297 94.6561C142.083 94.6286 141.564 93.689 140.699 92.7304Z" fill="black"/>
<path d="M141.513 93.4531C141.513 93.6528 141.49 93.8154 141.463 93.8154C141.435 93.8154 141.412 93.6528 141.412 93.4531C141.412 93.2534 141.441 93.3474 141.468 93.3474C141.496 93.3474 141.513 93.2534 141.513 93.4531Z" fill="#FFD037"/>
<path d="M141.792 93.6905C141.615 93.7856 141.46 93.8437 141.447 93.8194C141.434 93.7951 141.567 93.6979 141.744 93.6081C141.921 93.5183 141.85 93.5817 141.864 93.6081C141.878 93.6345 141.97 93.5986 141.792 93.6905Z" fill="#FFD037"/>
<path d="M138.383 92.7304C138.383 92.7304 137.946 93.298 138.586 94.1551C139.226 95.0122 139.76 95.7404 139.546 96.2689C139.546 96.2689 138.58 94.6835 137.793 94.6561C137.007 94.6286 137.523 93.689 138.383 92.7304Z" fill="#EF2463"/>
<path opacity="0.1" d="M138.384 92.7304C138.346 92.7852 138.316 92.8449 138.294 92.908C137.527 93.801 137.121 94.6349 137.856 94.6561C138.543 94.6751 139.368 95.8916 139.563 96.1991C139.557 96.2229 139.549 96.2462 139.539 96.2689C139.539 96.2689 138.573 94.6835 137.786 94.6561C137 94.6286 137.524 93.689 138.384 92.7304Z" fill="black"/>
<path d="M137.57 93.4531C137.57 93.6528 137.593 93.8154 137.62 93.8154C137.648 93.8154 137.671 93.6528 137.671 93.4531C137.671 93.2534 137.642 93.3474 137.615 93.3474C137.587 93.3474 137.57 93.2534 137.57 93.4531Z" fill="#FFD037"/>
<path d="M137.291 93.6905C137.468 93.7856 137.622 93.8437 137.635 93.8194C137.648 93.7951 137.516 93.6979 137.339 93.6081C137.162 93.5183 137.232 93.5817 137.218 93.6081C137.204 93.6345 137.114 93.5986 137.291 93.6905Z" fill="#FFD037"/>
<path d="M137.71 96.1965C137.71 96.1965 138.935 96.1595 139.304 95.8986C139.673 95.6376 141.188 95.3281 141.28 95.7454C141.372 96.1627 143.121 97.8213 141.737 97.8329C140.354 97.8446 138.524 97.6217 138.156 97.3977C137.788 97.1737 137.71 96.1965 137.71 96.1965Z" fill="#A8A8A8"/>
<path opacity="0.2" d="M141.762 97.6874C140.375 97.699 138.548 97.4761 138.18 97.2521C137.9 97.0831 137.788 96.4756 137.753 96.1957H137.713C137.713 96.1957 137.79 97.174 138.159 97.3969C138.528 97.6198 140.358 97.8427 141.74 97.8321C142.139 97.8321 142.274 97.6884 142.274 97.4803C142.212 97.6071 142.059 97.6853 141.762 97.6874Z" fill="black"/>
<rect x="212.711" y="73.1199" width="55.8367" height="15.9534" fill="white"/>
<path d="M179.499 28.8324C180.571 28.8324 181.498 29.011 182.282 29.3682C183.077 29.7253 183.687 30.2323 184.114 30.8891C184.54 31.5458 184.753 32.3235 184.753 33.2222C184.753 34.1094 184.54 34.8871 184.114 35.5554C183.687 36.2122 183.077 36.7191 182.282 37.0763C181.498 37.422 180.571 37.5948 179.499 37.5948H177.062V40.9304H174.263V28.8324H179.499ZM179.344 35.3134C180.185 35.3134 180.824 35.1349 181.262 34.7777C181.7 34.409 181.919 33.8905 181.919 33.2222C181.919 32.5424 181.7 32.024 181.262 31.6668C180.824 31.2981 180.185 31.1137 179.344 31.1137H177.062V35.3134H179.344ZM189.137 32.8593C189.46 32.4099 189.892 32.07 190.433 31.8396C190.986 31.6092 191.62 31.494 192.334 31.494V33.9827C192.035 33.9596 191.833 33.9481 191.73 33.9481C190.958 33.9481 190.353 34.167 189.915 34.6049C189.477 35.0312 189.258 35.6764 189.258 36.5405V40.9304H186.562V31.6322H189.137V32.8593ZM198.278 41.0686C197.298 41.0686 196.417 40.867 195.633 40.4637C194.861 40.0489 194.256 39.4786 193.819 38.7527C193.381 38.0268 193.162 37.203 193.162 36.2813C193.162 35.3595 193.381 34.5357 193.819 33.8098C194.256 33.084 194.861 32.5194 195.633 32.1161C196.417 31.7013 197.298 31.494 198.278 31.494C199.257 31.494 200.133 31.7013 200.905 32.1161C201.677 32.5194 202.281 33.084 202.719 33.8098C203.157 34.5357 203.376 35.3595 203.376 36.2813C203.376 37.203 203.157 38.0268 202.719 38.7527C202.281 39.4786 201.677 40.0489 200.905 40.4637C200.133 40.867 199.257 41.0686 198.278 41.0686ZM198.278 38.8564C198.969 38.8564 199.533 38.626 199.971 38.1651C200.421 37.6927 200.645 37.0648 200.645 36.2813C200.645 35.4978 200.421 34.8756 199.971 34.4147C199.533 33.9423 198.969 33.7061 198.278 33.7061C197.586 33.7061 197.016 33.9423 196.567 34.4147C196.117 34.8756 195.893 35.4978 195.893 36.2813C195.893 37.0648 196.117 37.6927 196.567 38.1651C197.016 38.626 197.586 38.8564 198.278 38.8564ZM217.086 31.494C218.25 31.494 219.171 31.8396 219.851 32.5309C220.543 33.2107 220.888 34.2362 220.888 35.6073V40.9304H218.192V36.022C218.192 35.2846 218.037 34.7374 217.725 34.3802C217.426 34.0115 216.994 33.8271 216.429 33.8271C215.796 33.8271 215.294 34.0345 214.926 34.4493C214.557 34.8526 214.373 35.4575 214.373 36.264V40.9304H211.676V36.022C211.676 34.5588 211.089 33.8271 209.914 33.8271C209.291 33.8271 208.796 34.0345 208.427 34.4493C208.059 34.8526 207.874 35.4575 207.874 36.264V40.9304H205.178V31.6322H207.753V32.7037C208.099 32.312 208.519 32.0124 209.015 31.805C209.522 31.5976 210.075 31.494 210.674 31.494C211.331 31.494 211.924 31.6265 212.454 31.8915C212.984 32.1449 213.411 32.5194 213.733 33.0148C214.113 32.5309 214.592 32.1565 215.168 31.8915C215.755 31.6265 216.395 31.494 217.086 31.494ZM227.83 41.0686C226.851 41.0686 225.97 40.867 225.186 40.4637C224.414 40.0489 223.809 39.4786 223.372 38.7527C222.934 38.0268 222.715 37.203 222.715 36.2813C222.715 35.3595 222.934 34.5357 223.372 33.8098C223.809 33.084 224.414 32.5194 225.186 32.1161C225.97 31.7013 226.851 31.494 227.83 31.494C228.81 31.494 229.686 31.7013 230.457 32.1161C231.229 32.5194 231.834 33.084 232.272 33.8098C232.71 34.5357 232.929 35.3595 232.929 36.2813C232.929 37.203 232.71 38.0268 232.272 38.7527C231.834 39.4786 231.229 40.0489 230.457 40.4637C229.686 40.867 228.81 41.0686 227.83 41.0686ZM227.83 38.8564C228.522 38.8564 229.086 38.626 229.524 38.1651C229.974 37.6927 230.198 37.0648 230.198 36.2813C230.198 35.4978 229.974 34.8756 229.524 34.4147C229.086 33.9423 228.522 33.7061 227.83 33.7061C227.139 33.7061 226.569 33.9423 226.12 34.4147C225.67 34.8756 225.445 35.4978 225.445 36.2813C225.445 37.0648 225.67 37.6927 226.12 38.1651C226.569 38.626 227.139 38.8564 227.83 38.8564ZM250.911 28.8324V40.9304H248.111V35.9702H242.616V40.9304H239.816V28.8324H242.616V33.6025H248.111V28.8324H250.911ZM257.334 31.494C258.774 31.494 259.88 31.8396 260.652 32.5309C261.424 33.2107 261.81 34.2419 261.81 35.6245V40.9304H259.287V39.7724C258.78 40.6366 257.835 41.0686 256.452 41.0686C255.738 41.0686 255.116 40.9476 254.586 40.7057C254.067 40.4637 253.67 40.1296 253.393 39.7033C253.117 39.277 252.979 38.7931 252.979 38.2515C252.979 37.3874 253.301 36.7076 253.946 36.2122C254.603 35.7167 255.611 35.469 256.971 35.469H259.114C259.114 34.8814 258.935 34.432 258.578 34.1209C258.221 33.7983 257.685 33.637 256.971 33.637C256.475 33.637 255.986 33.7177 255.502 33.879C255.029 34.0288 254.626 34.2362 254.292 34.5012L253.324 32.6173C253.831 32.2602 254.436 31.9836 255.139 31.7878C255.853 31.5919 256.585 31.494 257.334 31.494ZM257.126 39.2539C257.587 39.2539 257.996 39.1502 258.354 38.9428C258.711 38.7239 258.964 38.4071 259.114 37.9923V37.0417H257.265C256.159 37.0417 255.606 37.4047 255.606 38.1305C255.606 38.4762 255.738 38.7527 256.003 38.9601C256.28 39.156 256.654 39.2539 257.126 39.2539ZM266.825 32.8593C267.148 32.4099 267.58 32.07 268.122 31.8396C268.675 31.6092 269.308 31.494 270.023 31.494V33.9827C269.723 33.9596 269.521 33.9481 269.418 33.9481C268.646 33.9481 268.041 34.167 267.603 34.6049C267.165 35.0312 266.946 35.6764 266.946 36.5405V40.9304H264.25V31.6322H266.825V32.8593ZM271.626 31.6322H274.322V40.9304H271.626V31.6322ZM272.974 30.336C272.478 30.336 272.075 30.192 271.764 29.9039C271.453 29.6159 271.297 29.2587 271.297 28.8324C271.297 28.4061 271.453 28.0489 271.764 27.7609C272.075 27.4728 272.478 27.3288 272.974 27.3288C273.469 27.3288 273.873 27.4671 274.184 27.7436C274.495 28.0201 274.65 28.3658 274.65 28.7806C274.65 29.2299 274.495 29.6044 274.184 29.9039C273.873 30.192 273.469 30.336 272.974 30.336ZM286.316 36.1776L284.691 37.8713V40.9304H281.909V28.8324H284.691V34.4839L290.049 28.8324H293.16L288.148 34.2246L293.454 40.9304H290.187L286.316 36.1776ZM303.232 36.3159C303.232 36.3504 303.215 36.5924 303.18 37.0417H296.146C296.273 37.6178 296.572 38.0729 297.045 38.4071C297.517 38.7412 298.105 38.9083 298.807 38.9083C299.291 38.9083 299.718 38.8391 300.086 38.7009C300.467 38.5511 300.818 38.3207 301.141 38.0096L302.575 39.565C301.699 40.5674 300.421 41.0686 298.738 41.0686C297.69 41.0686 296.762 40.867 295.956 40.4637C295.149 40.0489 294.527 39.4786 294.089 38.7527C293.651 38.0268 293.432 37.203 293.432 36.2813C293.432 35.3711 293.646 34.553 294.072 33.8271C294.51 33.0897 295.103 32.5194 295.852 32.1161C296.613 31.7013 297.459 31.494 298.393 31.494C299.303 31.494 300.127 31.6898 300.864 32.0816C301.601 32.4733 302.178 33.0379 302.592 33.7753C303.019 34.5012 303.232 35.348 303.232 36.3159ZM298.41 33.5333C297.799 33.5333 297.287 33.7061 296.872 34.0518C296.457 34.3975 296.203 34.8699 296.111 35.469H300.691C300.599 34.8814 300.346 34.4147 299.931 34.0691C299.516 33.7119 299.009 33.5333 298.41 33.5333ZM316.935 31.494C318.098 31.494 319.02 31.8396 319.7 32.5309C320.391 33.2107 320.737 34.2362 320.737 35.6073V40.9304H318.041V36.022C318.041 35.2846 317.885 34.7374 317.574 34.3802C317.275 34.0115 316.842 33.8271 316.278 33.8271C315.644 33.8271 315.143 34.0345 314.774 34.4493C314.406 34.8526 314.221 35.4575 314.221 36.264V40.9304H311.525V36.022C311.525 34.5588 310.938 33.8271 309.762 33.8271C309.14 33.8271 308.645 34.0345 308.276 34.4493C307.907 34.8526 307.723 35.4575 307.723 36.264V40.9304H305.027V31.6322H307.602V32.7037C307.948 32.312 308.368 32.0124 308.864 31.805C309.371 31.5976 309.924 31.494 310.523 31.494C311.179 31.494 311.773 31.6265 312.303 31.8915C312.833 32.1449 313.259 32.5194 313.582 33.0148C313.962 32.5309 314.44 32.1565 315.016 31.8915C315.604 31.6265 316.243 31.494 316.935 31.494ZM332.363 36.3159C332.363 36.3504 332.346 36.5924 332.311 37.0417H325.277C325.404 37.6178 325.703 38.0729 326.176 38.4071C326.648 38.7412 327.236 38.9083 327.938 38.9083C328.422 38.9083 328.849 38.8391 329.217 38.7009C329.598 38.5511 329.949 38.3207 330.272 38.0096L331.706 39.565C330.83 40.5674 329.551 41.0686 327.869 41.0686C326.821 41.0686 325.893 40.867 325.087 40.4637C324.28 40.0489 323.658 39.4786 323.22 38.7527C322.782 38.0268 322.563 37.203 322.563 36.2813C322.563 35.3711 322.777 34.553 323.203 33.8271C323.641 33.0897 324.234 32.5194 324.983 32.1161C325.743 31.7013 326.59 31.494 327.524 31.494C328.434 31.494 329.258 31.6898 329.995 32.0816C330.732 32.4733 331.309 33.0379 331.723 33.7753C332.15 34.5012 332.363 35.348 332.363 36.3159ZM327.541 33.5333C326.93 33.5333 326.418 33.7061 326.003 34.0518C325.588 34.3975 325.334 34.8699 325.242 35.469H329.822C329.73 34.8814 329.477 34.4147 329.062 34.0691C328.647 33.7119 328.14 33.5333 327.541 33.5333ZM336.733 32.8593C337.056 32.4099 337.488 32.07 338.029 31.8396C338.582 31.6092 339.216 31.494 339.93 31.494V33.9827C339.631 33.9596 339.429 33.9481 339.325 33.9481C338.553 33.9481 337.948 34.167 337.511 34.6049C337.073 35.0312 336.854 35.6764 336.854 36.5405V40.9304H334.158V31.6322H336.733V32.8593ZM350.92 28.1065V40.9304H348.345V39.8588C347.677 40.6654 346.709 41.0686 345.441 41.0686C344.566 41.0686 343.771 40.8727 343.056 40.481C342.353 40.0893 341.8 39.5305 341.397 38.8046C340.994 38.0787 340.792 37.2376 340.792 36.2813C340.792 35.325 340.994 34.4839 341.397 33.758C341.8 33.0321 342.353 32.4733 343.056 32.0816C343.771 31.6898 344.566 31.494 345.441 31.494C346.628 31.494 347.556 31.8684 348.224 32.6173V28.1065H350.92ZM345.908 38.8564C346.588 38.8564 347.152 38.626 347.602 38.1651C348.051 37.6927 348.276 37.0648 348.276 36.2813C348.276 35.4978 348.051 34.8756 347.602 34.4147C347.152 33.9423 346.588 33.7061 345.908 33.7061C345.217 33.7061 344.646 33.9423 344.197 34.4147C343.748 34.8756 343.523 35.4978 343.523 36.2813C343.523 37.0648 343.748 37.6927 344.197 38.1651C344.646 38.626 345.217 38.8564 345.908 38.8564ZM362.523 36.3159C362.523 36.3504 362.506 36.5924 362.471 37.0417H355.437C355.564 37.6178 355.864 38.0729 356.336 38.4071C356.808 38.7412 357.396 38.9083 358.099 38.9083C358.583 38.9083 359.009 38.8391 359.378 38.7009C359.758 38.5511 360.109 38.3207 360.432 38.0096L361.867 39.565C360.991 40.5674 359.712 41.0686 358.03 41.0686C356.981 41.0686 356.054 40.867 355.247 40.4637C354.441 40.0489 353.819 39.4786 353.381 38.7527C352.943 38.0268 352.724 37.203 352.724 36.2813C352.724 35.3711 352.937 34.553 353.363 33.8271C353.801 33.0897 354.395 32.5194 355.144 32.1161C355.904 31.7013 356.751 31.494 357.684 31.494C358.594 31.494 359.418 31.6898 360.156 32.0816C360.893 32.4733 361.469 33.0379 361.884 33.7753C362.31 34.5012 362.523 35.348 362.523 36.3159ZM357.701 33.5333C357.091 33.5333 356.578 33.7061 356.163 34.0518C355.748 34.3975 355.495 34.8699 355.403 35.469H359.983C359.891 34.8814 359.637 34.4147 359.222 34.0691C358.808 33.7119 358.301 33.5333 357.701 33.5333ZM368.311 37.2837L367.014 38.5626V40.9304H364.318V28.1065H367.014V35.3653L370.955 31.6322H374.169L370.298 35.5727L374.515 40.9304H371.249L368.311 37.2837ZM379.309 31.494C380.749 31.494 381.856 31.8396 382.628 32.5309C383.399 33.2107 383.785 34.2419 383.785 35.6245V40.9304H381.262V39.7724C380.755 40.6366 379.81 41.0686 378.428 41.0686C377.713 41.0686 377.091 40.9476 376.561 40.7057C376.043 40.4637 375.645 40.1296 375.369 39.7033C375.092 39.277 374.954 38.7931 374.954 38.2515C374.954 37.3874 375.277 36.7076 375.922 36.2122C376.579 35.7167 377.587 35.469 378.946 35.469H381.089C381.089 34.8814 380.911 34.432 380.554 34.1209C380.196 33.7983 379.661 33.637 378.946 33.637C378.451 33.637 377.961 33.7177 377.477 33.879C377.005 34.0288 376.602 34.2362 376.267 34.5012L375.3 32.6173C375.807 32.2602 376.411 31.9836 377.114 31.7878C377.829 31.5919 378.56 31.494 379.309 31.494ZM379.102 39.2539C379.563 39.2539 379.972 39.1502 380.329 38.9428C380.686 38.7239 380.94 38.4071 381.089 37.9923V37.0417H379.24C378.134 37.0417 377.581 37.4047 377.581 38.1305C377.581 38.4762 377.713 38.7527 377.978 38.9601C378.255 39.156 378.629 39.2539 379.102 39.2539ZM389.976 31.494C391.416 31.494 392.522 31.8396 393.294 32.5309C394.066 33.2107 394.452 34.2419 394.452 35.6245V40.9304H391.929V39.7724C391.422 40.6366 390.477 41.0686 389.095 41.0686C388.38 41.0686 387.758 40.9476 387.228 40.7057C386.71 40.4637 386.312 40.1296 386.035 39.7033C385.759 39.277 385.621 38.7931 385.621 38.2515C385.621 37.3874 385.943 36.7076 386.589 36.2122C387.245 35.7167 388.253 35.469 389.613 35.469H391.756C391.756 34.8814 391.578 34.432 391.22 34.1209C390.863 33.7983 390.327 33.637 389.613 33.637C389.118 33.637 388.628 33.7177 388.144 33.879C387.672 34.0288 387.268 34.2362 386.934 34.5012L385.966 32.6173C386.473 32.2602 387.078 31.9836 387.781 31.7878C388.495 31.5919 389.227 31.494 389.976 31.494ZM389.769 39.2539C390.229 39.2539 390.638 39.1502 390.996 38.9428C391.353 38.7239 391.606 38.4071 391.756 37.9923V37.0417H389.907C388.801 37.0417 388.248 37.4047 388.248 38.1305C388.248 38.4762 388.38 38.7527 388.645 38.9601C388.922 39.156 389.296 39.2539 389.769 39.2539ZM402.544 31.494C403.696 31.494 404.623 31.8396 405.326 32.5309C406.041 33.2222 406.398 34.2477 406.398 35.6073V40.9304H403.702V36.022C403.702 35.2846 403.54 34.7374 403.218 34.3802C402.895 34.0115 402.429 33.8271 401.818 33.8271C401.138 33.8271 400.597 34.0403 400.193 34.4666C399.79 34.8814 399.588 35.5036 399.588 36.3331V40.9304H396.892V31.6322H399.467V32.721C399.825 32.3293 400.268 32.0297 400.798 31.8223C401.328 31.6034 401.91 31.494 402.544 31.494ZM408.496 28.8324H411.711L411.175 36.7306H409.032L408.496 28.8324ZM410.103 41.0686C409.631 41.0686 409.234 40.9188 408.911 40.6193C408.6 40.3082 408.444 39.9337 408.444 39.4959C408.444 39.0581 408.6 38.6951 408.911 38.4071C409.222 38.1075 409.619 37.9577 410.103 37.9577C410.587 37.9577 410.985 38.1075 411.296 38.4071C411.607 38.6951 411.763 39.0581 411.763 39.4959C411.763 39.9337 411.601 40.3082 411.279 40.6193C410.968 40.9188 410.576 41.0686 410.103 41.0686Z" fill="white"/>
<path d="M180.486 62.6817C181.026 62.8324 181.452 63.1072 181.762 63.506C182.072 63.896 182.227 64.3923 182.227 64.995C182.227 65.8015 181.922 66.4219 181.31 66.8562C180.707 67.2905 179.825 67.5076 178.664 67.5076H174.224V58.2015H178.399C179.462 58.2015 180.282 58.4142 180.858 58.8396C181.443 59.2651 181.735 59.8545 181.735 60.6078C181.735 61.0953 181.62 61.5163 181.39 61.8708C181.168 62.2253 180.867 62.4956 180.486 62.6817ZM175.553 59.2784V62.2563H178.279C178.961 62.2563 179.484 62.1322 179.848 61.8841C180.22 61.627 180.406 61.2548 180.406 60.7673C180.406 60.2799 180.22 59.9121 179.848 59.6639C179.484 59.4069 178.961 59.2784 178.279 59.2784H175.553ZM178.611 66.4308C179.365 66.4308 179.932 66.3067 180.313 66.0585C180.694 65.8104 180.885 65.4204 180.885 64.8886C180.885 63.8517 180.127 63.3332 178.611 63.3332H175.553V66.4308H178.611ZM190.468 64.0245C190.468 64.122 190.459 64.2505 190.441 64.41H184.724C184.804 65.0304 185.075 65.5312 185.535 65.9123C186.005 66.2845 186.586 66.4707 187.277 66.4707C188.119 66.4707 188.797 66.187 189.311 65.6198L190.016 66.4441C189.697 66.8163 189.298 67.0999 188.819 67.2949C188.349 67.4899 187.822 67.5874 187.237 67.5874C186.493 67.5874 185.832 67.4367 185.256 67.1354C184.68 66.8252 184.233 66.3953 183.914 65.8458C183.603 65.2963 183.448 64.6759 183.448 63.9846C183.448 63.3021 183.599 62.6862 183.9 62.1367C184.21 61.5872 184.631 61.1617 185.163 60.8604C185.704 60.5502 186.311 60.3951 186.985 60.3951C187.658 60.3951 188.256 60.5502 188.779 60.8604C189.311 61.1617 189.723 61.5872 190.016 62.1367C190.317 62.6862 190.468 63.3154 190.468 64.0245ZM186.985 61.4719C186.373 61.4719 185.859 61.6581 185.442 62.0303C185.035 62.4026 184.795 62.89 184.724 63.4927H189.245C189.174 62.8989 188.93 62.4159 188.513 62.0436C188.106 61.6625 187.596 61.4719 186.985 61.4719ZM193.463 61.6448C193.685 61.2371 194.013 60.9269 194.447 60.7142C194.881 60.5014 195.408 60.3951 196.029 60.3951V61.6315C195.958 61.6226 195.86 61.6182 195.736 61.6182C195.045 61.6182 194.5 61.8265 194.101 62.243C193.711 62.6507 193.516 63.2357 193.516 63.9979V67.5076H192.24V60.4616H193.463V61.6448ZM200.155 60.3951C201.13 60.3951 201.874 60.6344 202.388 61.113C202.911 61.5916 203.173 62.3051 203.173 63.2534V67.5076H201.963V66.577C201.75 66.9049 201.444 67.1575 201.045 67.3348C200.655 67.5032 200.19 67.5874 199.649 67.5874C198.861 67.5874 198.227 67.3968 197.748 67.0157C197.279 66.6346 197.044 66.1339 197.044 65.5135C197.044 64.8931 197.27 64.3967 197.722 64.0245C198.174 63.6434 198.892 63.4528 199.875 63.4528H201.896V63.2002C201.896 62.6507 201.737 62.2297 201.418 61.9373C201.099 61.6448 200.629 61.4985 200.008 61.4985C199.592 61.4985 199.184 61.5694 198.785 61.7112C198.387 61.8442 198.05 62.0259 197.775 62.2563L197.243 61.2991C197.607 61.0066 198.041 60.7851 198.546 60.6344C199.051 60.4749 199.587 60.3951 200.155 60.3951ZM199.862 66.6036C200.35 66.6036 200.771 66.4973 201.125 66.2845C201.48 66.063 201.737 65.7528 201.896 65.3539V64.3701H199.929C198.847 64.3701 198.307 64.7335 198.307 65.4603C198.307 65.8148 198.444 66.094 198.719 66.2978C198.994 66.5017 199.375 66.6036 199.862 66.6036ZM209.27 60.3951C209.953 60.3951 210.564 60.5458 211.105 60.8471C211.645 61.1484 212.066 61.5694 212.368 62.1101C212.678 62.6507 212.833 63.2756 212.833 63.9846C212.833 64.6936 212.678 65.3229 212.368 65.8724C212.066 66.4131 211.645 66.834 211.105 67.1354C210.564 67.4367 209.953 67.5874 209.27 67.5874C208.765 67.5874 208.3 67.4899 207.874 67.2949C207.458 67.0999 207.103 66.8163 206.811 66.4441V70.0868H205.534V60.4616H206.757V61.5783C207.041 61.1883 207.4 60.8959 207.834 60.7009C208.269 60.497 208.747 60.3951 209.27 60.3951ZM209.164 66.4707C209.616 66.4707 210.019 66.3687 210.374 66.1649C210.737 65.9522 211.021 65.6597 211.224 65.2875C211.437 64.9063 211.543 64.4721 211.543 63.9846C211.543 63.4971 211.437 63.0673 211.224 62.695C211.021 62.3139 210.737 62.0214 210.374 61.8176C210.019 61.6138 209.616 61.5118 209.164 61.5118C208.721 61.5118 208.317 61.6182 207.954 61.8309C207.599 62.0347 207.316 62.3228 207.103 62.695C206.899 63.0673 206.797 63.4971 206.797 63.9846C206.797 64.4721 206.899 64.9063 207.103 65.2875C207.307 65.6597 207.591 65.9522 207.954 66.1649C208.317 66.3687 208.721 66.4707 209.164 66.4707ZM217.097 60.3951C218.072 60.3951 218.817 60.6344 219.331 61.113C219.854 61.5916 220.115 62.3051 220.115 63.2534V67.5076H218.905V66.577C218.693 66.9049 218.387 67.1575 217.988 67.3348C217.598 67.5032 217.133 67.5874 216.592 67.5874C215.803 67.5874 215.17 67.3968 214.691 67.0157C214.221 66.6346 213.986 66.1339 213.986 65.5135C213.986 64.8931 214.212 64.3967 214.664 64.0245C215.116 63.6434 215.834 63.4528 216.818 63.4528H218.839V63.2002C218.839 62.6507 218.679 62.2297 218.36 61.9373C218.041 61.6448 217.571 61.4985 216.951 61.4985C216.535 61.4985 216.127 61.5694 215.728 61.7112C215.329 61.8442 214.992 62.0259 214.718 62.2563L214.186 61.2991C214.549 61.0066 214.984 60.7851 215.489 60.6344C215.994 60.4749 216.53 60.3951 217.097 60.3951ZM216.805 66.6036C217.292 66.6036 217.713 66.4973 218.068 66.2845C218.422 66.063 218.679 65.7528 218.839 65.3539V64.3701H216.871C215.79 64.3701 215.249 64.7335 215.249 65.4603C215.249 65.8148 215.387 66.094 215.662 66.2978C215.936 66.5017 216.317 66.6036 216.805 66.6036ZM226.213 60.3951C226.895 60.3951 227.507 60.5458 228.047 60.8471C228.588 61.1484 229.009 61.5694 229.31 62.1101C229.621 62.6507 229.776 63.2756 229.776 63.9846C229.776 64.6936 229.621 65.3229 229.31 65.8724C229.009 66.4131 228.588 66.834 228.047 67.1354C227.507 67.4367 226.895 67.5874 226.213 67.5874C225.708 67.5874 225.242 67.4899 224.817 67.2949C224.4 67.0999 224.046 66.8163 223.753 66.4441V70.0868H222.477V60.4616H223.7V61.5783C223.984 61.1883 224.343 60.8959 224.777 60.7009C225.211 60.497 225.69 60.3951 226.213 60.3951ZM226.106 66.4707C226.558 66.4707 226.962 66.3687 227.316 66.1649C227.68 65.9522 227.963 65.6597 228.167 65.2875C228.38 64.9063 228.486 64.4721 228.486 63.9846C228.486 63.4971 228.38 63.0673 228.167 62.695C227.963 62.3139 227.68 62.0214 227.316 61.8176C226.962 61.6138 226.558 61.5118 226.106 61.5118C225.663 61.5118 225.26 61.6182 224.897 61.8309C224.542 62.0347 224.258 62.3228 224.046 62.695C223.842 63.0673 223.74 63.4971 223.74 63.9846C223.74 64.4721 223.842 64.9063 224.046 65.2875C224.25 65.6597 224.533 65.9522 224.897 66.1649C225.26 66.3687 225.663 66.4707 226.106 66.4707ZM238.107 60.4616V67.5076H236.897V66.4441C236.64 66.8075 236.298 67.0911 235.873 67.2949C235.456 67.4899 235 67.5874 234.504 67.5874C233.564 67.5874 232.824 67.3304 232.284 66.8163C231.743 66.2934 231.473 65.5268 231.473 64.5164V60.4616H232.749V64.3701C232.749 65.0526 232.913 65.5711 233.241 65.9256C233.569 66.2712 234.038 66.4441 234.65 66.4441C235.324 66.4441 235.855 66.2402 236.245 65.8325C236.635 65.4248 236.83 64.8487 236.83 64.1042V60.4616H238.107ZM244.299 60.3951C245.194 60.3951 245.903 60.6566 246.426 61.1795C246.957 61.6935 247.223 62.4513 247.223 63.4528V67.5076H245.947V63.5991C245.947 62.9166 245.783 62.4026 245.455 62.0569C245.127 61.7112 244.657 61.5384 244.046 61.5384C243.355 61.5384 242.81 61.7423 242.411 62.15C242.012 62.5488 241.812 63.1249 241.812 63.8782V67.5076H240.536V60.4616H241.759V61.5251C242.016 61.1617 242.362 60.8826 242.796 60.6876C243.239 60.4926 243.74 60.3951 244.299 60.3951ZM257.117 67.0955C256.931 67.255 256.701 67.3791 256.426 67.4677C256.151 67.5475 255.868 67.5874 255.575 67.5874C254.866 67.5874 254.317 67.3968 253.927 67.0157C253.537 66.6346 253.342 66.0896 253.342 65.3805V61.5118H252.145V60.4616H253.342V58.9194H254.618V60.4616H256.639V61.5118H254.618V65.3273C254.618 65.7084 254.711 66.0009 254.897 66.2048C255.092 66.4086 255.367 66.5105 255.721 66.5105C256.111 66.5105 256.444 66.3998 256.718 66.1782L257.117 67.0955ZM259.883 61.6448C260.105 61.2371 260.433 60.9269 260.867 60.7142C261.301 60.5014 261.829 60.3951 262.449 60.3951V61.6315C262.378 61.6226 262.281 61.6182 262.157 61.6182C261.465 61.6182 260.92 61.8265 260.521 62.243C260.132 62.6507 259.937 63.2357 259.937 63.9979V67.5076H258.66V60.4616H259.883V61.6448ZM266.575 60.3951C267.55 60.3951 268.294 60.6344 268.809 61.113C269.331 61.5916 269.593 62.3051 269.593 63.2534V67.5076H268.383V66.577C268.17 66.9049 267.865 67.1575 267.466 67.3348C267.076 67.5032 266.611 67.5874 266.07 67.5874C265.281 67.5874 264.647 67.3968 264.169 67.0157C263.699 66.6346 263.464 66.1339 263.464 65.5135C263.464 64.8931 263.69 64.3967 264.142 64.0245C264.594 63.6434 265.312 63.4528 266.296 63.4528H268.317V63.2002C268.317 62.6507 268.157 62.2297 267.838 61.9373C267.519 61.6448 267.049 61.4985 266.429 61.4985C266.012 61.4985 265.605 61.5694 265.206 61.7112C264.807 61.8442 264.47 62.0259 264.195 62.2563L263.664 61.2991C264.027 61.0066 264.461 60.7851 264.966 60.6344C265.472 60.4749 266.008 60.3951 266.575 60.3951ZM266.283 66.6036C266.77 66.6036 267.191 66.4973 267.546 66.2845C267.9 66.063 268.157 65.7528 268.317 65.3539V64.3701H266.349C265.268 64.3701 264.727 64.7335 264.727 65.4603C264.727 65.8148 264.864 66.094 265.139 66.2978C265.414 66.5017 265.795 66.6036 266.283 66.6036ZM275.717 60.3951C276.612 60.3951 277.321 60.6566 277.844 61.1795C278.376 61.6935 278.642 62.4513 278.642 63.4528V67.5076H277.366V63.5991C277.366 62.9166 277.202 62.4026 276.874 62.0569C276.546 61.7112 276.076 61.5384 275.464 61.5384C274.773 61.5384 274.228 61.7423 273.829 62.15C273.43 62.5488 273.231 63.1249 273.231 63.8782V67.5076H271.955V60.4616H273.178V61.5251C273.435 61.1617 273.781 60.8826 274.215 60.6876C274.658 60.4926 275.159 60.3951 275.717 60.3951ZM283.025 67.5874C282.448 67.5874 281.895 67.5121 281.363 67.3614C280.831 67.2019 280.414 67.0024 280.113 66.7631L280.645 65.7528C280.955 65.9743 281.332 66.1516 281.775 66.2845C282.218 66.4175 282.666 66.484 283.118 66.484C284.234 66.484 284.793 66.1649 284.793 65.5268C284.793 65.314 284.717 65.1456 284.567 65.0216C284.416 64.8975 284.225 64.8089 283.995 64.7557C283.773 64.6936 283.454 64.6272 283.038 64.5563C282.471 64.4676 282.005 64.3657 281.642 64.2505C281.287 64.1353 280.982 63.9403 280.725 63.6655C280.468 63.3908 280.339 63.0052 280.339 62.5089C280.339 61.8708 280.605 61.3612 281.137 60.98C281.669 60.5901 282.382 60.3951 283.277 60.3951C283.747 60.3951 284.217 60.4527 284.686 60.5679C285.156 60.6831 285.542 60.8382 285.843 61.0332L285.298 62.0436C284.722 61.6714 284.044 61.4852 283.264 61.4852C282.723 61.4852 282.311 61.5739 282.027 61.7511C281.744 61.9284 281.602 62.1633 281.602 62.4557C281.602 62.6862 281.682 62.8679 281.841 63.0008C282.001 63.1338 282.196 63.2312 282.426 63.2933C282.666 63.3553 282.998 63.4262 283.423 63.506C283.991 63.6035 284.447 63.7098 284.793 63.8251C285.147 63.9314 285.449 64.1175 285.697 64.3834C285.945 64.6493 286.069 65.0216 286.069 65.5002C286.069 66.1383 285.794 66.6479 285.245 67.029C284.704 67.4013 283.964 67.5874 283.025 67.5874ZM290.23 60.3951C291.205 60.3951 291.949 60.6344 292.463 61.113C292.986 61.5916 293.248 62.3051 293.248 63.2534V67.5076H292.038V66.577C291.825 66.9049 291.519 67.1575 291.121 67.3348C290.731 67.5032 290.265 67.5874 289.725 67.5874C288.936 67.5874 288.302 67.3968 287.824 67.0157C287.354 66.6346 287.119 66.1339 287.119 65.5135C287.119 64.8931 287.345 64.3967 287.797 64.0245C288.249 63.6434 288.967 63.4528 289.951 63.4528H291.971V63.2002C291.971 62.6507 291.812 62.2297 291.493 61.9373C291.174 61.6448 290.704 61.4985 290.084 61.4985C289.667 61.4985 289.259 61.5694 288.861 61.7112C288.462 61.8442 288.125 62.0259 287.85 62.2563L287.318 61.2991C287.682 61.0066 288.116 60.7851 288.621 60.6344C289.126 60.4749 289.663 60.3951 290.23 60.3951ZM289.937 66.6036C290.425 66.6036 290.846 66.4973 291.2 66.2845C291.555 66.063 291.812 65.7528 291.971 65.3539V64.3701H290.004C288.923 64.3701 288.382 64.7335 288.382 65.4603C288.382 65.8148 288.519 66.094 288.794 66.2978C289.069 66.5017 289.45 66.6036 289.937 66.6036ZM298.348 64.2239L296.886 65.5799V67.5076H295.61V57.6431H296.886V63.9713L300.728 60.4616H302.27L299.305 63.3731L302.563 67.5076H300.994L298.348 64.2239ZM305.602 67.5874C305.026 67.5874 304.472 67.5121 303.94 67.3614C303.408 67.2019 302.992 67.0024 302.69 66.7631L303.222 65.7528C303.532 65.9743 303.909 66.1516 304.352 66.2845C304.795 66.4175 305.243 66.484 305.695 66.484C306.812 66.484 307.37 66.1649 307.37 65.5268C307.37 65.314 307.295 65.1456 307.144 65.0216C306.993 64.8975 306.803 64.8089 306.572 64.7557C306.351 64.6936 306.032 64.6272 305.615 64.5563C305.048 64.4676 304.583 64.3657 304.219 64.2505C303.865 64.1353 303.559 63.9403 303.302 63.6655C303.045 63.3908 302.916 63.0052 302.916 62.5089C302.916 61.8708 303.182 61.3612 303.714 60.98C304.246 60.5901 304.959 60.3951 305.854 60.3951C306.324 60.3951 306.794 60.4527 307.264 60.5679C307.733 60.6831 308.119 60.8382 308.42 61.0332L307.875 62.0436C307.299 61.6714 306.621 61.4852 305.841 61.4852C305.3 61.4852 304.888 61.5739 304.605 61.7511C304.321 61.9284 304.179 62.1633 304.179 62.4557C304.179 62.6862 304.259 62.8679 304.419 63.0008C304.578 63.1338 304.773 63.2312 305.004 63.2933C305.243 63.3553 305.575 63.4262 306.001 63.506C306.568 63.6035 307.024 63.7098 307.37 63.8251C307.724 63.9314 308.026 64.1175 308.274 64.3834C308.522 64.6493 308.646 65.0216 308.646 65.5002C308.646 66.1383 308.371 66.6479 307.822 67.029C307.281 67.4013 306.541 67.5874 305.602 67.5874ZM310.241 60.4616H311.517V67.5076H310.241V60.4616ZM310.879 59.1055C310.631 59.1055 310.423 59.0258 310.255 58.8662C310.095 58.7067 310.015 58.5117 310.015 58.2813C310.015 58.0508 310.095 57.8559 310.255 57.6963C310.423 57.5279 310.631 57.4437 310.879 57.4437C311.128 57.4437 311.331 57.5235 311.491 57.683C311.659 57.8337 311.744 58.0242 311.744 58.2547C311.744 58.494 311.659 58.6978 311.491 58.8662C311.331 59.0258 311.128 59.1055 310.879 59.1055ZM317.717 60.3951C318.612 60.3951 319.321 60.6566 319.844 61.1795C320.376 61.6935 320.641 62.4513 320.641 63.4528V67.5076H319.365V63.5991C319.365 62.9166 319.201 62.4026 318.873 62.0569C318.545 61.7112 318.076 61.5384 317.464 61.5384C316.773 61.5384 316.228 61.7423 315.829 62.15C315.43 62.5488 315.231 63.1249 315.231 63.8782V67.5076H313.954V60.4616H315.177V61.5251C315.434 61.1617 315.78 60.8826 316.214 60.6876C316.658 60.4926 317.158 60.3951 317.717 60.3951ZM329.109 60.4616L325.692 68.2122C325.391 68.9301 325.036 69.4353 324.628 69.7278C324.23 70.0203 323.747 70.1665 323.179 70.1665C322.834 70.1665 322.497 70.1089 322.169 69.9937C321.85 69.8873 321.584 69.7278 321.371 69.5151L321.916 68.5579C322.28 68.9035 322.701 69.0764 323.179 69.0764C323.49 69.0764 323.747 68.9922 323.95 68.8238C324.163 68.6642 324.354 68.3851 324.522 67.9862L324.748 67.4943L321.637 60.4616H322.967L325.426 66.0984L327.859 60.4616H329.109ZM332.645 60.3951C333.62 60.3951 334.364 60.6344 334.878 61.113C335.401 61.5916 335.663 62.3051 335.663 63.2534V67.5076H334.453V66.577C334.24 66.9049 333.934 67.1575 333.536 67.3348C333.146 67.5032 332.68 67.5874 332.14 67.5874C331.351 67.5874 330.717 67.3968 330.239 67.0157C329.769 66.6346 329.534 66.1339 329.534 65.5135C329.534 64.8931 329.76 64.3967 330.212 64.0245C330.664 63.6434 331.382 63.4528 332.366 63.4528H334.386V63.2002C334.386 62.6507 334.227 62.2297 333.908 61.9373C333.589 61.6448 333.119 61.4985 332.499 61.4985C332.082 61.4985 331.674 61.5694 331.276 61.7112C330.877 61.8442 330.54 62.0259 330.265 62.2563L329.733 61.2991C330.097 61.0066 330.531 60.7851 331.036 60.6344C331.541 60.4749 332.078 60.3951 332.645 60.3951ZM332.352 66.6036C332.84 66.6036 333.261 66.4973 333.615 66.2845C333.97 66.063 334.227 65.7528 334.386 65.3539V64.3701H332.419C331.338 64.3701 330.797 64.7335 330.797 65.4603C330.797 65.8148 330.934 66.094 331.209 66.2978C331.484 66.5017 331.865 66.6036 332.352 66.6036ZM338.344 65.7661C338.592 65.7661 338.796 65.8547 338.955 66.0319C339.124 66.2003 339.208 66.4131 339.208 66.6701C339.208 66.803 339.19 66.9315 339.155 67.0556C339.128 67.1797 339.07 67.3703 338.982 67.6273L338.357 69.4752H337.519L338.011 67.4943C337.843 67.4323 337.706 67.3304 337.599 67.1886C337.502 67.0379 337.453 66.8651 337.453 66.6701C337.453 66.4042 337.537 66.187 337.706 66.0186C337.874 65.8503 338.087 65.7661 338.344 65.7661ZM177.109 83.5874C176.391 83.5874 175.748 83.4323 175.181 83.1221C174.623 82.8119 174.184 82.3865 173.865 81.8458C173.546 81.2963 173.386 80.6759 173.386 79.9846C173.386 79.2933 173.546 78.6773 173.865 78.1367C174.184 77.5872 174.623 77.1617 175.181 76.8604C175.748 76.5502 176.391 76.3951 177.109 76.3951C177.747 76.3951 178.314 76.5236 178.811 76.7806C179.316 77.0377 179.706 77.4099 179.981 77.8974L179.01 78.5222C178.788 78.1854 178.514 77.9328 178.186 77.7644C177.858 77.596 177.494 77.5118 177.096 77.5118C176.635 77.5118 176.218 77.6138 175.846 77.8176C175.483 78.0214 175.195 78.3139 174.982 78.695C174.778 79.0673 174.676 79.4971 174.676 79.9846C174.676 80.4809 174.778 80.9196 174.982 81.3007C175.195 81.673 175.483 81.961 175.846 82.1649C176.218 82.3687 176.635 82.4707 177.096 82.4707C177.494 82.4707 177.858 82.3865 178.186 82.2181C178.514 82.0497 178.788 81.7971 179.01 81.4603L179.981 82.0718C179.706 82.5593 179.316 82.936 178.811 83.2019C178.314 83.4589 177.747 83.5874 177.109 83.5874ZM188.2 76.4616V83.5076H186.991V82.4441C186.734 82.8075 186.392 83.0911 185.967 83.2949C185.55 83.4899 185.094 83.5874 184.598 83.5874C183.658 83.5874 182.918 83.3304 182.377 82.8163C181.837 82.2934 181.566 81.5268 181.566 80.5164V76.4616H182.843V80.3701C182.843 81.0526 183.007 81.5711 183.335 81.9256C183.663 82.2712 184.132 82.4441 184.744 82.4441C185.417 82.4441 185.949 82.2402 186.339 81.8325C186.729 81.4248 186.924 80.8487 186.924 80.1042V76.4616H188.2ZM199.444 76.3951C200.331 76.3951 201.031 76.6521 201.545 77.1662C202.068 77.6802 202.329 78.4424 202.329 79.4528V83.5076H201.053V79.5991C201.053 78.9166 200.893 78.4026 200.574 78.0569C200.264 77.7112 199.817 77.5384 199.232 77.5384C198.585 77.5384 198.07 77.7423 197.689 78.15C197.308 78.5488 197.118 79.1249 197.118 79.8782V83.5076H195.841V79.5991C195.841 78.9166 195.682 78.4026 195.363 78.0569C195.053 77.7112 194.605 77.5384 194.02 77.5384C193.373 77.5384 192.859 77.7423 192.478 78.15C192.097 78.5488 191.906 79.1249 191.906 79.8782V83.5076H190.63V76.4616H191.853V77.5118C192.11 77.1484 192.447 76.8737 192.863 76.6876C193.28 76.4926 193.754 76.3951 194.286 76.3951C194.836 76.3951 195.323 76.5059 195.748 76.7275C196.174 76.949 196.502 77.2725 196.732 77.698C196.998 77.2903 197.366 76.9712 197.836 76.7407C198.314 76.5103 198.85 76.3951 199.444 76.3951ZM207.243 76.3951C208.218 76.3951 208.963 76.6344 209.477 77.113C210 77.5916 210.261 78.3051 210.261 79.2534V83.5076H209.051V82.577C208.839 82.9049 208.533 83.1575 208.134 83.3348C207.744 83.5032 207.279 83.5874 206.738 83.5874C205.949 83.5874 205.316 83.3968 204.837 83.0157C204.367 82.6346 204.132 82.1339 204.132 81.5135C204.132 80.8931 204.358 80.3967 204.81 80.0245C205.262 79.6434 205.98 79.4528 206.964 79.4528H208.985V79.2002C208.985 78.6507 208.825 78.2297 208.506 77.9373C208.187 77.6448 207.717 77.4985 207.097 77.4985C206.681 77.4985 206.273 77.5694 205.874 77.7112C205.475 77.8442 205.138 78.0259 204.864 78.2563L204.332 77.2991C204.695 77.0066 205.13 76.7851 205.635 76.6344C206.14 76.4749 206.676 76.3951 207.243 76.3951ZM206.951 82.6036C207.438 82.6036 207.859 82.4973 208.214 82.2845C208.568 82.063 208.825 81.7528 208.985 81.3539V80.3701H207.017C205.936 80.3701 205.395 80.7335 205.395 81.4603C205.395 81.8148 205.533 82.094 205.808 82.2978C206.082 82.5017 206.463 82.6036 206.951 82.6036ZM275.587 76.3951C276.269 76.3951 276.881 76.5458 277.421 76.8471C277.962 77.1484 278.383 77.5694 278.684 78.1101C278.994 78.6507 279.15 79.2756 279.15 79.9846C279.15 80.6936 278.994 81.3229 278.684 81.8724C278.383 82.4131 277.962 82.834 277.421 83.1354C276.881 83.4367 276.269 83.5874 275.587 83.5874C275.064 83.5874 274.585 83.4855 274.151 83.2816C273.717 83.0778 273.358 82.7809 273.074 82.3909V83.5076H271.851V73.6431H273.127V77.5251C273.411 77.1529 273.765 76.8737 274.191 76.6876C274.616 76.4926 275.081 76.3951 275.587 76.3951ZM275.48 82.4707C275.932 82.4707 276.336 82.3687 276.69 82.1649C277.053 81.9522 277.337 81.6597 277.541 81.2875C277.754 80.9063 277.86 80.4721 277.86 79.9846C277.86 79.4971 277.754 79.0673 277.541 78.695C277.337 78.3139 277.053 78.0214 276.69 77.8176C276.336 77.6138 275.932 77.5118 275.48 77.5118C275.037 77.5118 274.634 77.6138 274.27 77.8176C273.907 78.0214 273.623 78.3139 273.42 78.695C273.216 79.0673 273.114 79.4971 273.114 79.9846C273.114 80.4721 273.216 80.9063 273.42 81.2875C273.623 81.6597 273.907 81.9522 274.27 82.1649C274.634 82.3687 275.037 82.4707 275.48 82.4707ZM280.913 76.4616H282.189V83.5076H280.913V76.4616ZM281.551 75.1055C281.303 75.1055 281.095 75.0258 280.926 74.8662C280.767 74.7067 280.687 74.5117 280.687 74.2813C280.687 74.0508 280.767 73.8559 280.926 73.6963C281.095 73.5279 281.303 73.4437 281.551 73.4437C281.799 73.4437 282.003 73.5235 282.163 73.683C282.331 73.8337 282.415 74.0242 282.415 74.2547C282.415 74.494 282.331 74.6978 282.163 74.8662C282.003 75.0258 281.799 75.1055 281.551 75.1055ZM287.192 76.3951C288.167 76.3951 288.911 76.6344 289.425 77.113C289.948 77.5916 290.21 78.3051 290.21 79.2534V83.5076H289V82.577C288.787 82.9049 288.481 83.1575 288.083 83.3348C287.693 83.5032 287.227 83.5874 286.687 83.5874C285.898 83.5874 285.264 83.3968 284.786 83.0157C284.316 82.6346 284.081 82.1339 284.081 81.5135C284.081 80.8931 284.307 80.3967 284.759 80.0245C285.211 79.6434 285.929 79.4528 286.913 79.4528H288.933V79.2002C288.933 78.6507 288.774 78.2297 288.455 77.9373C288.136 77.6448 287.666 77.4985 287.046 77.4985C286.629 77.4985 286.221 77.5694 285.823 77.7112C285.424 77.8442 285.087 78.0259 284.812 78.2563L284.28 77.2991C284.644 77.0066 285.078 76.7851 285.583 76.6344C286.088 76.4749 286.625 76.3951 287.192 76.3951ZM286.899 82.6036C287.387 82.6036 287.808 82.4973 288.162 82.2845C288.517 82.063 288.774 81.7528 288.933 81.3539V80.3701H286.966C285.885 80.3701 285.344 80.7335 285.344 81.4603C285.344 81.8148 285.481 82.094 285.756 82.2978C286.031 82.5017 286.412 82.6036 286.899 82.6036ZM298.677 76.4616L295.26 84.2122C294.959 84.9301 294.604 85.4353 294.197 85.7278C293.798 86.0203 293.315 86.1665 292.747 86.1665C292.402 86.1665 292.065 86.1089 291.737 85.9937C291.418 85.8873 291.152 85.7278 290.939 85.5151L291.485 84.5579C291.848 84.9035 292.269 85.0764 292.747 85.0764C293.058 85.0764 293.315 84.9922 293.519 84.8238C293.731 84.6642 293.922 84.3851 294.09 83.9862L294.316 83.4943L291.205 76.4616H292.535L294.994 82.0984L297.427 76.4616H298.677ZM302.213 76.3951C303.188 76.3951 303.932 76.6344 304.447 77.113C304.969 77.5916 305.231 78.3051 305.231 79.2534V83.5076H304.021V82.577C303.808 82.9049 303.503 83.1575 303.104 83.3348C302.714 83.5032 302.248 83.5874 301.708 83.5874C300.919 83.5874 300.285 83.3968 299.807 83.0157C299.337 82.6346 299.102 82.1339 299.102 81.5135C299.102 80.8931 299.328 80.3967 299.78 80.0245C300.232 79.6434 300.95 79.4528 301.934 79.4528H303.955V79.2002C303.955 78.6507 303.795 78.2297 303.476 77.9373C303.157 77.6448 302.687 77.4985 302.067 77.4985C301.65 77.4985 301.243 77.5694 300.844 77.7112C300.445 77.8442 300.108 78.0259 299.833 78.2563L299.302 77.2991C299.665 77.0066 300.099 76.7851 300.604 76.6344C301.11 76.4749 301.646 76.3951 302.213 76.3951ZM301.921 82.6036C302.408 82.6036 302.829 82.4973 303.184 82.2845C303.538 82.063 303.795 81.7528 303.955 81.3539V80.3701H301.987C300.906 80.3701 300.365 80.7335 300.365 81.4603C300.365 81.8148 300.502 82.094 300.777 82.2978C301.052 82.5017 301.433 82.6036 301.921 82.6036ZM313.729 76.3951C314.704 76.3951 315.448 76.6344 315.962 77.113C316.485 77.5916 316.747 78.3051 316.747 79.2534V83.5076H315.537V82.577C315.324 82.9049 315.018 83.1575 314.62 83.3348C314.23 83.5032 313.764 83.5874 313.224 83.5874C312.435 83.5874 311.801 83.3968 311.323 83.0157C310.853 82.6346 310.618 82.1339 310.618 81.5135C310.618 80.8931 310.844 80.3967 311.296 80.0245C311.748 79.6434 312.466 79.4528 313.45 79.4528H315.47V79.2002C315.47 78.6507 315.311 78.2297 314.992 77.9373C314.673 77.6448 314.203 77.4985 313.583 77.4985C313.166 77.4985 312.758 77.5694 312.36 77.7112C311.961 77.8442 311.624 78.0259 311.349 78.2563L310.817 77.2991C311.181 77.0066 311.615 76.7851 312.12 76.6344C312.625 76.4749 313.162 76.3951 313.729 76.3951ZM313.436 82.6036C313.924 82.6036 314.345 82.4973 314.699 82.2845C315.054 82.063 315.311 81.7528 315.47 81.3539V80.3701H313.503C312.422 80.3701 311.881 80.7335 311.881 81.4603C311.881 81.8148 312.018 82.094 312.293 82.2978C312.568 82.5017 312.949 82.6036 313.436 82.6036ZM325.795 73.6431V83.5076H324.572V82.3909C324.288 82.7809 323.929 83.0778 323.495 83.2816C323.06 83.4855 322.582 83.5874 322.059 83.5874C321.377 83.5874 320.765 83.4367 320.224 83.1354C319.684 82.834 319.258 82.4131 318.948 81.8724C318.647 81.3229 318.496 80.6936 318.496 79.9846C318.496 79.2756 318.647 78.6507 318.948 78.1101C319.258 77.5694 319.684 77.1484 320.224 76.8471C320.765 76.5458 321.377 76.3951 322.059 76.3951C322.564 76.3951 323.029 76.4926 323.455 76.6876C323.88 76.8737 324.235 77.1529 324.518 77.5251V73.6431H325.795ZM322.165 82.4707C322.608 82.4707 323.012 82.3687 323.375 82.1649C323.738 81.9522 324.022 81.6597 324.226 81.2875C324.43 80.9063 324.532 80.4721 324.532 79.9846C324.532 79.4971 324.43 79.0673 324.226 78.695C324.022 78.3139 323.738 78.0214 323.375 77.8176C323.012 77.6138 322.608 77.5118 322.165 77.5118C321.713 77.5118 321.306 77.6138 320.942 77.8176C320.588 78.0214 320.304 78.3139 320.091 78.695C319.888 79.0673 319.786 79.4971 319.786 79.9846C319.786 80.4721 319.888 80.9063 320.091 81.2875C320.304 81.6597 320.588 81.9522 320.942 82.1649C321.306 82.3687 321.713 82.4707 322.165 82.4707ZM337.024 76.3951C337.91 76.3951 338.61 76.6521 339.124 77.1662C339.647 77.6802 339.909 78.4424 339.909 79.4528V83.5076H338.632V79.5991C338.632 78.9166 338.473 78.4026 338.154 78.0569C337.844 77.7112 337.396 77.5384 336.811 77.5384C336.164 77.5384 335.65 77.7423 335.269 78.15C334.888 78.5488 334.697 79.1249 334.697 79.8782V83.5076H333.421V79.5991C333.421 78.9166 333.261 78.4026 332.942 78.0569C332.632 77.7112 332.185 77.5384 331.6 77.5384C330.953 77.5384 330.439 77.7423 330.057 78.15C329.676 78.5488 329.486 79.1249 329.486 79.8782V83.5076H328.21V76.4616H329.433V77.5118C329.69 77.1484 330.026 76.8737 330.443 76.6876C330.86 76.4926 331.334 76.3951 331.865 76.3951C332.415 76.3951 332.902 76.5059 333.328 76.7275C333.753 76.949 334.081 77.2725 334.312 77.698C334.578 77.2903 334.945 76.9712 335.415 76.7407C335.894 76.5103 336.43 76.3951 337.024 76.3951ZM342.257 76.4616H343.533V83.5076H342.257V76.4616ZM342.895 75.1055C342.647 75.1055 342.439 75.0258 342.27 74.8662C342.111 74.7067 342.031 74.5117 342.031 74.2813C342.031 74.0508 342.111 73.8559 342.27 73.6963C342.439 73.5279 342.647 73.4437 342.895 73.4437C343.143 73.4437 343.347 73.5235 343.507 73.683C343.675 73.8337 343.759 74.0242 343.759 74.2547C343.759 74.494 343.675 74.6978 343.507 74.8662C343.347 75.0258 343.143 75.1055 342.895 75.1055ZM349.732 76.3951C350.628 76.3951 351.337 76.6566 351.86 77.1795C352.391 77.6935 352.657 78.4513 352.657 79.4528V83.5076H351.381V79.5991C351.381 78.9166 351.217 78.4026 350.889 78.0569C350.561 77.7112 350.091 77.5384 349.48 77.5384C348.789 77.5384 348.243 77.7423 347.845 78.15C347.446 78.5488 347.246 79.1249 347.246 79.8782V83.5076H345.97V76.4616H347.193V77.5251C347.45 77.1617 347.796 76.8826 348.23 76.6876C348.673 76.4926 349.174 76.3951 349.732 76.3951ZM358.781 76.3951C359.677 76.3951 360.386 76.6566 360.909 77.1795C361.44 77.6935 361.706 78.4513 361.706 79.4528V83.5076H360.43V79.5991C360.43 78.9166 360.266 78.4026 359.938 78.0569C359.61 77.7112 359.14 77.5384 358.529 77.5384C357.838 77.5384 357.293 77.7423 356.894 78.15C356.495 78.5488 356.295 79.1249 356.295 79.8782V83.5076H355.019V76.4616H356.242V77.5251C356.499 77.1617 356.845 76.8826 357.279 76.6876C357.722 76.4926 358.223 76.3951 358.781 76.3951ZM370.173 76.4616L366.757 84.2122C366.455 84.9301 366.101 85.4353 365.693 85.7278C365.294 86.0203 364.811 86.1665 364.244 86.1665C363.898 86.1665 363.562 86.1089 363.234 85.9937C362.915 85.8873 362.649 85.7278 362.436 85.5151L362.981 84.5579C363.345 84.9035 363.766 85.0764 364.244 85.0764C364.554 85.0764 364.811 84.9922 365.015 84.8238C365.228 84.6642 365.418 84.3851 365.587 83.9862L365.813 83.4943L362.702 76.4616H364.031L366.491 82.0984L368.924 76.4616H370.173ZM373.71 76.3951C374.685 76.3951 375.429 76.6344 375.943 77.113C376.466 77.5916 376.728 78.3051 376.728 79.2534V83.5076H375.518V82.577C375.305 82.9049 374.999 83.1575 374.6 83.3348C374.21 83.5032 373.745 83.5874 373.205 83.5874C372.416 83.5874 371.782 83.3968 371.303 83.0157C370.834 82.6346 370.599 82.1339 370.599 81.5135C370.599 80.8931 370.825 80.3967 371.277 80.0245C371.729 79.6434 372.447 79.4528 373.431 79.4528H375.451V79.2002C375.451 78.6507 375.292 78.2297 374.973 77.9373C374.654 77.6448 374.184 77.4985 373.563 77.4985C373.147 77.4985 372.739 77.5694 372.34 77.7112C371.942 77.8442 371.605 78.0259 371.33 78.2563L370.798 77.2991C371.162 77.0066 371.596 76.7851 372.101 76.6344C372.606 76.4749 373.142 76.3951 373.71 76.3951ZM373.417 82.6036C373.905 82.6036 374.326 82.4973 374.68 82.2845C375.035 82.063 375.292 81.7528 375.451 81.3539V80.3701H373.484C372.402 80.3701 371.862 80.7335 371.862 81.4603C371.862 81.8148 371.999 82.094 372.274 82.2978C372.549 82.5017 372.93 82.6036 373.417 82.6036ZM378.917 74.2015H380.419L380.166 80.5696H379.156L378.917 74.2015ZM379.674 83.5874C379.426 83.5874 379.218 83.5076 379.05 83.3481C378.881 83.1797 378.797 82.9759 378.797 82.7366C378.797 82.4973 378.881 82.2978 379.05 82.1383C379.218 81.9699 379.426 81.8857 379.674 81.8857C379.923 81.8857 380.126 81.9699 380.286 82.1383C380.445 82.2978 380.525 82.4973 380.525 82.7366C380.525 82.9759 380.441 83.1797 380.273 83.3481C380.113 83.5076 379.914 83.5874 379.674 83.5874Z" fill="white"/>
<path d="M223.12 76.4084V82.4308C223.12 84.9301 221.843 86.1798 219.291 86.1798C218.608 86.1798 217.961 86.0912 217.35 85.9139C216.738 85.7455 216.233 85.4974 215.834 85.1694L216.579 83.9198C216.889 84.1768 217.279 84.3806 217.749 84.5313C218.227 84.6908 218.71 84.7706 219.198 84.7706C219.978 84.7706 220.549 84.5933 220.913 84.2388C221.276 83.8843 221.458 83.3437 221.458 82.6169V82.2447C221.174 82.5549 220.829 82.7897 220.421 82.9493C220.013 83.1088 219.566 83.1886 219.078 83.1886C218.405 83.1886 217.793 83.0468 217.244 82.7631C216.703 82.4707 216.273 82.063 215.954 81.54C215.644 81.0171 215.489 80.4189 215.489 79.7453C215.489 79.0717 215.644 78.4779 215.954 77.9638C216.273 77.4409 216.703 77.0377 217.244 76.754C217.793 76.4704 218.405 76.3286 219.078 76.3286C219.592 76.3286 220.058 76.4128 220.474 76.5812C220.9 76.7496 221.254 77.0066 221.538 77.3523V76.4084H223.12ZM219.331 81.7793C219.96 81.7793 220.474 81.5932 220.873 81.221C221.281 80.8399 221.485 80.348 221.485 79.7453C221.485 79.1515 221.281 78.6684 220.873 78.2962C220.474 77.924 219.96 77.7378 219.331 77.7378C218.693 77.7378 218.17 77.924 217.762 78.2962C217.363 78.6684 217.164 79.1515 217.164 79.7453C217.164 80.348 217.363 80.8399 217.762 81.221C218.17 81.5932 218.693 81.7793 219.331 81.7793ZM228.495 83.6007C227.777 83.6007 227.13 83.4456 226.554 83.1354C225.978 82.8252 225.526 82.3953 225.198 81.8458C224.879 81.2875 224.72 80.6582 224.72 79.958C224.72 79.2578 224.879 78.633 225.198 78.0835C225.526 77.534 225.978 77.1041 226.554 76.7939C227.13 76.4837 227.777 76.3286 228.495 76.3286C229.222 76.3286 229.873 76.4837 230.449 76.7939C231.026 77.1041 231.473 77.534 231.792 78.0835C232.12 78.633 232.284 79.2578 232.284 79.958C232.284 80.6582 232.12 81.2875 231.792 81.8458C231.473 82.3953 231.026 82.8252 230.449 83.1354C229.873 83.4456 229.222 83.6007 228.495 83.6007ZM228.495 82.1782C229.107 82.1782 229.612 81.9743 230.011 81.5666C230.41 81.1589 230.609 80.6227 230.609 79.958C230.609 79.2933 230.41 78.7571 230.011 78.3494C229.612 77.9417 229.107 77.7378 228.495 77.7378C227.884 77.7378 227.378 77.9417 226.98 78.3494C226.59 78.7571 226.395 79.2933 226.395 79.958C226.395 80.6227 226.59 81.1589 226.98 81.5666C227.378 81.9743 227.884 82.1782 228.495 82.1782ZM237.13 83.6007C236.395 83.6007 235.734 83.4456 235.149 83.1354C234.564 82.8252 234.108 82.3953 233.78 81.8458C233.452 81.2875 233.288 80.6582 233.288 79.958C233.288 79.2578 233.452 78.633 233.78 78.0835C234.108 77.534 234.56 77.1041 235.136 76.7939C235.721 76.4837 236.386 76.3286 237.13 76.3286C237.83 76.3286 238.442 76.4704 238.965 76.754C239.497 77.0377 239.896 77.4454 240.161 77.9771L238.885 78.7216C238.681 78.3937 238.424 78.15 238.114 77.9904C237.813 77.822 237.48 77.7378 237.117 77.7378C236.497 77.7378 235.983 77.9417 235.575 78.3494C235.167 78.7482 234.963 79.2844 234.963 79.958C234.963 80.6316 235.163 81.1722 235.562 81.5799C235.969 81.9788 236.488 82.1782 237.117 82.1782C237.48 82.1782 237.813 82.0984 238.114 81.9389C238.424 81.7705 238.681 81.5223 238.885 81.1944L240.161 81.9389C239.887 82.4707 239.483 82.8828 238.952 83.1753C238.429 83.4589 237.822 83.6007 237.13 83.6007ZM248.168 79.9979C248.168 80.1131 248.159 80.2771 248.141 80.4898H242.571C242.668 81.0127 242.921 81.4293 243.329 81.7395C243.745 82.0408 244.259 82.1915 244.871 82.1915C245.651 82.1915 246.293 81.9345 246.799 81.4204L247.689 82.4441C247.37 82.8252 246.967 83.1132 246.48 83.3082C245.992 83.5032 245.443 83.6007 244.831 83.6007C244.051 83.6007 243.364 83.4456 242.77 83.1354C242.177 82.8252 241.716 82.3953 241.388 81.8458C241.069 81.2875 240.909 80.6582 240.909 79.958C240.909 79.2667 241.064 78.6463 241.374 78.0968C241.694 77.5384 242.132 77.1041 242.691 76.7939C243.249 76.4837 243.878 76.3286 244.578 76.3286C245.27 76.3286 245.886 76.4837 246.426 76.7939C246.976 77.0953 247.401 77.5251 247.703 78.0835C248.013 78.633 248.168 79.2711 248.168 79.9979ZM244.578 77.6581C244.047 77.6581 243.595 77.8176 243.222 78.1367C242.859 78.4469 242.637 78.8634 242.558 79.3863H246.586C246.515 78.8723 246.298 78.4557 245.934 78.1367C245.571 77.8176 245.119 77.6581 244.578 77.6581ZM253.792 76.3286C254.688 76.3286 255.405 76.5901 255.946 77.113C256.487 77.6359 256.757 78.4114 256.757 79.4395V83.5076H255.095V79.6522C255.095 79.0318 254.949 78.5665 254.657 78.2563C254.364 77.9373 253.948 77.7777 253.407 77.7777C252.795 77.7777 252.312 77.9638 251.958 78.3361C251.603 78.6995 251.426 79.2268 251.426 79.9181V83.5076H249.764V76.4084H251.346V77.3257C251.621 76.9978 251.967 76.7496 252.383 76.5812C252.8 76.4128 253.27 76.3286 253.792 76.3286ZM265.976 76.4084V82.4308C265.976 84.9301 264.7 86.1798 262.147 86.1798C261.465 86.1798 260.818 86.0912 260.206 85.9139C259.595 85.7455 259.09 85.4974 258.691 85.1694L259.435 83.9198C259.746 84.1768 260.135 84.3806 260.605 84.5313C261.084 84.6908 261.567 84.7706 262.054 84.7706C262.834 84.7706 263.406 84.5933 263.769 84.2388C264.133 83.8843 264.314 83.3437 264.314 82.6169V82.2447C264.031 82.5549 263.685 82.7897 263.277 82.9493C262.87 83.1088 262.422 83.1886 261.935 83.1886C261.261 83.1886 260.65 83.0468 260.1 82.7631C259.559 82.4707 259.13 82.063 258.81 81.54C258.5 81.0171 258.345 80.4189 258.345 79.7453C258.345 79.0717 258.5 78.4779 258.81 77.9638C259.13 77.4409 259.559 77.0377 260.1 76.754C260.65 76.4704 261.261 76.3286 261.935 76.3286C262.449 76.3286 262.914 76.4128 263.331 76.5812C263.756 76.7496 264.111 77.0066 264.394 77.3523V76.4084H265.976ZM262.187 81.7793C262.817 81.7793 263.331 81.5932 263.729 81.221C264.137 80.8399 264.341 80.348 264.341 79.7453C264.341 79.1515 264.137 78.6684 263.729 78.2962C263.331 77.924 262.817 77.7378 262.187 77.7378C261.549 77.7378 261.026 77.924 260.619 78.2962C260.22 78.6684 260.02 79.1515 260.02 79.7453C260.02 80.348 260.22 80.8399 260.619 81.221C261.026 81.5932 261.549 81.7793 262.187 81.7793Z" fill="#EF2463"/>
<path d="M412.128 59.8254L418.775 66.4727L412.128 73.1199" stroke="white" stroke-width="2.65889" stroke-linecap="round"/>
</g>
<defs>
<clipPath id="clip0">
<rect width="456" height="133" fill="white"/>
</clipPath>
</defs>
</svg>
