<svg width="41" height="43" viewBox="0 0 41 43" fill="none" xmlns="http://www.w3.org/2000/svg">
<path d="M5.08567 5.23847C4.97933 5.57655 4.75864 5.85289 4.58308 6.15184C4.54094 6.22608 4.47523 6.3144 4.3744 6.2507C4.27508 6.189 4.32324 6.09173 4.36889 6.019C4.56352 5.70048 4.714 5.35538 4.96881 5.07397C5.00794 5.12915 5.04704 5.18379 5.08567 5.23847Z" fill="#F2F2F2"/>
<path d="M10.1395 40.3509C9.96246 40.4217 9.82252 40.4769 9.68458 40.5331C8.92715 40.843 8.34879 40.6268 8.02827 39.8924C7.01953 37.58 6.02184 35.2616 5.01813 32.9472C3.56196 29.5884 2.10727 26.2296 0.647593 22.8749C0.320043 22.1189 0.539747 21.5156 1.28614 21.1885C2.37262 20.7125 3.4521 20.2188 4.55313 19.7744C4.88018 19.6435 4.87515 19.5001 4.80443 19.2207C3.8594 15.5118 2.92291 11.7989 1.9854 8.08849C1.83492 7.49208 1.88456 7.41434 2.49301 7.26035C11.9654 4.86617 21.4383 2.47144 30.9106 0.0772599C31.5372 -0.0802451 31.6059 -0.037534 31.7654 0.592486C32.0769 1.83096 32.3954 3.06641 32.6979 4.30488C32.7561 4.54013 32.8147 4.63937 33.0891 4.56313C33.7297 4.38606 34.0021 4.56322 34.1681 5.21982C35.5841 10.8118 37.0122 16.3982 38.4047 21.9951C38.8521 23.7914 39.1461 25.6212 39.1671 27.4811C39.1706 27.8293 39.2419 28.2135 38.8912 28.4808C38.7623 28.5817 38.8752 28.7176 38.9038 28.8275C39.4134 30.866 39.9301 32.9031 40.4447 34.9416C40.5847 35.4919 40.5245 35.5942 39.9797 35.7326C30.4843 38.1318 20.9868 40.5315 11.4894 42.9312C10.9075 43.0776 10.8172 43.0265 10.6722 42.4587C10.4967 41.7684 10.3236 41.0783 10.1395 40.3509V40.3509ZM36.0421 17.5358C35.7522 17.605 35.4637 17.6882 35.1683 17.7379C34.9024 17.782 34.8653 17.9004 34.931 18.1462C35.4582 20.1371 35.9042 22.149 36.5517 24.1048C36.9465 25.2991 37.3799 26.4809 37.9763 27.594C38.035 27.7003 38.035 27.9181 38.2632 27.8594C38.4894 27.8138 38.4172 27.6367 38.4172 27.5002C38.4062 25.6935 38.0756 23.9313 37.6773 22.1811C37.3448 20.7195 36.941 19.2754 36.5979 17.8192C36.5096 17.4455 36.3591 17.3748 36.0421 17.5358ZM13.2911 30.2575C13.5018 30.8484 13.5018 30.8464 14.0752 30.6006C15.8659 29.8291 17.6566 29.0592 19.4474 28.2877C19.9515 28.07 19.95 28.0685 19.6846 27.5358C19.6736 27.5147 19.6631 27.4917 19.6526 27.4686C19.0953 26.191 18.5395 24.9114 17.9837 23.6323C17.908 23.4356 17.8227 23.2411 17.7555 23.0395C17.6727 22.7987 17.5363 22.7987 17.3256 22.8904C15.5559 23.6694 13.7827 24.4409 12.008 25.2123C11.2225 25.5539 11.2205 25.5504 11.5726 26.336C12.1445 27.6437 12.7178 28.9498 13.2911 30.2575V30.2575ZM32.9703 5.37726C32.6909 5.44448 32.4145 5.5328 32.1316 5.57193C31.7935 5.61607 31.7548 5.75604 31.8361 6.07256C32.6853 9.36612 33.5155 12.6661 34.3592 15.9612C34.455 16.3309 34.4144 16.8796 34.7098 17.0191C35.0158 17.1645 35.4687 16.8937 35.853 16.7803C36.2066 16.7733 36.2989 16.6389 36.2031 16.2692C35.2937 12.7404 34.4003 9.20661 33.517 5.67127C33.4287 5.31714 33.3028 5.19869 32.9703 5.37726V5.37726ZM1.47226 22.8448C1.84194 23.7081 2.19608 24.5788 2.58533 25.4336C2.86121 26.0385 3.0754 26.672 3.417 27.2474C3.61664 27.9943 3.62013 28.0028 4.31938 27.7074C5.18816 27.3427 6.04993 26.9605 6.9152 26.5853C8.29211 25.9894 9.66852 25.3909 11.0454 24.7945C12.1159 24.333 13.1903 23.8761 14.2587 23.4111C15.2038 23.0002 16.1418 22.5759 17.0868 22.1651C17.2212 22.1069 17.3201 22.0412 17.2388 21.8962C17.1345 21.7137 17.1134 21.4929 16.9594 21.3369C16.6725 20.4506 16.2356 19.626 15.8814 18.7678C15.6251 18.1503 15.3382 17.5483 15.0658 16.9379C14.8873 16.3063 14.7047 16.1789 14.2236 16.3856C12.9069 16.9484 11.5957 17.5238 10.283 18.0951C8.50079 18.8721 6.72057 19.6471 4.94036 20.424C3.82027 20.9106 2.70219 21.3952 1.5836 21.8872C1.23699 22.0412 1.17831 22.2288 1.34284 22.5739C1.38698 22.6642 1.42962 22.7545 1.47226 22.8448V22.8448ZM10.8613 26.6721C10.8368 26.5893 10.8207 26.5025 10.7886 26.4207C10.5464 25.8404 10.5484 25.8459 9.95194 26.1057C8.1928 26.8702 6.43215 27.6347 4.6695 28.3906C3.97076 28.6896 3.96524 28.677 4.28376 29.3622C4.29279 29.3832 4.31585 29.3973 4.33341 29.4168C4.84856 30.7155 5.41991 31.9896 5.99526 33.2636C6.04843 33.4036 6.1011 33.5436 6.15076 33.685C6.23754 33.9238 6.37899 33.961 6.61274 33.8586C8.52888 33.0144 10.451 32.1807 12.3692 31.3421C12.8272 31.1419 12.8347 31.1173 12.631 30.6623C12.606 30.6077 12.5618 30.5616 12.5247 30.5104C12.3832 30.0168 12.1445 29.5619 11.9373 29.0964C11.5797 28.2878 11.2722 27.4561 10.8613 26.6721V26.6721ZM13.5299 32.8057C13.4326 32.563 13.3228 32.3262 13.2415 32.0784C13.1708 31.8607 13.0734 31.8657 12.8823 31.949C11.049 32.7541 9.20705 33.5451 7.37167 34.3467C6.51693 34.7204 6.52042 34.7289 6.99294 35.5485C7.50809 36.8191 8.04933 38.0787 8.6302 39.3212C8.83886 39.9672 8.95224 40.0309 9.55567 39.7741C10.596 39.3337 11.6278 38.8732 12.6661 38.4237C13.4858 38.0681 14.3104 37.7195 15.128 37.3553C15.2499 37.3001 15.4922 37.2931 15.3949 37.0453C15.3242 36.8632 15.2233 36.6897 15.1351 36.5126C14.634 35.2616 14.0942 34.0282 13.5299 32.8057V32.8057ZM20.585 29.6326C20.5143 29.4485 20.431 29.2664 20.3729 29.0773C20.2881 28.8029 20.1391 28.7868 19.8948 28.8947C18.1307 29.6732 16.3595 30.4376 14.5918 31.2131C13.8203 31.5507 13.8218 31.5563 14.1795 32.3403C14.7844 33.7363 15.3969 35.1291 15.9863 36.5321C16.1137 36.8381 16.2391 36.8878 16.5366 36.7534C17.6281 36.2613 18.7306 35.7923 19.8296 35.3168C20.5745 34.9943 21.3194 34.6742 22.0628 34.3522C22.3301 34.2353 22.5263 34.0653 22.3883 33.7453C21.7919 32.3719 21.187 31.004 20.585 29.6326V29.6326ZM22.9406 34.6742C22.7615 34.8317 22.5634 34.9591 22.3442 35.0544C21.7141 35.3253 21.0826 35.5941 20.4526 35.867C17.5307 37.1356 14.6109 38.4027 11.693 39.6747C11.4116 39.7971 10.9747 39.8217 10.8985 40.0871C10.8187 40.3565 11.0189 40.7066 11.0986 41.0201C11.1568 41.2764 11.2421 41.5297 11.2722 41.7881C11.3128 42.1487 11.4753 42.1667 11.7923 42.087C17.2709 40.6925 22.7545 39.3106 28.2366 37.9247C31.9369 36.9887 35.6353 36.0511 39.3372 35.1257C39.6115 35.0565 39.6913 34.9787 39.613 34.6832C39.1195 32.7947 38.649 30.8996 38.1659 29.008C38.1393 28.9002 38.1729 28.7372 38.0049 28.7056C37.6758 28.6419 37.5499 28.371 37.412 28.1232C36.4915 26.4599 35.8811 24.6706 35.386 22.8498C33.8711 17.2724 32.5012 11.6559 31.0661 6.05698C30.8891 5.36125 31.0541 5.06429 31.7353 4.9118C32.0237 4.8466 32.0468 4.73671 31.9776 4.47838C31.6856 3.37936 31.4042 2.27533 31.1424 1.16728C31.0752 0.88086 30.9814 0.827674 30.6965 0.900407C21.4909 3.23439 12.2839 5.56139 3.07689 7.87933C2.78345 7.95357 2.74434 8.05283 2.81507 8.32872C3.71595 11.8575 4.6113 15.3859 5.48912 18.9197C5.57389 19.2578 5.67322 19.2914 5.97569 19.1585C8.60713 18.0033 11.2456 16.8651 13.8765 15.7149C14.7383 15.3397 15.3242 15.5559 15.6958 16.4122C18.1327 22.0397 20.5675 27.6703 23.0163 33.2938C23.2325 33.7914 23.234 34.2283 22.9406 34.6742V34.6742Z" fill="#424770"/>
<path d="M22.9412 34.6739C23.2336 34.228 23.2316 33.7911 23.0159 33.294C20.5666 27.67 18.1337 22.0409 15.6949 16.4123C15.3252 15.5576 14.7379 15.3399 13.8776 15.7151C11.2447 16.8653 8.60621 18.0049 5.97678 19.1586C5.67231 19.2931 5.57298 19.2575 5.49021 18.9194C4.61039 15.3856 3.71704 11.8573 2.81464 8.33046C2.74542 8.05257 2.78255 7.95374 3.07649 7.87951C12.285 5.56107 21.492 3.23408 30.6955 0.900097C30.9825 0.827364 31.0743 0.882545 31.1415 1.16746C31.4033 2.27501 31.6847 3.37905 31.9787 4.47807C32.0474 4.7364 32.0248 4.84627 31.7364 4.91198C31.0532 5.06397 30.8887 5.36144 31.0672 6.05667C32.5023 11.6556 33.8702 17.2721 35.3866 22.85C35.8807 24.6708 36.4926 26.4596 37.4131 28.1229C37.549 28.3707 37.6749 28.6436 38.004 28.7053C38.172 28.7374 38.1384 28.8999 38.1665 29.0098C38.65 30.8993 39.1185 32.7949 39.6126 34.6829C39.6904 34.9804 39.6106 35.0561 39.3382 35.1254C35.6364 36.0508 31.938 36.9904 28.2377 37.9249C22.7556 39.3103 17.2715 40.6922 11.7914 42.0866C11.4764 42.1679 11.3134 42.1489 11.2712 41.7877C11.2412 41.5294 11.1579 41.276 11.0977 41.0212C11.662 40.793 12.2303 40.5773 12.7876 40.335C14.2548 39.696 15.711 39.0358 17.1797 38.4008C18.9775 37.6223 20.7828 36.8629 22.584 36.0914C23.0335 35.8983 23.2406 35.5572 23.1448 35.1519C23.1062 34.9854 23.0104 34.8334 22.9412 34.6739V34.6739ZM28.2552 23.3982C28.2286 23.4052 28.2005 23.4108 28.174 23.4178C27.884 23.1098 27.5916 22.8039 27.3052 22.4924C27.1547 22.3278 26.9796 22.2515 26.7709 22.3614C26.5176 22.4943 26.2663 22.6358 26.0256 22.7913C25.8294 22.9207 25.7868 23.1168 25.9107 23.3149C26.0276 23.5045 26.2132 23.5171 26.4063 23.4339C26.475 23.4038 26.5427 23.3667 26.6009 23.3205C26.8026 23.163 26.9475 23.1876 27.1246 23.3932C27.5916 23.9309 28.0872 24.4441 28.5722 24.9643C28.7011 25.1007 28.8606 25.1785 29.0447 25.0847C29.2374 24.9859 29.28 24.8158 29.2409 24.6072C28.9971 23.2428 28.7563 21.8784 28.5135 20.512C28.3706 19.7019 28.2271 18.8893 28.0766 18.0792C28.029 17.8294 28.0977 17.6934 28.3525 17.6082C29.2409 17.3147 30.1242 16.9997 31.007 16.6897C31.4194 16.5447 31.8302 16.3928 32.237 16.2368C32.4527 16.1555 32.5645 15.989 32.4918 15.7643C32.4176 15.5395 32.235 15.4723 32.0088 15.5255C31.936 15.5416 31.8638 15.5646 31.7926 15.5892C30.4071 16.0863 29.0232 16.5924 27.6327 17.0775C27.2961 17.1943 27.1883 17.3714 27.254 17.7215C27.5138 19.109 27.7566 20.4999 28.0004 21.8889C28.0907 22.3915 28.1704 22.8956 28.2552 23.3982V23.3982ZM27.6237 12.4482C27.8308 12.397 28.036 12.3438 28.2432 12.2927C28.8321 12.1422 29.0217 11.9937 28.9118 11.7244C28.7277 11.2679 28.3741 11.4981 28.0766 11.5618C27.723 11.6361 27.3709 11.7298 27.0223 11.8271C26.8537 11.8748 26.778 11.8341 26.7283 11.6606C26.1249 9.53225 25.5179 7.40341 24.904 5.2781C24.8453 5.07996 24.8844 4.97918 25.0825 4.91698C25.534 4.77352 25.9814 4.61251 26.4344 4.46955C26.6912 4.38779 26.8873 4.25336 26.7955 3.96343C26.7052 3.673 26.461 3.664 26.2082 3.74927C25.6153 3.9454 25.0244 4.1435 24.4315 4.34013C24.0121 4.48008 23.9414 4.604 24.0618 5.03739C24.2865 5.84447 24.5182 6.64953 24.748 7.45461C25.21 9.07882 25.6734 10.7016 26.1304 12.3263C26.2257 12.6644 26.4259 12.7616 26.7514 12.6713C27.0398 12.5901 27.3332 12.5229 27.6237 12.4482V12.4482ZM25.4683 16.7233C25.2982 16.0491 24.7695 15.678 24.0773 15.7397C23.5712 15.7838 23.1378 16.0015 22.7822 16.3466C22.6156 16.5096 22.4993 16.5308 22.3006 16.4229C21.9982 16.2619 21.6601 16.2137 21.317 16.2332C20.4818 16.2849 19.8357 16.9942 19.9421 17.7466C20.0359 18.4082 20.7878 18.8968 21.5046 18.7498C22.0212 18.6435 22.3643 18.3019 22.6156 17.8685C22.738 17.6543 22.8333 17.6227 23.035 17.7712C23.4282 18.0596 23.8722 18.2136 24.3678 18.194C25.1784 18.1604 25.6684 17.5058 25.4683 16.7233V16.7233ZM28.82 29.3689C28.659 28.7424 28.2306 28.3903 27.5811 28.3832C27.0308 28.3762 26.5513 28.5884 26.164 28.9656C25.9764 29.1477 25.838 29.1653 25.6152 29.0469C25.3002 28.8788 24.9481 28.8502 24.594 28.8803C23.819 28.946 23.2261 29.6217 23.2973 30.3455C23.3625 30.9986 24.0422 31.4957 24.7766 31.409C25.1939 31.3598 25.5019 31.11 25.7707 30.7985C25.9072 30.6375 25.9619 30.3385 26.155 30.3244C26.33 30.3119 26.5232 30.503 26.7088 30.6038C27.0238 30.7759 27.3634 30.8482 27.719 30.8321C28.5386 30.795 29.0197 30.1509 28.82 29.3689ZM7.4154 10.5726C7.23834 9.99025 7.31607 9.80464 7.75147 9.61152C8.12466 9.44549 8.28567 9.50916 8.54802 9.95158C8.6664 10.1532 8.82392 10.2592 9.04161 10.1568C9.26985 10.049 9.30696 9.84529 9.22369 9.61505C8.98643 8.96748 8.35491 8.64544 7.68225 8.82953C6.88419 9.04873 6.44176 9.66668 6.58021 10.3689C6.65445 10.7532 6.828 11.1033 6.94287 11.4715C7.00808 11.6857 7.21525 11.8928 7.14101 12.0995C7.06126 12.3242 6.74977 12.2695 6.55865 12.3794C6.52705 12.3989 6.49343 12.4165 6.45983 12.4326C6.24915 12.5334 6.14483 12.6979 6.23863 12.9191C6.33745 13.1488 6.5411 13.204 6.77284 13.1243C6.90226 13.0801 7.03115 13.0305 7.15505 12.9723C7.38679 12.8624 7.51973 12.9261 7.60299 13.1739C7.74094 13.5878 7.90697 13.9931 8.05946 14.4019C8.20443 14.7911 8.13721 14.9998 7.76903 15.209C7.54431 15.3364 7.45052 15.5044 7.56589 15.7326C7.6933 15.9874 7.916 15.9769 8.14423 15.8691C8.72459 15.5962 9.006 15.041 8.83796 14.4125C8.73513 14.0267 8.57612 13.657 8.42915 13.2873C8.18487 12.6763 8.17983 12.6783 8.74765 12.3759C8.78126 12.3578 8.81489 12.3388 8.84499 12.3192C9.03259 12.1933 9.06469 12.0238 8.9759 11.8271C8.88912 11.6325 8.71608 11.6025 8.53349 11.6451C8.40257 11.6767 8.27715 11.7388 8.14974 11.7935C7.97819 11.8678 7.88591 11.8291 7.8222 11.636C7.68978 11.2467 7.52877 10.8666 7.4154 10.5726V10.5726ZM32.3784 35.4032C32.8901 35.2367 33.2843 34.9322 33.5201 34.4406C33.64 34.1908 33.7338 33.922 33.4032 33.77C33.0952 33.6281 32.9623 33.8493 32.8419 34.0971C32.552 34.7005 31.9185 34.8721 31.3662 34.5059C31.2864 34.4527 31.163 34.4105 31.163 34.3042C31.163 34.1662 31.3165 34.1592 31.4088 34.1201C31.8176 33.9556 32.2124 33.7715 32.4953 33.4178C33.0862 32.6815 32.7732 31.7455 31.8618 31.5173C30.7206 31.2304 29.7455 32.1027 29.8478 33.3397C29.8674 33.5839 29.8533 33.6902 29.5789 33.7254C29.2624 33.768 29.1386 34.076 29.3066 34.3077C29.4054 34.4441 29.5544 34.4918 29.7064 34.4562C30.0941 34.3644 30.3329 34.5304 30.5842 34.8228C31.0512 35.3641 31.6707 35.5482 32.3784 35.4032V35.4032ZM22.1858 11.5848C21.7398 11.7263 21.3716 11.9013 21.1118 12.2464C20.8886 12.5454 20.7863 12.8765 20.9593 13.2286C21.1238 13.5612 21.4303 13.7011 21.791 13.7082C22.4335 13.7207 22.9452 13.4553 23.3485 12.9562C23.4794 12.7932 23.4969 12.5083 23.6986 12.4572C23.9007 12.406 24.0703 12.6287 24.2579 12.721C24.451 12.8163 24.6296 12.7917 24.7535 12.6077C24.8774 12.4251 24.8382 12.2485 24.6757 12.1065C24.4861 11.9405 24.2684 11.8076 24.0262 11.7459C23.7889 11.6822 23.6936 11.5492 23.6369 11.314C23.4829 10.6558 23.0405 10.2541 22.3909 10.1126C21.7082 9.96567 21.1399 10.21 20.6764 10.7126C20.5099 10.8892 20.4657 11.0963 20.6533 11.2749C20.8374 11.4519 21.0376 11.4168 21.2141 11.2363C21.2834 11.1635 21.3576 11.0948 21.4374 11.0361C21.8427 10.7442 22.3979 10.7742 22.7024 11.1123C22.7842 11.2026 22.9061 11.3015 22.8689 11.4324C22.8263 11.5864 22.6583 11.5212 22.5469 11.5458C22.414 11.5743 22.2745 11.5758 22.1858 11.5848V11.5848ZM24.6085 27.994C25.3695 27.8029 25.849 27.1001 25.7301 26.3216C25.6579 25.8406 25.4738 25.3856 25.3268 24.9221C24.9004 23.5648 24.4596 22.211 24.0437 20.8501C23.8847 20.3284 24.0562 20.0134 24.5639 19.8147C24.8046 19.7214 24.9712 19.5956 24.8809 19.3197C24.7816 19.0187 24.5428 19.0277 24.295 19.1035C23.6474 19.3016 23.2492 19.8523 23.2386 20.535C23.2351 20.8801 23.35 21.1987 23.4508 21.5192C23.9268 23.0301 24.4119 24.5399 24.8824 26.0543C25.1126 26.7927 25.0454 26.9355 24.3412 27.2862C24.1305 27.3885 24.0121 27.539 24.0879 27.7602C24.1696 27.9955 24.3728 28.0542 24.6085 27.994V27.994ZM32.5164 24.3979C32.5149 24.3979 32.5149 24.3979 32.5149 24.3979C32.557 24.5679 32.6087 24.736 32.6403 24.9075C32.704 25.2456 32.398 25.1659 32.246 25.2156C32.0318 25.2848 32.0935 25.0902 32.092 24.9803C32.0865 24.6688 32.0885 24.3573 32.0885 24.0458C32.0865 23.7875 31.9892 23.5859 31.7098 23.5879C31.4334 23.5879 31.3311 23.779 31.3326 24.0443C31.3381 24.5555 31.3326 25.067 31.3361 25.5767C31.3381 26.1606 31.5061 26.2719 32.0775 26.1059C32.3358 26.0297 32.6157 25.7623 32.8384 25.9043C33.0456 26.0367 33.012 26.4029 33.0847 26.6652C33.1554 26.9286 33.2914 27.1161 33.5838 27.0349C33.8527 26.9606 33.8772 26.736 33.8191 26.4882C33.7533 26.1978 33.5357 25.8631 33.658 25.6299C33.7784 25.4016 34.1727 25.3836 34.4491 25.2792C34.6648 25.198 34.7746 25.03 34.7004 24.8053C34.6256 24.582 34.4435 24.5043 34.2188 24.568C34.0277 24.6227 33.8366 24.6864 33.6545 24.7662C33.4754 24.8424 33.3836 24.8158 33.341 24.6106C33.2758 24.3061 33.1961 24.0017 33.1093 23.7027C33.0441 23.4835 32.8831 23.3611 32.6528 23.4213C32.4246 23.4815 32.3448 23.6636 32.389 23.8884C32.4226 24.0604 32.4722 24.2284 32.5164 24.3979V24.3979ZM31.9345 18.0988C31.9345 18.1003 31.936 18.1038 31.936 18.1073C31.1856 18.3426 30.4372 18.5818 29.6868 18.817C29.4551 18.8892 29.3031 19.0292 29.3703 19.284C29.441 19.5584 29.6552 19.6011 29.9045 19.5374C29.9647 19.5213 30.0269 19.5087 30.0851 19.4857C30.2692 19.4114 30.3524 19.4702 30.3946 19.6663C30.4798 20.0611 30.4849 20.4573 30.4392 20.8571C30.4091 21.1314 30.4849 21.3437 30.7823 21.3737C31.0707 21.4023 31.1665 21.1952 31.1931 20.9459C31.2478 20.4594 31.2458 19.9763 31.1274 19.4962C31.0938 19.3568 30.9789 19.1902 31.2458 19.114C31.5026 19.0417 31.5041 19.2188 31.5523 19.3688C31.6812 19.7866 31.8176 20.2025 31.9415 20.6204C32.0138 20.8641 32.1467 21.0467 32.4176 20.9795C32.711 20.9068 32.7481 20.673 32.6669 20.4131C32.5414 20.0079 32.4176 19.6011 32.2831 19.1993C32.2034 18.962 32.1642 18.7814 32.5008 18.7107C32.704 18.6701 32.7978 18.477 32.7361 18.2668C32.6739 18.0597 32.5094 17.9764 32.2972 18.0085C32.1748 18.0275 32.0549 18.0667 31.9345 18.0988V18.0988ZM13.6158 10.2631C13.5731 10.061 13.4919 9.96568 13.3399 9.92856C13.1698 9.88592 13.0319 9.93357 12.9522 10.079C12.8353 10.2857 12.7204 10.4964 12.6462 10.7196C12.5574 10.9794 12.4425 11.0612 12.1877 10.9122C12.0056 10.8063 11.8055 10.7281 11.6093 10.6488C11.3932 10.5601 11.2005 10.6043 11.1067 10.8255C11.0164 11.0397 11.0962 11.2202 11.3064 11.3265C11.5296 11.4379 11.7558 11.5442 11.986 11.6395C12.1365 11.7017 12.1701 11.7774 12.0974 11.9244C11.9805 12.1597 11.8762 12.4025 11.7774 12.6448C11.6906 12.864 11.7543 13.0446 11.972 13.1419C12.1982 13.2427 12.3613 13.1383 12.4641 12.9347C12.5734 12.71 12.6778 12.4817 12.7716 12.25C12.8353 12.0874 12.915 12.0448 13.0816 12.1316C13.3133 12.252 13.5541 12.3578 13.7979 12.4536C13.998 12.5299 14.1801 12.4803 14.2724 12.2766C14.3677 12.0624 14.297 11.8819 14.0903 11.7705C13.9363 11.6872 13.7753 11.62 13.6143 11.5493C13.1026 11.3231 13.1894 11.3938 13.3805 10.9107C13.4723 10.6825 13.6368 10.4768 13.6158 10.2631V10.2631ZM33.973 30.0606C33.7799 30.1649 33.6846 30.1193 33.7428 29.8464C33.7659 29.7386 33.7589 29.6217 33.7554 29.5104C33.7358 28.8984 33.327 28.4825 32.7481 28.484C32.1306 28.484 31.7078 28.8873 31.6832 29.5053C31.6727 29.7867 31.7218 30.0677 32.0634 30.0872C32.3945 30.1053 32.4652 29.8644 32.4421 29.576C32.4261 29.3563 32.552 29.2505 32.7607 29.254C32.9588 29.2575 32.9959 29.4025 33.0029 29.5655C33.021 29.9899 32.8264 30.335 32.6017 30.6731C32.4933 30.8376 32.4211 31.0076 32.5821 31.1842C32.7326 31.3492 32.9091 31.3452 33.0967 31.264C33.4865 31.0979 33.8722 30.9209 34.2665 30.7614C34.5002 30.6661 34.6808 30.5211 34.594 30.2588C34.5017 29.9814 34.2665 29.9477 33.973 30.0606ZM11.6058 14.4159C11.7613 14.3843 11.8551 14.3011 11.8943 14.1491C11.9469 13.9399 11.823 13.8266 11.6801 13.7117C10.6643 12.9121 10.2766 11.8677 10.4978 10.5992C10.5439 10.3338 10.5334 10.1057 10.2304 10.0399C9.92443 9.97474 9.81809 10.1919 9.75087 10.4432C9.61142 10.9639 9.6345 11.4891 9.75087 12.0022C9.95653 12.9171 10.3955 13.7032 11.1669 14.271C11.2958 14.3663 11.4323 14.4676 11.6058 14.4159V14.4159ZM15.5745 10.9478C15.3518 10.0755 14.9144 9.3357 14.1801 8.79396C13.9007 8.5873 13.6143 8.61532 13.5024 8.84706C13.375 9.11091 13.5471 9.25594 13.7306 9.40843C14.7008 10.2045 15.0915 11.2272 14.8758 12.4662C14.8297 12.728 14.8262 12.9633 15.1251 13.0375C15.4527 13.1188 15.5625 12.88 15.6207 12.6162C15.7466 12.0574 15.7235 11.5016 15.5745 10.9478ZM30.3203 23.3807C31.5789 22.9578 32.7712 22.554 33.9675 22.1562C34.2133 22.073 34.3743 21.9261 34.2916 21.6607C34.2083 21.3954 33.9886 21.3547 33.7413 21.436C33.4228 21.5403 33.1022 21.6466 32.7817 21.7545C31.8598 22.064 30.9383 22.3719 30.0164 22.6834C29.7861 22.7612 29.6482 22.9102 29.7259 23.1665C29.8057 23.4233 30.0088 23.4534 30.2391 23.4017C30.2887 23.3912 30.3364 23.3772 30.3203 23.3807V23.3807ZM20.3208 9.72341C21.4534 9.35523 22.4867 9.01916 23.52 8.6861C23.7518 8.61186 23.9078 8.47185 23.8456 8.22054C23.7769 7.95168 23.5662 7.8865 23.3129 7.96425C22.883 8.09517 22.4546 8.23161 22.0268 8.36955C21.3486 8.58876 20.6729 8.80994 19.9952 9.03115C19.7615 9.10739 19.627 9.25794 19.6963 9.50924C19.765 9.77259 19.9701 9.80469 20.2019 9.75152C20.2766 9.73547 20.3474 9.71588 20.3208 9.72341V9.72341ZM18.1317 9.96716C18.1373 9.99224 18.1443 10.0154 18.1493 10.0399C17.6557 10.1638 17.1621 10.2877 16.6686 10.4151C16.4173 10.4788 16.2597 10.6308 16.3355 10.9017C16.4047 11.1495 16.6084 11.2096 16.8416 11.1424C17.5353 10.9458 18.2291 10.7441 18.9208 10.5405C19.1405 10.4753 19.2644 10.3158 19.2057 10.0876C19.144 9.83977 18.9509 9.76758 18.7106 9.82226C18.5175 9.8664 18.3249 9.9195 18.1317 9.96716ZM17.0613 9.53726C17.0558 9.51419 17.0508 9.49116 17.0433 9.46859C17.5374 9.34268 18.0324 9.22227 18.5265 9.09336C18.7618 9.02966 18.9017 8.87217 18.836 8.62438C18.7708 8.37658 18.5707 8.30384 18.3354 8.36955C17.6291 8.56919 16.9234 8.77132 16.2206 8.985C16.0014 9.05272 15.8986 9.22776 15.9678 9.45399C16.0315 9.66115 16.1995 9.74242 16.4097 9.70029C16.6294 9.65614 16.8451 9.59244 17.0613 9.53726V9.53726ZM21.3029 6.38418C21.2302 6.09375 21.1575 5.80386 21.0832 5.51342C21.018 5.26212 20.8605 5.10305 20.5967 5.17729C20.3544 5.2445 20.2922 5.45174 20.3524 5.6885C20.4978 6.26886 20.6443 6.84916 20.7933 7.43002C20.857 7.67932 21.0075 7.8439 21.2763 7.76615C21.5186 7.69543 21.5808 7.49172 21.5221 7.25446C21.4514 6.96453 21.3752 6.67411 21.3029 6.38418Z" fill="#F2F2F2"/>
<path d="M20.5855 29.6331C21.1869 31.0029 21.7924 32.3724 22.3888 33.7458C22.5267 34.0658 22.3301 34.2359 22.0632 34.3507C21.3179 34.6748 20.573 34.9953 19.8301 35.3173C18.7311 35.7933 17.6285 36.2603 16.5365 36.7524C16.2396 36.8868 16.1122 36.8372 15.9847 36.5327C15.3974 35.1297 14.7829 33.7367 14.1794 32.3408C15.4801 31.8487 16.7311 31.2437 18.0128 30.711C18.871 30.3534 19.6991 29.9235 20.5855 29.6331ZM16.3474 33.0996C17.4319 32.6236 18.5294 32.1461 19.6229 31.656C19.814 31.5708 19.8953 31.3831 19.7945 31.185C19.6831 30.9638 19.485 30.9071 19.2547 31.0064C18.876 31.1689 18.4993 31.3356 18.1221 31.5001C17.4374 31.801 16.7492 32.0965 16.068 32.4044C15.8553 32.4982 15.765 32.6789 15.8624 32.8965C15.9476 33.0927 16.1262 33.1478 16.3474 33.0996ZM19.9786 32.6607C19.8672 32.7089 19.7182 32.7727 19.5697 32.8379C18.6779 33.2221 17.784 33.6058 16.8921 33.9935C16.6604 34.0959 16.4608 34.2448 16.5776 34.5368C16.6749 34.7755 16.8801 34.8196 17.1063 34.7223C18.1717 34.2644 19.2372 33.8059 20.2986 33.3405C20.5042 33.2502 20.6101 33.0716 20.5148 32.8519C20.4245 32.6397 20.2424 32.5725 19.9786 32.6607V32.6607Z" fill="#F5BA42"/>
<path d="M8.63018 39.3216C8.04931 38.0791 7.50807 36.819 6.99292 35.5484C8.32018 35.0674 9.58926 34.4479 10.8914 33.9067C11.7708 33.54 12.631 33.1262 13.5299 32.8057C14.0942 34.0286 14.6339 35.262 15.135 36.5131C15.0232 36.5662 14.9138 36.6244 14.8005 36.674C13.6553 37.1731 12.5106 37.6703 11.3619 38.1639C10.4545 38.5551 9.56768 38.9995 8.63018 39.3216ZM9.41921 37.0262C10.5303 36.5412 11.6504 36.0511 12.7725 35.5645C13.0112 35.4602 13.2043 35.3132 13.082 35.0268C12.9601 34.7453 12.7158 34.765 12.475 34.8693C11.3659 35.3524 10.2579 35.8369 9.14834 36.3219C8.93265 36.4157 8.84387 36.5768 8.92362 36.805C9.00689 37.0388 9.18746 37.0829 9.41921 37.0262V37.0262Z" fill="#B8BFD1"/>
<path d="M5.99534 33.2632C5.42 31.9891 4.84865 30.715 4.3335 29.4159C5.61812 28.8711 6.90274 28.3243 8.18937 27.7791C9.07621 27.4024 9.93246 26.951 10.8614 26.6731C11.2723 27.4571 11.5797 28.2887 11.9374 29.0958C12.1446 29.5628 12.3833 30.0178 12.5248 30.5094C11.334 30.9288 10.2033 31.4951 9.03708 31.9766C8.01932 32.3975 7.03217 32.8895 5.99534 33.2632ZM6.37405 28.7207C6.21102 28.7558 6.1137 28.8531 6.08913 29.0231C6.06053 29.2373 6.18293 29.3556 6.35247 29.4264C6.7668 29.5999 7.17912 29.7875 7.60749 29.9185C7.94508 30.0228 7.95762 30.1733 7.82469 30.4562C7.64963 30.8279 7.51371 31.2192 7.36122 31.6014C7.26943 31.8367 7.26241 32.0634 7.52927 32.1692C7.80716 32.2791 7.97167 32.1236 8.07099 31.8652C8.22147 31.4685 8.40155 31.0827 8.53096 30.6794C8.62677 30.3804 8.76471 30.3629 9.02104 30.4792C9.39624 30.6473 9.78749 30.7822 10.1677 30.9377C10.412 31.0371 10.6508 31.0687 10.7696 30.7823C10.9006 30.4688 10.6793 30.3288 10.428 30.23C10.0102 30.0635 9.59638 29.8869 9.17353 29.7364C8.98041 29.6672 8.96286 29.5769 9.03509 29.4033C9.21417 28.979 9.37669 28.5451 9.54824 28.1172C9.64605 27.8729 9.66862 27.6377 9.3802 27.5188C9.08124 27.3969 8.9453 27.6021 8.84949 27.8393C8.69048 28.2341 8.52193 28.6233 8.38599 29.0251C8.29721 29.2849 8.20693 29.3893 7.9185 29.2458C7.55082 29.0657 7.15606 28.9363 6.77183 28.7858C6.64442 28.7362 6.51701 28.68 6.37405 28.7207V28.7207Z" fill="#B8BFD1"/>
<path d="M3.41593 27.247C3.07433 26.6717 2.86064 26.0381 2.58426 25.4332C2.19501 24.58 1.84138 23.7077 1.47119 22.8444C1.88351 22.6428 2.30986 22.4692 2.73121 22.2886C4.81941 21.3913 6.89658 20.4728 8.97776 19.5634C10.2518 19.0076 11.5279 18.4523 12.8035 17.902C13.5559 17.576 14.3113 17.2595 15.0653 16.9375C15.3376 17.548 15.6261 18.1513 15.8809 18.7673C16.2365 19.6255 16.6719 20.4502 16.9604 21.3366C15.8242 21.8301 14.688 22.3257 13.5504 22.8178C12.2091 23.3981 10.8643 23.973 9.5245 24.5554C7.87522 25.2722 6.22794 25.985 4.58567 26.7158C4.19642 26.8914 3.77357 26.9992 3.41593 27.247V27.247ZM15.4861 20.4427C15.2418 19.8994 14.9534 19.1832 14.5998 18.498C14.3465 18.0044 13.6939 17.8273 13.1948 18.0415C12.4765 18.3515 11.7562 18.661 11.0374 18.974C8.64319 20.0164 6.24899 21.0587 3.85682 22.1046C3.21426 22.384 2.84608 23.044 3.06027 23.5642C3.33465 24.2298 3.6266 24.89 3.93108 25.5446C4.19493 26.1089 4.88464 26.318 5.45998 26.0612C6.61719 25.543 7.78142 25.0369 8.94415 24.5308C10.926 23.6655 12.9114 22.8053 14.8937 21.9365C15.4329 21.7013 15.6757 21.1811 15.4861 20.4427V20.4427Z" fill="#787A99"/>
<path d="M35.8526 16.781C35.4704 16.8924 35.0169 17.1632 34.7109 17.0197C34.4135 16.8803 34.4546 16.3316 34.3608 15.9599C33.5146 12.6648 32.6849 9.36677 31.8352 6.07372C31.754 5.7567 31.7931 5.61677 32.1312 5.57113C32.4141 5.53401 32.692 5.44364 32.9714 5.37793C33.9305 9.17912 34.8915 12.9798 35.8526 16.781V16.781Z" fill="#B0BFE3"/>
<path d="M22.941 34.6738C23.0102 34.8333 23.106 34.9853 23.1446 35.1518C23.2404 35.5571 23.0333 35.8982 22.5838 36.0914C20.7826 36.8628 18.9773 37.6222 17.1795 38.4007C15.7108 39.0358 14.2546 39.6959 12.7874 40.3349C12.2301 40.5772 11.6618 40.7929 11.0975 41.0211C11.0198 40.7061 10.8196 40.356 10.8974 40.0872C10.9756 39.8218 11.4125 39.7967 11.6939 39.6748C14.6118 38.4022 17.5316 37.1352 20.4515 35.8682C21.0815 35.5943 21.713 35.3249 22.3431 35.0545C22.5628 34.9587 22.7624 34.8313 22.941 34.6738V34.6738Z" fill="#C9D1DE"/>
<path d="M15.0654 16.9378C14.312 17.2584 13.5561 17.5768 12.8042 17.9004C11.5281 18.4527 10.2525 19.0065 8.97842 19.5623C6.89724 20.4717 4.81809 21.3921 2.7319 22.2875C2.30904 22.4696 1.88418 22.6431 1.47185 22.8448C1.42922 22.7545 1.38708 22.6642 1.34444 22.5739C1.17791 22.2288 1.23661 22.0412 1.58523 21.8877C2.70181 21.3956 3.82189 20.9106 4.93998 20.424C6.72019 19.647 8.50038 18.8705 10.2826 18.0955C11.5953 17.5237 12.907 16.9488 14.2232 16.384C14.7048 16.1768 14.8869 16.3063 15.0654 16.9378V16.9378Z" fill="#8F94A6"/>
<path d="M3.41589 27.2469C3.77354 26.9991 4.19639 26.8912 4.58564 26.7157C6.2279 25.9848 7.87518 25.272 9.52447 24.5552C10.8643 23.9729 12.2091 23.398 13.5504 22.8176C14.688 22.3256 15.8242 21.83 16.9603 21.3364C17.1143 21.4919 17.1354 21.7132 17.2382 21.8957C17.3215 22.0407 17.2222 22.1064 17.0857 22.1666C16.1412 22.5749 15.2032 22.9997 14.2602 23.4106C13.1892 23.8776 12.1168 24.3325 11.0463 24.794C9.66792 25.3904 8.29302 25.9888 6.91611 26.5868C6.05083 26.962 5.18757 27.3422 4.31879 27.7089C3.62155 28.0023 3.61804 27.9938 3.41589 27.2469V27.2469Z" fill="#6B708C"/>
<path d="M17.9842 23.6323L19.6526 27.4686C18.6935 27.8915 17.738 28.3164 16.7789 28.7373C16.7102 28.7674 16.6339 28.7728 16.5687 28.7141C16.6465 28.5461 16.6445 28.3921 16.5562 28.217C16.4022 27.9196 16.2873 27.6011 16.1473 27.2951C16.0641 27.1131 16.0445 26.9892 16.2888 26.9024C16.6269 26.7805 16.9544 26.623 17.2745 26.4564C17.4676 26.3556 17.5699 26.1751 17.446 25.9574C17.3312 25.7557 17.1471 25.7046 16.9314 25.7984C16.6359 25.9273 16.3314 26.0421 16.0465 26.1945C15.8078 26.3199 15.6874 26.2563 15.5936 26.0246C15.4306 25.6228 15.2836 25.2104 15.0483 24.8407C15.2234 24.786 15.4005 24.7435 15.574 24.6657C16.3721 24.3101 17.1792 23.9754 17.9842 23.6323V23.6323Z" fill="#B8BFD1"/>
<path d="M13.2905 30.2569C12.7172 28.9493 12.1458 27.6431 11.5725 26.3354C11.739 26.2877 11.9051 26.2486 12.0681 26.1759C12.8481 25.8258 13.6356 25.4912 14.4216 25.1516C14.5947 25.5674 14.7577 25.9848 14.9453 26.3936C15.0216 26.5566 15.0055 26.6329 14.8355 26.7016C14.4889 26.8451 14.1523 27.0096 13.8077 27.158C13.5704 27.2589 13.4179 27.4184 13.5298 27.6802C13.6517 27.9616 13.8925 27.9491 14.1347 27.8447C14.4553 27.7048 14.7788 27.5723 15.0903 27.4148C15.2869 27.314 15.3662 27.3546 15.4444 27.5563C15.5789 27.9069 15.7504 28.2395 15.8974 28.5846C15.9751 28.7652 16.099 28.8625 16.2957 28.8695C16.26 28.9011 16.2299 28.9453 16.1873 28.9633C15.2232 29.3967 14.2571 29.8266 13.2905 30.2569V30.2569Z" fill="#B8BFD1"/>
<path d="M38.2637 27.8593C38.0354 27.918 38.0339 27.7002 37.9773 27.5939C37.3809 26.4808 36.947 25.299 36.5507 24.1047C35.9031 22.1489 35.4572 20.137 34.9315 18.1461C34.8663 17.9003 34.9014 17.7819 35.1688 17.7378C35.4627 17.6881 35.7511 17.6049 36.0431 17.5356C36.4729 19.3816 37.0021 21.2004 37.3844 23.0604C37.7134 24.655 38.1062 26.2351 38.2637 27.8593V27.8593Z" fill="#B0BFE3"/>
<path d="M13.5295 32.8064C12.6306 33.1269 11.7724 33.5407 10.891 33.9069C9.59035 34.4486 8.32026 35.0681 6.993 35.5492C6.52049 34.73 6.51699 34.721 7.37173 34.3478C9.20662 33.5443 11.0485 32.7552 12.8819 31.9501C13.073 31.8669 13.1703 31.8614 13.241 32.0776C13.3228 32.3249 13.4322 32.5641 13.5295 32.8064Z" fill="#C9D1DE"/>
<path d="M20.5855 29.6332C19.6992 29.9236 18.871 30.3535 18.0128 30.7112C16.7312 31.2439 15.4786 31.8488 14.1795 32.3409C13.8223 31.5569 13.8188 31.5514 14.5918 31.2138C16.358 30.4383 18.1291 29.6723 19.8953 28.8953C20.1376 28.7875 20.288 28.8015 20.3733 29.0779C20.4315 29.267 20.5128 29.4476 20.5855 29.6332V29.6332Z" fill="#F7C76E"/>
<path d="M14.4207 25.1526C13.6352 25.4922 12.8476 25.8248 12.0691 26.1754C11.9061 26.2496 11.7401 26.2887 11.572 26.3363C11.2194 25.5503 11.2214 25.5539 12.0069 25.2108C13.7821 24.4413 15.5553 23.6693 17.3265 22.8908C17.5372 22.797 17.6731 22.7991 17.7549 23.0398C17.8236 23.2395 17.9069 23.434 17.9846 23.6322C17.1795 23.9738 16.3724 24.3084 15.5744 24.666C15.4013 24.7418 15.2243 24.7859 15.0472 24.8411C14.7076 24.6801 14.5145 24.816 14.4207 25.1526V25.1526Z" fill="#C9D1DE"/>
<path d="M10.8604 26.6727C9.93339 26.9506 9.07664 27.4015 8.1903 27.7787C6.90368 28.3234 5.61907 28.8702 4.33245 29.4169C4.3169 29.3974 4.2938 29.3833 4.28327 29.3623C3.96625 28.6776 3.97179 28.6897 4.66903 28.3907C6.43318 27.6353 8.19181 26.8708 9.95095 26.1063C10.5474 25.846 10.5474 25.839 10.7881 26.4214C10.8217 26.5006 10.8373 26.5894 10.8604 26.6727V26.6727Z" fill="#C9D1DE"/>
<path d="M35.8523 16.781C34.8912 12.9798 33.9301 9.1791 32.9711 5.37791C33.3021 5.19733 33.4275 5.31773 33.5163 5.66986C34.3991 9.2072 35.2945 12.7395 36.2044 16.2699C36.2997 16.6395 36.2079 16.774 35.8523 16.781V16.781Z" fill="#99ABD6"/>
<path d="M8.63037 39.3217C9.56788 38.9997 10.4547 38.5552 11.3621 38.164C12.5108 37.6704 13.6555 37.1732 14.8007 36.6741C14.914 36.6245 15.0234 36.5664 15.1352 36.5132C15.2235 36.6903 15.3243 36.8618 15.3951 37.0458C15.4924 37.2936 15.2501 37.3007 15.1282 37.3553C14.3106 37.72 13.4859 38.0667 12.6663 38.4223C11.628 38.8738 10.5962 39.3322 9.55585 39.7746C8.95241 40.0309 8.83904 39.9658 8.63037 39.3217V39.3217Z" fill="#A1A6BF"/>
<path d="M5.99524 33.2633C7.03206 32.8896 8.01921 32.3976 9.03697 31.9767C10.2032 31.4952 11.3339 30.9289 12.5247 30.5095C12.5618 30.5612 12.6059 30.6068 12.631 30.6634C12.8347 31.1164 12.8271 31.1415 12.3692 31.3432C10.451 32.1818 8.52887 33.0156 6.61272 33.8578C6.37897 33.9601 6.23752 33.9229 6.15074 33.6842C6.10108 33.5442 6.04841 33.4027 5.99524 33.2633V33.2633Z" fill="#A1A6BF"/>
<path d="M13.2906 30.2572C14.2572 29.8268 15.2233 29.397 16.1874 28.9636C16.2301 28.9455 16.2602 28.9013 16.2958 28.8697C16.3876 28.8181 16.4779 28.7669 16.5697 28.7157C16.6334 28.7724 16.7096 28.7669 16.7788 28.7368C17.7379 28.3159 18.695 27.8926 19.6526 27.4697C19.6631 27.4913 19.6736 27.5139 19.6841 27.5369C19.9495 28.0696 19.9515 28.0697 19.4474 28.2874C17.6561 29.0589 15.8654 29.8288 14.0747 30.6003C13.5013 30.8481 13.5013 30.8481 13.2906 30.2572Z" fill="#A1A6BF"/>
<path d="M38.2637 27.8593C38.1062 26.2351 37.7135 24.6551 37.3844 23.0605C37.0022 21.2005 36.473 19.3816 36.0431 17.5357C36.3581 17.3747 36.5086 17.4455 36.5969 17.8191C36.94 19.2753 37.3453 20.7194 37.6778 22.1811C38.0761 23.9312 38.4072 25.6934 38.4162 27.5002C38.4162 27.6366 38.4884 27.8137 38.2637 27.8593V27.8593Z" fill="#99ABD6"/>
<path d="M28.2557 23.3986C28.1704 22.896 28.0891 22.3919 28.0008 21.8893C27.7545 20.4998 27.5143 19.1094 27.254 17.7219C27.1887 17.3698 27.2966 17.1948 27.6327 17.0759C29.0236 16.5913 30.4076 16.0867 31.793 15.5896C31.8637 15.5645 31.9365 15.542 32.0087 15.524C32.2334 15.4728 32.4175 15.5385 32.4902 15.7632C32.5645 15.9894 32.4531 16.1559 32.2369 16.2372C31.8301 16.3927 31.4193 16.5452 31.007 16.6886C30.1241 16.9996 29.2413 17.3146 28.353 17.6086C28.0961 17.6933 28.0289 17.8298 28.0766 18.0791C28.2271 18.8897 28.369 19.7018 28.514 20.5124C28.7563 21.8788 28.997 23.2427 29.2413 24.6071C29.2799 24.8162 29.2378 24.9858 29.0447 25.0851C28.8606 25.1789 28.7016 25.1011 28.5722 24.9647C28.0876 24.4445 27.592 23.9314 27.125 23.3931C26.948 23.188 26.8025 23.1634 26.6009 23.3209C26.5427 23.3666 26.4754 23.4042 26.4062 23.4338C26.2136 23.5171 26.0275 23.503 25.9106 23.3154C25.7872 23.1153 25.8294 22.9191 26.026 22.7917C26.2668 22.6357 26.5176 22.4942 26.7709 22.3618C26.9796 22.2519 27.1546 22.3283 27.3051 22.4928C27.592 22.8023 27.884 23.1082 28.1739 23.4182C28.2005 23.4112 28.2291 23.4056 28.2557 23.3986V23.3986Z" fill="#787A99"/>
<path d="M27.624 12.4481C27.3335 12.5228 27.0401 12.5901 26.7517 12.6693C26.4261 12.7616 26.2245 12.6623 26.1307 12.3262C25.6722 10.7015 25.2087 9.07876 24.7483 7.45455C24.5185 6.64947 24.2868 5.84441 24.062 5.03733C23.9417 4.60193 24.0124 4.48002 24.4297 4.34007C25.0226 4.14344 25.6155 3.94529 26.2084 3.74715C26.4612 3.66389 26.7055 3.67294 26.7958 3.96337C26.8861 4.2533 26.6915 4.38773 26.4347 4.46949C25.9817 4.61094 25.5343 4.77346 25.0813 4.91692C24.8847 4.97912 24.8456 5.0799 24.9022 5.27804C25.5162 7.40335 26.1252 9.53219 26.7286 11.6605C26.7783 11.8341 26.8525 11.8747 27.0225 11.8271C27.3712 11.7298 27.7213 11.636 28.0769 11.5618C28.3744 11.4981 28.728 11.2678 28.9121 11.7243C29.0199 11.9937 28.8308 12.1421 28.2415 12.2926C28.0363 12.3438 27.8291 12.3969 27.624 12.4481V12.4481Z" fill="#E35E6E"/>
<path d="M25.4693 16.7228C25.6689 17.5053 25.1768 18.1599 24.3682 18.1935C23.8732 18.213 23.4272 18.0591 23.034 17.7706C22.8323 17.6222 22.737 17.6537 22.6146 17.8679C22.3653 18.3033 22.0202 18.6429 21.5051 18.7493C20.7888 18.8962 20.0364 18.4092 19.9426 17.7456C19.8367 16.9937 20.4808 16.2844 21.3175 16.2348C21.6611 16.2132 21.9972 16.2613 22.2996 16.4238C22.4998 16.5302 22.6166 16.5091 22.7827 16.3461C23.1383 16.0009 23.5702 15.7833 24.0783 15.7391C24.7685 15.6769 25.2972 16.0506 25.4693 16.7228V16.7228ZM21.2909 16.9957C20.875 17.1071 20.6363 17.3884 20.695 17.6362C20.7587 17.9031 21.0963 18.0942 21.3812 18.0059C21.4966 17.9703 21.6184 17.9031 21.6962 17.8148C21.8627 17.6257 22.1868 17.4044 22.0573 17.1867C21.9089 16.9389 21.5301 16.9671 21.2909 16.9957V16.9957ZM23.2201 16.9991C23.5316 17.2058 23.8235 17.4115 24.2037 17.4325C24.5629 17.4536 24.7595 17.3192 24.765 17.0468C24.7721 16.7213 24.5242 16.461 24.2002 16.4911C23.82 16.5267 23.4799 16.661 23.2201 16.9991V16.9991Z" fill="#E35E6E"/>
<path d="M28.819 29.3682C29.0191 30.1502 28.5376 30.7942 27.7184 30.8314C27.3628 30.8474 27.0232 30.7746 26.7082 30.605C26.5221 30.5042 26.331 30.3111 26.1544 30.3237C25.9633 30.3377 25.9066 30.6387 25.7702 30.7978C25.5028 31.1113 25.1949 31.3591 24.7755 31.4082C24.0432 31.497 23.362 30.9999 23.2983 30.3468C23.2255 29.621 23.82 28.9468 24.5934 28.8796C24.9476 28.8495 25.3012 28.8796 25.6162 29.0461C25.8374 29.1645 25.9774 29.1469 26.165 28.9648C26.5522 28.5896 27.0302 28.3755 27.5805 28.3825C28.2301 28.3915 28.658 28.7417 28.819 29.3682ZM24.7384 30.6598C25.0659 30.5199 25.2731 30.244 25.4356 29.929C25.4818 29.8422 25.4341 29.7875 25.3559 29.7574C25.0358 29.63 24.7138 29.5432 24.3863 29.7378C24.3652 29.7504 24.3421 29.7594 24.3211 29.7735C24.1159 29.9079 23.9724 30.0885 24.0733 30.3343C24.1866 30.6121 24.4344 30.6954 24.7384 30.6598V30.6598ZM26.5682 29.632C26.8888 29.8512 27.1717 30.0529 27.5399 30.0704C27.743 30.0795 27.9502 30.0884 28.0656 29.8777C28.1664 29.6956 28.1097 29.5096 28.0069 29.3471C27.89 29.1595 27.7024 29.0973 27.4882 29.1309C27.1346 29.1861 26.8211 29.322 26.5682 29.632V29.632Z" fill="#E35E6E"/>
<path d="M7.41529 10.5715C7.52866 10.8655 7.68965 11.2462 7.82057 11.637C7.88628 11.8281 7.97808 11.8672 8.14963 11.7929C8.27553 11.7378 8.40094 11.6761 8.53387 11.646C8.71595 11.6018 8.8895 11.6319 8.97628 11.8265C9.06456 12.0227 9.03297 12.1928 8.84537 12.3182C8.81527 12.3397 8.78166 12.3572 8.74806 12.3748C8.17973 12.6778 8.18525 12.6757 8.42953 13.2862C8.576 13.6579 8.73552 14.0276 8.83785 14.4119C9.00639 15.0419 8.72499 15.5956 8.14463 15.868C7.9159 15.9759 7.69318 15.9864 7.56578 15.7315C7.45091 15.5053 7.54268 15.3353 7.76941 15.2099C8.13709 15.0012 8.20482 14.7905 8.05935 14.4013C7.90536 13.9925 7.74083 13.5872 7.60139 13.1729C7.51812 12.9251 7.38719 12.8614 7.15545 12.9712C7.03155 13.0299 6.90213 13.0811 6.77322 13.1252C6.53947 13.203 6.33784 13.1483 6.23852 12.918C6.14322 12.6988 6.24904 12.5323 6.45971 12.4335C6.49332 12.4174 6.52693 12.3979 6.55903 12.3804C6.75014 12.269 7.06165 12.3237 7.1409 12.1005C7.21514 11.8918 7.00847 11.6866 6.94276 11.4724C6.82789 11.1027 6.65433 10.7521 6.5801 10.3699C6.44215 9.66566 6.88256 9.04814 7.68263 8.82894C8.35478 8.64485 8.98681 8.96686 9.22407 9.61594C9.30684 9.84618 9.26973 10.0498 9.0415 10.1557C8.8238 10.2585 8.66628 10.1522 8.5479 9.95051C8.28606 9.50809 8.12505 9.44441 7.75136 9.61094C7.31646 9.80557 7.23822 9.99118 7.41529 10.5715V10.5715Z" fill="#787A99"/>
<path d="M32.3782 35.4036C31.6705 35.5486 31.0515 35.3646 30.584 34.8234C30.3327 34.5314 30.0939 34.3648 29.7067 34.4551C29.5542 34.4922 29.4057 34.4446 29.3064 34.3081C29.1384 34.0744 29.2623 33.7684 29.5793 33.7258C29.8532 33.6887 29.8677 33.5844 29.8481 33.3401C29.7453 32.1016 30.7204 31.2308 31.8616 31.5157C32.773 31.7459 33.0865 32.6799 32.4951 33.4183C32.2122 33.7719 31.8174 33.956 31.4086 34.1205C31.3168 34.1576 31.1629 34.1667 31.1629 34.3046C31.1629 34.4109 31.2847 34.4532 31.3665 34.5063C31.9168 34.8725 32.5518 34.701 32.8422 34.096C32.9626 33.8482 33.0951 33.6285 33.403 33.7684C33.7341 33.9204 33.6403 34.1913 33.5199 34.4411C33.2847 34.9311 32.8899 35.2371 32.3782 35.4036V35.4036ZM31.2406 32.2661C30.738 32.3991 30.4746 32.8555 30.6071 33.3616C30.6321 33.4569 30.6497 33.5863 30.7877 33.5382C31.207 33.3917 31.6564 33.2834 31.9378 32.8977C32.145 32.6147 32.0226 32.3389 31.6815 32.2486C31.5311 32.208 31.3856 32.2325 31.2406 32.2661V32.2661Z" fill="#787A99"/>
<path d="M22.1852 11.5846C22.2755 11.5761 22.4134 11.5741 22.5463 11.546C22.6577 11.5209 22.8257 11.5867 22.8684 11.4327C22.9055 11.3017 22.7831 11.2024 22.7018 11.1121C22.3974 10.774 21.8421 10.7439 21.4368 11.0364C21.357 11.0946 21.2828 11.1637 21.2135 11.2345C21.037 11.4145 20.8384 11.4522 20.6528 11.2751C20.4672 11.0961 20.5093 10.8894 20.6758 10.7103C21.1413 10.2097 21.7092 9.96544 22.3903 10.1124C23.0399 10.2539 23.4823 10.6556 23.6378 11.3137C23.693 11.5495 23.7883 11.6819 24.0256 11.7441C24.2678 11.8078 24.4855 11.9403 24.6752 12.1068C24.8377 12.2483 24.8768 12.4253 24.7529 12.6074C24.629 12.7915 24.4504 12.8146 24.2573 12.7208C24.0697 12.629 23.9017 12.4058 23.698 12.4569C23.4984 12.5086 23.4788 12.7935 23.3479 12.956C22.9461 13.4551 22.4345 13.7205 21.7904 13.7079C21.4297 13.7009 21.1233 13.5615 20.9587 13.2269C20.7872 12.8763 20.888 12.5458 21.1127 12.2468C21.3711 11.9017 21.7392 11.7261 22.1852 11.5846V11.5846ZM22.8543 12.2979C22.4239 12.2538 22.0773 12.3616 21.7834 12.625C21.7147 12.6887 21.6173 12.7704 21.6615 12.8763C21.7076 12.9861 21.826 12.9685 21.9233 12.956C22.3286 12.9013 22.6507 12.7228 22.8543 12.2979Z" fill="#787A99"/>
<path d="M24.6083 27.9929C24.3731 28.0531 24.1694 27.9964 24.0882 27.7591C24.0119 27.5379 24.1308 27.3894 24.3395 27.285C25.0452 26.9344 25.1125 26.7915 24.8827 26.0536C24.4117 24.5403 23.9272 23.031 23.4511 21.5181C23.3503 21.1976 23.2334 20.881 23.239 20.5344C23.2495 19.8512 23.6473 19.3025 24.2953 19.1028C24.5426 19.0266 24.7819 19.0195 24.8792 19.3185C24.9695 19.5944 24.805 19.7203 24.5622 19.8141C24.0561 20.0122 23.8845 20.3288 24.044 20.8509C24.4599 22.2118 24.8988 23.5637 25.3266 24.921C25.4736 25.3845 25.6557 25.8394 25.7304 26.3225C25.8488 27.0995 25.3693 27.8038 24.6083 27.9929V27.9929Z" fill="#E35E6E"/>
<path d="M32.5159 24.3983C32.4733 24.2282 32.4236 24.0602 32.3885 23.8886C32.3438 23.6619 32.4236 23.4813 32.6538 23.4211C32.8836 23.3614 33.0446 23.4833 33.1083 23.7025C33.1971 24.002 33.2763 24.3044 33.34 24.6104C33.3827 24.8155 33.4749 24.8421 33.6535 24.7644C33.8376 24.6866 34.0267 24.6229 34.2198 24.5678C34.4446 24.5041 34.6266 24.5823 34.6994 24.8051C34.7736 25.0298 34.6638 25.1963 34.4496 25.2795C34.1722 25.3839 33.7789 25.4014 33.657 25.6297C33.5352 25.8634 33.7543 26.198 33.8196 26.4864C33.8762 26.7357 33.8517 26.9584 33.5828 27.0347C33.2924 27.1159 33.1564 26.9289 33.0837 26.665C33.013 26.4012 33.0466 26.037 32.8394 25.9041C32.6167 25.7626 32.3368 26.0295 32.0785 26.1057C31.5051 26.2722 31.3371 26.1603 31.3351 25.5765C31.3336 25.0653 31.3391 24.5558 31.3336 24.0441C31.3301 23.7788 31.4344 23.5876 31.7088 23.5861C31.9882 23.5861 32.0875 23.7878 32.0875 24.0441C32.089 24.3576 32.0875 24.6691 32.091 24.9801C32.0925 25.09 32.0323 25.2846 32.2465 25.2158C32.399 25.1662 32.705 25.246 32.6413 24.9079C32.6077 24.7364 32.5565 24.5678 32.5139 24.3983H32.5159V24.3983Z" fill="#787A99"/>
<path d="M31.9339 18.0976C32.0537 18.068 32.1741 18.027 32.2965 18.0079C32.5087 17.9758 32.6752 18.059 32.7354 18.2677C32.7971 18.4764 32.7033 18.6695 32.5017 18.7121C32.1636 18.7808 32.2042 18.9615 32.2825 19.1987C32.4169 19.602 32.5408 20.0073 32.6662 20.4126C32.7475 20.6744 32.7103 20.9062 32.4169 20.9804C32.146 21.0476 32.0131 20.8636 31.9409 20.6198C31.817 20.2019 31.6805 19.7861 31.5516 19.3682C31.5035 19.2182 31.502 19.0427 31.2452 19.1154C30.9783 19.1897 31.0932 19.3562 31.1268 19.4976C31.2472 19.9772 31.2472 20.4603 31.192 20.9468C31.1659 21.1946 31.0721 21.4033 30.7817 21.3732C30.4842 21.3431 30.4085 21.1329 30.4386 20.8565C30.4842 20.4587 30.4792 20.0619 30.3939 19.6657C30.3518 19.471 30.2685 19.4109 30.0844 19.4851C30.0277 19.5082 29.964 19.5208 29.9038 19.5368C29.6545 19.602 29.4419 19.5578 29.3696 19.2835C29.3024 19.0287 29.4564 18.8887 29.6861 18.8164C30.4366 18.5812 31.187 18.3439 31.9354 18.1066C31.9354 18.1031 31.9339 18.1016 31.9339 18.0976V18.0976Z" fill="#787A99"/>
<path d="M13.6151 10.262C13.6382 10.4762 13.4717 10.6814 13.3814 10.9096C13.1888 11.3926 13.102 11.3239 13.6136 11.5487C13.7746 11.6194 13.9372 11.6865 14.0912 11.7698C14.2963 11.8811 14.367 12.0633 14.2717 12.276C14.1794 12.4791 13.9974 12.5308 13.7992 12.453C13.5549 12.3572 13.3126 12.2509 13.0809 12.1305C12.9144 12.0457 12.8366 12.0864 12.7709 12.2509C12.6771 12.4827 12.5748 12.7093 12.4629 12.9341C12.3621 13.1377 12.1976 13.2421 11.9713 13.1413C11.7536 13.044 11.69 12.8634 11.7782 12.6442C11.8756 12.4014 11.9819 12.1606 12.0967 11.9254C12.1695 11.7769 12.1359 11.7007 11.9854 11.6405C11.7552 11.5452 11.5289 11.4372 11.3057 11.3254C11.097 11.2211 11.0158 11.039 11.1061 10.8263C11.1999 10.6056 11.3925 10.5609 11.6087 10.6477C11.8048 10.7275 12.005 10.8052 12.1891 10.9116C12.4419 11.06 12.5567 10.9787 12.6455 10.7204C12.7218 10.4972 12.8366 10.2851 12.9515 10.0779C13.0327 9.93296 13.1712 9.88682 13.3392 9.92745C13.4912 9.96457 13.5725 10.0619 13.6151 10.262V10.262Z" fill="#787A99"/>
<path d="M33.9725 30.0609C34.266 29.9476 34.5012 29.9797 34.5935 30.2591C34.6803 30.521 34.4997 30.6664 34.266 30.7617C33.8732 30.9212 33.4855 31.0978 33.0962 31.2643C32.9106 31.3456 32.7321 31.3491 32.5816 31.1845C32.4206 31.0075 32.4928 30.838 32.6027 30.6734C32.8259 30.3353 33.0205 29.9902 33.0024 29.5654C32.9954 29.4029 32.9603 29.2574 32.7621 29.2538C32.553 29.2503 32.4256 29.3567 32.4416 29.5759C32.4647 29.8628 32.394 30.1051 32.0629 30.0855C31.7213 30.0665 31.6717 29.7851 31.6842 29.5037C31.7073 28.8877 32.1301 28.4844 32.7476 28.4824C33.328 28.4824 33.7368 28.8983 33.7548 29.5107C33.7583 29.6221 33.7654 29.7389 33.7423 29.8468C33.6841 30.1191 33.7794 30.1653 33.9725 30.0609V30.0609Z" fill="#E35E6E"/>
<path d="M11.6047 14.4157C11.4312 14.4674 11.2952 14.3661 11.1658 14.2708C10.3943 13.703 9.95744 12.917 9.75027 12.002C9.63541 11.4889 9.61233 10.9637 9.75027 10.443C9.81749 10.1917 9.92383 9.97458 10.2298 10.0398C10.5343 10.1055 10.5428 10.3336 10.4972 10.599C10.276 11.8676 10.6632 12.912 11.679 13.7115C11.8244 13.8264 11.9463 13.9398 11.8932 14.149C11.8545 14.3009 11.7607 14.3841 11.6047 14.4157V14.4157Z" fill="#787A99"/>
<path d="M15.5749 10.9483C15.7239 11.5021 15.7469 12.0578 15.621 12.6171C15.5628 12.881 15.453 13.1197 15.1239 13.0385C14.8265 12.9637 14.8285 12.7285 14.8741 12.4666C15.0903 11.2261 14.7011 10.2054 13.731 9.40731C13.5454 9.25682 13.3753 9.11138 13.5027 8.84603C13.6146 8.6163 13.901 8.58617 14.1809 8.79284C14.9153 9.33608 15.3522 10.074 15.5749 10.9483V10.9483Z" fill="#787A99"/>
<path d="M30.3198 23.3808C30.3374 23.3773 30.2877 23.3899 30.2401 23.4004C30.0083 23.4536 29.8067 23.4235 29.7269 23.1652C29.6472 22.9084 29.7871 22.7598 30.0153 22.6836C30.9373 22.3726 31.8613 22.0626 32.7832 21.7546C33.1017 21.6468 33.4218 21.5405 33.7423 21.4347C33.9881 21.3534 34.2073 21.3955 34.2905 21.6593C34.3738 21.9246 34.2148 22.0732 33.967 22.1549C32.7707 22.5547 31.5778 22.958 30.3198 23.3808V23.3808Z" fill="#787A99"/>
<path d="M20.3202 9.72285C20.3488 9.71533 20.2761 9.73489 20.2018 9.75244C19.9701 9.80411 19.7649 9.772 19.6957 9.51016C19.627 9.25735 19.7614 9.10684 19.9947 9.0306C20.6728 8.80939 21.3485 8.5882 22.0262 8.369C22.4546 8.23106 22.8829 8.09462 23.3128 7.9637C23.5656 7.88595 23.7763 7.95113 23.8455 8.21999C23.9072 8.47129 23.7517 8.61131 23.52 8.68554C22.4861 9.02012 21.4529 9.35618 20.3202 9.72285V9.72285Z" fill="#787A99"/>
<path d="M18.1316 9.96744C18.3242 9.91828 18.5174 9.86669 18.71 9.82254C18.9507 9.76787 19.1439 9.83855 19.2056 10.0878C19.2637 10.3161 19.1398 10.4736 18.9206 10.5393C18.2289 10.7445 17.5367 10.9446 16.8415 11.1427C16.6077 11.2099 16.4046 11.1498 16.3353 10.9005C16.2591 10.6311 16.4166 10.4791 16.6679 10.4134C17.1615 10.286 17.6556 10.1641 18.1492 10.0387C18.1437 10.0156 18.1366 9.99052 18.1316 9.96744V9.96744Z" fill="#787A99"/>
<path d="M17.0618 9.53827C16.8441 9.59295 16.6279 9.65657 16.4107 9.70071C16.2001 9.74334 16.032 9.66211 15.9683 9.45294C15.8971 9.22671 16.0019 9.05313 16.2211 8.98592C16.9239 8.77173 17.6282 8.56811 18.3359 8.36998C18.5712 8.30276 18.7713 8.377 18.8365 8.6248C18.9022 8.87259 18.7623 9.03011 18.525 9.09231C18.0329 9.22122 17.5378 9.3436 17.0438 9.46901C17.0493 9.49208 17.0563 9.5152 17.0618 9.53827V9.53827Z" fill="#787A99"/>
<path d="M21.3029 6.38388C21.3756 6.67431 21.4498 6.96421 21.5226 7.25464C21.5808 7.4919 21.5191 7.69511 21.2768 7.76634C21.0059 7.84409 20.8569 7.67955 20.7917 7.42825C20.6448 6.84939 20.4978 6.26905 20.3528 5.68868C20.2926 5.45142 20.3548 5.2442 20.5971 5.17699C20.861 5.10275 21.018 5.26231 21.0837 5.51361C21.1579 5.80354 21.2306 6.09395 21.3029 6.38388V6.38388Z" fill="#787A99"/>
<path d="M16.3469 33.1003C16.1257 33.1484 15.9486 33.0933 15.8623 32.8972C15.765 32.6795 15.8568 32.4989 16.0675 32.4031C16.7507 32.0971 17.4369 31.8017 18.1221 31.5007C18.4988 31.3362 18.8755 31.1681 19.2542 31.0071C19.4845 30.9078 19.6826 30.9644 19.7959 31.1856C19.8948 31.3838 19.8135 31.5714 19.6224 31.6567C18.5289 32.1467 17.4319 32.6242 16.3469 33.1003Z" fill="#424770"/>
<path d="M19.9781 32.6603C20.2435 32.5716 20.4255 32.6408 20.5158 32.8515C20.6096 33.0727 20.5033 33.2492 20.2981 33.3415C19.2362 33.807 18.1728 34.265 17.1074 34.7235C16.8792 34.8208 16.674 34.7746 16.5787 34.5378C16.4598 34.2439 16.66 34.0954 16.8917 33.9946C17.7836 33.6049 18.6774 33.2226 19.5708 32.8369C19.7193 32.7732 19.8682 32.708 19.9781 32.6603V32.6603Z" fill="#424770"/>
<path d="M9.41814 37.0265C9.1884 37.0832 9.00783 37.0386 8.92456 36.8053C8.8433 36.5786 8.93158 36.416 9.14928 36.3222C10.2568 35.8372 11.3649 35.3521 12.4744 34.869C12.7147 34.7647 12.959 34.7452 13.0814 35.0266C13.2033 35.3135 13.0107 35.4605 12.7714 35.5648C11.6513 36.0514 10.5312 36.5415 9.41814 37.0265V37.0265Z" fill="#424770"/>
<path d="M6.37391 28.7196C6.51737 28.681 6.64478 28.7356 6.77219 28.7868C7.15642 28.9373 7.5507 29.0647 7.91888 29.2453C8.20731 29.3888 8.29757 29.2845 8.38586 29.0261C8.52229 28.6244 8.69033 28.2331 8.84984 27.8403C8.94515 27.6031 9.08159 27.3964 9.38055 27.5183C9.66897 27.6367 9.64591 27.8739 9.54859 28.1162C9.37704 28.5466 9.21402 28.9779 9.03545 29.4048C8.96121 29.5779 8.98077 29.6666 9.17339 29.7354C9.59625 29.8878 10.0106 30.0645 10.4284 30.2295C10.6792 30.3303 10.9004 30.4683 10.7695 30.7813C10.6511 31.0682 10.4124 31.0361 10.1681 30.9373C9.78586 30.7813 9.39461 30.6488 9.02141 30.4788C8.76309 30.3619 8.62665 30.3815 8.53134 30.6789C8.40193 31.0822 8.21985 31.468 8.06936 31.8643C7.97205 32.1246 7.80751 32.2801 7.52962 32.1702C7.26226 32.0644 7.26778 31.8361 7.36158 31.6024C7.51356 31.2186 7.65001 30.8274 7.82507 30.4557C7.958 30.1728 7.94544 30.0223 7.60736 29.918C7.17949 29.7871 6.76718 29.5994 6.35285 29.4259C6.1828 29.3551 6.05889 29.2363 6.08899 29.0241C6.11407 28.8525 6.20938 28.7567 6.37391 28.7196Z" fill="#424770"/>
<path d="M15.4866 20.4438C15.6757 21.1797 15.4335 21.6998 14.8937 21.9371C12.9119 22.8044 10.9265 23.6641 8.94264 24.5294C7.77991 25.0375 6.6172 25.5416 5.45999 26.0603C4.88514 26.3186 4.19493 26.108 3.93109 25.5437C3.62661 24.8906 3.33467 24.2304 3.06079 23.5633C2.8466 23.0446 3.21477 22.385 3.85682 22.1051C6.2495 21.0593 8.64368 20.017 11.0379 18.9731C11.7562 18.6616 12.4765 18.3501 13.1948 18.0421C13.6939 17.8264 14.345 18.0049 14.5998 18.499C14.9539 19.1817 15.2423 19.8986 15.4866 20.4438V20.4438ZM14.1117 19.2651C13.9542 18.7519 13.7751 18.6155 13.4265 18.768C12.6977 19.0845 11.9703 19.4135 11.2395 19.732C8.92308 20.7427 6.60666 21.753 4.28672 22.7562C3.73645 22.9935 3.67827 23.1349 3.96469 23.6927C4.15931 24.1507 4.34339 24.6147 4.55055 25.0691C4.7206 25.4443 4.86709 25.4869 5.25834 25.3169C7.45288 24.3648 9.64891 23.4148 11.8444 22.4608C12.7137 22.084 13.5805 21.7018 14.4478 21.3211C14.7076 21.2062 14.9218 21.0487 14.7768 20.7212C14.5576 20.2346 14.3856 19.727 14.1117 19.2651Z" fill="#424770"/>
<path d="M16.5691 28.7149C16.4788 28.7661 16.387 28.8177 16.2967 28.8689C16.1001 28.8619 15.9762 28.7646 15.8984 28.584C15.7515 28.2389 15.5779 27.9063 15.4435 27.5577C15.3657 27.354 15.286 27.3134 15.0899 27.4142C14.7784 27.5717 14.4543 27.7062 14.1343 27.8441C13.8915 27.949 13.6512 27.961 13.5309 27.6796C13.4195 27.4198 13.5695 27.2603 13.8088 27.1579C14.1519 27.009 14.4879 26.8444 14.835 26.703C15.0046 26.6322 15.0206 26.558 14.9444 26.3935C14.7573 25.9847 14.5943 25.5668 14.4207 25.153C14.5145 24.8149 14.7076 24.6805 15.0472 24.8395C15.2845 25.2097 15.4294 25.622 15.594 26.0253C15.6878 26.2571 15.8082 26.3192 16.0454 26.1933C16.3303 26.0428 16.6343 25.926 16.9318 25.7986C17.1459 25.7048 17.33 25.7544 17.4449 25.956C17.5708 26.1758 17.4665 26.3544 17.2734 26.4552C16.9548 26.6232 16.6258 26.7792 16.2877 26.9011C16.0454 26.9899 16.063 27.1118 16.1477 27.2959C16.2862 27.6019 16.4026 27.9188 16.5551 28.2178C16.6454 28.3929 16.6468 28.5469 16.5691 28.7149Z" fill="#424770"/>
<path d="M21.2909 16.9956C21.5296 16.9675 21.9083 16.9389 22.0573 17.1866C22.1862 17.4043 21.8627 17.6256 21.6962 17.8147C21.6184 17.9035 21.496 17.9707 21.3812 18.0058C21.0962 18.0946 20.7582 17.9035 20.6945 17.6361C20.6363 17.3883 20.875 17.107 21.2909 16.9956V16.9956Z" fill="#F2F2F2"/>
<path d="M23.2194 16.9987C23.4797 16.6621 23.8193 16.5263 24.1995 16.4907C24.5235 16.4606 24.7713 16.7209 24.7643 17.0479C24.7588 17.3208 24.5627 17.4533 24.203 17.4342C23.8248 17.4126 23.5309 17.2074 23.2194 16.9987V16.9987Z" fill="#F2F2F2"/>
<path d="M24.7387 30.6603C24.4328 30.6939 24.1864 30.6107 24.0736 30.3348C23.9723 30.089 24.1157 29.9064 24.3209 29.774C24.3425 29.7599 24.3655 29.7509 24.3866 29.7369C24.7142 29.5437 25.0342 29.6304 25.3547 29.7563C25.4339 29.7879 25.4821 29.8412 25.436 29.9295C25.2714 30.2445 25.0663 30.5209 24.7387 30.6603V30.6603Z" fill="#F2F2F2"/>
<path d="M26.5687 29.631C26.822 29.3215 27.1335 29.1872 27.4872 29.132C27.7034 29.0984 27.889 29.1606 28.0078 29.3482C28.1087 29.5092 28.1648 29.6948 28.064 29.8789C27.9512 30.0876 27.744 30.0805 27.5403 30.0699C27.1722 30.0524 26.8872 29.8507 26.5687 29.631V29.631Z" fill="#F2F2F2"/>
<path d="M31.2401 32.2662C31.3871 32.2326 31.5306 32.2081 31.6826 32.2487C32.0242 32.339 32.1445 32.6149 31.9374 32.8978C31.656 33.2835 31.2065 33.3918 30.7872 33.5383C30.6492 33.5864 30.6317 33.4571 30.6066 33.3618C30.4742 32.8556 30.738 32.3992 31.2401 32.2662V32.2662Z" fill="#F2F2F2"/>
<path d="M22.8545 12.2982C22.6494 12.723 22.3293 12.9016 21.924 12.9562C21.8267 12.9688 21.7078 12.9864 21.6622 12.8765C21.6175 12.7707 21.7148 12.6889 21.7841 12.6252C22.076 12.3619 22.4226 12.254 22.8545 12.2982Z" fill="#F2F2F2"/>
<path d="M14.1121 19.2644C14.3845 19.7264 14.5581 20.234 14.7758 20.7226C14.9222 21.0481 14.708 21.2056 14.4462 21.3205C13.5794 21.7027 12.7121 22.0835 11.8434 22.4602C9.64932 23.4143 7.45329 24.3663 5.25724 25.3184C4.86599 25.4864 4.72101 25.4438 4.54946 25.0686C4.3438 24.6156 4.15821 24.1522 3.96509 23.6917C4.0007 23.6832 4.03984 23.6796 4.07344 23.6636C5.81603 22.8886 7.56463 22.1276 9.31976 21.3827C10.9269 20.6995 12.516 19.9722 14.1121 19.2644V19.2644Z" fill="#9ED4C7"/>
<path d="M14.1122 19.2643C12.5161 19.9721 10.927 20.6994 9.31988 21.3826C7.56475 22.1275 5.81615 22.8885 4.07356 23.6635C4.03996 23.6795 4.00082 23.6831 3.96521 23.6916C3.67678 23.1363 3.73548 22.9928 4.28574 22.7556C6.60568 21.7524 8.92362 20.7421 11.24 19.7313C11.9709 19.4128 12.6962 19.0837 13.427 18.7672C13.7742 18.6167 13.9547 18.7512 14.1122 19.2643V19.2643Z" fill="#8CB8B8"/>
</svg>
