<svg width="563" height="320" viewBox="0 0 563 320" fill="none" xmlns="http://www.w3.org/2000/svg">
<path fill-rule="evenodd" clip-rule="evenodd" d="M251.605 99.9832L204.031 199.389L288.607 167.527L377.441 196.159L331.189 99.8364L251.605 99.9832Z" fill="#2A0F44"/>
<path fill-rule="evenodd" clip-rule="evenodd" d="M251.598 97.6318L251.6 98.9648L333.317 98.8141L332.105 99.3962L377.892 194.751L377.125 197.13L288.63 168.607L205.302 200L203.108 198.95L251.598 97.6318ZM206.043 197.542L289.004 166.288L288.917 166.557L375.492 194.462L330.545 100.858L252.245 101.003L206.043 197.542Z" fill="#22053D"/>
<path d="M291.099 189.117C303.587 189.117 313.711 179.388 313.711 167.386C313.711 155.384 303.587 145.654 291.099 145.654C278.61 145.654 268.486 155.384 268.486 167.386C268.486 179.388 278.61 189.117 291.099 189.117Z" fill="#F1F1F1"/>
<path fill-rule="evenodd" clip-rule="evenodd" d="M291.096 146.672C279.132 146.672 269.503 155.982 269.503 167.383C269.503 178.785 279.132 188.095 291.096 188.095C303.06 188.095 312.689 178.785 312.689 167.383C312.689 155.982 303.06 146.672 291.096 146.672ZM267.464 167.383C267.464 154.781 278.083 144.633 291.096 144.633C304.109 144.633 314.727 154.781 314.727 167.383C314.727 179.986 304.109 190.134 291.096 190.134C278.083 190.134 267.464 179.986 267.464 167.383Z" fill="#24053E"/>
<path fill-rule="evenodd" clip-rule="evenodd" d="M287.427 188.821C272.01 186.324 264.227 169.439 270.248 159.16C271.129 161.216 274.946 160.775 274.946 162.831C274.359 172.963 281.701 183.828 287.427 188.821Z" fill="#C6C6C6"/>
<path fill-rule="evenodd" clip-rule="evenodd" d="M291.096 146.672C279.132 146.672 269.503 155.982 269.503 167.383C269.503 178.785 279.132 188.095 291.096 188.095C303.06 188.095 312.689 178.785 312.689 167.383C312.689 155.982 303.06 146.672 291.096 146.672ZM267.464 167.383C267.464 154.781 278.083 144.633 291.096 144.633C304.109 144.633 314.727 154.781 314.727 167.383C314.727 179.986 304.109 190.134 291.096 190.134C278.083 190.134 267.464 179.986 267.464 167.383Z" fill="#24053E"/>
<path fill-rule="evenodd" clip-rule="evenodd" d="M333.534 136.985C353.65 153.871 369.655 163.268 375.969 155.486C380.961 143.446 363.929 120.687 333.387 105.122C312.39 104.388 315.327 123.036 333.534 136.985Z" fill="#F1F1F1"/>
<path fill-rule="evenodd" clip-rule="evenodd" d="M321.362 107.028C324.017 104.961 328.045 103.918 333.42 104.106L333.895 104.123L333.847 104.216C349.219 112.05 361.233 121.714 368.79 130.984C372.568 135.618 375.257 140.184 376.68 144.403C378.1 148.617 378.281 152.567 376.908 155.879L376.792 156.159L376.758 156.131C374.947 158.362 372.44 159.33 369.482 159.275C366.569 159.22 363.195 158.18 359.485 156.409C352.062 152.865 342.956 146.229 332.893 137.783C323.707 130.74 318.15 122.357 317.738 115.612C317.529 112.176 318.662 109.13 321.362 107.028ZM319.773 115.488C320.132 121.366 325.141 129.275 334.151 136.178L334.187 136.206L334.186 136.207C344.233 144.64 353.181 151.14 360.363 154.569C363.958 156.285 367.026 157.19 369.52 157.236C371.91 157.281 373.741 156.542 375.08 154.96C376.144 152.274 376.048 148.913 374.747 145.054C373.426 141.133 370.884 136.779 367.21 132.272C359.897 123.302 348.195 113.848 333.124 106.136C328.123 105.994 324.714 107.002 322.615 108.636C320.529 110.26 319.598 112.61 319.773 115.488Z" fill="#24053E"/>
<path fill-rule="evenodd" clip-rule="evenodd" d="M366.722 156.954C325.315 130.818 339.999 104.682 319.148 112.17C327.518 131.552 343.229 150.494 366.722 156.954Z" fill="#C6C6C6"/>
<path fill-rule="evenodd" clip-rule="evenodd" d="M321.362 107.028C324.017 104.961 328.045 103.918 333.42 104.106L333.895 104.123L333.847 104.216C349.219 112.05 361.233 121.714 368.79 130.984C372.568 135.618 375.257 140.184 376.68 144.403C378.1 148.617 378.281 152.567 376.908 155.879L376.792 156.159L376.758 156.131C374.947 158.362 372.44 159.33 369.482 159.275C366.569 159.22 363.195 158.18 359.485 156.409C352.062 152.865 342.956 146.229 332.893 137.783C323.707 130.74 318.15 122.357 317.738 115.612C317.529 112.176 318.662 109.13 321.362 107.028ZM319.773 115.488C320.132 121.366 325.141 129.275 334.151 136.178L334.187 136.206L334.186 136.207C344.233 144.64 353.181 151.14 360.363 154.569C363.958 156.285 367.026 157.19 369.52 157.236C371.91 157.281 373.741 156.542 375.08 154.96C376.144 152.274 376.048 148.913 374.747 145.054C373.426 141.133 370.884 136.779 367.21 132.272C359.897 123.302 348.195 113.848 333.124 106.136C328.123 105.994 324.714 107.002 322.615 108.636C320.529 110.26 319.598 112.61 319.773 115.488Z" fill="#24053E"/>
<path fill-rule="evenodd" clip-rule="evenodd" d="M223.48 116.764C199.749 105.291 184.665 94.4774 189.409 85.6232C198.253 76.2337 226.041 82.3704 252.661 103.967C261.778 123.053 243.618 127.743 223.48 116.764Z" fill="#F1F1F1"/>
<path fill-rule="evenodd" clip-rule="evenodd" d="M253.68 103.479L253.581 103.526C255.914 108.408 256.584 112.535 255.769 115.807C254.941 119.136 252.619 121.404 249.395 122.595C243.072 124.93 233.175 123.203 223.015 117.669C211.145 111.93 201.35 106.316 195.105 100.985C191.984 98.3213 189.675 95.6666 188.468 93.0341C187.24 90.3562 187.15 87.68 188.511 85.14L188.641 84.8975L188.668 84.9225C191.105 82.3352 194.769 80.8966 199.183 80.4746C203.604 80.0521 208.865 80.6377 214.634 82.1891C226.176 85.2926 239.903 92.3022 253.303 103.174L253.68 103.479ZM251.839 104.611C238.677 93.9696 225.272 87.1609 214.105 84.158C208.494 82.6493 203.486 82.1115 199.377 82.5043C195.327 82.8915 192.235 84.172 190.246 86.222C189.298 88.074 189.335 90.0321 190.322 92.1844C191.35 94.4282 193.406 96.8541 196.429 99.4345C202.469 104.589 212.073 110.115 223.924 115.844L223.969 115.866L223.969 115.867C233.939 121.303 243.181 122.716 248.689 120.682C251.382 119.687 253.15 117.89 253.791 115.314C254.437 112.721 253.982 109.172 251.839 104.611Z" fill="#24053E"/>
<path fill-rule="evenodd" clip-rule="evenodd" d="M199.393 103.041C228.581 111.608 241.135 108.765 238.144 93.7058C243.152 96.3016 248.145 99.2254 252.661 103.968C263.683 137.471 219.037 119.059 199.393 103.041Z" fill="#C6C6C6"/>
<path fill-rule="evenodd" clip-rule="evenodd" d="M253.68 103.479L253.581 103.526C255.914 108.408 256.584 112.535 255.769 115.807C254.941 119.136 252.619 121.404 249.395 122.595C243.072 124.93 233.175 123.203 223.015 117.669C211.145 111.93 201.35 106.316 195.105 100.985C191.984 98.3213 189.675 95.6666 188.468 93.0341C187.24 90.3562 187.15 87.68 188.511 85.14L188.641 84.8975L188.668 84.9225C191.105 82.3352 194.769 80.8966 199.183 80.4746C203.604 80.0521 208.865 80.6377 214.634 82.1891C226.176 85.2926 239.903 92.3022 253.303 103.174L253.68 103.479ZM251.839 104.611C238.677 93.9696 225.272 87.1609 214.105 84.158C208.494 82.6493 203.486 82.1115 199.377 82.5043C195.327 82.8915 192.235 84.172 190.246 86.222C189.298 88.074 189.335 90.0321 190.322 92.1844C191.35 94.4282 193.406 96.8541 196.429 99.4345C202.469 104.589 212.073 110.115 223.924 115.844L223.969 115.866L223.969 115.867C233.939 121.303 243.181 122.716 248.689 120.682C251.382 119.687 253.15 117.89 253.791 115.314C254.437 112.721 253.982 109.172 251.839 104.611Z" fill="#24053E"/>
<path fill-rule="evenodd" clip-rule="evenodd" d="M223.48 116.764C199.749 105.291 184.665 94.4774 189.409 85.6232C198.253 76.2337 226.041 82.3704 252.661 103.967C261.778 123.053 243.618 127.743 223.48 116.764Z" fill="#F1F1F1"/>
<path fill-rule="evenodd" clip-rule="evenodd" d="M253.68 103.479L253.581 103.526C255.914 108.408 256.584 112.535 255.769 115.807C254.941 119.136 252.619 121.404 249.395 122.595C243.072 124.93 233.175 123.203 223.015 117.669C211.145 111.93 201.35 106.316 195.105 100.985C191.984 98.3213 189.675 95.6666 188.468 93.0341C187.24 90.3562 187.15 87.68 188.511 85.14L188.641 84.8975L188.668 84.9225C191.105 82.3352 194.769 80.8966 199.183 80.4746C203.604 80.0521 208.865 80.6377 214.634 82.1891C226.176 85.2926 239.903 92.3022 253.303 103.174L253.68 103.479ZM251.839 104.611C238.677 93.9696 225.272 87.1609 214.105 84.158C208.494 82.6493 203.486 82.1115 199.377 82.5043C195.327 82.8915 192.235 84.172 190.246 86.222C189.298 88.074 189.335 90.0321 190.322 92.1844C191.35 94.4282 193.406 96.8541 196.429 99.4345C202.469 104.589 212.073 110.115 223.924 115.844L223.969 115.866L223.969 115.867C233.939 121.303 243.181 122.716 248.689 120.682C251.382 119.687 253.15 117.89 253.791 115.314C254.437 112.721 253.982 109.172 251.839 104.611Z" fill="#24053E"/>
<path fill-rule="evenodd" clip-rule="evenodd" d="M199.393 103.041C228.581 111.608 241.135 108.765 238.144 93.7058C243.152 96.3016 248.145 99.2254 252.661 103.968C263.683 137.471 219.037 119.059 199.393 103.041Z" fill="#C6C6C6"/>
<path fill-rule="evenodd" clip-rule="evenodd" d="M253.68 103.479L253.581 103.526C255.914 108.408 256.584 112.535 255.769 115.807C254.941 119.136 252.619 121.404 249.395 122.595C243.072 124.93 233.175 123.203 223.015 117.669C211.145 111.93 201.35 106.316 195.105 100.985C191.984 98.3213 189.675 95.6666 188.468 93.0341C187.24 90.3562 187.15 87.68 188.511 85.14L188.641 84.8975L188.668 84.9225C191.105 82.3352 194.769 80.8966 199.183 80.4746C203.604 80.0521 208.865 80.6377 214.634 82.1891C226.176 85.2926 239.903 92.3022 253.303 103.174L253.68 103.479ZM251.839 104.611C238.677 93.9696 225.272 87.1609 214.105 84.158C208.494 82.6493 203.486 82.1115 199.377 82.5043C195.327 82.8915 192.235 84.172 190.246 86.222C189.298 88.074 189.335 90.0321 190.322 92.1844C191.35 94.4282 193.406 96.8541 196.429 99.4345C202.469 104.589 212.073 110.115 223.924 115.844L223.969 115.866L223.969 115.867C233.939 121.303 243.181 122.716 248.689 120.682C251.382 119.687 253.15 117.89 253.791 115.314C254.437 112.721 253.982 109.172 251.839 104.611Z" fill="#24053E"/>
<path d="M290.805 171.347C316.674 171.347 337.645 150.179 337.645 124.066C337.645 97.9541 316.674 76.786 290.805 76.786C264.936 76.786 243.965 97.9541 243.965 124.066C243.965 150.179 264.936 171.347 290.805 171.347Z" fill="#F1F1F1"/>
<path fill-rule="evenodd" clip-rule="evenodd" d="M290.804 77.8034C265.507 77.8034 244.983 98.5061 244.983 124.064C244.983 149.622 265.507 170.325 290.804 170.325C316.101 170.325 336.624 149.622 336.624 124.064C336.624 98.5061 316.101 77.8034 290.804 77.8034ZM242.944 124.064C242.944 97.398 264.363 75.7645 290.804 75.7645C317.245 75.7645 338.663 97.398 338.663 124.064C338.663 150.731 317.245 172.364 290.804 172.364C264.363 172.364 242.944 150.731 242.944 124.064Z" fill="#24053E"/>
<path fill-rule="evenodd" clip-rule="evenodd" d="M269.073 82.3651C223.848 110.704 246.901 168.85 284.49 169.144C240.881 155.341 240.294 102.481 269.073 82.3651Z" fill="#C6C6C6"/>
<path fill-rule="evenodd" clip-rule="evenodd" d="M284.494 169.655C246.36 169.357 223.194 110.541 268.788 81.9481L269.372 82.7845C255.155 92.7216 248.167 110.772 250.149 128.065C252.129 145.334 263.051 161.823 284.651 168.659L284.502 168.612L284.494 169.655ZM280.888 168.423C261.159 160.852 251.05 144.874 249.136 128.182C247.541 114.263 251.644 99.8306 260.62 89.3648C229.099 117.897 248.648 164.879 280.888 168.423Z" fill="#C6C6C6"/>
<path fill-rule="evenodd" clip-rule="evenodd" d="M290.804 77.8034C265.507 77.8034 244.983 98.5061 244.983 124.064C244.983 149.622 265.507 170.325 290.804 170.325C316.101 170.325 336.624 149.622 336.624 124.064C336.624 98.5061 316.101 77.8034 290.804 77.8034ZM242.944 124.064C242.944 97.398 264.363 75.7645 290.804 75.7645C317.245 75.7645 338.663 97.398 338.663 124.064C338.663 150.731 317.245 172.364 290.804 172.364C264.363 172.364 242.944 150.731 242.944 124.064Z" fill="#24053E"/>
<path fill-rule="evenodd" clip-rule="evenodd" d="M327.417 141.715C322.322 154.536 309.918 164.19 290.26 170.989L289.559 171.232L289.629 171.001C275.659 166.743 263.297 156.875 257.232 143.88C251.143 130.836 251.45 114.745 262.653 98.2392L264.34 99.3842C253.518 115.329 253.311 130.66 259.079 143.018C264.825 155.328 276.55 164.79 289.907 168.953C309.12 162.251 320.768 152.927 325.522 140.962C330.305 128.924 328.234 113.905 319.259 95.5895L321.09 94.6923C330.175 113.232 332.508 128.901 327.417 141.715Z" fill="#22053D"/>
<path fill-rule="evenodd" clip-rule="evenodd" d="M292.672 141.788C279.893 142.353 266.883 137.302 253.905 126.919L255.179 125.327C267.897 135.502 280.436 140.288 292.582 139.751C304.723 139.215 316.646 133.352 328.119 121.878L329.561 123.32C317.834 135.046 305.456 141.224 292.672 141.788Z" fill="#22053D"/>
<path d="M290.338 149.998C296.155 149.838 300.743 145.042 300.584 139.287C300.425 133.532 295.581 128.996 289.764 129.157C283.947 129.317 279.36 134.112 279.519 139.867C279.677 145.623 284.521 150.158 290.338 149.998Z" fill="#3B1C58"/>
<path fill-rule="evenodd" clip-rule="evenodd" d="M289.788 129.934C284.393 130.082 280.153 134.528 280.299 139.845C280.446 145.163 284.924 149.368 290.319 149.219C295.715 149.071 299.955 144.625 299.809 139.308C299.662 133.99 295.183 129.785 289.788 129.934ZM278.743 139.888C278.573 133.696 283.506 128.55 289.745 128.378C295.984 128.206 301.194 133.072 301.364 139.265C301.535 145.457 296.601 150.603 290.362 150.775C284.124 150.947 278.914 146.081 278.743 139.888Z" fill="#2A0F44"/>
<path d="M336.179 35.6732H240.884C231.315 35.6732 223.558 43.4304 223.558 52.9995V74.4372C223.558 84.0063 231.315 91.7635 240.884 91.7635H336.179C345.748 91.7635 353.505 84.0063 353.505 74.4372V52.9995C353.505 43.4304 345.748 35.6732 336.179 35.6732Z" fill="#2A0F44"/>
<path fill-rule="evenodd" clip-rule="evenodd" d="M240.881 36.6904C231.875 36.6904 224.574 43.9913 224.574 52.9973V74.435C224.574 83.4411 231.875 90.7419 240.881 90.7419H336.176C345.182 90.7419 352.483 83.4411 352.483 74.435V52.9973C352.483 43.9913 345.182 36.6904 336.176 36.6904H240.881ZM222.535 52.9973C222.535 42.8652 230.749 34.6516 240.881 34.6516H336.176C346.308 34.6516 354.522 42.8652 354.522 52.9973V74.435C354.522 84.5671 346.308 92.7808 336.176 92.7808H240.881C230.749 92.7808 222.535 84.5671 222.535 74.435V52.9973Z" fill="#22053D"/>
<path d="M289.337 119.365C320.152 119.365 345.133 94.581 345.133 64.0087C345.133 33.4363 320.152 8.65247 289.337 8.65247C258.521 8.65247 233.54 33.4363 233.54 64.0087C233.54 94.581 258.521 119.365 289.337 119.365Z" fill="#F1F1F1"/>
<path fill-rule="evenodd" clip-rule="evenodd" d="M289.335 9.6744C259.074 9.6744 234.557 34.0094 234.557 64.0111C234.557 94.0129 259.074 118.348 289.335 118.348C319.595 118.348 344.112 94.0129 344.112 64.0111C344.112 34.0094 319.595 9.6744 289.335 9.6744ZM232.519 64.0111C232.519 32.8681 257.964 7.6355 289.335 7.6355C320.706 7.6355 346.151 32.8681 346.151 64.0111C346.151 95.1542 320.706 120.387 289.335 120.387C257.964 120.387 232.519 95.1542 232.519 64.0111Z" fill="#24053E"/>
<path fill-rule="evenodd" clip-rule="evenodd" d="M254.095 21.1368C216.358 56.8174 236.034 113.348 282.14 118.928C238.09 96.9029 228.986 57.111 254.095 21.1368Z" fill="#C6C6C6"/>
<path fill-rule="evenodd" clip-rule="evenodd" d="M253.743 20.7674C253.768 20.7432 253.717 20.7915 253.743 20.7674V20.7674ZM250.82 25.1893C219.107 59.8454 237.223 110.68 279.192 117.98C258.687 107.025 246.184 92.0446 241.689 75.3972C237.372 59.41 240.462 41.9638 250.82 25.1893ZM282.077 119.435C235.544 113.804 215.818 56.7282 253.743 20.7674L254.511 21.4297C242.025 39.3198 238.077 58.1079 242.673 75.1314C247.27 92.1563 260.438 107.509 282.366 118.473L282.2 118.423L282.077 119.435Z" fill="#C6C6C6"/>
<path fill-rule="evenodd" clip-rule="evenodd" d="M289.335 9.6744C259.074 9.6744 234.557 34.0094 234.557 64.0111C234.557 94.0129 259.074 118.348 289.335 118.348C319.595 118.348 344.112 94.0129 344.112 64.0111C344.112 34.0094 319.595 9.6744 289.335 9.6744ZM232.519 64.0111C232.519 32.8681 257.964 7.6355 289.335 7.6355C320.706 7.6355 346.151 32.8681 346.151 64.0111C346.151 95.1542 320.706 120.387 289.335 120.387C257.964 120.387 232.519 95.1542 232.519 64.0111Z" fill="#24053E"/>
<path fill-rule="evenodd" clip-rule="evenodd" d="M257.158 94.3435C252.22 87.5299 244.424 80.3721 234.113 72.9132L235.308 71.2612C245.701 78.7794 253.69 86.0847 258.809 93.1468C263.93 100.211 266.248 107.132 265.082 113.816L263.073 113.466C264.11 107.522 262.096 101.155 257.158 94.3435Z" fill="#22053D"/>
<path fill-rule="evenodd" clip-rule="evenodd" d="M343.777 75.1447C321.643 89.5096 313.151 101.552 313.991 114.16L311.957 114.296C311.035 100.475 320.457 87.8489 342.667 73.4344L343.777 75.1447Z" fill="#22053D"/>
<path fill-rule="evenodd" clip-rule="evenodd" d="M291.803 31.1858C280.537 31.5232 268.452 28.1817 255.326 20.2469L256.381 18.5021C269.245 26.2785 280.947 29.4711 291.742 29.1478C302.537 28.8244 312.52 24.9826 321.94 18.5333L323.092 20.2157C313.424 26.8346 303.07 30.8483 291.803 31.1858Z" fill="#22053D"/>
<path fill-rule="evenodd" clip-rule="evenodd" d="M288.484 106.856C278.568 106.235 268.743 102.062 258.392 95.4078L259.494 93.6927C269.7 100.253 279.183 104.23 288.612 104.821C298.012 105.409 307.479 102.639 317.678 95.478L318.849 97.1466C308.345 104.522 298.429 107.478 288.484 106.856Z" fill="#22053D"/>
<path d="M294.765 1.02161H284.046C279.099 1.02161 275.089 4.44006 275.089 8.65694V8.80378C275.089 13.0207 279.099 16.4391 284.046 16.4391H294.765C299.711 16.4391 303.721 13.0207 303.721 8.80378V8.65694C303.721 4.44006 299.711 1.02161 294.765 1.02161Z" fill="#2A0F44"/>
<path fill-rule="evenodd" clip-rule="evenodd" d="M284.052 2.0389C279.51 2.0389 276.115 5.14748 276.115 8.65479V8.80162C276.115 12.3089 279.51 15.4175 284.052 15.4175H294.771C299.314 15.4175 302.709 12.3089 302.709 8.80162V8.65479C302.709 5.14748 299.314 2.0389 294.771 2.0389H284.052ZM274.076 8.65479C274.076 3.72833 278.701 0 284.052 0H294.771C300.122 0 304.748 3.72833 304.748 8.65479V8.80162C304.748 13.7281 300.122 17.4564 294.771 17.4564H284.052C278.701 17.4564 274.076 13.7281 274.076 8.80162V8.65479Z" fill="#22053D"/>
<path d="M307.25 42.2779H271.422C258.366 42.2779 247.782 51.1527 247.782 62.1004V65.9181C247.782 76.8657 258.366 85.7406 271.422 85.7406H307.25C320.306 85.7406 330.89 76.8657 330.89 65.9181V62.1004C330.89 51.1527 320.306 42.2779 307.25 42.2779Z" fill="#2A0F44"/>
<path fill-rule="evenodd" clip-rule="evenodd" d="M271.421 43.2998C258.753 43.2998 248.801 51.8791 248.801 62.1029V65.9206C248.801 76.1444 258.753 84.7236 271.421 84.7236H307.249C319.917 84.7236 329.869 76.1444 329.869 65.9206V62.1029C329.869 51.8791 319.917 43.2998 307.249 43.2998H271.421ZM246.762 62.1029C246.762 50.4314 257.978 41.2609 271.421 41.2609H307.249C320.692 41.2609 331.908 50.4314 331.908 62.1029V65.9206C331.908 77.5921 320.692 86.7625 307.249 86.7625H271.421C257.978 86.7625 246.762 77.5921 246.762 65.9206V62.1029Z" fill="#22053D"/>
<path d="M267.738 68.3597C267.738 65.3217 268.534 62.6182 269.769 60.7051C271.011 58.7822 272.606 57.7697 274.216 57.7697C275.826 57.7697 277.421 58.7822 278.663 60.7051C279.898 62.6182 280.695 65.3217 280.695 68.3597C280.695 71.3977 279.898 74.1012 278.663 76.0143C277.421 77.9372 275.826 78.9497 274.216 78.9497C272.606 78.9497 271.011 77.9372 269.769 76.0143C268.534 74.1012 267.738 71.3977 267.738 68.3597ZM274.216 55.75C271.69 55.75 269.541 57.3351 268.073 59.6097C266.597 61.8949 265.718 64.9913 265.718 68.3597C265.718 71.7281 266.597 74.8245 268.073 77.1098C269.541 79.3843 271.69 80.9694 274.216 80.9694C276.742 80.9694 278.891 79.3843 280.36 77.1098C281.835 74.8245 282.715 71.7281 282.715 68.3597C282.715 64.9913 281.835 61.8949 280.36 59.6097C278.891 57.3351 276.742 55.75 274.216 55.75Z" fill="#1EFEFD" stroke="#1EFEFD"/>
<path d="M297.984 68.3597C297.984 65.3217 298.78 62.6182 300.016 60.7051C301.257 58.7822 302.852 57.7697 304.462 57.7697C306.072 57.7697 307.668 58.7822 308.909 60.7051C310.144 62.6182 310.941 65.3217 310.941 68.3597C310.941 71.3977 310.144 74.1012 308.909 76.0143C307.668 77.9372 306.072 78.9497 304.462 78.9497C302.852 78.9497 301.257 77.9372 300.016 76.0143C298.78 74.1012 297.984 71.3977 297.984 68.3597ZM304.462 55.75C301.936 55.75 299.787 57.3351 298.319 59.6097C296.843 61.8949 295.964 64.9913 295.964 68.3597C295.964 71.7281 296.843 74.8245 298.319 77.1098C299.787 79.3843 301.936 80.9694 304.462 80.9694C306.989 80.9694 309.137 79.3843 310.606 77.1098C312.081 74.8245 312.961 71.7281 312.961 68.3597C312.961 64.9913 312.081 61.8949 310.606 59.6097C309.137 57.3351 306.989 55.75 304.462 55.75Z" fill="#1EFEFD" stroke="#1EFEFD"/>
<rect x="257.796" y="68.1686" width="60.9375" height="14.0625" fill="#2A0F44"/>
<path d="M42.8384 249.216L34.7744 272H31.4144L25.6864 255.616L19.8944 272H16.5344L8.50238 249.216H12.6944L18.3904 266.208L24.3104 249.216H27.2544L33.0464 266.336L38.8704 249.216H42.8384ZM58.0231 264.128H46.8871C46.9725 265.856 47.3991 267.136 48.1671 267.968C48.9565 268.779 50.1191 269.184 51.6551 269.184C53.4258 269.184 55.0685 268.608 56.5831 267.456L57.7351 270.208C56.9671 270.827 56.0178 271.328 54.8871 271.712C53.7778 272.075 52.6471 272.256 51.4951 272.256C48.8498 272.256 46.7698 271.509 45.2551 270.016C43.7405 268.523 42.9831 266.475 42.9831 263.872C42.9831 262.229 43.3138 260.768 43.9751 259.488C44.6365 258.208 45.5645 257.216 46.7591 256.512C47.9538 255.787 49.3085 255.424 50.8231 255.424C53.0418 255.424 54.7911 256.149 56.0711 257.6C57.3725 259.029 58.0231 261.003 58.0231 263.52V264.128ZM50.9191 258.304C49.8525 258.304 48.9778 258.624 48.2951 259.264C47.6338 259.883 47.2071 260.789 47.0151 261.984H54.5351C54.4071 260.768 54.0338 259.851 53.4151 259.232C52.8178 258.613 51.9858 258.304 50.9191 258.304ZM70.6264 255.424C72.0344 255.424 73.2717 255.776 74.3384 256.48C75.4264 257.163 76.269 258.133 76.8664 259.392C77.4637 260.651 77.7624 262.112 77.7624 263.776C77.7624 265.44 77.453 266.923 76.8344 268.224C76.237 269.504 75.3944 270.496 74.3064 271.2C73.2397 271.904 72.013 272.256 70.6264 272.256C69.4317 272.256 68.365 272 67.4264 271.488C66.509 270.976 65.8157 270.261 65.3464 269.344V272H61.4104V248.448H65.3784V258.272C65.869 257.376 66.573 256.683 67.4904 256.192C68.4077 255.68 69.453 255.424 70.6264 255.424ZM69.5704 269.12C70.893 269.12 71.917 268.651 72.6424 267.712C73.3677 266.773 73.7304 265.461 73.7304 263.776C73.7304 262.112 73.3677 260.832 72.6424 259.936C71.917 259.019 70.8824 258.56 69.5384 258.56C68.1944 258.56 67.1597 259.019 66.4344 259.936C65.709 260.853 65.3464 262.155 65.3464 263.84C65.3464 265.547 65.709 266.859 66.4344 267.776C67.1597 268.672 68.205 269.12 69.5704 269.12ZM95.9554 272.256C93.0327 272.256 90.7074 271.573 88.9794 270.208L90.0994 267.392C91.8274 268.672 93.8007 269.312 96.0194 269.312C96.9794 269.312 97.7154 269.152 98.2274 268.832C98.7607 268.512 99.0274 268.064 99.0274 267.488C99.0274 266.997 98.846 266.613 98.4834 266.336C98.1207 266.037 97.502 265.781 96.6274 265.568L93.9394 264.96C90.9954 264.32 89.5234 262.816 89.5234 260.448C89.5234 259.467 89.8007 258.603 90.3554 257.856C90.91 257.088 91.6887 256.491 92.6914 256.064C93.694 255.637 94.8567 255.424 96.1794 255.424C97.3314 255.424 98.4407 255.605 99.5074 255.968C100.574 256.309 101.513 256.811 102.323 257.472L101.139 260.192C99.518 258.997 97.854 258.4 96.1474 258.4C95.23 258.4 94.5154 258.571 94.0034 258.912C93.4914 259.253 93.2354 259.723 93.2354 260.32C93.2354 260.789 93.3847 261.163 93.6834 261.44C94.0034 261.717 94.5367 261.952 95.2834 262.144L98.0354 262.752C99.6354 263.115 100.798 263.68 101.523 264.448C102.27 265.195 102.643 266.176 102.643 267.392C102.643 268.885 102.046 270.069 100.851 270.944C99.6567 271.819 98.0247 272.256 95.9554 272.256ZM120.211 264.128H109.075C109.16 265.856 109.587 267.136 110.355 267.968C111.144 268.779 112.307 269.184 113.843 269.184C115.613 269.184 117.256 268.608 118.771 267.456L119.923 270.208C119.155 270.827 118.205 271.328 117.075 271.712C115.965 272.075 114.835 272.256 113.683 272.256C111.037 272.256 108.957 271.509 107.443 270.016C105.928 268.523 105.171 266.475 105.171 263.872C105.171 262.229 105.501 260.768 106.163 259.488C106.824 258.208 107.752 257.216 108.947 256.512C110.141 255.787 111.496 255.424 113.011 255.424C115.229 255.424 116.979 256.149 118.259 257.6C119.56 259.029 120.211 261.003 120.211 263.52V264.128ZM113.107 258.304C112.04 258.304 111.165 258.624 110.483 259.264C109.821 259.883 109.395 260.789 109.203 261.984H116.723C116.595 260.768 116.221 259.851 115.603 259.232C115.005 258.613 114.173 258.304 113.107 258.304ZM139.054 248.448V272H135.118V269.408C134.627 270.304 133.923 271.008 133.006 271.52C132.089 272.011 131.043 272.256 129.87 272.256C128.483 272.256 127.246 271.904 126.158 271.2C125.07 270.496 124.217 269.504 123.598 268.224C123.001 266.923 122.702 265.44 122.702 263.776C122.702 262.112 123.001 260.651 123.598 259.392C124.195 258.133 125.038 257.163 126.126 256.48C127.214 255.776 128.462 255.424 129.87 255.424C131.022 255.424 132.046 255.669 132.942 256.16C133.859 256.629 134.563 257.301 135.054 258.176V248.448H139.054ZM130.926 269.12C132.249 269.12 133.273 268.661 133.998 267.744C134.745 266.827 135.118 265.525 135.118 263.84C135.118 262.155 134.755 260.853 134.03 259.936C133.305 259.019 132.281 258.56 130.958 258.56C129.614 258.56 128.569 259.019 127.822 259.936C127.097 260.832 126.734 262.112 126.734 263.776C126.734 265.461 127.097 266.773 127.822 267.712C128.569 268.651 129.603 269.12 130.926 269.12ZM158.866 255.84V272H154.93V269.408C154.44 270.304 153.736 271.008 152.818 271.52C151.901 272.011 150.856 272.256 149.682 272.256C148.274 272.256 147.026 271.915 145.938 271.232C144.85 270.549 144.008 269.579 143.41 268.32C142.813 267.061 142.514 265.6 142.514 263.936C142.514 262.272 142.813 260.8 143.41 259.52C144.029 258.219 144.882 257.216 145.97 256.512C147.058 255.787 148.296 255.424 149.682 255.424C150.856 255.424 151.901 255.68 152.818 256.192C153.736 256.683 154.44 257.376 154.93 258.272V255.84H158.866ZM150.77 269.12C152.093 269.12 153.117 268.661 153.842 267.744C154.568 266.827 154.93 265.536 154.93 263.872C154.93 262.165 154.568 260.853 153.842 259.936C153.117 259.019 152.082 258.56 150.738 258.56C149.416 258.56 148.381 259.04 147.634 260C146.909 260.939 146.546 262.251 146.546 263.936C146.546 265.6 146.909 266.88 147.634 267.776C148.381 268.672 149.426 269.12 150.77 269.12ZM172.471 255.424C176.332 255.424 178.263 257.643 178.263 262.08V272H174.263V262.272C174.263 260.992 174.018 260.064 173.527 259.488C173.036 258.891 172.279 258.592 171.255 258.592C170.039 258.592 169.058 258.987 168.311 259.776C167.564 260.544 167.191 261.568 167.191 262.848V272H163.223V260.416C163.223 258.709 163.138 257.184 162.967 255.84H166.711L166.999 258.496C167.554 257.515 168.3 256.757 169.239 256.224C170.199 255.691 171.276 255.424 172.471 255.424ZM198.12 255.84V271.488C198.12 274.005 197.427 275.915 196.04 277.216C194.653 278.517 192.616 279.168 189.928 279.168C187.432 279.168 185.235 278.645 183.336 277.6L183.976 274.56C185.939 275.584 187.891 276.096 189.832 276.096C192.712 276.096 194.152 274.667 194.152 271.808V268.608C193.661 269.483 192.947 270.197 192.008 270.752C191.069 271.285 190.013 271.552 188.84 271.552C187.432 271.552 186.173 271.221 185.064 270.56C183.976 269.877 183.123 268.928 182.504 267.712C181.907 266.475 181.608 265.067 181.608 263.488C181.608 261.909 181.907 260.512 182.504 259.296C183.123 258.059 183.976 257.109 185.064 256.448C186.173 255.765 187.432 255.424 188.84 255.424C190.035 255.424 191.091 255.68 192.008 256.192C192.947 256.683 193.661 257.376 194.152 258.272V255.84H198.12ZM189.896 268.416C191.219 268.416 192.253 267.979 193 267.104C193.768 266.229 194.152 265.024 194.152 263.488C194.152 261.952 193.779 260.747 193.032 259.872C192.285 258.997 191.24 258.56 189.896 258.56C188.573 258.56 187.528 258.997 186.76 259.872C186.013 260.747 185.64 261.952 185.64 263.488C185.64 265.024 186.013 266.229 186.76 267.104C187.528 267.979 188.573 268.416 189.896 268.416ZM226.679 248.448V272H222.743V269.408C222.252 270.304 221.548 271.008 220.631 271.52C219.714 272.011 218.668 272.256 217.495 272.256C216.108 272.256 214.871 271.904 213.783 271.2C212.695 270.496 211.842 269.504 211.223 268.224C210.626 266.923 210.327 265.44 210.327 263.776C210.327 262.112 210.626 260.651 211.223 259.392C211.82 258.133 212.663 257.163 213.751 256.48C214.839 255.776 216.087 255.424 217.495 255.424C218.647 255.424 219.671 255.669 220.567 256.16C221.484 256.629 222.188 257.301 222.679 258.176V248.448H226.679ZM218.551 269.12C219.874 269.12 220.898 268.661 221.623 267.744C222.37 266.827 222.743 265.525 222.743 263.84C222.743 262.155 222.38 260.853 221.655 259.936C220.93 259.019 219.906 258.56 218.583 258.56C217.239 258.56 216.194 259.019 215.447 259.936C214.722 260.832 214.359 262.112 214.359 263.776C214.359 265.461 214.722 266.773 215.447 267.712C216.194 268.651 217.228 269.12 218.551 269.12ZM246.491 255.84V272H242.555V269.408C242.065 270.304 241.361 271.008 240.443 271.52C239.526 272.011 238.481 272.256 237.307 272.256C235.899 272.256 234.651 271.915 233.563 271.232C232.475 270.549 231.633 269.579 231.035 268.32C230.438 267.061 230.139 265.6 230.139 263.936C230.139 262.272 230.438 260.8 231.035 259.52C231.654 258.219 232.507 257.216 233.595 256.512C234.683 255.787 235.921 255.424 237.307 255.424C238.481 255.424 239.526 255.68 240.443 256.192C241.361 256.683 242.065 257.376 242.555 258.272V255.84H246.491ZM238.395 269.12C239.718 269.12 240.742 268.661 241.467 267.744C242.193 266.827 242.555 265.536 242.555 263.872C242.555 262.165 242.193 260.853 241.467 259.936C240.742 259.019 239.707 258.56 238.363 258.56C237.041 258.56 236.006 259.04 235.259 260C234.534 260.939 234.171 262.251 234.171 263.936C234.171 265.6 234.534 266.88 235.259 267.776C236.006 268.672 237.051 269.12 238.395 269.12ZM250.848 248.448H254.816V272H250.848V248.448ZM274.648 255.84V272H270.712V269.408C270.221 270.304 269.517 271.008 268.6 271.52C267.682 272.011 266.637 272.256 265.464 272.256C264.056 272.256 262.808 271.915 261.72 271.232C260.632 270.549 259.789 269.579 259.192 268.32C258.594 267.061 258.296 265.6 258.296 263.936C258.296 262.272 258.594 260.8 259.192 259.52C259.81 258.219 260.664 257.216 261.752 256.512C262.84 255.787 264.077 255.424 265.464 255.424C266.637 255.424 267.682 255.68 268.6 256.192C269.517 256.683 270.221 257.376 270.712 258.272V255.84H274.648ZM266.552 269.12C267.874 269.12 268.898 268.661 269.624 267.744C270.349 266.827 270.712 265.536 270.712 263.872C270.712 262.165 270.349 260.853 269.624 259.936C268.898 259.019 267.864 258.56 266.52 258.56C265.197 258.56 264.162 259.04 263.416 260C262.69 260.939 262.328 262.251 262.328 263.936C262.328 265.6 262.69 266.88 263.416 267.776C264.162 268.672 265.208 269.12 266.552 269.12ZM298.076 255.424C299.911 255.424 301.276 255.979 302.172 257.088C303.068 258.176 303.516 259.84 303.516 262.08V272H299.516V262.208C299.516 260.928 299.303 260.011 298.876 259.456C298.471 258.88 297.788 258.592 296.828 258.592C295.719 258.592 294.844 258.987 294.204 259.776C293.585 260.544 293.276 261.611 293.276 262.976V272H289.276V262.208C289.276 260.949 289.052 260.032 288.604 259.456C288.177 258.88 287.495 258.592 286.556 258.592C285.447 258.592 284.572 258.987 283.932 259.776C283.292 260.544 282.972 261.611 282.972 262.976V272H279.004V260.416C279.004 258.709 278.919 257.184 278.748 255.84H282.492L282.78 258.4C283.249 257.44 283.921 256.704 284.796 256.192C285.692 255.68 286.716 255.424 287.868 255.424C290.343 255.424 291.953 256.448 292.7 258.496C293.212 257.536 293.937 256.789 294.876 256.256C295.836 255.701 296.903 255.424 298.076 255.424ZM325.783 255.424C327.169 255.424 328.396 255.787 329.463 256.512C330.551 257.216 331.393 258.219 331.991 259.52C332.609 260.8 332.919 262.272 332.919 263.936C332.919 265.6 332.62 267.061 332.023 268.32C331.425 269.579 330.583 270.549 329.495 271.232C328.428 271.915 327.191 272.256 325.783 272.256C324.609 272.256 323.564 272.011 322.647 271.52C321.729 271.008 321.025 270.304 320.535 269.408V278.912H316.567V260.416C316.567 258.709 316.481 257.184 316.311 255.84H320.055L320.375 258.624C320.801 257.621 321.495 256.843 322.455 256.288C323.415 255.712 324.524 255.424 325.783 255.424ZM324.695 269.12C326.039 269.12 327.073 268.672 327.799 267.776C328.524 266.88 328.887 265.6 328.887 263.936C328.887 262.251 328.524 260.939 327.799 260C327.073 259.04 326.049 258.56 324.727 258.56C323.361 258.56 322.316 259.019 321.591 259.936C320.865 260.853 320.503 262.165 320.503 263.872C320.503 265.557 320.865 266.859 321.591 267.776C322.316 268.672 323.351 269.12 324.695 269.12ZM350.554 264.128H339.418C339.504 265.856 339.93 267.136 340.698 267.968C341.488 268.779 342.65 269.184 344.186 269.184C345.957 269.184 347.6 268.608 349.114 267.456L350.266 270.208C349.498 270.827 348.549 271.328 347.418 271.712C346.309 272.075 345.178 272.256 344.026 272.256C341.381 272.256 339.301 271.509 337.786 270.016C336.272 268.523 335.514 266.475 335.514 263.872C335.514 262.229 335.845 260.768 336.506 259.488C337.168 258.208 338.096 257.216 339.29 256.512C340.485 255.787 341.84 255.424 343.354 255.424C345.573 255.424 347.322 256.149 348.602 257.6C349.904 259.029 350.554 261.003 350.554 263.52V264.128ZM343.45 258.304C342.384 258.304 341.509 258.624 340.826 259.264C340.165 259.883 339.738 260.789 339.546 261.984H347.066C346.938 260.768 346.565 259.851 345.946 259.232C345.349 258.613 344.517 258.304 343.45 258.304ZM363.19 255.424C367.051 255.424 368.982 257.643 368.982 262.08V272H364.982V262.272C364.982 260.992 364.736 260.064 364.246 259.488C363.755 258.891 362.998 258.592 361.974 258.592C360.758 258.592 359.776 258.987 359.03 259.776C358.283 260.544 357.91 261.568 357.91 262.848V272H353.942V260.416C353.942 258.709 353.856 257.184 353.686 255.84H357.43L357.718 258.496C358.272 257.515 359.019 256.757 359.958 256.224C360.918 255.691 361.995 255.424 363.19 255.424ZM388.839 255.84V271.488C388.839 274.005 388.146 275.915 386.759 277.216C385.372 278.517 383.335 279.168 380.647 279.168C378.151 279.168 375.954 278.645 374.055 277.6L374.695 274.56C376.658 275.584 378.61 276.096 380.551 276.096C383.431 276.096 384.871 274.667 384.871 271.808V268.608C384.38 269.483 383.666 270.197 382.727 270.752C381.788 271.285 380.732 271.552 379.559 271.552C378.151 271.552 376.892 271.221 375.783 270.56C374.695 269.877 373.842 268.928 373.223 267.712C372.626 266.475 372.327 265.067 372.327 263.488C372.327 261.909 372.626 260.512 373.223 259.296C373.842 258.059 374.695 257.109 375.783 256.448C376.892 255.765 378.151 255.424 379.559 255.424C380.754 255.424 381.81 255.68 382.727 256.192C383.666 256.683 384.38 257.376 384.871 258.272V255.84H388.839ZM380.615 268.416C381.938 268.416 382.972 267.979 383.719 267.104C384.487 266.229 384.871 265.024 384.871 263.488C384.871 261.952 384.498 260.747 383.751 259.872C383.004 258.997 381.959 258.56 380.615 258.56C379.292 258.56 378.247 258.997 377.479 259.872C376.732 260.747 376.359 261.952 376.359 263.488C376.359 265.024 376.732 266.229 377.479 267.104C378.247 267.979 379.292 268.416 380.615 268.416ZM407.304 264.128H396.168C396.254 265.856 396.68 267.136 397.448 267.968C398.238 268.779 399.4 269.184 400.936 269.184C402.707 269.184 404.35 268.608 405.864 267.456L407.016 270.208C406.248 270.827 405.299 271.328 404.168 271.712C403.059 272.075 401.928 272.256 400.776 272.256C398.131 272.256 396.051 271.509 394.536 270.016C393.022 268.523 392.264 266.475 392.264 263.872C392.264 262.229 392.595 260.768 393.256 259.488C393.918 258.208 394.846 257.216 396.04 256.512C397.235 255.787 398.59 255.424 400.104 255.424C402.323 255.424 404.072 256.149 405.352 257.6C406.654 259.029 407.304 261.003 407.304 263.52V264.128ZM400.2 258.304C399.134 258.304 398.259 258.624 397.576 259.264C396.915 259.883 396.488 260.789 396.296 261.984H403.816C403.688 260.768 403.315 259.851 402.696 259.232C402.099 258.613 401.267 258.304 400.2 258.304ZM429.764 255.424C431.598 255.424 432.964 255.979 433.86 257.088C434.756 258.176 435.204 259.84 435.204 262.08V272H431.204V262.208C431.204 260.928 430.99 260.011 430.564 259.456C430.158 258.88 429.476 258.592 428.516 258.592C427.406 258.592 426.532 258.987 425.892 259.776C425.273 260.544 424.964 261.611 424.964 262.976V272H420.964V262.208C420.964 260.949 420.74 260.032 420.292 259.456C419.865 258.88 419.182 258.592 418.244 258.592C417.134 258.592 416.26 258.987 415.62 259.776C414.98 260.544 414.66 261.611 414.66 262.976V272H410.692V260.416C410.692 258.709 410.606 257.184 410.436 255.84H414.18L414.468 258.4C414.937 257.44 415.609 256.704 416.484 256.192C417.38 255.68 418.404 255.424 419.556 255.424C422.03 255.424 423.641 256.448 424.388 258.496C424.9 257.536 425.625 256.789 426.564 256.256C427.524 255.701 428.59 255.424 429.764 255.424ZM448.689 255.424C450.097 255.424 451.334 255.776 452.401 256.48C453.489 257.163 454.332 258.133 454.929 259.392C455.526 260.651 455.825 262.112 455.825 263.776C455.825 265.44 455.516 266.923 454.897 268.224C454.3 269.504 453.457 270.496 452.369 271.2C451.302 271.904 450.076 272.256 448.689 272.256C447.494 272.256 446.428 272 445.489 271.488C444.572 270.976 443.878 270.261 443.409 269.344V272H439.473V248.448H443.441V258.272C443.932 257.376 444.636 256.683 445.553 256.192C446.47 255.68 447.516 255.424 448.689 255.424ZM447.633 269.12C448.956 269.12 449.98 268.651 450.705 267.712C451.43 266.773 451.793 265.461 451.793 263.776C451.793 262.112 451.43 260.832 450.705 259.936C449.98 259.019 448.945 258.56 447.601 258.56C446.257 258.56 445.222 259.019 444.497 259.936C443.772 260.853 443.409 262.155 443.409 263.84C443.409 265.547 443.772 266.859 444.497 267.776C445.222 268.672 446.268 269.12 447.633 269.12ZM474.773 255.84V272H470.837V269.408C470.346 270.304 469.642 271.008 468.725 271.52C467.807 272.011 466.762 272.256 465.589 272.256C464.181 272.256 462.933 271.915 461.845 271.232C460.757 270.549 459.914 269.579 459.317 268.32C458.719 267.061 458.421 265.6 458.421 263.936C458.421 262.272 458.719 260.8 459.317 259.52C459.935 258.219 460.789 257.216 461.877 256.512C462.965 255.787 464.202 255.424 465.589 255.424C466.762 255.424 467.807 255.68 468.725 256.192C469.642 256.683 470.346 257.376 470.837 258.272V255.84H474.773ZM466.677 269.12C467.999 269.12 469.023 268.661 469.749 267.744C470.474 266.827 470.837 265.536 470.837 263.872C470.837 262.165 470.474 260.853 469.749 259.936C469.023 259.019 467.989 258.56 466.645 258.56C465.322 258.56 464.287 259.04 463.541 260C462.815 260.939 462.453 262.251 462.453 263.936C462.453 265.6 462.815 266.88 463.541 267.776C464.287 268.672 465.333 269.12 466.677 269.12ZM488.377 255.424C492.238 255.424 494.169 257.643 494.169 262.08V272H490.169V262.272C490.169 260.992 489.924 260.064 489.433 259.488C488.942 258.891 488.185 258.592 487.161 258.592C485.945 258.592 484.964 258.987 484.217 259.776C483.47 260.544 483.097 261.568 483.097 262.848V272H479.129V260.416C479.129 258.709 479.044 257.184 478.873 255.84H482.617L482.905 258.496C483.46 257.515 484.206 256.757 485.145 256.224C486.105 255.691 487.182 255.424 488.377 255.424ZM514.026 255.84V271.488C514.026 274.005 513.333 275.915 511.946 277.216C510.56 278.517 508.522 279.168 505.834 279.168C503.338 279.168 501.141 278.645 499.242 277.6L499.882 274.56C501.845 275.584 503.797 276.096 505.738 276.096C508.618 276.096 510.058 274.667 510.058 271.808V268.608C509.568 269.483 508.853 270.197 507.914 270.752C506.976 271.285 505.92 271.552 504.746 271.552C503.338 271.552 502.08 271.221 500.97 270.56C499.882 269.877 499.029 268.928 498.41 267.712C497.813 266.475 497.514 265.067 497.514 263.488C497.514 261.909 497.813 260.512 498.41 259.296C499.029 258.059 499.882 257.109 500.97 256.448C502.08 255.765 503.338 255.424 504.746 255.424C505.941 255.424 506.997 255.68 507.914 256.192C508.853 256.683 509.568 257.376 510.058 258.272V255.84H514.026ZM505.802 268.416C507.125 268.416 508.16 267.979 508.906 267.104C509.674 266.229 510.058 265.024 510.058 263.488C510.058 261.952 509.685 260.747 508.938 259.872C508.192 258.997 507.146 258.56 505.802 258.56C504.48 258.56 503.434 258.997 502.666 259.872C501.92 260.747 501.546 261.952 501.546 263.488C501.546 265.024 501.92 266.229 502.666 267.104C503.434 267.979 504.48 268.416 505.802 268.416ZM533.804 255.84V272H529.868V269.408C529.377 270.304 528.673 271.008 527.756 271.52C526.839 272.011 525.793 272.256 524.62 272.256C523.212 272.256 521.964 271.915 520.876 271.232C519.788 270.549 518.945 269.579 518.348 268.32C517.751 267.061 517.452 265.6 517.452 263.936C517.452 262.272 517.751 260.8 518.348 259.52C518.967 258.219 519.82 257.216 520.908 256.512C521.996 255.787 523.233 255.424 524.62 255.424C525.793 255.424 526.839 255.68 527.756 256.192C528.673 256.683 529.377 257.376 529.868 258.272V255.84H533.804ZM525.708 269.12C527.031 269.12 528.055 268.661 528.78 267.744C529.505 266.827 529.868 265.536 529.868 263.872C529.868 262.165 529.505 260.853 528.78 259.936C528.055 259.019 527.02 258.56 525.676 258.56C524.353 258.56 523.319 259.04 522.572 260C521.847 260.939 521.484 262.251 521.484 263.936C521.484 265.6 521.847 266.88 522.572 267.776C523.319 268.672 524.364 269.12 525.708 269.12ZM547.408 255.424C551.27 255.424 553.2 257.643 553.2 262.08V272H549.2V262.272C549.2 260.992 548.955 260.064 548.464 259.488C547.974 258.891 547.216 258.592 546.192 258.592C544.976 258.592 543.995 258.987 543.248 259.776C542.502 260.544 542.128 261.568 542.128 262.848V272H538.16V260.416C538.16 258.709 538.075 257.184 537.904 255.84H541.648L541.936 258.496C542.491 257.515 543.238 256.757 544.176 256.224C545.136 255.691 546.214 255.424 547.408 255.424Z" fill="#421A61"/>
<path d="M5.03181 314.128C3.25048 314.128 1.83181 313.648 0.775813 312.688L1.27181 311.68C1.83715 312.16 2.41315 312.501 2.99981 312.704C3.58648 312.907 4.26915 313.008 5.04781 313.008C5.96515 313.008 6.66915 312.832 7.15981 312.48C7.66115 312.117 7.91181 311.611 7.91181 310.96C7.91181 310.576 7.78915 310.267 7.54381 310.032C7.30915 309.787 6.99448 309.595 6.59981 309.456C6.21581 309.317 5.69848 309.173 5.04781 309.024C4.17315 308.832 3.45315 308.624 2.88781 308.4C2.32248 308.176 1.86381 307.856 1.51181 307.44C1.15981 307.013 0.983813 306.459 0.983813 305.776C0.983813 305.125 1.15448 304.555 1.49581 304.064C1.83715 303.563 2.31715 303.173 2.93581 302.896C3.56515 302.619 4.29581 302.48 5.12781 302.48C5.91715 302.48 6.65315 302.603 7.33581 302.848C8.01848 303.093 8.59448 303.451 9.06381 303.92L8.55181 304.928C8.01848 304.469 7.47448 304.133 6.91981 303.92C6.37581 303.707 5.77848 303.6 5.12781 303.6C4.24248 303.6 3.54915 303.792 3.04781 304.176C2.54648 304.549 2.29581 305.067 2.29581 305.728C2.29581 306.304 2.51448 306.736 2.95181 307.024C3.38915 307.312 4.06115 307.563 4.96781 307.776C5.94915 308.011 6.71715 308.229 7.27181 308.432C7.83715 308.624 8.30648 308.923 8.67981 309.328C9.05315 309.723 9.23981 310.251 9.23981 310.912C9.23981 311.552 9.06915 312.117 8.72781 312.608C8.38648 313.088 7.89581 313.461 7.25581 313.728C6.62648 313.995 5.88515 314.128 5.03181 314.128ZM18.3126 305.952V314H17.0326V312.544C16.7979 313.045 16.4406 313.435 15.9606 313.712C15.4912 313.979 14.9419 314.112 14.3126 314.112C13.5979 314.112 12.9686 313.941 12.4246 313.6C11.8912 313.259 11.4752 312.779 11.1766 312.16C10.8886 311.531 10.7446 310.8 10.7446 309.968C10.7446 309.136 10.8939 308.405 11.1926 307.776C11.4912 307.136 11.9072 306.64 12.4406 306.288C12.9846 305.936 13.6086 305.76 14.3126 305.76C14.9419 305.76 15.4912 305.899 15.9606 306.176C16.4299 306.453 16.7872 306.843 17.0326 307.344V305.952H18.3126ZM14.5686 313.04C15.3579 313.04 15.9659 312.773 16.3926 312.24C16.8192 311.696 17.0326 310.928 17.0326 309.936C17.0326 308.944 16.8192 308.181 16.3926 307.648C15.9659 307.115 15.3579 306.848 14.5686 306.848C13.7792 306.848 13.1606 307.125 12.7126 307.68C12.2752 308.224 12.0566 308.987 12.0566 309.968C12.0566 310.949 12.2752 311.707 12.7126 312.24C13.1499 312.773 13.7686 313.04 14.5686 313.04ZM27.9063 305.952V314H26.6263V312.544C26.3916 313.045 26.0343 313.435 25.5543 313.712C25.085 313.979 24.5356 314.112 23.9063 314.112C23.1916 314.112 22.5623 313.941 22.0183 313.6C21.485 313.259 21.069 312.779 20.7703 312.16C20.4823 311.531 20.3383 310.8 20.3383 309.968C20.3383 309.136 20.4876 308.405 20.7863 307.776C21.085 307.136 21.501 306.64 22.0343 306.288C22.5783 305.936 23.2023 305.76 23.9063 305.76C24.5356 305.76 25.085 305.899 25.5543 306.176C26.0236 306.453 26.381 306.843 26.6263 307.344V305.952H27.9063ZM24.1623 313.04C24.9516 313.04 25.5596 312.773 25.9863 312.24C26.413 311.696 26.6263 310.928 26.6263 309.936C26.6263 308.944 26.413 308.181 25.9863 307.648C25.5596 307.115 24.9516 306.848 24.1623 306.848C23.373 306.848 22.7543 307.125 22.3063 307.68C21.869 308.224 21.6503 308.987 21.6503 309.968C21.6503 310.949 21.869 311.707 22.3063 312.24C22.7436 312.773 23.3623 313.04 24.1623 313.04ZM32.1401 306.976V311.376C32.1401 311.973 32.2627 312.395 32.5081 312.64C32.7534 312.875 33.1001 312.992 33.5481 312.992C33.8467 312.992 34.1347 312.944 34.4121 312.848V313.952C34.0814 314.059 33.7081 314.112 33.2921 314.112C32.5241 314.112 31.9214 313.899 31.4841 313.472C31.0574 313.035 30.8441 312.395 30.8441 311.552V306.976H29.2761V305.952H30.8441V303.888L32.1401 303.424V305.952H34.4441V306.976H32.1401ZM40.1777 305.952H41.4737V314H40.1777V305.952ZM41.6337 302.544V304.016H40.0497V302.544H41.6337ZM48.0062 305.76C49.9369 305.76 50.9022 306.821 50.9022 308.944V314H49.6062V309.008C49.6062 308.261 49.4569 307.717 49.1582 307.376C48.8595 307.024 48.3902 306.848 47.7502 306.848C47.0035 306.848 46.4062 307.077 45.9582 307.536C45.5102 307.995 45.2862 308.613 45.2862 309.392V314H43.9902V308.208C43.9902 307.376 43.9475 306.624 43.8622 305.952H45.0942L45.2222 307.392C45.4675 306.869 45.8355 306.469 46.3262 306.192C46.8169 305.904 47.3769 305.76 48.0062 305.76ZM53.3496 305.952H54.6456V314H53.3496V305.952ZM54.8056 302.544V304.016H53.2216V302.544H54.8056ZM66.7579 314L62.6299 310.128V314H61.3339V302.224H62.6299V309.648L66.4219 305.968H68.0699L64.0379 309.824L68.4539 314H66.7579ZM76.5157 305.952V314H75.2357V312.544C75.001 313.045 74.6437 313.435 74.1637 313.712C73.6944 313.979 73.145 314.112 72.5157 314.112C71.801 314.112 71.1717 313.941 70.6277 313.6C70.0944 313.259 69.6784 312.779 69.3797 312.16C69.0917 311.531 68.9477 310.8 68.9477 309.968C68.9477 309.136 69.097 308.405 69.3957 307.776C69.6944 307.136 70.1104 306.64 70.6437 306.288C71.1877 305.936 71.8117 305.76 72.5157 305.76C73.145 305.76 73.6944 305.899 74.1637 306.176C74.633 306.453 74.9904 306.843 75.2357 307.344V305.952H76.5157ZM72.7717 313.04C73.561 313.04 74.169 312.773 74.5957 312.24C75.0224 311.696 75.2357 310.928 75.2357 309.936C75.2357 308.944 75.0224 308.181 74.5957 307.648C74.169 307.115 73.561 306.848 72.7717 306.848C71.9824 306.848 71.3637 307.125 70.9157 307.68C70.4784 308.224 70.2597 308.987 70.2597 309.968C70.2597 310.949 70.4784 311.707 70.9157 312.24C71.353 312.773 71.9717 313.04 72.7717 313.04ZM87.9494 305.76C89.7308 305.76 90.6214 306.821 90.6214 308.944V314H89.3254V309.008C89.3254 308.251 89.1921 307.701 88.9254 307.36C88.6694 307.019 88.2481 306.848 87.6614 306.848C86.9788 306.848 86.4454 307.077 86.0614 307.536C85.6774 307.995 85.4854 308.619 85.4854 309.408V314H84.1894V309.008C84.1894 308.261 84.0561 307.717 83.7894 307.376C83.5228 307.024 83.0961 306.848 82.5094 306.848C81.8268 306.848 81.2881 307.077 80.8934 307.536C80.5094 307.995 80.3174 308.619 80.3174 309.408V314H79.0214V308.208C79.0214 307.376 78.9788 306.624 78.8934 305.952H80.1254L80.2534 307.36C80.4774 306.848 80.8081 306.453 81.2454 306.176C81.6934 305.899 82.2108 305.76 82.7974 305.76C83.4374 305.76 83.9601 305.888 84.3654 306.144C84.7708 306.4 85.0694 306.795 85.2614 307.328C85.5068 306.848 85.8641 306.469 86.3334 306.192C86.8134 305.904 87.3521 305.76 87.9494 305.76ZM93.0839 305.952H94.3799V314H93.0839V305.952ZM94.5399 302.544V304.016H92.9559V302.544H94.5399ZM103.788 314.112C102.434 314.112 101.362 313.765 100.572 313.072L101.004 312.112C101.442 312.453 101.884 312.699 102.332 312.848C102.78 312.997 103.282 313.072 103.836 313.072C104.444 313.072 104.903 312.971 105.212 312.768C105.532 312.555 105.692 312.251 105.692 311.856C105.692 311.536 105.586 311.28 105.372 311.088C105.159 310.896 104.807 310.747 104.316 310.64L102.956 310.32C102.284 310.171 101.762 309.904 101.388 309.52C101.026 309.136 100.844 308.677 100.844 308.144C100.844 307.44 101.127 306.869 101.692 306.432C102.258 305.984 103.004 305.76 103.932 305.76C104.498 305.76 105.031 305.851 105.532 306.032C106.034 306.213 106.455 306.475 106.796 306.816L106.364 307.76C105.607 307.131 104.796 306.816 103.932 306.816C103.356 306.816 102.908 306.928 102.588 307.152C102.279 307.365 102.124 307.669 102.124 308.064C102.124 308.395 102.22 308.656 102.412 308.848C102.615 309.04 102.935 309.189 103.372 309.296L104.732 309.632C105.479 309.803 106.034 310.069 106.396 310.432C106.759 310.784 106.94 311.248 106.94 311.824C106.94 312.517 106.658 313.072 106.092 313.488C105.527 313.904 104.759 314.112 103.788 314.112ZM115.742 309.936H109.838C109.848 310.96 110.083 311.733 110.542 312.256C111.011 312.779 111.688 313.04 112.574 313.04C113.512 313.04 114.376 312.725 115.166 312.096L115.598 313.04C115.246 313.371 114.792 313.632 114.238 313.824C113.694 314.016 113.134 314.112 112.558 314.112C111.299 314.112 110.312 313.744 109.598 313.008C108.883 312.261 108.526 311.243 108.526 309.952C108.526 309.131 108.686 308.405 109.006 307.776C109.326 307.136 109.774 306.64 110.35 306.288C110.926 305.936 111.582 305.76 112.318 305.76C113.384 305.76 114.222 306.112 114.83 306.816C115.438 307.509 115.742 308.469 115.742 309.696V309.936ZM112.334 306.768C111.662 306.768 111.112 306.971 110.686 307.376C110.27 307.781 110.003 308.352 109.886 309.088H114.574C114.51 308.331 114.286 307.755 113.902 307.36C113.528 306.965 113.006 306.768 112.334 306.768ZM124.797 302.224V314H123.517V312.544C123.282 313.045 122.925 313.435 122.445 313.712C121.976 313.979 121.426 314.112 120.797 314.112C120.093 314.112 119.469 313.936 118.925 313.584C118.392 313.232 117.976 312.741 117.677 312.112C117.378 311.472 117.229 310.736 117.229 309.904C117.229 309.072 117.373 308.347 117.661 307.728C117.96 307.099 118.381 306.613 118.925 306.272C119.469 305.931 120.093 305.76 120.797 305.76C121.426 305.76 121.976 305.899 122.445 306.176C122.914 306.443 123.266 306.821 123.501 307.312V302.224H124.797ZM121.053 313.04C121.842 313.04 122.45 312.773 122.877 312.24C123.304 311.696 123.517 310.928 123.517 309.936C123.517 308.955 123.304 308.197 122.877 307.664C122.45 307.12 121.842 306.848 121.053 306.848C120.264 306.848 119.645 307.115 119.197 307.648C118.76 308.181 118.541 308.933 118.541 309.904C118.541 310.896 118.76 311.669 119.197 312.224C119.645 312.768 120.264 313.04 121.053 313.04ZM134.391 305.952V314H133.111V312.544C132.876 313.045 132.519 313.435 132.039 313.712C131.569 313.979 131.02 314.112 130.391 314.112C129.676 314.112 129.047 313.941 128.503 313.6C127.969 313.259 127.553 312.779 127.255 312.16C126.967 311.531 126.823 310.8 126.823 309.968C126.823 309.136 126.972 308.405 127.271 307.776C127.569 307.136 127.985 306.64 128.519 306.288C129.063 305.936 129.687 305.76 130.391 305.76C131.02 305.76 131.569 305.899 132.039 306.176C132.508 306.453 132.865 306.843 133.111 307.344V305.952H134.391ZM130.647 313.04C131.436 313.04 132.044 312.773 132.471 312.24C132.897 311.696 133.111 310.928 133.111 309.936C133.111 308.944 132.897 308.181 132.471 307.648C132.044 307.115 131.436 306.848 130.647 306.848C129.857 306.848 129.239 307.125 128.791 307.68C128.353 308.224 128.135 308.987 128.135 309.968C128.135 310.949 128.353 311.707 128.791 312.24C129.228 312.773 129.847 313.04 130.647 313.04ZM140.912 305.76C142.843 305.76 143.808 306.821 143.808 308.944V314H142.512V309.008C142.512 308.261 142.363 307.717 142.064 307.376C141.766 307.024 141.296 306.848 140.656 306.848C139.91 306.848 139.312 307.077 138.864 307.536C138.416 307.995 138.192 308.613 138.192 309.392V314H136.896V308.208C136.896 307.376 136.854 306.624 136.768 305.952H138L138.128 307.392C138.374 306.869 138.742 306.469 139.232 306.192C139.723 305.904 140.283 305.76 140.912 305.76ZM153.424 305.952V313.936C153.424 315.131 153.114 316.032 152.496 316.64C151.888 317.259 150.986 317.568 149.792 317.568C148.565 317.568 147.509 317.291 146.624 316.736L146.848 315.68C147.36 315.968 147.84 316.176 148.288 316.304C148.746 316.432 149.248 316.496 149.792 316.496C150.57 316.496 151.157 316.288 151.552 315.872C151.946 315.467 152.144 314.859 152.144 314.048V312.144C151.898 312.656 151.536 313.056 151.056 313.344C150.586 313.621 150.026 313.76 149.376 313.76C148.672 313.76 148.042 313.595 147.488 313.264C146.944 312.933 146.522 312.464 146.224 311.856C145.925 311.248 145.776 310.549 145.776 309.76C145.776 308.971 145.925 308.272 146.224 307.664C146.522 307.056 146.944 306.587 147.488 306.256C148.042 305.925 148.672 305.76 149.376 305.76C150.016 305.76 150.57 305.899 151.04 306.176C151.52 306.453 151.882 306.843 152.128 307.344V305.952H153.424ZM149.632 312.672C150.41 312.672 151.018 312.416 151.456 311.904C151.904 311.381 152.128 310.667 152.128 309.76C152.128 308.853 151.904 308.144 151.456 307.632C151.018 307.109 150.41 306.848 149.632 306.848C148.842 306.848 148.218 307.109 147.76 307.632C147.312 308.144 147.088 308.853 147.088 309.76C147.088 310.667 147.312 311.381 147.76 311.904C148.218 312.416 148.842 312.672 149.632 312.672ZM169.012 305.76C170.793 305.76 171.684 306.821 171.684 308.944V314H170.388V309.008C170.388 308.251 170.255 307.701 169.988 307.36C169.732 307.019 169.311 306.848 168.724 306.848C168.041 306.848 167.508 307.077 167.124 307.536C166.74 307.995 166.548 308.619 166.548 309.408V314H165.252V309.008C165.252 308.261 165.119 307.717 164.852 307.376C164.585 307.024 164.159 306.848 163.572 306.848C162.889 306.848 162.351 307.077 161.956 307.536C161.572 307.995 161.38 308.619 161.38 309.408V314H160.084V308.208C160.084 307.376 160.041 306.624 159.956 305.952H161.188L161.316 307.36C161.54 306.848 161.871 306.453 162.308 306.176C162.756 305.899 163.273 305.76 163.86 305.76C164.5 305.76 165.023 305.888 165.428 306.144C165.833 306.4 166.132 306.795 166.324 307.328C166.569 306.848 166.927 306.469 167.396 306.192C167.876 305.904 168.415 305.76 169.012 305.76ZM180.882 309.936H174.978C174.989 310.96 175.224 311.733 175.682 312.256C176.152 312.779 176.829 313.04 177.714 313.04C178.653 313.04 179.517 312.725 180.306 312.096L180.738 313.04C180.386 313.371 179.933 313.632 179.378 313.824C178.834 314.016 178.274 314.112 177.698 314.112C176.44 314.112 175.453 313.744 174.738 313.008C174.024 312.261 173.666 311.243 173.666 309.952C173.666 309.131 173.826 308.405 174.146 307.776C174.466 307.136 174.914 306.64 175.49 306.288C176.066 305.936 176.722 305.76 177.458 305.76C178.525 305.76 179.362 306.112 179.97 306.816C180.578 307.509 180.882 308.469 180.882 309.696V309.936ZM177.474 306.768C176.802 306.768 176.253 306.971 175.826 307.376C175.41 307.781 175.144 308.352 175.026 309.088H179.714C179.65 308.331 179.426 307.755 179.042 307.36C178.669 306.965 178.146 306.768 177.474 306.768ZM186.866 305.76C188.796 305.76 189.762 306.821 189.762 308.944V314H188.466V309.008C188.466 308.261 188.316 307.717 188.018 307.376C187.719 307.024 187.25 306.848 186.61 306.848C185.863 306.848 185.266 307.077 184.818 307.536C184.37 307.995 184.146 308.613 184.146 309.392V314H182.85V308.208C182.85 307.376 182.807 306.624 182.722 305.952H183.954L184.082 307.392C184.327 306.869 184.695 306.469 185.186 306.192C185.676 305.904 186.236 305.76 186.866 305.76ZM199.377 305.952V313.936C199.377 315.131 199.068 316.032 198.449 316.64C197.841 317.259 196.94 317.568 195.745 317.568C194.518 317.568 193.462 317.291 192.577 316.736L192.801 315.68C193.313 315.968 193.793 316.176 194.241 316.304C194.7 316.432 195.201 316.496 195.745 316.496C196.524 316.496 197.11 316.288 197.505 315.872C197.9 315.467 198.097 314.859 198.097 314.048V312.144C197.852 312.656 197.489 313.056 197.009 313.344C196.54 313.621 195.98 313.76 195.329 313.76C194.625 313.76 193.996 313.595 193.441 313.264C192.897 312.933 192.476 312.464 192.177 311.856C191.878 311.248 191.729 310.549 191.729 309.76C191.729 308.971 191.878 308.272 192.177 307.664C192.476 307.056 192.897 306.587 193.441 306.256C193.996 305.925 194.625 305.76 195.329 305.76C195.969 305.76 196.524 305.899 196.993 306.176C197.473 306.453 197.836 306.843 198.081 307.344V305.952H199.377ZM195.585 312.672C196.364 312.672 196.972 312.416 197.409 311.904C197.857 311.381 198.081 310.667 198.081 309.76C198.081 308.853 197.857 308.144 197.409 307.632C196.972 307.109 196.364 306.848 195.585 306.848C194.796 306.848 194.172 307.109 193.713 307.632C193.265 308.144 193.041 308.853 193.041 309.76C193.041 310.667 193.265 311.381 193.713 311.904C194.172 312.416 194.796 312.672 195.585 312.672ZM208.601 309.936H202.697C202.708 310.96 202.943 311.733 203.401 312.256C203.871 312.779 204.548 313.04 205.433 313.04C206.372 313.04 207.236 312.725 208.025 312.096L208.457 313.04C208.105 313.371 207.652 313.632 207.097 313.824C206.553 314.016 205.993 314.112 205.417 314.112C204.159 314.112 203.172 313.744 202.457 313.008C201.743 312.261 201.385 311.243 201.385 309.952C201.385 309.131 201.545 308.405 201.865 307.776C202.185 307.136 202.633 306.64 203.209 306.288C203.785 305.936 204.441 305.76 205.177 305.76C206.244 305.76 207.081 306.112 207.689 306.816C208.297 307.509 208.601 308.469 208.601 309.696V309.936ZM205.193 306.768C204.521 306.768 203.972 306.971 203.545 307.376C203.129 307.781 202.863 308.352 202.745 309.088H207.433C207.369 308.331 207.145 307.755 206.761 307.36C206.388 306.965 205.865 306.768 205.193 306.768ZM219.496 305.76C221.278 305.76 222.168 306.821 222.168 308.944V314H220.872V309.008C220.872 308.251 220.739 307.701 220.472 307.36C220.216 307.019 219.795 306.848 219.208 306.848C218.526 306.848 217.992 307.077 217.608 307.536C217.224 307.995 217.032 308.619 217.032 309.408V314H215.736V309.008C215.736 308.261 215.603 307.717 215.336 307.376C215.07 307.024 214.643 306.848 214.056 306.848C213.374 306.848 212.835 307.077 212.44 307.536C212.056 307.995 211.864 308.619 211.864 309.408V314H210.568V308.208C210.568 307.376 210.526 306.624 210.44 305.952H211.672L211.8 307.36C212.024 306.848 212.355 306.453 212.792 306.176C213.24 305.899 213.758 305.76 214.344 305.76C214.984 305.76 215.507 305.888 215.912 306.144C216.318 306.4 216.616 306.795 216.808 307.328C217.054 306.848 217.411 306.469 217.88 306.192C218.36 305.904 218.899 305.76 219.496 305.76ZM228.647 305.76C229.351 305.76 229.975 305.931 230.519 306.272C231.063 306.613 231.484 307.099 231.783 307.728C232.081 308.347 232.231 309.072 232.231 309.904C232.231 310.736 232.081 311.472 231.783 312.112C231.484 312.741 231.063 313.232 230.519 313.584C229.975 313.936 229.351 314.112 228.647 314.112C228.017 314.112 227.468 313.973 226.999 313.696C226.529 313.419 226.172 313.024 225.927 312.512V314H224.631V302.224H225.927V307.376C226.161 306.853 226.513 306.453 226.983 306.176C227.463 305.899 228.017 305.76 228.647 305.76ZM228.407 313.04C229.185 313.04 229.793 312.768 230.231 312.224C230.668 311.669 230.887 310.896 230.887 309.904C230.887 308.933 230.668 308.181 230.231 307.648C229.804 307.115 229.196 306.848 228.407 306.848C227.607 306.848 226.993 307.115 226.567 307.648C226.14 308.181 225.927 308.944 225.927 309.936C225.927 310.928 226.14 311.696 226.567 312.24C226.993 312.773 227.607 313.04 228.407 313.04ZM241.313 305.952V314H240.033V312.544C239.798 313.045 239.441 313.435 238.961 313.712C238.491 313.979 237.942 314.112 237.313 314.112C236.598 314.112 235.969 313.941 235.425 313.6C234.891 313.259 234.475 312.779 234.177 312.16C233.889 311.531 233.745 310.8 233.745 309.968C233.745 309.136 233.894 308.405 234.193 307.776C234.491 307.136 234.907 306.64 235.441 306.288C235.985 305.936 236.609 305.76 237.313 305.76C237.942 305.76 238.491 305.899 238.961 306.176C239.43 306.453 239.787 306.843 240.033 307.344V305.952H241.313ZM237.569 313.04C238.358 313.04 238.966 312.773 239.393 312.24C239.819 311.696 240.033 310.928 240.033 309.936C240.033 308.944 239.819 308.181 239.393 307.648C238.966 307.115 238.358 306.848 237.569 306.848C236.779 306.848 236.161 307.125 235.713 307.68C235.275 308.224 235.057 308.987 235.057 309.968C235.057 310.949 235.275 311.707 235.713 312.24C236.15 312.773 236.769 313.04 237.569 313.04ZM247.834 305.76C249.765 305.76 250.73 306.821 250.73 308.944V314H249.434V309.008C249.434 308.261 249.285 307.717 248.986 307.376C248.688 307.024 248.218 306.848 247.578 306.848C246.832 306.848 246.234 307.077 245.786 307.536C245.338 307.995 245.114 308.613 245.114 309.392V314H243.818V308.208C243.818 307.376 243.776 306.624 243.69 305.952H244.922L245.05 307.392C245.296 306.869 245.664 306.469 246.154 306.192C246.645 305.904 247.205 305.76 247.834 305.76ZM260.346 305.952V313.936C260.346 315.131 260.036 316.032 259.418 316.64C258.81 317.259 257.908 317.568 256.714 317.568C255.487 317.568 254.431 317.291 253.546 316.736L253.77 315.68C254.282 315.968 254.762 316.176 255.21 316.304C255.668 316.432 256.17 316.496 256.714 316.496C257.492 316.496 258.079 316.288 258.474 315.872C258.868 315.467 259.066 314.859 259.066 314.048V312.144C258.82 312.656 258.458 313.056 257.978 313.344C257.508 313.621 256.948 313.76 256.298 313.76C255.594 313.76 254.964 313.595 254.41 313.264C253.866 312.933 253.444 312.464 253.146 311.856C252.847 311.248 252.698 310.549 252.698 309.76C252.698 308.971 252.847 308.272 253.146 307.664C253.444 307.056 253.866 306.587 254.41 306.256C254.964 305.925 255.594 305.76 256.298 305.76C256.938 305.76 257.492 305.899 257.962 306.176C258.442 306.453 258.804 306.843 259.05 307.344V305.952H260.346ZM256.554 312.672C257.332 312.672 257.94 312.416 258.378 311.904C258.826 311.381 259.05 310.667 259.05 309.76C259.05 308.853 258.826 308.144 258.378 307.632C257.94 307.109 257.332 306.848 256.554 306.848C255.764 306.848 255.14 307.109 254.682 307.632C254.234 308.144 254.01 308.853 254.01 309.76C254.01 310.667 254.234 311.381 254.682 311.904C255.14 312.416 255.764 312.672 256.554 312.672ZM268.258 314L264.13 310.128V314H262.834V302.224H264.13V309.648L267.922 305.968H269.57L265.538 309.824L269.954 314H268.258ZM278.016 305.952V314H276.736V312.544C276.501 313.045 276.144 313.435 275.664 313.712C275.194 313.979 274.645 314.112 274.016 314.112C273.301 314.112 272.672 313.941 272.128 313.6C271.594 313.259 271.178 312.779 270.88 312.16C270.592 311.531 270.448 310.8 270.448 309.968C270.448 309.136 270.597 308.405 270.896 307.776C271.194 307.136 271.61 306.64 272.144 306.288C272.688 305.936 273.312 305.76 274.016 305.76C274.645 305.76 275.194 305.899 275.664 306.176C276.133 306.453 276.49 306.843 276.736 307.344V305.952H278.016ZM274.272 313.04C275.061 313.04 275.669 312.773 276.096 312.24C276.522 311.696 276.736 310.928 276.736 309.936C276.736 308.944 276.522 308.181 276.096 307.648C275.669 307.115 275.061 306.848 274.272 306.848C273.482 306.848 272.864 307.125 272.416 307.68C271.978 308.224 271.76 308.987 271.76 309.968C271.76 310.949 271.978 311.707 272.416 312.24C272.853 312.773 273.472 313.04 274.272 313.04ZM284.537 305.76C286.468 305.76 287.433 306.821 287.433 308.944V314H286.137V309.008C286.137 308.261 285.988 307.717 285.689 307.376C285.391 307.024 284.921 306.848 284.281 306.848C283.535 306.848 282.937 307.077 282.489 307.536C282.041 307.995 281.817 308.613 281.817 309.392V314H280.521V308.208C280.521 307.376 280.479 306.624 280.393 305.952H281.625L281.753 307.392C281.999 306.869 282.367 306.469 282.857 306.192C283.348 305.904 283.908 305.76 284.537 305.76ZM306.277 305.952L303.301 314H302.053L299.749 307.712L297.461 314H296.213L293.237 305.952H294.597L296.869 312.448L299.221 305.952H300.357L302.677 312.464L304.997 305.952H306.277ZM314.601 309.936H308.697C308.708 310.96 308.943 311.733 309.401 312.256C309.871 312.779 310.548 313.04 311.433 313.04C312.372 313.04 313.236 312.725 314.025 312.096L314.457 313.04C314.105 313.371 313.652 313.632 313.097 313.824C312.553 314.016 311.993 314.112 311.417 314.112C310.159 314.112 309.172 313.744 308.457 313.008C307.743 312.261 307.385 311.243 307.385 309.952C307.385 309.131 307.545 308.405 307.865 307.776C308.185 307.136 308.633 306.64 309.209 306.288C309.785 305.936 310.441 305.76 311.177 305.76C312.244 305.76 313.081 306.112 313.689 306.816C314.297 307.509 314.601 308.469 314.601 309.696V309.936ZM311.193 306.768C310.521 306.768 309.972 306.971 309.545 307.376C309.129 307.781 308.863 308.352 308.745 309.088H313.433C313.369 308.331 313.145 307.755 312.761 307.36C312.388 306.965 311.865 306.768 311.193 306.768ZM320.584 305.76C321.288 305.76 321.912 305.931 322.456 306.272C323 306.613 323.422 307.099 323.72 307.728C324.019 308.347 324.168 309.072 324.168 309.904C324.168 310.736 324.019 311.472 323.72 312.112C323.422 312.741 323 313.232 322.456 313.584C321.912 313.936 321.288 314.112 320.584 314.112C319.955 314.112 319.406 313.973 318.936 313.696C318.467 313.419 318.11 313.024 317.864 312.512V314H316.568V302.224H317.864V307.376C318.099 306.853 318.451 306.453 318.92 306.176C319.4 305.899 319.955 305.76 320.584 305.76ZM320.344 313.04C321.123 313.04 321.731 312.768 322.168 312.224C322.606 311.669 322.824 310.896 322.824 309.904C322.824 308.933 322.606 308.181 322.168 307.648C321.742 307.115 321.134 306.848 320.344 306.848C319.544 306.848 318.931 307.115 318.504 307.648C318.078 308.181 317.864 308.944 317.864 309.936C317.864 310.928 318.078 311.696 318.504 312.24C318.931 312.773 319.544 313.04 320.344 313.04ZM336.958 308.144C337.609 308.325 338.115 308.656 338.478 309.136C338.841 309.605 339.022 310.192 339.022 310.896C339.022 311.888 338.691 312.656 338.03 313.2C337.369 313.733 336.435 314 335.23 314H330.494V302.608H335.07C336.233 302.608 337.134 302.869 337.774 303.392C338.425 303.904 338.75 304.635 338.75 305.584C338.75 306.192 338.59 306.72 338.27 307.168C337.961 307.605 337.523 307.931 336.958 308.144ZM331.79 307.664H334.862C335.715 307.664 336.361 307.493 336.798 307.152C337.235 306.811 337.454 306.309 337.454 305.648C337.454 304.347 336.59 303.696 334.862 303.696H331.79V307.664ZM335.118 312.912C336.014 312.912 336.67 312.747 337.086 312.416C337.513 312.075 337.726 311.557 337.726 310.864C337.726 309.467 336.857 308.768 335.118 308.768H331.79V312.912H335.118ZM347.961 309.936H342.057C342.067 310.96 342.302 311.733 342.761 312.256C343.23 312.779 343.907 313.04 344.793 313.04C345.731 313.04 346.595 312.725 347.385 312.096L347.817 313.04C347.465 313.371 347.011 313.632 346.457 313.824C345.913 314.016 345.353 314.112 344.777 314.112C343.518 314.112 342.531 313.744 341.817 313.008C341.102 312.261 340.745 311.243 340.745 309.952C340.745 309.131 340.905 308.405 341.225 307.776C341.545 307.136 341.993 306.64 342.569 306.288C343.145 305.936 343.801 305.76 344.537 305.76C345.603 305.76 346.441 306.112 347.049 306.816C347.657 307.509 347.961 308.469 347.961 309.696V309.936ZM344.553 306.768C343.881 306.768 343.331 306.971 342.905 307.376C342.489 307.781 342.222 308.352 342.105 309.088H346.793C346.729 308.331 346.505 307.755 346.121 307.36C345.747 306.965 345.225 306.768 344.553 306.768ZM353.672 305.76C353.938 305.76 354.184 305.792 354.408 305.856L354.376 307.04C354.13 306.955 353.848 306.912 353.528 306.912C352.749 306.912 352.168 307.157 351.784 307.648C351.41 308.128 351.224 308.715 351.224 309.408V314H349.928V308.208C349.928 307.376 349.885 306.624 349.8 305.952H351.032L351.16 307.44C351.362 306.896 351.688 306.48 352.136 306.192C352.584 305.904 353.096 305.76 353.672 305.76ZM358.366 314.112C357.012 314.112 355.94 313.765 355.15 313.072L355.582 312.112C356.02 312.453 356.462 312.699 356.91 312.848C357.358 312.997 357.86 313.072 358.414 313.072C359.022 313.072 359.481 312.971 359.79 312.768C360.11 312.555 360.27 312.251 360.27 311.856C360.27 311.536 360.164 311.28 359.95 311.088C359.737 310.896 359.385 310.747 358.894 310.64L357.534 310.32C356.862 310.171 356.34 309.904 355.966 309.52C355.604 309.136 355.422 308.677 355.422 308.144C355.422 307.44 355.705 306.869 356.27 306.432C356.836 305.984 357.582 305.76 358.51 305.76C359.076 305.76 359.609 305.851 360.11 306.032C360.612 306.213 361.033 306.475 361.374 306.816L360.942 307.76C360.185 307.131 359.374 306.816 358.51 306.816C357.934 306.816 357.486 306.928 357.166 307.152C356.857 307.365 356.702 307.669 356.702 308.064C356.702 308.395 356.798 308.656 356.99 308.848C357.193 309.04 357.513 309.189 357.95 309.296L359.31 309.632C360.057 309.803 360.612 310.069 360.974 310.432C361.337 310.784 361.518 311.248 361.518 311.824C361.518 312.517 361.236 313.072 360.67 313.488C360.105 313.904 359.337 314.112 358.366 314.112ZM370.672 305.952V314H369.392V312.544C369.157 313.045 368.8 313.435 368.32 313.712C367.851 313.979 367.301 314.112 366.672 314.112C365.957 314.112 365.328 313.941 364.784 313.6C364.251 313.259 363.835 312.779 363.536 312.16C363.248 311.531 363.104 310.8 363.104 309.968C363.104 309.136 363.253 308.405 363.552 307.776C363.851 307.136 364.267 306.64 364.8 306.288C365.344 305.936 365.968 305.76 366.672 305.76C367.301 305.76 367.851 305.899 368.32 306.176C368.789 306.453 369.147 306.843 369.392 307.344V305.952H370.672ZM366.928 313.04C367.717 313.04 368.325 312.773 368.752 312.24C369.179 311.696 369.392 310.928 369.392 309.936C369.392 308.944 369.179 308.181 368.752 307.648C368.325 307.115 367.717 306.848 366.928 306.848C366.139 306.848 365.52 307.125 365.072 307.68C364.635 308.224 364.416 308.987 364.416 309.968C364.416 310.949 364.635 311.707 365.072 312.24C365.509 312.773 366.128 313.04 366.928 313.04ZM373.178 305.952H374.474V314H373.178V305.952ZM374.634 302.544V304.016H373.05V302.544H374.634ZM381.006 305.76C382.937 305.76 383.902 306.821 383.902 308.944V314H382.606V309.008C382.606 308.261 382.457 307.717 382.158 307.376C381.86 307.024 381.39 306.848 380.75 306.848C380.004 306.848 379.406 307.077 378.958 307.536C378.51 307.995 378.286 308.613 378.286 309.392V314H376.99V308.208C376.99 307.376 376.948 306.624 376.862 305.952H378.094L378.222 307.392C378.468 306.869 378.836 306.469 379.326 306.192C379.817 305.904 380.377 305.76 381.006 305.76ZM389.07 314.112C387.715 314.112 386.643 313.765 385.854 313.072L386.286 312.112C386.723 312.453 387.166 312.699 387.614 312.848C388.062 312.997 388.563 313.072 389.118 313.072C389.726 313.072 390.184 312.971 390.494 312.768C390.814 312.555 390.974 312.251 390.974 311.856C390.974 311.536 390.867 311.28 390.654 311.088C390.44 310.896 390.088 310.747 389.598 310.64L388.238 310.32C387.566 310.171 387.043 309.904 386.67 309.52C386.307 309.136 386.126 308.677 386.126 308.144C386.126 307.44 386.408 306.869 386.974 306.432C387.539 305.984 388.286 305.76 389.214 305.76C389.779 305.76 390.312 305.851 390.814 306.032C391.315 306.213 391.736 306.475 392.078 306.816L391.646 307.76C390.888 307.131 390.078 306.816 389.214 306.816C388.638 306.816 388.19 306.928 387.87 307.152C387.56 307.365 387.406 307.669 387.406 308.064C387.406 308.395 387.502 308.656 387.694 308.848C387.896 309.04 388.216 309.189 388.654 309.296L390.014 309.632C390.76 309.803 391.315 310.069 391.678 310.432C392.04 310.784 392.222 311.248 392.222 311.824C392.222 312.517 391.939 313.072 391.374 313.488C390.808 313.904 390.04 314.112 389.07 314.112ZM395.633 312.352V314H393.985V312.352H395.633ZM409.428 314L403.556 308.576V314H402.244V302.608H403.556V307.84L409.156 302.608H410.836L404.884 308.16L411.14 314H409.428ZM418.882 309.936H412.978C412.989 310.96 413.224 311.733 413.682 312.256C414.152 312.779 414.829 313.04 415.714 313.04C416.653 313.04 417.517 312.725 418.306 312.096L418.738 313.04C418.386 313.371 417.933 313.632 417.378 313.824C416.834 314.016 416.274 314.112 415.698 314.112C414.44 314.112 413.453 313.744 412.738 313.008C412.024 312.261 411.666 311.243 411.666 309.952C411.666 309.131 411.826 308.405 412.146 307.776C412.466 307.136 412.914 306.64 413.49 306.288C414.066 305.936 414.722 305.76 415.458 305.76C416.525 305.76 417.362 306.112 417.97 306.816C418.578 307.509 418.882 308.469 418.882 309.696V309.936ZM415.474 306.768C414.802 306.768 414.253 306.971 413.826 307.376C413.41 307.781 413.144 308.352 413.026 309.088H417.714C417.65 308.331 417.426 307.755 417.042 307.36C416.669 306.965 416.146 306.768 415.474 306.768ZM429.778 305.76C431.559 305.76 432.45 306.821 432.45 308.944V314H431.154V309.008C431.154 308.251 431.02 307.701 430.754 307.36C430.498 307.019 430.076 306.848 429.49 306.848C428.807 306.848 428.274 307.077 427.89 307.536C427.506 307.995 427.314 308.619 427.314 309.408V314H426.018V309.008C426.018 308.261 425.884 307.717 425.618 307.376C425.351 307.024 424.924 306.848 424.338 306.848C423.655 306.848 423.116 307.077 422.722 307.536C422.338 307.995 422.146 308.619 422.146 309.408V314H420.85V308.208C420.85 307.376 420.807 306.624 420.722 305.952H421.954L422.082 307.36C422.306 306.848 422.636 306.453 423.074 306.176C423.522 305.899 424.039 305.76 424.626 305.76C425.266 305.76 425.788 305.888 426.194 306.144C426.599 306.4 426.898 306.795 427.09 307.328C427.335 306.848 427.692 306.469 428.162 306.192C428.642 305.904 429.18 305.76 429.778 305.76ZM438.928 305.76C439.632 305.76 440.256 305.931 440.8 306.272C441.344 306.613 441.765 307.099 442.064 307.728C442.363 308.347 442.512 309.072 442.512 309.904C442.512 310.736 442.363 311.472 442.064 312.112C441.765 312.741 441.344 313.232 440.8 313.584C440.256 313.936 439.632 314.112 438.928 314.112C438.299 314.112 437.749 313.973 437.28 313.696C436.811 313.419 436.453 313.024 436.208 312.512V314H434.912V302.224H436.208V307.376C436.443 306.853 436.795 306.453 437.264 306.176C437.744 305.899 438.299 305.76 438.928 305.76ZM438.688 313.04C439.467 313.04 440.075 312.768 440.512 312.224C440.949 311.669 441.168 310.896 441.168 309.904C441.168 308.933 440.949 308.181 440.512 307.648C440.085 307.115 439.477 306.848 438.688 306.848C437.888 306.848 437.275 307.115 436.848 307.648C436.421 308.181 436.208 308.944 436.208 309.936C436.208 310.928 436.421 311.696 436.848 312.24C437.275 312.773 437.888 313.04 438.688 313.04ZM451.594 305.952V314H450.314V312.544C450.079 313.045 449.722 313.435 449.242 313.712C448.772 313.979 448.223 314.112 447.594 314.112C446.879 314.112 446.25 313.941 445.706 313.6C445.172 313.259 444.756 312.779 444.458 312.16C444.17 311.531 444.026 310.8 444.026 309.968C444.026 309.136 444.175 308.405 444.474 307.776C444.772 307.136 445.188 306.64 445.722 306.288C446.266 305.936 446.89 305.76 447.594 305.76C448.223 305.76 448.772 305.899 449.242 306.176C449.711 306.453 450.068 306.843 450.314 307.344V305.952H451.594ZM447.85 313.04C448.639 313.04 449.247 312.773 449.674 312.24C450.1 311.696 450.314 310.928 450.314 309.936C450.314 308.944 450.1 308.181 449.674 307.648C449.247 307.115 448.639 306.848 447.85 306.848C447.06 306.848 446.442 307.125 445.994 307.68C445.556 308.224 445.338 308.987 445.338 309.968C445.338 310.949 445.556 311.707 445.994 312.24C446.431 312.773 447.05 313.04 447.85 313.04ZM454.1 302.224H455.396V314H454.1V302.224ZM457.912 305.952H459.208V314H457.912V305.952ZM459.368 302.544V304.016H457.784V302.544H459.368ZM465.896 302.224H467.192V314H465.896V302.224ZM476.797 305.952V314H475.517V312.544C475.282 313.045 474.925 313.435 474.445 313.712C473.976 313.979 473.426 314.112 472.797 314.112C472.082 314.112 471.453 313.941 470.909 313.6C470.376 313.259 469.96 312.779 469.661 312.16C469.373 311.531 469.229 310.8 469.229 309.968C469.229 309.136 469.378 308.405 469.677 307.776C469.976 307.136 470.392 306.64 470.925 306.288C471.469 305.936 472.093 305.76 472.797 305.76C473.426 305.76 473.976 305.899 474.445 306.176C474.914 306.453 475.272 306.843 475.517 307.344V305.952H476.797ZM473.053 313.04C473.842 313.04 474.45 312.773 474.877 312.24C475.304 311.696 475.517 310.928 475.517 309.936C475.517 308.944 475.304 308.181 474.877 307.648C474.45 307.115 473.842 306.848 473.053 306.848C472.264 306.848 471.645 307.125 471.197 307.68C470.76 308.224 470.541 308.987 470.541 309.968C470.541 310.949 470.76 311.707 471.197 312.24C471.634 312.773 472.253 313.04 473.053 313.04ZM486.471 305.952V313.936C486.471 315.131 486.161 316.032 485.543 316.64C484.935 317.259 484.033 317.568 482.839 317.568C481.612 317.568 480.556 317.291 479.671 316.736L479.895 315.68C480.407 315.968 480.887 316.176 481.335 316.304C481.793 316.432 482.295 316.496 482.839 316.496C483.617 316.496 484.204 316.288 484.599 315.872C484.993 315.467 485.191 314.859 485.191 314.048V312.144C484.945 312.656 484.583 313.056 484.103 313.344C483.633 313.621 483.073 313.76 482.423 313.76C481.719 313.76 481.089 313.595 480.535 313.264C479.991 312.933 479.569 312.464 479.271 311.856C478.972 311.248 478.823 310.549 478.823 309.76C478.823 308.971 478.972 308.272 479.271 307.664C479.569 307.056 479.991 306.587 480.535 306.256C481.089 305.925 481.719 305.76 482.423 305.76C483.063 305.76 483.617 305.899 484.087 306.176C484.567 306.453 484.929 306.843 485.175 307.344V305.952H486.471ZM482.679 312.672C483.457 312.672 484.065 312.416 484.503 311.904C484.951 311.381 485.175 310.667 485.175 309.76C485.175 308.853 484.951 308.144 484.503 307.632C484.065 307.109 483.457 306.848 482.679 306.848C481.889 306.848 481.265 307.109 480.807 307.632C480.359 308.144 480.135 308.853 480.135 309.76C480.135 310.667 480.359 311.381 480.807 311.904C481.265 312.416 481.889 312.672 482.679 312.672ZM488.959 305.952H490.255V314H488.959V305.952ZM490.415 302.544V304.016H488.831V302.544H490.415ZM500.959 305.76C502.89 305.76 503.855 306.821 503.855 308.944V314H502.559V309.008C502.559 308.261 502.41 307.717 502.111 307.376C501.813 307.024 501.343 306.848 500.703 306.848C499.957 306.848 499.359 307.077 498.911 307.536C498.463 307.995 498.239 308.613 498.239 309.392V314H496.943V308.208C496.943 307.376 496.901 306.624 496.815 305.952H498.047L498.175 307.392C498.421 306.869 498.789 306.469 499.279 306.192C499.77 305.904 500.33 305.76 500.959 305.76ZM513.391 305.952V314H512.111V312.544C511.876 313.045 511.519 313.435 511.039 313.712C510.569 313.979 510.02 314.112 509.391 314.112C508.676 314.112 508.047 313.941 507.503 313.6C506.969 313.259 506.553 312.779 506.255 312.16C505.967 311.531 505.823 310.8 505.823 309.968C505.823 309.136 505.972 308.405 506.271 307.776C506.569 307.136 506.985 306.64 507.519 306.288C508.063 305.936 508.687 305.76 509.391 305.76C510.02 305.76 510.569 305.899 511.039 306.176C511.508 306.453 511.865 306.843 512.111 307.344V305.952H513.391ZM509.647 313.04C510.436 313.04 511.044 312.773 511.471 312.24C511.897 311.696 512.111 310.928 512.111 309.936C512.111 308.944 511.897 308.181 511.471 307.648C511.044 307.115 510.436 306.848 509.647 306.848C508.857 306.848 508.239 307.125 507.791 307.68C507.353 308.224 507.135 308.987 507.135 309.968C507.135 310.949 507.353 311.707 507.791 312.24C508.228 312.773 508.847 313.04 509.647 313.04ZM519.912 305.76C521.843 305.76 522.808 306.821 522.808 308.944V314H521.512V309.008C521.512 308.261 521.363 307.717 521.064 307.376C520.766 307.024 520.296 306.848 519.656 306.848C518.91 306.848 518.312 307.077 517.864 307.536C517.416 307.995 517.192 308.613 517.192 309.392V314H515.896V308.208C515.896 307.376 515.854 306.624 515.768 305.952H517L517.128 307.392C517.374 306.869 517.742 306.469 518.232 306.192C518.723 305.904 519.283 305.76 519.912 305.76ZM526.984 306.976V311.376C526.984 311.973 527.106 312.395 527.352 312.64C527.597 312.875 527.944 312.992 528.392 312.992C528.69 312.992 528.978 312.944 529.256 312.848V313.952C528.925 314.059 528.552 314.112 528.136 314.112C527.368 314.112 526.765 313.899 526.328 313.472C525.901 313.035 525.688 312.395 525.688 311.552V306.976H524.12V305.952H525.688V303.888L526.984 303.424V305.952H529.288V306.976H526.984ZM530.85 305.952H532.146V314H530.85V305.952ZM532.306 302.544V304.016H530.722V302.544H532.306ZM536.086 312.352V313.52C536.086 313.968 536.011 314.379 535.862 314.752C535.713 315.125 535.462 315.488 535.11 315.84L534.502 315.376C534.918 314.896 535.153 314.437 535.206 314H534.438V312.352H536.086ZM549.609 305.952L545.849 314.736C545.454 315.653 544.958 316.325 544.361 316.752C543.764 317.179 543.028 317.472 542.153 317.632L541.881 316.624C542.638 316.453 543.209 316.224 543.593 315.936C543.988 315.659 544.313 315.227 544.569 314.64L544.889 313.92L541.481 305.952H542.841L545.561 312.592L548.313 305.952H549.609ZM558.031 305.952V314H556.751V312.544C556.517 313.045 556.159 313.435 555.679 313.712C555.21 313.979 554.661 314.112 554.031 314.112C553.317 314.112 552.687 313.941 552.143 313.6C551.61 313.259 551.194 312.779 550.895 312.16C550.607 311.531 550.463 310.8 550.463 309.968C550.463 309.136 550.613 308.405 550.911 307.776C551.21 307.136 551.626 306.64 552.159 306.288C552.703 305.936 553.327 305.76 554.031 305.76C554.661 305.76 555.21 305.899 555.679 306.176C556.149 306.453 556.506 306.843 556.751 307.344V305.952H558.031ZM554.287 313.04C555.077 313.04 555.685 312.773 556.111 312.24C556.538 311.696 556.751 310.928 556.751 309.936C556.751 308.944 556.538 308.181 556.111 307.648C555.685 307.115 555.077 306.848 554.287 306.848C553.498 306.848 552.879 307.125 552.431 307.68C551.994 308.224 551.775 308.987 551.775 309.968C551.775 310.949 551.994 311.707 552.431 312.24C552.869 312.773 553.487 313.04 554.287 313.04ZM561.961 312.352V314H560.313V312.352H561.961Z" fill="#828282"/>
</svg>
