<svg width="563" height="347" viewBox="0 0 563 347" fill="none" xmlns="http://www.w3.org/2000/svg">
<rect x="85" width="388" height="48" rx="24" fill="#ECE2F5"/>
<rect x="113" y="96" width="397" height="48" rx="24" fill="#ECE2F5"/>
<rect x="53" y="192" width="420" height="48" rx="24" fill="#ECE2F5"/>
<path fill-rule="evenodd" clip-rule="evenodd" d="M210 96H438.857C425.603 96 414.857 85.2548 414.857 72C414.857 58.7452 425.603 48 438.857 48H210C223.255 48 234 58.7452 234 72C234 85.2548 223.255 96 210 96Z" fill="#ECE2F5"/>
<path fill-rule="evenodd" clip-rule="evenodd" d="M159 192H361C347.745 192 337 181.255 337 168C337 154.745 347.745 144 361 144H159C172.255 144 183 154.745 183 168C183 181.255 172.255 192 159 192Z" fill="#ECE2F5"/>
<path fill-rule="evenodd" clip-rule="evenodd" d="M251.605 126.983L204.031 226.389L288.607 194.527L377.441 223.159L331.189 126.836L251.605 126.983Z" fill="#2A0F44"/>
<path fill-rule="evenodd" clip-rule="evenodd" d="M251.598 124.632L251.6 125.965L333.317 125.814L332.105 126.396L377.892 221.751L377.125 224.13L288.63 195.607L205.302 227L203.108 225.95L251.598 124.632ZM206.043 224.542L289.004 193.288L288.917 193.557L375.492 221.462L330.545 127.858L252.245 128.003L206.043 224.542Z" fill="#22053D"/>
<path d="M291.099 216.117C303.587 216.117 313.711 206.388 313.711 194.386C313.711 182.384 303.587 172.654 291.099 172.654C278.61 172.654 268.486 182.384 268.486 194.386C268.486 206.388 278.61 216.117 291.099 216.117Z" fill="#F1F1F1"/>
<path fill-rule="evenodd" clip-rule="evenodd" d="M291.096 173.672C279.132 173.672 269.503 182.982 269.503 194.383C269.503 205.785 279.132 215.095 291.096 215.095C303.06 215.095 312.689 205.785 312.689 194.383C312.689 182.982 303.06 173.672 291.096 173.672ZM267.464 194.383C267.464 181.781 278.083 171.633 291.096 171.633C304.109 171.633 314.727 181.781 314.727 194.383C314.727 206.986 304.109 217.134 291.096 217.134C278.083 217.134 267.464 206.986 267.464 194.383Z" fill="#24053E"/>
<path fill-rule="evenodd" clip-rule="evenodd" d="M287.427 215.821C272.01 213.324 264.227 196.439 270.248 186.16C271.129 188.216 274.946 187.775 274.946 189.831C274.359 199.963 281.701 210.828 287.427 215.821Z" fill="#C6C6C6"/>
<path fill-rule="evenodd" clip-rule="evenodd" d="M291.096 173.672C279.132 173.672 269.503 182.982 269.503 194.383C269.503 205.785 279.132 215.095 291.096 215.095C303.06 215.095 312.689 205.785 312.689 194.383C312.689 182.982 303.06 173.672 291.096 173.672ZM267.464 194.383C267.464 181.781 278.083 171.633 291.096 171.633C304.109 171.633 314.727 181.781 314.727 194.383C314.727 206.986 304.109 217.134 291.096 217.134C278.083 217.134 267.464 206.986 267.464 194.383Z" fill="#24053E"/>
<path fill-rule="evenodd" clip-rule="evenodd" d="M333.534 163.985C353.65 180.871 369.655 190.268 375.969 182.486C380.961 170.446 363.929 147.687 333.387 132.122C312.39 131.388 315.327 150.036 333.534 163.985Z" fill="#F1F1F1"/>
<path fill-rule="evenodd" clip-rule="evenodd" d="M321.362 134.028C324.017 131.961 328.045 130.918 333.42 131.106L333.895 131.123L333.847 131.216C349.219 139.05 361.233 148.714 368.79 157.984C372.568 162.618 375.257 167.184 376.68 171.403C378.1 175.617 378.281 179.567 376.908 182.879L376.792 183.159L376.758 183.131C374.947 185.362 372.44 186.33 369.482 186.275C366.569 186.22 363.195 185.18 359.485 183.409C352.062 179.865 342.956 173.229 332.893 164.783C323.707 157.74 318.15 149.357 317.738 142.612C317.529 139.176 318.662 136.13 321.362 134.028ZM319.773 142.488C320.132 148.366 325.141 156.275 334.151 163.178L334.187 163.206L334.186 163.207C344.233 171.64 353.181 178.14 360.363 181.569C363.958 183.285 367.026 184.19 369.52 184.236C371.91 184.281 373.741 183.542 375.08 181.96C376.144 179.274 376.048 175.913 374.747 172.054C373.426 168.133 370.884 163.779 367.21 159.272C359.897 150.302 348.195 140.848 333.124 133.136C328.123 132.994 324.714 134.002 322.615 135.636C320.529 137.26 319.598 139.61 319.773 142.488Z" fill="#24053E"/>
<path fill-rule="evenodd" clip-rule="evenodd" d="M366.722 183.954C325.315 157.818 339.999 131.682 319.148 139.17C327.518 158.552 343.229 177.494 366.722 183.954Z" fill="#C6C6C6"/>
<path fill-rule="evenodd" clip-rule="evenodd" d="M321.362 134.028C324.017 131.961 328.045 130.918 333.42 131.106L333.895 131.123L333.847 131.216C349.219 139.05 361.233 148.714 368.79 157.984C372.568 162.618 375.257 167.184 376.68 171.403C378.1 175.617 378.281 179.567 376.908 182.879L376.792 183.159L376.758 183.131C374.947 185.362 372.44 186.33 369.482 186.275C366.569 186.22 363.195 185.18 359.485 183.409C352.062 179.865 342.956 173.229 332.893 164.783C323.707 157.74 318.15 149.357 317.738 142.612C317.529 139.176 318.662 136.13 321.362 134.028ZM319.773 142.488C320.132 148.366 325.141 156.275 334.151 163.178L334.187 163.206L334.186 163.207C344.233 171.64 353.181 178.14 360.363 181.569C363.958 183.285 367.026 184.19 369.52 184.236C371.91 184.281 373.741 183.542 375.08 181.96C376.144 179.274 376.048 175.913 374.747 172.054C373.426 168.133 370.884 163.779 367.21 159.272C359.897 150.302 348.195 140.848 333.124 133.136C328.123 132.994 324.714 134.002 322.615 135.636C320.529 137.26 319.598 139.61 319.773 142.488Z" fill="#24053E"/>
<path fill-rule="evenodd" clip-rule="evenodd" d="M223.48 143.764C199.749 132.291 184.665 121.477 189.409 112.623C198.253 103.234 226.041 109.37 252.661 130.967C261.778 150.053 243.618 154.743 223.48 143.764Z" fill="#F1F1F1"/>
<path fill-rule="evenodd" clip-rule="evenodd" d="M253.68 130.479L253.581 130.526C255.914 135.408 256.584 139.535 255.769 142.807C254.941 146.136 252.619 148.404 249.395 149.595C243.072 151.93 233.175 150.203 223.015 144.669C211.145 138.93 201.35 133.316 195.105 127.985C191.984 125.321 189.675 122.667 188.468 120.034C187.24 117.356 187.15 114.68 188.511 112.14L188.641 111.897L188.668 111.923C191.105 109.335 194.769 107.897 199.183 107.475C203.604 107.052 208.865 107.638 214.634 109.189C226.176 112.293 239.903 119.302 253.303 130.174L253.68 130.479ZM251.839 131.611C238.677 120.97 225.272 114.161 214.105 111.158C208.494 109.649 203.486 109.112 199.377 109.504C195.327 109.891 192.235 111.172 190.246 113.222C189.298 115.074 189.335 117.032 190.322 119.184C191.35 121.428 193.406 123.854 196.429 126.434C202.469 131.589 212.073 137.115 223.924 142.844L223.969 142.866L223.969 142.867C233.939 148.303 243.181 149.716 248.689 147.682C251.382 146.687 253.15 144.89 253.791 142.314C254.437 139.721 253.982 136.172 251.839 131.611Z" fill="#24053E"/>
<path fill-rule="evenodd" clip-rule="evenodd" d="M199.393 130.041C228.581 138.608 241.135 135.765 238.144 120.706C243.152 123.302 248.145 126.225 252.661 130.968C263.683 164.471 219.037 146.059 199.393 130.041Z" fill="#C6C6C6"/>
<path fill-rule="evenodd" clip-rule="evenodd" d="M253.68 130.479L253.581 130.526C255.914 135.408 256.584 139.535 255.769 142.807C254.941 146.136 252.619 148.404 249.395 149.595C243.072 151.93 233.175 150.203 223.015 144.669C211.145 138.93 201.35 133.316 195.105 127.985C191.984 125.321 189.675 122.667 188.468 120.034C187.24 117.356 187.15 114.68 188.511 112.14L188.641 111.897L188.668 111.923C191.105 109.335 194.769 107.897 199.183 107.475C203.604 107.052 208.865 107.638 214.634 109.189C226.176 112.293 239.903 119.302 253.303 130.174L253.68 130.479ZM251.839 131.611C238.677 120.97 225.272 114.161 214.105 111.158C208.494 109.649 203.486 109.112 199.377 109.504C195.327 109.891 192.235 111.172 190.246 113.222C189.298 115.074 189.335 117.032 190.322 119.184C191.35 121.428 193.406 123.854 196.429 126.434C202.469 131.589 212.073 137.115 223.924 142.844L223.969 142.866L223.969 142.867C233.939 148.303 243.181 149.716 248.689 147.682C251.382 146.687 253.15 144.89 253.791 142.314C254.437 139.721 253.982 136.172 251.839 131.611Z" fill="#24053E"/>
<path fill-rule="evenodd" clip-rule="evenodd" d="M223.48 143.764C199.749 132.291 184.665 121.477 189.409 112.623C198.253 103.234 226.041 109.37 252.661 130.967C261.778 150.053 243.618 154.743 223.48 143.764Z" fill="#F1F1F1"/>
<path fill-rule="evenodd" clip-rule="evenodd" d="M253.68 130.479L253.581 130.526C255.914 135.408 256.584 139.535 255.769 142.807C254.941 146.136 252.619 148.404 249.395 149.595C243.072 151.93 233.175 150.203 223.015 144.669C211.145 138.93 201.35 133.316 195.105 127.985C191.984 125.321 189.675 122.667 188.468 120.034C187.24 117.356 187.15 114.68 188.511 112.14L188.641 111.897L188.668 111.923C191.105 109.335 194.769 107.897 199.183 107.475C203.604 107.052 208.865 107.638 214.634 109.189C226.176 112.293 239.903 119.302 253.303 130.174L253.68 130.479ZM251.839 131.611C238.677 120.97 225.272 114.161 214.105 111.158C208.494 109.649 203.486 109.112 199.377 109.504C195.327 109.891 192.235 111.172 190.246 113.222C189.298 115.074 189.335 117.032 190.322 119.184C191.35 121.428 193.406 123.854 196.429 126.434C202.469 131.589 212.073 137.115 223.924 142.844L223.969 142.866L223.969 142.867C233.939 148.303 243.181 149.716 248.689 147.682C251.382 146.687 253.15 144.89 253.791 142.314C254.437 139.721 253.982 136.172 251.839 131.611Z" fill="#24053E"/>
<path fill-rule="evenodd" clip-rule="evenodd" d="M199.393 130.041C228.581 138.608 241.135 135.765 238.144 120.706C243.152 123.302 248.145 126.225 252.661 130.968C263.683 164.471 219.037 146.059 199.393 130.041Z" fill="#C6C6C6"/>
<path fill-rule="evenodd" clip-rule="evenodd" d="M253.68 130.479L253.581 130.526C255.914 135.408 256.584 139.535 255.769 142.807C254.941 146.136 252.619 148.404 249.395 149.595C243.072 151.93 233.175 150.203 223.015 144.669C211.145 138.93 201.35 133.316 195.105 127.985C191.984 125.321 189.675 122.667 188.468 120.034C187.24 117.356 187.15 114.68 188.511 112.14L188.641 111.897L188.668 111.923C191.105 109.335 194.769 107.897 199.183 107.475C203.604 107.052 208.865 107.638 214.634 109.189C226.176 112.293 239.903 119.302 253.303 130.174L253.68 130.479ZM251.839 131.611C238.677 120.97 225.272 114.161 214.105 111.158C208.494 109.649 203.486 109.112 199.377 109.504C195.327 109.891 192.235 111.172 190.246 113.222C189.298 115.074 189.335 117.032 190.322 119.184C191.35 121.428 193.406 123.854 196.429 126.434C202.469 131.589 212.073 137.115 223.924 142.844L223.969 142.866L223.969 142.867C233.939 148.303 243.181 149.716 248.689 147.682C251.382 146.687 253.15 144.89 253.791 142.314C254.437 139.721 253.982 136.172 251.839 131.611Z" fill="#24053E"/>
<path d="M290.805 198.347C316.674 198.347 337.645 177.179 337.645 151.066C337.645 124.954 316.674 103.786 290.805 103.786C264.936 103.786 243.965 124.954 243.965 151.066C243.965 177.179 264.936 198.347 290.805 198.347Z" fill="#F1F1F1"/>
<path fill-rule="evenodd" clip-rule="evenodd" d="M290.804 104.803C265.507 104.803 244.983 125.506 244.983 151.064C244.983 176.622 265.507 197.325 290.804 197.325C316.101 197.325 336.624 176.622 336.624 151.064C336.624 125.506 316.101 104.803 290.804 104.803ZM242.944 151.064C242.944 124.398 264.363 102.764 290.804 102.764C317.245 102.764 338.663 124.398 338.663 151.064C338.663 177.731 317.245 199.364 290.804 199.364C264.363 199.364 242.944 177.731 242.944 151.064Z" fill="#24053E"/>
<path fill-rule="evenodd" clip-rule="evenodd" d="M269.073 109.365C223.848 137.704 246.901 195.85 284.49 196.144C240.881 182.341 240.294 129.481 269.073 109.365Z" fill="#C6C6C6"/>
<path fill-rule="evenodd" clip-rule="evenodd" d="M284.494 196.655C246.36 196.357 223.194 137.541 268.788 108.948L269.372 109.784C255.155 119.722 248.167 137.772 250.149 155.065C252.129 172.334 263.051 188.823 284.651 195.659L284.502 195.612L284.494 196.655ZM280.888 195.423C261.159 187.852 251.05 171.874 249.136 155.182C247.541 141.263 251.644 126.831 260.62 116.365C229.099 144.897 248.648 191.879 280.888 195.423Z" fill="#C6C6C6"/>
<path fill-rule="evenodd" clip-rule="evenodd" d="M290.804 104.803C265.507 104.803 244.983 125.506 244.983 151.064C244.983 176.622 265.507 197.325 290.804 197.325C316.101 197.325 336.624 176.622 336.624 151.064C336.624 125.506 316.101 104.803 290.804 104.803ZM242.944 151.064C242.944 124.398 264.363 102.764 290.804 102.764C317.245 102.764 338.663 124.398 338.663 151.064C338.663 177.731 317.245 199.364 290.804 199.364C264.363 199.364 242.944 177.731 242.944 151.064Z" fill="#24053E"/>
<path fill-rule="evenodd" clip-rule="evenodd" d="M327.417 168.715C322.322 181.536 309.918 191.19 290.26 197.989L289.559 198.232L289.629 198.001C275.659 193.743 263.297 183.875 257.232 170.88C251.143 157.836 251.45 141.745 262.653 125.239L264.34 126.384C253.518 142.329 253.311 157.66 259.079 170.018C264.825 182.328 276.55 191.79 289.907 195.953C309.12 189.251 320.768 179.927 325.522 167.962C330.305 155.924 328.234 140.905 319.259 122.589L321.09 121.692C330.175 140.232 332.508 155.901 327.417 168.715Z" fill="#22053D"/>
<path fill-rule="evenodd" clip-rule="evenodd" d="M292.672 168.788C279.893 169.353 266.883 164.302 253.905 153.919L255.179 152.327C267.897 162.502 280.436 167.288 292.582 166.751C304.723 166.215 316.646 160.352 328.119 148.878L329.561 150.32C317.834 162.046 305.456 168.224 292.672 168.788Z" fill="#22053D"/>
<path d="M290.338 176.998C296.155 176.838 300.743 172.042 300.584 166.287C300.425 160.532 295.581 155.996 289.764 156.157C283.947 156.317 279.36 161.112 279.519 166.867C279.677 172.623 284.521 177.158 290.338 176.998Z" fill="#3B1C58"/>
<path fill-rule="evenodd" clip-rule="evenodd" d="M289.788 156.934C284.393 157.082 280.153 161.528 280.299 166.845C280.446 172.163 284.924 176.368 290.319 176.219C295.715 176.071 299.955 171.625 299.809 166.308C299.662 160.99 295.183 156.785 289.788 156.934ZM278.743 166.888C278.573 160.696 283.506 155.55 289.745 155.378C295.984 155.206 301.194 160.072 301.364 166.265C301.535 172.457 296.601 177.603 290.362 177.775C284.124 177.947 278.914 173.081 278.743 166.888Z" fill="#2A0F44"/>
<path d="M336.179 62.6732H240.884C231.315 62.6732 223.558 70.4304 223.558 79.9995V101.437C223.558 111.006 231.315 118.764 240.884 118.764H336.179C345.748 118.764 353.505 111.006 353.505 101.437V79.9995C353.505 70.4304 345.748 62.6732 336.179 62.6732Z" fill="#2A0F44"/>
<path fill-rule="evenodd" clip-rule="evenodd" d="M240.881 63.6904C231.875 63.6904 224.574 70.9913 224.574 79.9973V101.435C224.574 110.441 231.875 117.742 240.881 117.742H336.176C345.182 117.742 352.483 110.441 352.483 101.435V79.9973C352.483 70.9913 345.182 63.6904 336.176 63.6904H240.881ZM222.535 79.9973C222.535 69.8652 230.749 61.6516 240.881 61.6516H336.176C346.308 61.6516 354.522 69.8652 354.522 79.9973V101.435C354.522 111.567 346.308 119.781 336.176 119.781H240.881C230.749 119.781 222.535 111.567 222.535 101.435V79.9973Z" fill="#22053D"/>
<path d="M289.337 146.365C320.152 146.365 345.133 121.581 345.133 91.0087C345.133 60.4363 320.152 35.6525 289.337 35.6525C258.521 35.6525 233.54 60.4363 233.54 91.0087C233.54 121.581 258.521 146.365 289.337 146.365Z" fill="#F1F1F1"/>
<path fill-rule="evenodd" clip-rule="evenodd" d="M289.335 36.6744C259.074 36.6744 234.557 61.0094 234.557 91.0111C234.557 121.013 259.074 145.348 289.335 145.348C319.595 145.348 344.112 121.013 344.112 91.0111C344.112 61.0094 319.595 36.6744 289.335 36.6744ZM232.519 91.0111C232.519 59.8681 257.964 34.6355 289.335 34.6355C320.706 34.6355 346.151 59.8681 346.151 91.0111C346.151 122.154 320.706 147.387 289.335 147.387C257.964 147.387 232.519 122.154 232.519 91.0111Z" fill="#24053E"/>
<path fill-rule="evenodd" clip-rule="evenodd" d="M254.095 48.1368C216.358 83.8174 236.034 140.348 282.14 145.928C238.09 123.903 228.986 84.111 254.095 48.1368Z" fill="#C6C6C6"/>
<path fill-rule="evenodd" clip-rule="evenodd" d="M253.743 47.7674C253.768 47.7432 253.717 47.7915 253.743 47.7674V47.7674ZM250.82 52.1893C219.107 86.8454 237.223 137.68 279.192 144.98C258.687 134.025 246.184 119.045 241.689 102.397C237.372 86.41 240.462 68.9638 250.82 52.1893ZM282.077 146.435C235.544 140.804 215.818 83.7282 253.743 47.7674L254.511 48.4297C242.025 66.3198 238.077 85.1079 242.673 102.131C247.27 119.156 260.438 134.509 282.366 145.473L282.2 145.423L282.077 146.435Z" fill="#C6C6C6"/>
<path fill-rule="evenodd" clip-rule="evenodd" d="M289.335 36.6744C259.074 36.6744 234.557 61.0094 234.557 91.0111C234.557 121.013 259.074 145.348 289.335 145.348C319.595 145.348 344.112 121.013 344.112 91.0111C344.112 61.0094 319.595 36.6744 289.335 36.6744ZM232.519 91.0111C232.519 59.8681 257.964 34.6355 289.335 34.6355C320.706 34.6355 346.151 59.8681 346.151 91.0111C346.151 122.154 320.706 147.387 289.335 147.387C257.964 147.387 232.519 122.154 232.519 91.0111Z" fill="#24053E"/>
<path fill-rule="evenodd" clip-rule="evenodd" d="M257.158 121.343C252.22 114.53 244.424 107.372 234.113 99.9132L235.308 98.2612C245.701 105.779 253.69 113.085 258.809 120.147C263.93 127.211 266.248 134.132 265.082 140.816L263.073 140.466C264.11 134.522 262.096 128.155 257.158 121.343Z" fill="#22053D"/>
<path fill-rule="evenodd" clip-rule="evenodd" d="M343.777 102.145C321.643 116.51 313.151 128.552 313.991 141.16L311.957 141.296C311.035 127.475 320.457 114.849 342.667 100.434L343.777 102.145Z" fill="#22053D"/>
<path fill-rule="evenodd" clip-rule="evenodd" d="M291.803 58.1858C280.537 58.5232 268.452 55.1817 255.326 47.2469L256.381 45.5021C269.245 53.2785 280.947 56.4711 291.742 56.1478C302.537 55.8244 312.52 51.9826 321.94 45.5333L323.092 47.2157C313.424 53.8346 303.07 57.8483 291.803 58.1858Z" fill="#22053D"/>
<path fill-rule="evenodd" clip-rule="evenodd" d="M288.484 133.856C278.568 133.235 268.743 129.062 258.392 122.408L259.494 120.693C269.7 127.253 279.183 131.23 288.612 131.821C298.012 132.409 307.479 129.639 317.678 122.478L318.849 124.147C308.345 131.522 298.429 134.478 288.484 133.856Z" fill="#22053D"/>
<path d="M294.765 28.0216H284.046C279.099 28.0216 275.089 31.4401 275.089 35.6569V35.8038C275.089 40.0207 279.099 43.4391 284.046 43.4391H294.765C299.711 43.4391 303.721 40.0207 303.721 35.8038V35.6569C303.721 31.4401 299.711 28.0216 294.765 28.0216Z" fill="#2A0F44"/>
<path fill-rule="evenodd" clip-rule="evenodd" d="M284.052 29.0389C279.51 29.0389 276.115 32.1475 276.115 35.6548V35.8016C276.115 39.3089 279.51 42.4175 284.052 42.4175H294.771C299.314 42.4175 302.709 39.3089 302.709 35.8016V35.6548C302.709 32.1475 299.314 29.0389 294.771 29.0389H284.052ZM274.076 35.6548C274.076 30.7283 278.701 27 284.052 27H294.771C300.122 27 304.748 30.7283 304.748 35.6548V35.8016C304.748 40.7281 300.122 44.4564 294.771 44.4564H284.052C278.701 44.4564 274.076 40.7281 274.076 35.8016V35.6548Z" fill="#22053D"/>
<path d="M307.25 69.2779H271.422C258.366 69.2779 247.782 78.1527 247.782 89.1004V92.9181C247.782 103.866 258.366 112.741 271.422 112.741H307.25C320.306 112.741 330.89 103.866 330.89 92.9181V89.1004C330.89 78.1527 320.306 69.2779 307.25 69.2779Z" fill="#2A0F44"/>
<path fill-rule="evenodd" clip-rule="evenodd" d="M271.421 70.2998C258.753 70.2998 248.801 78.8791 248.801 89.1029V92.9206C248.801 103.144 258.753 111.724 271.421 111.724H307.249C319.917 111.724 329.869 103.144 329.869 92.9206V89.1029C329.869 78.8791 319.917 70.2998 307.249 70.2998H271.421ZM246.762 89.1029C246.762 77.4314 257.978 68.2609 271.421 68.2609H307.249C320.692 68.2609 331.908 77.4314 331.908 89.1029V92.9206C331.908 104.592 320.692 113.763 307.249 113.763H271.421C257.978 113.763 246.762 104.592 246.762 92.9206V89.1029Z" fill="#22053D"/>
<path d="M267.738 95.3597C267.738 92.3217 268.534 89.6182 269.769 87.7051C271.011 85.7822 272.606 84.7697 274.216 84.7697C275.826 84.7697 277.421 85.7822 278.663 87.7051C279.898 89.6182 280.695 92.3217 280.695 95.3597C280.695 98.3977 279.898 101.101 278.663 103.014C277.421 104.937 275.826 105.95 274.216 105.95C272.606 105.95 271.011 104.937 269.769 103.014C268.534 101.101 267.738 98.3977 267.738 95.3597ZM274.216 82.75C271.69 82.75 269.541 84.3351 268.073 86.6097C266.597 88.8949 265.718 91.9913 265.718 95.3597C265.718 98.7281 266.597 101.824 268.073 104.11C269.541 106.384 271.69 107.969 274.216 107.969C276.742 107.969 278.891 106.384 280.36 104.11C281.835 101.824 282.715 98.7281 282.715 95.3597C282.715 91.9913 281.835 88.8949 280.36 86.6097C278.891 84.3351 276.742 82.75 274.216 82.75Z" fill="#1EFEFD" stroke="#1EFEFD"/>
<path d="M297.984 95.3597C297.984 92.3217 298.78 89.6182 300.016 87.7051C301.257 85.7822 302.852 84.7697 304.462 84.7697C306.072 84.7697 307.668 85.7822 308.909 87.7051C310.144 89.6182 310.941 92.3217 310.941 95.3597C310.941 98.3977 310.144 101.101 308.909 103.014C307.668 104.937 306.072 105.95 304.462 105.95C302.852 105.95 301.257 104.937 300.016 103.014C298.78 101.101 297.984 98.3977 297.984 95.3597ZM304.462 82.75C301.936 82.75 299.787 84.3351 298.319 86.6097C296.843 88.8949 295.964 91.9913 295.964 95.3597C295.964 98.7281 296.843 101.824 298.319 104.11C299.787 106.384 301.936 107.969 304.462 107.969C306.989 107.969 309.137 106.384 310.606 104.11C312.081 101.824 312.961 98.7281 312.961 95.3597C312.961 91.9913 312.081 88.8949 310.606 86.6097C309.137 84.3351 306.989 82.75 304.462 82.75Z" fill="#1EFEFD" stroke="#1EFEFD"/>
<rect x="257.796" y="95.1686" width="60.9375" height="14.0625" fill="#2A0F44"/>
<path d="M42.8384 276.216L34.7744 299H31.4144L25.6864 282.616L19.8944 299H16.5344L8.50238 276.216H12.6944L18.3904 293.208L24.3104 276.216H27.2544L33.0464 293.336L38.8704 276.216H42.8384ZM58.0231 291.128H46.8871C46.9725 292.856 47.3991 294.136 48.1671 294.968C48.9565 295.779 50.1191 296.184 51.6551 296.184C53.4258 296.184 55.0685 295.608 56.5831 294.456L57.7351 297.208C56.9671 297.827 56.0178 298.328 54.8871 298.712C53.7778 299.075 52.6471 299.256 51.4951 299.256C48.8498 299.256 46.7698 298.509 45.2551 297.016C43.7405 295.523 42.9831 293.475 42.9831 290.872C42.9831 289.229 43.3138 287.768 43.9751 286.488C44.6365 285.208 45.5645 284.216 46.7591 283.512C47.9538 282.787 49.3085 282.424 50.8231 282.424C53.0418 282.424 54.7911 283.149 56.0711 284.6C57.3725 286.029 58.0231 288.003 58.0231 290.52V291.128ZM50.9191 285.304C49.8525 285.304 48.9778 285.624 48.2951 286.264C47.6338 286.883 47.2071 287.789 47.0151 288.984H54.5351C54.4071 287.768 54.0338 286.851 53.4151 286.232C52.8178 285.613 51.9858 285.304 50.9191 285.304ZM70.6264 282.424C72.0344 282.424 73.2717 282.776 74.3384 283.48C75.4264 284.163 76.269 285.133 76.8664 286.392C77.4637 287.651 77.7624 289.112 77.7624 290.776C77.7624 292.44 77.453 293.923 76.8344 295.224C76.237 296.504 75.3944 297.496 74.3064 298.2C73.2397 298.904 72.013 299.256 70.6264 299.256C69.4317 299.256 68.365 299 67.4264 298.488C66.509 297.976 65.8157 297.261 65.3464 296.344V299H61.4104V275.448H65.3784V285.272C65.869 284.376 66.573 283.683 67.4904 283.192C68.4077 282.68 69.453 282.424 70.6264 282.424ZM69.5704 296.12C70.893 296.12 71.917 295.651 72.6424 294.712C73.3677 293.773 73.7304 292.461 73.7304 290.776C73.7304 289.112 73.3677 287.832 72.6424 286.936C71.917 286.019 70.8824 285.56 69.5384 285.56C68.1944 285.56 67.1597 286.019 66.4344 286.936C65.709 287.853 65.3464 289.155 65.3464 290.84C65.3464 292.547 65.709 293.859 66.4344 294.776C67.1597 295.672 68.205 296.12 69.5704 296.12ZM95.9554 299.256C93.0327 299.256 90.7074 298.573 88.9794 297.208L90.0994 294.392C91.8274 295.672 93.8007 296.312 96.0194 296.312C96.9794 296.312 97.7154 296.152 98.2274 295.832C98.7607 295.512 99.0274 295.064 99.0274 294.488C99.0274 293.997 98.846 293.613 98.4834 293.336C98.1207 293.037 97.502 292.781 96.6274 292.568L93.9394 291.96C90.9954 291.32 89.5234 289.816 89.5234 287.448C89.5234 286.467 89.8007 285.603 90.3554 284.856C90.91 284.088 91.6887 283.491 92.6914 283.064C93.694 282.637 94.8567 282.424 96.1794 282.424C97.3314 282.424 98.4407 282.605 99.5074 282.968C100.574 283.309 101.513 283.811 102.323 284.472L101.139 287.192C99.518 285.997 97.854 285.4 96.1474 285.4C95.23 285.4 94.5154 285.571 94.0034 285.912C93.4914 286.253 93.2354 286.723 93.2354 287.32C93.2354 287.789 93.3847 288.163 93.6834 288.44C94.0034 288.717 94.5367 288.952 95.2834 289.144L98.0354 289.752C99.6354 290.115 100.798 290.68 101.523 291.448C102.27 292.195 102.643 293.176 102.643 294.392C102.643 295.885 102.046 297.069 100.851 297.944C99.6567 298.819 98.0247 299.256 95.9554 299.256ZM120.211 291.128H109.075C109.16 292.856 109.587 294.136 110.355 294.968C111.144 295.779 112.307 296.184 113.843 296.184C115.613 296.184 117.256 295.608 118.771 294.456L119.923 297.208C119.155 297.827 118.205 298.328 117.075 298.712C115.965 299.075 114.835 299.256 113.683 299.256C111.037 299.256 108.957 298.509 107.443 297.016C105.928 295.523 105.171 293.475 105.171 290.872C105.171 289.229 105.501 287.768 106.163 286.488C106.824 285.208 107.752 284.216 108.947 283.512C110.141 282.787 111.496 282.424 113.011 282.424C115.229 282.424 116.979 283.149 118.259 284.6C119.56 286.029 120.211 288.003 120.211 290.52V291.128ZM113.107 285.304C112.04 285.304 111.165 285.624 110.483 286.264C109.821 286.883 109.395 287.789 109.203 288.984H116.723C116.595 287.768 116.221 286.851 115.603 286.232C115.005 285.613 114.173 285.304 113.107 285.304ZM139.054 275.448V299H135.118V296.408C134.627 297.304 133.923 298.008 133.006 298.52C132.089 299.011 131.043 299.256 129.87 299.256C128.483 299.256 127.246 298.904 126.158 298.2C125.07 297.496 124.217 296.504 123.598 295.224C123.001 293.923 122.702 292.44 122.702 290.776C122.702 289.112 123.001 287.651 123.598 286.392C124.195 285.133 125.038 284.163 126.126 283.48C127.214 282.776 128.462 282.424 129.87 282.424C131.022 282.424 132.046 282.669 132.942 283.16C133.859 283.629 134.563 284.301 135.054 285.176V275.448H139.054ZM130.926 296.12C132.249 296.12 133.273 295.661 133.998 294.744C134.745 293.827 135.118 292.525 135.118 290.84C135.118 289.155 134.755 287.853 134.03 286.936C133.305 286.019 132.281 285.56 130.958 285.56C129.614 285.56 128.569 286.019 127.822 286.936C127.097 287.832 126.734 289.112 126.734 290.776C126.734 292.461 127.097 293.773 127.822 294.712C128.569 295.651 129.603 296.12 130.926 296.12ZM158.866 282.84V299H154.93V296.408C154.44 297.304 153.736 298.008 152.818 298.52C151.901 299.011 150.856 299.256 149.682 299.256C148.274 299.256 147.026 298.915 145.938 298.232C144.85 297.549 144.008 296.579 143.41 295.32C142.813 294.061 142.514 292.6 142.514 290.936C142.514 289.272 142.813 287.8 143.41 286.52C144.029 285.219 144.882 284.216 145.97 283.512C147.058 282.787 148.296 282.424 149.682 282.424C150.856 282.424 151.901 282.68 152.818 283.192C153.736 283.683 154.44 284.376 154.93 285.272V282.84H158.866ZM150.77 296.12C152.093 296.12 153.117 295.661 153.842 294.744C154.568 293.827 154.93 292.536 154.93 290.872C154.93 289.165 154.568 287.853 153.842 286.936C153.117 286.019 152.082 285.56 150.738 285.56C149.416 285.56 148.381 286.04 147.634 287C146.909 287.939 146.546 289.251 146.546 290.936C146.546 292.6 146.909 293.88 147.634 294.776C148.381 295.672 149.426 296.12 150.77 296.12ZM172.471 282.424C176.332 282.424 178.263 284.643 178.263 289.08V299H174.263V289.272C174.263 287.992 174.018 287.064 173.527 286.488C173.036 285.891 172.279 285.592 171.255 285.592C170.039 285.592 169.058 285.987 168.311 286.776C167.564 287.544 167.191 288.568 167.191 289.848V299H163.223V287.416C163.223 285.709 163.138 284.184 162.967 282.84H166.711L166.999 285.496C167.554 284.515 168.3 283.757 169.239 283.224C170.199 282.691 171.276 282.424 172.471 282.424ZM198.12 282.84V298.488C198.12 301.005 197.427 302.915 196.04 304.216C194.653 305.517 192.616 306.168 189.928 306.168C187.432 306.168 185.235 305.645 183.336 304.6L183.976 301.56C185.939 302.584 187.891 303.096 189.832 303.096C192.712 303.096 194.152 301.667 194.152 298.808V295.608C193.661 296.483 192.947 297.197 192.008 297.752C191.069 298.285 190.013 298.552 188.84 298.552C187.432 298.552 186.173 298.221 185.064 297.56C183.976 296.877 183.123 295.928 182.504 294.712C181.907 293.475 181.608 292.067 181.608 290.488C181.608 288.909 181.907 287.512 182.504 286.296C183.123 285.059 183.976 284.109 185.064 283.448C186.173 282.765 187.432 282.424 188.84 282.424C190.035 282.424 191.091 282.68 192.008 283.192C192.947 283.683 193.661 284.376 194.152 285.272V282.84H198.12ZM189.896 295.416C191.219 295.416 192.253 294.979 193 294.104C193.768 293.229 194.152 292.024 194.152 290.488C194.152 288.952 193.779 287.747 193.032 286.872C192.285 285.997 191.24 285.56 189.896 285.56C188.573 285.56 187.528 285.997 186.76 286.872C186.013 287.747 185.64 288.952 185.64 290.488C185.64 292.024 186.013 293.229 186.76 294.104C187.528 294.979 188.573 295.416 189.896 295.416ZM226.679 275.448V299H222.743V296.408C222.252 297.304 221.548 298.008 220.631 298.52C219.714 299.011 218.668 299.256 217.495 299.256C216.108 299.256 214.871 298.904 213.783 298.2C212.695 297.496 211.842 296.504 211.223 295.224C210.626 293.923 210.327 292.44 210.327 290.776C210.327 289.112 210.626 287.651 211.223 286.392C211.82 285.133 212.663 284.163 213.751 283.48C214.839 282.776 216.087 282.424 217.495 282.424C218.647 282.424 219.671 282.669 220.567 283.16C221.484 283.629 222.188 284.301 222.679 285.176V275.448H226.679ZM218.551 296.12C219.874 296.12 220.898 295.661 221.623 294.744C222.37 293.827 222.743 292.525 222.743 290.84C222.743 289.155 222.38 287.853 221.655 286.936C220.93 286.019 219.906 285.56 218.583 285.56C217.239 285.56 216.194 286.019 215.447 286.936C214.722 287.832 214.359 289.112 214.359 290.776C214.359 292.461 214.722 293.773 215.447 294.712C216.194 295.651 217.228 296.12 218.551 296.12ZM246.491 282.84V299H242.555V296.408C242.065 297.304 241.361 298.008 240.443 298.52C239.526 299.011 238.481 299.256 237.307 299.256C235.899 299.256 234.651 298.915 233.563 298.232C232.475 297.549 231.633 296.579 231.035 295.32C230.438 294.061 230.139 292.6 230.139 290.936C230.139 289.272 230.438 287.8 231.035 286.52C231.654 285.219 232.507 284.216 233.595 283.512C234.683 282.787 235.921 282.424 237.307 282.424C238.481 282.424 239.526 282.68 240.443 283.192C241.361 283.683 242.065 284.376 242.555 285.272V282.84H246.491ZM238.395 296.12C239.718 296.12 240.742 295.661 241.467 294.744C242.193 293.827 242.555 292.536 242.555 290.872C242.555 289.165 242.193 287.853 241.467 286.936C240.742 286.019 239.707 285.56 238.363 285.56C237.041 285.56 236.006 286.04 235.259 287C234.534 287.939 234.171 289.251 234.171 290.936C234.171 292.6 234.534 293.88 235.259 294.776C236.006 295.672 237.051 296.12 238.395 296.12ZM250.848 275.448H254.816V299H250.848V275.448ZM274.648 282.84V299H270.712V296.408C270.221 297.304 269.517 298.008 268.6 298.52C267.682 299.011 266.637 299.256 265.464 299.256C264.056 299.256 262.808 298.915 261.72 298.232C260.632 297.549 259.789 296.579 259.192 295.32C258.594 294.061 258.296 292.6 258.296 290.936C258.296 289.272 258.594 287.8 259.192 286.52C259.81 285.219 260.664 284.216 261.752 283.512C262.84 282.787 264.077 282.424 265.464 282.424C266.637 282.424 267.682 282.68 268.6 283.192C269.517 283.683 270.221 284.376 270.712 285.272V282.84H274.648ZM266.552 296.12C267.874 296.12 268.898 295.661 269.624 294.744C270.349 293.827 270.712 292.536 270.712 290.872C270.712 289.165 270.349 287.853 269.624 286.936C268.898 286.019 267.864 285.56 266.52 285.56C265.197 285.56 264.162 286.04 263.416 287C262.69 287.939 262.328 289.251 262.328 290.936C262.328 292.6 262.69 293.88 263.416 294.776C264.162 295.672 265.208 296.12 266.552 296.12ZM298.076 282.424C299.911 282.424 301.276 282.979 302.172 284.088C303.068 285.176 303.516 286.84 303.516 289.08V299H299.516V289.208C299.516 287.928 299.303 287.011 298.876 286.456C298.471 285.88 297.788 285.592 296.828 285.592C295.719 285.592 294.844 285.987 294.204 286.776C293.585 287.544 293.276 288.611 293.276 289.976V299H289.276V289.208C289.276 287.949 289.052 287.032 288.604 286.456C288.177 285.88 287.495 285.592 286.556 285.592C285.447 285.592 284.572 285.987 283.932 286.776C283.292 287.544 282.972 288.611 282.972 289.976V299H279.004V287.416C279.004 285.709 278.919 284.184 278.748 282.84H282.492L282.78 285.4C283.249 284.44 283.921 283.704 284.796 283.192C285.692 282.68 286.716 282.424 287.868 282.424C290.343 282.424 291.953 283.448 292.7 285.496C293.212 284.536 293.937 283.789 294.876 283.256C295.836 282.701 296.903 282.424 298.076 282.424ZM325.783 282.424C327.169 282.424 328.396 282.787 329.463 283.512C330.551 284.216 331.393 285.219 331.991 286.52C332.609 287.8 332.919 289.272 332.919 290.936C332.919 292.6 332.62 294.061 332.023 295.32C331.425 296.579 330.583 297.549 329.495 298.232C328.428 298.915 327.191 299.256 325.783 299.256C324.609 299.256 323.564 299.011 322.647 298.52C321.729 298.008 321.025 297.304 320.535 296.408V305.912H316.567V287.416C316.567 285.709 316.481 284.184 316.311 282.84H320.055L320.375 285.624C320.801 284.621 321.495 283.843 322.455 283.288C323.415 282.712 324.524 282.424 325.783 282.424ZM324.695 296.12C326.039 296.12 327.073 295.672 327.799 294.776C328.524 293.88 328.887 292.6 328.887 290.936C328.887 289.251 328.524 287.939 327.799 287C327.073 286.04 326.049 285.56 324.727 285.56C323.361 285.56 322.316 286.019 321.591 286.936C320.865 287.853 320.503 289.165 320.503 290.872C320.503 292.557 320.865 293.859 321.591 294.776C322.316 295.672 323.351 296.12 324.695 296.12ZM350.554 291.128H339.418C339.504 292.856 339.93 294.136 340.698 294.968C341.488 295.779 342.65 296.184 344.186 296.184C345.957 296.184 347.6 295.608 349.114 294.456L350.266 297.208C349.498 297.827 348.549 298.328 347.418 298.712C346.309 299.075 345.178 299.256 344.026 299.256C341.381 299.256 339.301 298.509 337.786 297.016C336.272 295.523 335.514 293.475 335.514 290.872C335.514 289.229 335.845 287.768 336.506 286.488C337.168 285.208 338.096 284.216 339.29 283.512C340.485 282.787 341.84 282.424 343.354 282.424C345.573 282.424 347.322 283.149 348.602 284.6C349.904 286.029 350.554 288.003 350.554 290.52V291.128ZM343.45 285.304C342.384 285.304 341.509 285.624 340.826 286.264C340.165 286.883 339.738 287.789 339.546 288.984H347.066C346.938 287.768 346.565 286.851 345.946 286.232C345.349 285.613 344.517 285.304 343.45 285.304ZM363.19 282.424C367.051 282.424 368.982 284.643 368.982 289.08V299H364.982V289.272C364.982 287.992 364.736 287.064 364.246 286.488C363.755 285.891 362.998 285.592 361.974 285.592C360.758 285.592 359.776 285.987 359.03 286.776C358.283 287.544 357.91 288.568 357.91 289.848V299H353.942V287.416C353.942 285.709 353.856 284.184 353.686 282.84H357.43L357.718 285.496C358.272 284.515 359.019 283.757 359.958 283.224C360.918 282.691 361.995 282.424 363.19 282.424ZM388.839 282.84V298.488C388.839 301.005 388.146 302.915 386.759 304.216C385.372 305.517 383.335 306.168 380.647 306.168C378.151 306.168 375.954 305.645 374.055 304.6L374.695 301.56C376.658 302.584 378.61 303.096 380.551 303.096C383.431 303.096 384.871 301.667 384.871 298.808V295.608C384.38 296.483 383.666 297.197 382.727 297.752C381.788 298.285 380.732 298.552 379.559 298.552C378.151 298.552 376.892 298.221 375.783 297.56C374.695 296.877 373.842 295.928 373.223 294.712C372.626 293.475 372.327 292.067 372.327 290.488C372.327 288.909 372.626 287.512 373.223 286.296C373.842 285.059 374.695 284.109 375.783 283.448C376.892 282.765 378.151 282.424 379.559 282.424C380.754 282.424 381.81 282.68 382.727 283.192C383.666 283.683 384.38 284.376 384.871 285.272V282.84H388.839ZM380.615 295.416C381.938 295.416 382.972 294.979 383.719 294.104C384.487 293.229 384.871 292.024 384.871 290.488C384.871 288.952 384.498 287.747 383.751 286.872C383.004 285.997 381.959 285.56 380.615 285.56C379.292 285.56 378.247 285.997 377.479 286.872C376.732 287.747 376.359 288.952 376.359 290.488C376.359 292.024 376.732 293.229 377.479 294.104C378.247 294.979 379.292 295.416 380.615 295.416ZM407.304 291.128H396.168C396.254 292.856 396.68 294.136 397.448 294.968C398.238 295.779 399.4 296.184 400.936 296.184C402.707 296.184 404.35 295.608 405.864 294.456L407.016 297.208C406.248 297.827 405.299 298.328 404.168 298.712C403.059 299.075 401.928 299.256 400.776 299.256C398.131 299.256 396.051 298.509 394.536 297.016C393.022 295.523 392.264 293.475 392.264 290.872C392.264 289.229 392.595 287.768 393.256 286.488C393.918 285.208 394.846 284.216 396.04 283.512C397.235 282.787 398.59 282.424 400.104 282.424C402.323 282.424 404.072 283.149 405.352 284.6C406.654 286.029 407.304 288.003 407.304 290.52V291.128ZM400.2 285.304C399.134 285.304 398.259 285.624 397.576 286.264C396.915 286.883 396.488 287.789 396.296 288.984H403.816C403.688 287.768 403.315 286.851 402.696 286.232C402.099 285.613 401.267 285.304 400.2 285.304ZM429.764 282.424C431.598 282.424 432.964 282.979 433.86 284.088C434.756 285.176 435.204 286.84 435.204 289.08V299H431.204V289.208C431.204 287.928 430.99 287.011 430.564 286.456C430.158 285.88 429.476 285.592 428.516 285.592C427.406 285.592 426.532 285.987 425.892 286.776C425.273 287.544 424.964 288.611 424.964 289.976V299H420.964V289.208C420.964 287.949 420.74 287.032 420.292 286.456C419.865 285.88 419.182 285.592 418.244 285.592C417.134 285.592 416.26 285.987 415.62 286.776C414.98 287.544 414.66 288.611 414.66 289.976V299H410.692V287.416C410.692 285.709 410.606 284.184 410.436 282.84H414.18L414.468 285.4C414.937 284.44 415.609 283.704 416.484 283.192C417.38 282.68 418.404 282.424 419.556 282.424C422.03 282.424 423.641 283.448 424.388 285.496C424.9 284.536 425.625 283.789 426.564 283.256C427.524 282.701 428.59 282.424 429.764 282.424ZM448.689 282.424C450.097 282.424 451.334 282.776 452.401 283.48C453.489 284.163 454.332 285.133 454.929 286.392C455.526 287.651 455.825 289.112 455.825 290.776C455.825 292.44 455.516 293.923 454.897 295.224C454.3 296.504 453.457 297.496 452.369 298.2C451.302 298.904 450.076 299.256 448.689 299.256C447.494 299.256 446.428 299 445.489 298.488C444.572 297.976 443.878 297.261 443.409 296.344V299H439.473V275.448H443.441V285.272C443.932 284.376 444.636 283.683 445.553 283.192C446.47 282.68 447.516 282.424 448.689 282.424ZM447.633 296.12C448.956 296.12 449.98 295.651 450.705 294.712C451.43 293.773 451.793 292.461 451.793 290.776C451.793 289.112 451.43 287.832 450.705 286.936C449.98 286.019 448.945 285.56 447.601 285.56C446.257 285.56 445.222 286.019 444.497 286.936C443.772 287.853 443.409 289.155 443.409 290.84C443.409 292.547 443.772 293.859 444.497 294.776C445.222 295.672 446.268 296.12 447.633 296.12ZM474.773 282.84V299H470.837V296.408C470.346 297.304 469.642 298.008 468.725 298.52C467.807 299.011 466.762 299.256 465.589 299.256C464.181 299.256 462.933 298.915 461.845 298.232C460.757 297.549 459.914 296.579 459.317 295.32C458.719 294.061 458.421 292.6 458.421 290.936C458.421 289.272 458.719 287.8 459.317 286.52C459.935 285.219 460.789 284.216 461.877 283.512C462.965 282.787 464.202 282.424 465.589 282.424C466.762 282.424 467.807 282.68 468.725 283.192C469.642 283.683 470.346 284.376 470.837 285.272V282.84H474.773ZM466.677 296.12C467.999 296.12 469.023 295.661 469.749 294.744C470.474 293.827 470.837 292.536 470.837 290.872C470.837 289.165 470.474 287.853 469.749 286.936C469.023 286.019 467.989 285.56 466.645 285.56C465.322 285.56 464.287 286.04 463.541 287C462.815 287.939 462.453 289.251 462.453 290.936C462.453 292.6 462.815 293.88 463.541 294.776C464.287 295.672 465.333 296.12 466.677 296.12ZM488.377 282.424C492.238 282.424 494.169 284.643 494.169 289.08V299H490.169V289.272C490.169 287.992 489.924 287.064 489.433 286.488C488.942 285.891 488.185 285.592 487.161 285.592C485.945 285.592 484.964 285.987 484.217 286.776C483.47 287.544 483.097 288.568 483.097 289.848V299H479.129V287.416C479.129 285.709 479.044 284.184 478.873 282.84H482.617L482.905 285.496C483.46 284.515 484.206 283.757 485.145 283.224C486.105 282.691 487.182 282.424 488.377 282.424ZM514.026 282.84V298.488C514.026 301.005 513.333 302.915 511.946 304.216C510.56 305.517 508.522 306.168 505.834 306.168C503.338 306.168 501.141 305.645 499.242 304.6L499.882 301.56C501.845 302.584 503.797 303.096 505.738 303.096C508.618 303.096 510.058 301.667 510.058 298.808V295.608C509.568 296.483 508.853 297.197 507.914 297.752C506.976 298.285 505.92 298.552 504.746 298.552C503.338 298.552 502.08 298.221 500.97 297.56C499.882 296.877 499.029 295.928 498.41 294.712C497.813 293.475 497.514 292.067 497.514 290.488C497.514 288.909 497.813 287.512 498.41 286.296C499.029 285.059 499.882 284.109 500.97 283.448C502.08 282.765 503.338 282.424 504.746 282.424C505.941 282.424 506.997 282.68 507.914 283.192C508.853 283.683 509.568 284.376 510.058 285.272V282.84H514.026ZM505.802 295.416C507.125 295.416 508.16 294.979 508.906 294.104C509.674 293.229 510.058 292.024 510.058 290.488C510.058 288.952 509.685 287.747 508.938 286.872C508.192 285.997 507.146 285.56 505.802 285.56C504.48 285.56 503.434 285.997 502.666 286.872C501.92 287.747 501.546 288.952 501.546 290.488C501.546 292.024 501.92 293.229 502.666 294.104C503.434 294.979 504.48 295.416 505.802 295.416ZM533.804 282.84V299H529.868V296.408C529.377 297.304 528.673 298.008 527.756 298.52C526.839 299.011 525.793 299.256 524.62 299.256C523.212 299.256 521.964 298.915 520.876 298.232C519.788 297.549 518.945 296.579 518.348 295.32C517.751 294.061 517.452 292.6 517.452 290.936C517.452 289.272 517.751 287.8 518.348 286.52C518.967 285.219 519.82 284.216 520.908 283.512C521.996 282.787 523.233 282.424 524.62 282.424C525.793 282.424 526.839 282.68 527.756 283.192C528.673 283.683 529.377 284.376 529.868 285.272V282.84H533.804ZM525.708 296.12C527.031 296.12 528.055 295.661 528.78 294.744C529.505 293.827 529.868 292.536 529.868 290.872C529.868 289.165 529.505 287.853 528.78 286.936C528.055 286.019 527.02 285.56 525.676 285.56C524.353 285.56 523.319 286.04 522.572 287C521.847 287.939 521.484 289.251 521.484 290.936C521.484 292.6 521.847 293.88 522.572 294.776C523.319 295.672 524.364 296.12 525.708 296.12ZM547.408 282.424C551.27 282.424 553.2 284.643 553.2 289.08V299H549.2V289.272C549.2 287.992 548.955 287.064 548.464 286.488C547.974 285.891 547.216 285.592 546.192 285.592C544.976 285.592 543.995 285.987 543.248 286.776C542.502 287.544 542.128 288.568 542.128 289.848V299H538.16V287.416C538.16 285.709 538.075 284.184 537.904 282.84H541.648L541.936 285.496C542.491 284.515 543.238 283.757 544.176 283.224C545.136 282.691 546.214 282.424 547.408 282.424Z" fill="#421A61"/>
<path d="M5.03181 341.128C3.25048 341.128 1.83181 340.648 0.775813 339.688L1.27181 338.68C1.83715 339.16 2.41315 339.501 2.99981 339.704C3.58648 339.907 4.26915 340.008 5.04781 340.008C5.96515 340.008 6.66915 339.832 7.15981 339.48C7.66115 339.117 7.91181 338.611 7.91181 337.96C7.91181 337.576 7.78915 337.267 7.54381 337.032C7.30915 336.787 6.99448 336.595 6.59981 336.456C6.21581 336.317 5.69848 336.173 5.04781 336.024C4.17315 335.832 3.45315 335.624 2.88781 335.4C2.32248 335.176 1.86381 334.856 1.51181 334.44C1.15981 334.013 0.983813 333.459 0.983813 332.776C0.983813 332.125 1.15448 331.555 1.49581 331.064C1.83715 330.563 2.31715 330.173 2.93581 329.896C3.56515 329.619 4.29581 329.48 5.12781 329.48C5.91715 329.48 6.65315 329.603 7.33581 329.848C8.01848 330.093 8.59448 330.451 9.06381 330.92L8.55181 331.928C8.01848 331.469 7.47448 331.133 6.91981 330.92C6.37581 330.707 5.77848 330.6 5.12781 330.6C4.24248 330.6 3.54915 330.792 3.04781 331.176C2.54648 331.549 2.29581 332.067 2.29581 332.728C2.29581 333.304 2.51448 333.736 2.95181 334.024C3.38915 334.312 4.06115 334.563 4.96781 334.776C5.94915 335.011 6.71715 335.229 7.27181 335.432C7.83715 335.624 8.30648 335.923 8.67981 336.328C9.05315 336.723 9.23981 337.251 9.23981 337.912C9.23981 338.552 9.06915 339.117 8.72781 339.608C8.38648 340.088 7.89581 340.461 7.25581 340.728C6.62648 340.995 5.88515 341.128 5.03181 341.128ZM18.3126 332.952V341H17.0326V339.544C16.7979 340.045 16.4406 340.435 15.9606 340.712C15.4912 340.979 14.9419 341.112 14.3126 341.112C13.5979 341.112 12.9686 340.941 12.4246 340.6C11.8912 340.259 11.4752 339.779 11.1766 339.16C10.8886 338.531 10.7446 337.8 10.7446 336.968C10.7446 336.136 10.8939 335.405 11.1926 334.776C11.4912 334.136 11.9072 333.64 12.4406 333.288C12.9846 332.936 13.6086 332.76 14.3126 332.76C14.9419 332.76 15.4912 332.899 15.9606 333.176C16.4299 333.453 16.7872 333.843 17.0326 334.344V332.952H18.3126ZM14.5686 340.04C15.3579 340.04 15.9659 339.773 16.3926 339.24C16.8192 338.696 17.0326 337.928 17.0326 336.936C17.0326 335.944 16.8192 335.181 16.3926 334.648C15.9659 334.115 15.3579 333.848 14.5686 333.848C13.7792 333.848 13.1606 334.125 12.7126 334.68C12.2752 335.224 12.0566 335.987 12.0566 336.968C12.0566 337.949 12.2752 338.707 12.7126 339.24C13.1499 339.773 13.7686 340.04 14.5686 340.04ZM27.9063 332.952V341H26.6263V339.544C26.3916 340.045 26.0343 340.435 25.5543 340.712C25.085 340.979 24.5356 341.112 23.9063 341.112C23.1916 341.112 22.5623 340.941 22.0183 340.6C21.485 340.259 21.069 339.779 20.7703 339.16C20.4823 338.531 20.3383 337.8 20.3383 336.968C20.3383 336.136 20.4876 335.405 20.7863 334.776C21.085 334.136 21.501 333.64 22.0343 333.288C22.5783 332.936 23.2023 332.76 23.9063 332.76C24.5356 332.76 25.085 332.899 25.5543 333.176C26.0236 333.453 26.381 333.843 26.6263 334.344V332.952H27.9063ZM24.1623 340.04C24.9516 340.04 25.5596 339.773 25.9863 339.24C26.413 338.696 26.6263 337.928 26.6263 336.936C26.6263 335.944 26.413 335.181 25.9863 334.648C25.5596 334.115 24.9516 333.848 24.1623 333.848C23.373 333.848 22.7543 334.125 22.3063 334.68C21.869 335.224 21.6503 335.987 21.6503 336.968C21.6503 337.949 21.869 338.707 22.3063 339.24C22.7436 339.773 23.3623 340.04 24.1623 340.04ZM32.1401 333.976V338.376C32.1401 338.973 32.2627 339.395 32.5081 339.64C32.7534 339.875 33.1001 339.992 33.5481 339.992C33.8467 339.992 34.1347 339.944 34.4121 339.848V340.952C34.0814 341.059 33.7081 341.112 33.2921 341.112C32.5241 341.112 31.9214 340.899 31.4841 340.472C31.0574 340.035 30.8441 339.395 30.8441 338.552V333.976H29.2761V332.952H30.8441V330.888L32.1401 330.424V332.952H34.4441V333.976H32.1401ZM40.1777 332.952H41.4737V341H40.1777V332.952ZM41.6337 329.544V331.016H40.0497V329.544H41.6337ZM48.0062 332.76C49.9369 332.76 50.9022 333.821 50.9022 335.944V341H49.6062V336.008C49.6062 335.261 49.4569 334.717 49.1582 334.376C48.8595 334.024 48.3902 333.848 47.7502 333.848C47.0035 333.848 46.4062 334.077 45.9582 334.536C45.5102 334.995 45.2862 335.613 45.2862 336.392V341H43.9902V335.208C43.9902 334.376 43.9475 333.624 43.8622 332.952H45.0942L45.2222 334.392C45.4675 333.869 45.8355 333.469 46.3262 333.192C46.8169 332.904 47.3769 332.76 48.0062 332.76ZM53.3496 332.952H54.6456V341H53.3496V332.952ZM54.8056 329.544V331.016H53.2216V329.544H54.8056ZM66.7579 341L62.6299 337.128V341H61.3339V329.224H62.6299V336.648L66.4219 332.968H68.0699L64.0379 336.824L68.4539 341H66.7579ZM76.5157 332.952V341H75.2357V339.544C75.001 340.045 74.6437 340.435 74.1637 340.712C73.6944 340.979 73.145 341.112 72.5157 341.112C71.801 341.112 71.1717 340.941 70.6277 340.6C70.0944 340.259 69.6784 339.779 69.3797 339.16C69.0917 338.531 68.9477 337.8 68.9477 336.968C68.9477 336.136 69.097 335.405 69.3957 334.776C69.6944 334.136 70.1104 333.64 70.6437 333.288C71.1877 332.936 71.8117 332.76 72.5157 332.76C73.145 332.76 73.6944 332.899 74.1637 333.176C74.633 333.453 74.9904 333.843 75.2357 334.344V332.952H76.5157ZM72.7717 340.04C73.561 340.04 74.169 339.773 74.5957 339.24C75.0224 338.696 75.2357 337.928 75.2357 336.936C75.2357 335.944 75.0224 335.181 74.5957 334.648C74.169 334.115 73.561 333.848 72.7717 333.848C71.9824 333.848 71.3637 334.125 70.9157 334.68C70.4784 335.224 70.2597 335.987 70.2597 336.968C70.2597 337.949 70.4784 338.707 70.9157 339.24C71.353 339.773 71.9717 340.04 72.7717 340.04ZM87.9494 332.76C89.7308 332.76 90.6214 333.821 90.6214 335.944V341H89.3254V336.008C89.3254 335.251 89.1921 334.701 88.9254 334.36C88.6694 334.019 88.2481 333.848 87.6614 333.848C86.9788 333.848 86.4454 334.077 86.0614 334.536C85.6774 334.995 85.4854 335.619 85.4854 336.408V341H84.1894V336.008C84.1894 335.261 84.0561 334.717 83.7894 334.376C83.5228 334.024 83.0961 333.848 82.5094 333.848C81.8268 333.848 81.2881 334.077 80.8934 334.536C80.5094 334.995 80.3174 335.619 80.3174 336.408V341H79.0214V335.208C79.0214 334.376 78.9788 333.624 78.8934 332.952H80.1254L80.2534 334.36C80.4774 333.848 80.8081 333.453 81.2454 333.176C81.6934 332.899 82.2108 332.76 82.7974 332.76C83.4374 332.76 83.9601 332.888 84.3654 333.144C84.7708 333.4 85.0694 333.795 85.2614 334.328C85.5068 333.848 85.8641 333.469 86.3334 333.192C86.8134 332.904 87.3521 332.76 87.9494 332.76ZM93.0839 332.952H94.3799V341H93.0839V332.952ZM94.5399 329.544V331.016H92.9559V329.544H94.5399ZM103.788 341.112C102.434 341.112 101.362 340.765 100.572 340.072L101.004 339.112C101.442 339.453 101.884 339.699 102.332 339.848C102.78 339.997 103.282 340.072 103.836 340.072C104.444 340.072 104.903 339.971 105.212 339.768C105.532 339.555 105.692 339.251 105.692 338.856C105.692 338.536 105.586 338.28 105.372 338.088C105.159 337.896 104.807 337.747 104.316 337.64L102.956 337.32C102.284 337.171 101.762 336.904 101.388 336.52C101.026 336.136 100.844 335.677 100.844 335.144C100.844 334.44 101.127 333.869 101.692 333.432C102.258 332.984 103.004 332.76 103.932 332.76C104.498 332.76 105.031 332.851 105.532 333.032C106.034 333.213 106.455 333.475 106.796 333.816L106.364 334.76C105.607 334.131 104.796 333.816 103.932 333.816C103.356 333.816 102.908 333.928 102.588 334.152C102.279 334.365 102.124 334.669 102.124 335.064C102.124 335.395 102.22 335.656 102.412 335.848C102.615 336.04 102.935 336.189 103.372 336.296L104.732 336.632C105.479 336.803 106.034 337.069 106.396 337.432C106.759 337.784 106.94 338.248 106.94 338.824C106.94 339.517 106.658 340.072 106.092 340.488C105.527 340.904 104.759 341.112 103.788 341.112ZM115.742 336.936H109.838C109.848 337.96 110.083 338.733 110.542 339.256C111.011 339.779 111.688 340.04 112.574 340.04C113.512 340.04 114.376 339.725 115.166 339.096L115.598 340.04C115.246 340.371 114.792 340.632 114.238 340.824C113.694 341.016 113.134 341.112 112.558 341.112C111.299 341.112 110.312 340.744 109.598 340.008C108.883 339.261 108.526 338.243 108.526 336.952C108.526 336.131 108.686 335.405 109.006 334.776C109.326 334.136 109.774 333.64 110.35 333.288C110.926 332.936 111.582 332.76 112.318 332.76C113.384 332.76 114.222 333.112 114.83 333.816C115.438 334.509 115.742 335.469 115.742 336.696V336.936ZM112.334 333.768C111.662 333.768 111.112 333.971 110.686 334.376C110.27 334.781 110.003 335.352 109.886 336.088H114.574C114.51 335.331 114.286 334.755 113.902 334.36C113.528 333.965 113.006 333.768 112.334 333.768ZM124.797 329.224V341H123.517V339.544C123.282 340.045 122.925 340.435 122.445 340.712C121.976 340.979 121.426 341.112 120.797 341.112C120.093 341.112 119.469 340.936 118.925 340.584C118.392 340.232 117.976 339.741 117.677 339.112C117.378 338.472 117.229 337.736 117.229 336.904C117.229 336.072 117.373 335.347 117.661 334.728C117.96 334.099 118.381 333.613 118.925 333.272C119.469 332.931 120.093 332.76 120.797 332.76C121.426 332.76 121.976 332.899 122.445 333.176C122.914 333.443 123.266 333.821 123.501 334.312V329.224H124.797ZM121.053 340.04C121.842 340.04 122.45 339.773 122.877 339.24C123.304 338.696 123.517 337.928 123.517 336.936C123.517 335.955 123.304 335.197 122.877 334.664C122.45 334.12 121.842 333.848 121.053 333.848C120.264 333.848 119.645 334.115 119.197 334.648C118.76 335.181 118.541 335.933 118.541 336.904C118.541 337.896 118.76 338.669 119.197 339.224C119.645 339.768 120.264 340.04 121.053 340.04ZM134.391 332.952V341H133.111V339.544C132.876 340.045 132.519 340.435 132.039 340.712C131.569 340.979 131.02 341.112 130.391 341.112C129.676 341.112 129.047 340.941 128.503 340.6C127.969 340.259 127.553 339.779 127.255 339.16C126.967 338.531 126.823 337.8 126.823 336.968C126.823 336.136 126.972 335.405 127.271 334.776C127.569 334.136 127.985 333.64 128.519 333.288C129.063 332.936 129.687 332.76 130.391 332.76C131.02 332.76 131.569 332.899 132.039 333.176C132.508 333.453 132.865 333.843 133.111 334.344V332.952H134.391ZM130.647 340.04C131.436 340.04 132.044 339.773 132.471 339.24C132.897 338.696 133.111 337.928 133.111 336.936C133.111 335.944 132.897 335.181 132.471 334.648C132.044 334.115 131.436 333.848 130.647 333.848C129.857 333.848 129.239 334.125 128.791 334.68C128.353 335.224 128.135 335.987 128.135 336.968C128.135 337.949 128.353 338.707 128.791 339.24C129.228 339.773 129.847 340.04 130.647 340.04ZM140.912 332.76C142.843 332.76 143.808 333.821 143.808 335.944V341H142.512V336.008C142.512 335.261 142.363 334.717 142.064 334.376C141.766 334.024 141.296 333.848 140.656 333.848C139.91 333.848 139.312 334.077 138.864 334.536C138.416 334.995 138.192 335.613 138.192 336.392V341H136.896V335.208C136.896 334.376 136.854 333.624 136.768 332.952H138L138.128 334.392C138.374 333.869 138.742 333.469 139.232 333.192C139.723 332.904 140.283 332.76 140.912 332.76ZM153.424 332.952V340.936C153.424 342.131 153.114 343.032 152.496 343.64C151.888 344.259 150.986 344.568 149.792 344.568C148.565 344.568 147.509 344.291 146.624 343.736L146.848 342.68C147.36 342.968 147.84 343.176 148.288 343.304C148.746 343.432 149.248 343.496 149.792 343.496C150.57 343.496 151.157 343.288 151.552 342.872C151.946 342.467 152.144 341.859 152.144 341.048V339.144C151.898 339.656 151.536 340.056 151.056 340.344C150.586 340.621 150.026 340.76 149.376 340.76C148.672 340.76 148.042 340.595 147.488 340.264C146.944 339.933 146.522 339.464 146.224 338.856C145.925 338.248 145.776 337.549 145.776 336.76C145.776 335.971 145.925 335.272 146.224 334.664C146.522 334.056 146.944 333.587 147.488 333.256C148.042 332.925 148.672 332.76 149.376 332.76C150.016 332.76 150.57 332.899 151.04 333.176C151.52 333.453 151.882 333.843 152.128 334.344V332.952H153.424ZM149.632 339.672C150.41 339.672 151.018 339.416 151.456 338.904C151.904 338.381 152.128 337.667 152.128 336.76C152.128 335.853 151.904 335.144 151.456 334.632C151.018 334.109 150.41 333.848 149.632 333.848C148.842 333.848 148.218 334.109 147.76 334.632C147.312 335.144 147.088 335.853 147.088 336.76C147.088 337.667 147.312 338.381 147.76 338.904C148.218 339.416 148.842 339.672 149.632 339.672ZM169.012 332.76C170.793 332.76 171.684 333.821 171.684 335.944V341H170.388V336.008C170.388 335.251 170.255 334.701 169.988 334.36C169.732 334.019 169.311 333.848 168.724 333.848C168.041 333.848 167.508 334.077 167.124 334.536C166.74 334.995 166.548 335.619 166.548 336.408V341H165.252V336.008C165.252 335.261 165.119 334.717 164.852 334.376C164.585 334.024 164.159 333.848 163.572 333.848C162.889 333.848 162.351 334.077 161.956 334.536C161.572 334.995 161.38 335.619 161.38 336.408V341H160.084V335.208C160.084 334.376 160.041 333.624 159.956 332.952H161.188L161.316 334.36C161.54 333.848 161.871 333.453 162.308 333.176C162.756 332.899 163.273 332.76 163.86 332.76C164.5 332.76 165.023 332.888 165.428 333.144C165.833 333.4 166.132 333.795 166.324 334.328C166.569 333.848 166.927 333.469 167.396 333.192C167.876 332.904 168.415 332.76 169.012 332.76ZM180.882 336.936H174.978C174.989 337.96 175.224 338.733 175.682 339.256C176.152 339.779 176.829 340.04 177.714 340.04C178.653 340.04 179.517 339.725 180.306 339.096L180.738 340.04C180.386 340.371 179.933 340.632 179.378 340.824C178.834 341.016 178.274 341.112 177.698 341.112C176.44 341.112 175.453 340.744 174.738 340.008C174.024 339.261 173.666 338.243 173.666 336.952C173.666 336.131 173.826 335.405 174.146 334.776C174.466 334.136 174.914 333.64 175.49 333.288C176.066 332.936 176.722 332.76 177.458 332.76C178.525 332.76 179.362 333.112 179.97 333.816C180.578 334.509 180.882 335.469 180.882 336.696V336.936ZM177.474 333.768C176.802 333.768 176.253 333.971 175.826 334.376C175.41 334.781 175.144 335.352 175.026 336.088H179.714C179.65 335.331 179.426 334.755 179.042 334.36C178.669 333.965 178.146 333.768 177.474 333.768ZM186.866 332.76C188.796 332.76 189.762 333.821 189.762 335.944V341H188.466V336.008C188.466 335.261 188.316 334.717 188.018 334.376C187.719 334.024 187.25 333.848 186.61 333.848C185.863 333.848 185.266 334.077 184.818 334.536C184.37 334.995 184.146 335.613 184.146 336.392V341H182.85V335.208C182.85 334.376 182.807 333.624 182.722 332.952H183.954L184.082 334.392C184.327 333.869 184.695 333.469 185.186 333.192C185.676 332.904 186.236 332.76 186.866 332.76ZM199.377 332.952V340.936C199.377 342.131 199.068 343.032 198.449 343.64C197.841 344.259 196.94 344.568 195.745 344.568C194.518 344.568 193.462 344.291 192.577 343.736L192.801 342.68C193.313 342.968 193.793 343.176 194.241 343.304C194.7 343.432 195.201 343.496 195.745 343.496C196.524 343.496 197.11 343.288 197.505 342.872C197.9 342.467 198.097 341.859 198.097 341.048V339.144C197.852 339.656 197.489 340.056 197.009 340.344C196.54 340.621 195.98 340.76 195.329 340.76C194.625 340.76 193.996 340.595 193.441 340.264C192.897 339.933 192.476 339.464 192.177 338.856C191.878 338.248 191.729 337.549 191.729 336.76C191.729 335.971 191.878 335.272 192.177 334.664C192.476 334.056 192.897 333.587 193.441 333.256C193.996 332.925 194.625 332.76 195.329 332.76C195.969 332.76 196.524 332.899 196.993 333.176C197.473 333.453 197.836 333.843 198.081 334.344V332.952H199.377ZM195.585 339.672C196.364 339.672 196.972 339.416 197.409 338.904C197.857 338.381 198.081 337.667 198.081 336.76C198.081 335.853 197.857 335.144 197.409 334.632C196.972 334.109 196.364 333.848 195.585 333.848C194.796 333.848 194.172 334.109 193.713 334.632C193.265 335.144 193.041 335.853 193.041 336.76C193.041 337.667 193.265 338.381 193.713 338.904C194.172 339.416 194.796 339.672 195.585 339.672ZM208.601 336.936H202.697C202.708 337.96 202.943 338.733 203.401 339.256C203.871 339.779 204.548 340.04 205.433 340.04C206.372 340.04 207.236 339.725 208.025 339.096L208.457 340.04C208.105 340.371 207.652 340.632 207.097 340.824C206.553 341.016 205.993 341.112 205.417 341.112C204.159 341.112 203.172 340.744 202.457 340.008C201.743 339.261 201.385 338.243 201.385 336.952C201.385 336.131 201.545 335.405 201.865 334.776C202.185 334.136 202.633 333.64 203.209 333.288C203.785 332.936 204.441 332.76 205.177 332.76C206.244 332.76 207.081 333.112 207.689 333.816C208.297 334.509 208.601 335.469 208.601 336.696V336.936ZM205.193 333.768C204.521 333.768 203.972 333.971 203.545 334.376C203.129 334.781 202.863 335.352 202.745 336.088H207.433C207.369 335.331 207.145 334.755 206.761 334.36C206.388 333.965 205.865 333.768 205.193 333.768ZM219.496 332.76C221.278 332.76 222.168 333.821 222.168 335.944V341H220.872V336.008C220.872 335.251 220.739 334.701 220.472 334.36C220.216 334.019 219.795 333.848 219.208 333.848C218.526 333.848 217.992 334.077 217.608 334.536C217.224 334.995 217.032 335.619 217.032 336.408V341H215.736V336.008C215.736 335.261 215.603 334.717 215.336 334.376C215.07 334.024 214.643 333.848 214.056 333.848C213.374 333.848 212.835 334.077 212.44 334.536C212.056 334.995 211.864 335.619 211.864 336.408V341H210.568V335.208C210.568 334.376 210.526 333.624 210.44 332.952H211.672L211.8 334.36C212.024 333.848 212.355 333.453 212.792 333.176C213.24 332.899 213.758 332.76 214.344 332.76C214.984 332.76 215.507 332.888 215.912 333.144C216.318 333.4 216.616 333.795 216.808 334.328C217.054 333.848 217.411 333.469 217.88 333.192C218.36 332.904 218.899 332.76 219.496 332.76ZM228.647 332.76C229.351 332.76 229.975 332.931 230.519 333.272C231.063 333.613 231.484 334.099 231.783 334.728C232.081 335.347 232.231 336.072 232.231 336.904C232.231 337.736 232.081 338.472 231.783 339.112C231.484 339.741 231.063 340.232 230.519 340.584C229.975 340.936 229.351 341.112 228.647 341.112C228.017 341.112 227.468 340.973 226.999 340.696C226.529 340.419 226.172 340.024 225.927 339.512V341H224.631V329.224H225.927V334.376C226.161 333.853 226.513 333.453 226.983 333.176C227.463 332.899 228.017 332.76 228.647 332.76ZM228.407 340.04C229.185 340.04 229.793 339.768 230.231 339.224C230.668 338.669 230.887 337.896 230.887 336.904C230.887 335.933 230.668 335.181 230.231 334.648C229.804 334.115 229.196 333.848 228.407 333.848C227.607 333.848 226.993 334.115 226.567 334.648C226.14 335.181 225.927 335.944 225.927 336.936C225.927 337.928 226.14 338.696 226.567 339.24C226.993 339.773 227.607 340.04 228.407 340.04ZM241.313 332.952V341H240.033V339.544C239.798 340.045 239.441 340.435 238.961 340.712C238.491 340.979 237.942 341.112 237.313 341.112C236.598 341.112 235.969 340.941 235.425 340.6C234.891 340.259 234.475 339.779 234.177 339.16C233.889 338.531 233.745 337.8 233.745 336.968C233.745 336.136 233.894 335.405 234.193 334.776C234.491 334.136 234.907 333.64 235.441 333.288C235.985 332.936 236.609 332.76 237.313 332.76C237.942 332.76 238.491 332.899 238.961 333.176C239.43 333.453 239.787 333.843 240.033 334.344V332.952H241.313ZM237.569 340.04C238.358 340.04 238.966 339.773 239.393 339.24C239.819 338.696 240.033 337.928 240.033 336.936C240.033 335.944 239.819 335.181 239.393 334.648C238.966 334.115 238.358 333.848 237.569 333.848C236.779 333.848 236.161 334.125 235.713 334.68C235.275 335.224 235.057 335.987 235.057 336.968C235.057 337.949 235.275 338.707 235.713 339.24C236.15 339.773 236.769 340.04 237.569 340.04ZM247.834 332.76C249.765 332.76 250.73 333.821 250.73 335.944V341H249.434V336.008C249.434 335.261 249.285 334.717 248.986 334.376C248.688 334.024 248.218 333.848 247.578 333.848C246.832 333.848 246.234 334.077 245.786 334.536C245.338 334.995 245.114 335.613 245.114 336.392V341H243.818V335.208C243.818 334.376 243.776 333.624 243.69 332.952H244.922L245.05 334.392C245.296 333.869 245.664 333.469 246.154 333.192C246.645 332.904 247.205 332.76 247.834 332.76ZM260.346 332.952V340.936C260.346 342.131 260.036 343.032 259.418 343.64C258.81 344.259 257.908 344.568 256.714 344.568C255.487 344.568 254.431 344.291 253.546 343.736L253.77 342.68C254.282 342.968 254.762 343.176 255.21 343.304C255.668 343.432 256.17 343.496 256.714 343.496C257.492 343.496 258.079 343.288 258.474 342.872C258.868 342.467 259.066 341.859 259.066 341.048V339.144C258.82 339.656 258.458 340.056 257.978 340.344C257.508 340.621 256.948 340.76 256.298 340.76C255.594 340.76 254.964 340.595 254.41 340.264C253.866 339.933 253.444 339.464 253.146 338.856C252.847 338.248 252.698 337.549 252.698 336.76C252.698 335.971 252.847 335.272 253.146 334.664C253.444 334.056 253.866 333.587 254.41 333.256C254.964 332.925 255.594 332.76 256.298 332.76C256.938 332.76 257.492 332.899 257.962 333.176C258.442 333.453 258.804 333.843 259.05 334.344V332.952H260.346ZM256.554 339.672C257.332 339.672 257.94 339.416 258.378 338.904C258.826 338.381 259.05 337.667 259.05 336.76C259.05 335.853 258.826 335.144 258.378 334.632C257.94 334.109 257.332 333.848 256.554 333.848C255.764 333.848 255.14 334.109 254.682 334.632C254.234 335.144 254.01 335.853 254.01 336.76C254.01 337.667 254.234 338.381 254.682 338.904C255.14 339.416 255.764 339.672 256.554 339.672ZM268.258 341L264.13 337.128V341H262.834V329.224H264.13V336.648L267.922 332.968H269.57L265.538 336.824L269.954 341H268.258ZM278.016 332.952V341H276.736V339.544C276.501 340.045 276.144 340.435 275.664 340.712C275.194 340.979 274.645 341.112 274.016 341.112C273.301 341.112 272.672 340.941 272.128 340.6C271.594 340.259 271.178 339.779 270.88 339.16C270.592 338.531 270.448 337.8 270.448 336.968C270.448 336.136 270.597 335.405 270.896 334.776C271.194 334.136 271.61 333.64 272.144 333.288C272.688 332.936 273.312 332.76 274.016 332.76C274.645 332.76 275.194 332.899 275.664 333.176C276.133 333.453 276.49 333.843 276.736 334.344V332.952H278.016ZM274.272 340.04C275.061 340.04 275.669 339.773 276.096 339.24C276.522 338.696 276.736 337.928 276.736 336.936C276.736 335.944 276.522 335.181 276.096 334.648C275.669 334.115 275.061 333.848 274.272 333.848C273.482 333.848 272.864 334.125 272.416 334.68C271.978 335.224 271.76 335.987 271.76 336.968C271.76 337.949 271.978 338.707 272.416 339.24C272.853 339.773 273.472 340.04 274.272 340.04ZM284.537 332.76C286.468 332.76 287.433 333.821 287.433 335.944V341H286.137V336.008C286.137 335.261 285.988 334.717 285.689 334.376C285.391 334.024 284.921 333.848 284.281 333.848C283.535 333.848 282.937 334.077 282.489 334.536C282.041 334.995 281.817 335.613 281.817 336.392V341H280.521V335.208C280.521 334.376 280.479 333.624 280.393 332.952H281.625L281.753 334.392C281.999 333.869 282.367 333.469 282.857 333.192C283.348 332.904 283.908 332.76 284.537 332.76ZM306.277 332.952L303.301 341H302.053L299.749 334.712L297.461 341H296.213L293.237 332.952H294.597L296.869 339.448L299.221 332.952H300.357L302.677 339.464L304.997 332.952H306.277ZM314.601 336.936H308.697C308.708 337.96 308.943 338.733 309.401 339.256C309.871 339.779 310.548 340.04 311.433 340.04C312.372 340.04 313.236 339.725 314.025 339.096L314.457 340.04C314.105 340.371 313.652 340.632 313.097 340.824C312.553 341.016 311.993 341.112 311.417 341.112C310.159 341.112 309.172 340.744 308.457 340.008C307.743 339.261 307.385 338.243 307.385 336.952C307.385 336.131 307.545 335.405 307.865 334.776C308.185 334.136 308.633 333.64 309.209 333.288C309.785 332.936 310.441 332.76 311.177 332.76C312.244 332.76 313.081 333.112 313.689 333.816C314.297 334.509 314.601 335.469 314.601 336.696V336.936ZM311.193 333.768C310.521 333.768 309.972 333.971 309.545 334.376C309.129 334.781 308.863 335.352 308.745 336.088H313.433C313.369 335.331 313.145 334.755 312.761 334.36C312.388 333.965 311.865 333.768 311.193 333.768ZM320.584 332.76C321.288 332.76 321.912 332.931 322.456 333.272C323 333.613 323.422 334.099 323.72 334.728C324.019 335.347 324.168 336.072 324.168 336.904C324.168 337.736 324.019 338.472 323.72 339.112C323.422 339.741 323 340.232 322.456 340.584C321.912 340.936 321.288 341.112 320.584 341.112C319.955 341.112 319.406 340.973 318.936 340.696C318.467 340.419 318.11 340.024 317.864 339.512V341H316.568V329.224H317.864V334.376C318.099 333.853 318.451 333.453 318.92 333.176C319.4 332.899 319.955 332.76 320.584 332.76ZM320.344 340.04C321.123 340.04 321.731 339.768 322.168 339.224C322.606 338.669 322.824 337.896 322.824 336.904C322.824 335.933 322.606 335.181 322.168 334.648C321.742 334.115 321.134 333.848 320.344 333.848C319.544 333.848 318.931 334.115 318.504 334.648C318.078 335.181 317.864 335.944 317.864 336.936C317.864 337.928 318.078 338.696 318.504 339.24C318.931 339.773 319.544 340.04 320.344 340.04ZM336.958 335.144C337.609 335.325 338.115 335.656 338.478 336.136C338.841 336.605 339.022 337.192 339.022 337.896C339.022 338.888 338.691 339.656 338.03 340.2C337.369 340.733 336.435 341 335.23 341H330.494V329.608H335.07C336.233 329.608 337.134 329.869 337.774 330.392C338.425 330.904 338.75 331.635 338.75 332.584C338.75 333.192 338.59 333.72 338.27 334.168C337.961 334.605 337.523 334.931 336.958 335.144ZM331.79 334.664H334.862C335.715 334.664 336.361 334.493 336.798 334.152C337.235 333.811 337.454 333.309 337.454 332.648C337.454 331.347 336.59 330.696 334.862 330.696H331.79V334.664ZM335.118 339.912C336.014 339.912 336.67 339.747 337.086 339.416C337.513 339.075 337.726 338.557 337.726 337.864C337.726 336.467 336.857 335.768 335.118 335.768H331.79V339.912H335.118ZM347.961 336.936H342.057C342.067 337.96 342.302 338.733 342.761 339.256C343.23 339.779 343.907 340.04 344.793 340.04C345.731 340.04 346.595 339.725 347.385 339.096L347.817 340.04C347.465 340.371 347.011 340.632 346.457 340.824C345.913 341.016 345.353 341.112 344.777 341.112C343.518 341.112 342.531 340.744 341.817 340.008C341.102 339.261 340.745 338.243 340.745 336.952C340.745 336.131 340.905 335.405 341.225 334.776C341.545 334.136 341.993 333.64 342.569 333.288C343.145 332.936 343.801 332.76 344.537 332.76C345.603 332.76 346.441 333.112 347.049 333.816C347.657 334.509 347.961 335.469 347.961 336.696V336.936ZM344.553 333.768C343.881 333.768 343.331 333.971 342.905 334.376C342.489 334.781 342.222 335.352 342.105 336.088H346.793C346.729 335.331 346.505 334.755 346.121 334.36C345.747 333.965 345.225 333.768 344.553 333.768ZM353.672 332.76C353.938 332.76 354.184 332.792 354.408 332.856L354.376 334.04C354.13 333.955 353.848 333.912 353.528 333.912C352.749 333.912 352.168 334.157 351.784 334.648C351.41 335.128 351.224 335.715 351.224 336.408V341H349.928V335.208C349.928 334.376 349.885 333.624 349.8 332.952H351.032L351.16 334.44C351.362 333.896 351.688 333.48 352.136 333.192C352.584 332.904 353.096 332.76 353.672 332.76ZM358.366 341.112C357.012 341.112 355.94 340.765 355.15 340.072L355.582 339.112C356.02 339.453 356.462 339.699 356.91 339.848C357.358 339.997 357.86 340.072 358.414 340.072C359.022 340.072 359.481 339.971 359.79 339.768C360.11 339.555 360.27 339.251 360.27 338.856C360.27 338.536 360.164 338.28 359.95 338.088C359.737 337.896 359.385 337.747 358.894 337.64L357.534 337.32C356.862 337.171 356.34 336.904 355.966 336.52C355.604 336.136 355.422 335.677 355.422 335.144C355.422 334.44 355.705 333.869 356.27 333.432C356.836 332.984 357.582 332.76 358.51 332.76C359.076 332.76 359.609 332.851 360.11 333.032C360.612 333.213 361.033 333.475 361.374 333.816L360.942 334.76C360.185 334.131 359.374 333.816 358.51 333.816C357.934 333.816 357.486 333.928 357.166 334.152C356.857 334.365 356.702 334.669 356.702 335.064C356.702 335.395 356.798 335.656 356.99 335.848C357.193 336.04 357.513 336.189 357.95 336.296L359.31 336.632C360.057 336.803 360.612 337.069 360.974 337.432C361.337 337.784 361.518 338.248 361.518 338.824C361.518 339.517 361.236 340.072 360.67 340.488C360.105 340.904 359.337 341.112 358.366 341.112ZM370.672 332.952V341H369.392V339.544C369.157 340.045 368.8 340.435 368.32 340.712C367.851 340.979 367.301 341.112 366.672 341.112C365.957 341.112 365.328 340.941 364.784 340.6C364.251 340.259 363.835 339.779 363.536 339.16C363.248 338.531 363.104 337.8 363.104 336.968C363.104 336.136 363.253 335.405 363.552 334.776C363.851 334.136 364.267 333.64 364.8 333.288C365.344 332.936 365.968 332.76 366.672 332.76C367.301 332.76 367.851 332.899 368.32 333.176C368.789 333.453 369.147 333.843 369.392 334.344V332.952H370.672ZM366.928 340.04C367.717 340.04 368.325 339.773 368.752 339.24C369.179 338.696 369.392 337.928 369.392 336.936C369.392 335.944 369.179 335.181 368.752 334.648C368.325 334.115 367.717 333.848 366.928 333.848C366.139 333.848 365.52 334.125 365.072 334.68C364.635 335.224 364.416 335.987 364.416 336.968C364.416 337.949 364.635 338.707 365.072 339.24C365.509 339.773 366.128 340.04 366.928 340.04ZM373.178 332.952H374.474V341H373.178V332.952ZM374.634 329.544V331.016H373.05V329.544H374.634ZM381.006 332.76C382.937 332.76 383.902 333.821 383.902 335.944V341H382.606V336.008C382.606 335.261 382.457 334.717 382.158 334.376C381.86 334.024 381.39 333.848 380.75 333.848C380.004 333.848 379.406 334.077 378.958 334.536C378.51 334.995 378.286 335.613 378.286 336.392V341H376.99V335.208C376.99 334.376 376.948 333.624 376.862 332.952H378.094L378.222 334.392C378.468 333.869 378.836 333.469 379.326 333.192C379.817 332.904 380.377 332.76 381.006 332.76ZM389.07 341.112C387.715 341.112 386.643 340.765 385.854 340.072L386.286 339.112C386.723 339.453 387.166 339.699 387.614 339.848C388.062 339.997 388.563 340.072 389.118 340.072C389.726 340.072 390.184 339.971 390.494 339.768C390.814 339.555 390.974 339.251 390.974 338.856C390.974 338.536 390.867 338.28 390.654 338.088C390.44 337.896 390.088 337.747 389.598 337.64L388.238 337.32C387.566 337.171 387.043 336.904 386.67 336.52C386.307 336.136 386.126 335.677 386.126 335.144C386.126 334.44 386.408 333.869 386.974 333.432C387.539 332.984 388.286 332.76 389.214 332.76C389.779 332.76 390.312 332.851 390.814 333.032C391.315 333.213 391.736 333.475 392.078 333.816L391.646 334.76C390.888 334.131 390.078 333.816 389.214 333.816C388.638 333.816 388.19 333.928 387.87 334.152C387.56 334.365 387.406 334.669 387.406 335.064C387.406 335.395 387.502 335.656 387.694 335.848C387.896 336.04 388.216 336.189 388.654 336.296L390.014 336.632C390.76 336.803 391.315 337.069 391.678 337.432C392.04 337.784 392.222 338.248 392.222 338.824C392.222 339.517 391.939 340.072 391.374 340.488C390.808 340.904 390.04 341.112 389.07 341.112ZM395.633 339.352V341H393.985V339.352H395.633ZM409.428 341L403.556 335.576V341H402.244V329.608H403.556V334.84L409.156 329.608H410.836L404.884 335.16L411.14 341H409.428ZM418.882 336.936H412.978C412.989 337.96 413.224 338.733 413.682 339.256C414.152 339.779 414.829 340.04 415.714 340.04C416.653 340.04 417.517 339.725 418.306 339.096L418.738 340.04C418.386 340.371 417.933 340.632 417.378 340.824C416.834 341.016 416.274 341.112 415.698 341.112C414.44 341.112 413.453 340.744 412.738 340.008C412.024 339.261 411.666 338.243 411.666 336.952C411.666 336.131 411.826 335.405 412.146 334.776C412.466 334.136 412.914 333.64 413.49 333.288C414.066 332.936 414.722 332.76 415.458 332.76C416.525 332.76 417.362 333.112 417.97 333.816C418.578 334.509 418.882 335.469 418.882 336.696V336.936ZM415.474 333.768C414.802 333.768 414.253 333.971 413.826 334.376C413.41 334.781 413.144 335.352 413.026 336.088H417.714C417.65 335.331 417.426 334.755 417.042 334.36C416.669 333.965 416.146 333.768 415.474 333.768ZM429.778 332.76C431.559 332.76 432.45 333.821 432.45 335.944V341H431.154V336.008C431.154 335.251 431.02 334.701 430.754 334.36C430.498 334.019 430.076 333.848 429.49 333.848C428.807 333.848 428.274 334.077 427.89 334.536C427.506 334.995 427.314 335.619 427.314 336.408V341H426.018V336.008C426.018 335.261 425.884 334.717 425.618 334.376C425.351 334.024 424.924 333.848 424.338 333.848C423.655 333.848 423.116 334.077 422.722 334.536C422.338 334.995 422.146 335.619 422.146 336.408V341H420.85V335.208C420.85 334.376 420.807 333.624 420.722 332.952H421.954L422.082 334.36C422.306 333.848 422.636 333.453 423.074 333.176C423.522 332.899 424.039 332.76 424.626 332.76C425.266 332.76 425.788 332.888 426.194 333.144C426.599 333.4 426.898 333.795 427.09 334.328C427.335 333.848 427.692 333.469 428.162 333.192C428.642 332.904 429.18 332.76 429.778 332.76ZM438.928 332.76C439.632 332.76 440.256 332.931 440.8 333.272C441.344 333.613 441.765 334.099 442.064 334.728C442.363 335.347 442.512 336.072 442.512 336.904C442.512 337.736 442.363 338.472 442.064 339.112C441.765 339.741 441.344 340.232 440.8 340.584C440.256 340.936 439.632 341.112 438.928 341.112C438.299 341.112 437.749 340.973 437.28 340.696C436.811 340.419 436.453 340.024 436.208 339.512V341H434.912V329.224H436.208V334.376C436.443 333.853 436.795 333.453 437.264 333.176C437.744 332.899 438.299 332.76 438.928 332.76ZM438.688 340.04C439.467 340.04 440.075 339.768 440.512 339.224C440.949 338.669 441.168 337.896 441.168 336.904C441.168 335.933 440.949 335.181 440.512 334.648C440.085 334.115 439.477 333.848 438.688 333.848C437.888 333.848 437.275 334.115 436.848 334.648C436.421 335.181 436.208 335.944 436.208 336.936C436.208 337.928 436.421 338.696 436.848 339.24C437.275 339.773 437.888 340.04 438.688 340.04ZM451.594 332.952V341H450.314V339.544C450.079 340.045 449.722 340.435 449.242 340.712C448.772 340.979 448.223 341.112 447.594 341.112C446.879 341.112 446.25 340.941 445.706 340.6C445.172 340.259 444.756 339.779 444.458 339.16C444.17 338.531 444.026 337.8 444.026 336.968C444.026 336.136 444.175 335.405 444.474 334.776C444.772 334.136 445.188 333.64 445.722 333.288C446.266 332.936 446.89 332.76 447.594 332.76C448.223 332.76 448.772 332.899 449.242 333.176C449.711 333.453 450.068 333.843 450.314 334.344V332.952H451.594ZM447.85 340.04C448.639 340.04 449.247 339.773 449.674 339.24C450.1 338.696 450.314 337.928 450.314 336.936C450.314 335.944 450.1 335.181 449.674 334.648C449.247 334.115 448.639 333.848 447.85 333.848C447.06 333.848 446.442 334.125 445.994 334.68C445.556 335.224 445.338 335.987 445.338 336.968C445.338 337.949 445.556 338.707 445.994 339.24C446.431 339.773 447.05 340.04 447.85 340.04ZM454.1 329.224H455.396V341H454.1V329.224ZM457.912 332.952H459.208V341H457.912V332.952ZM459.368 329.544V331.016H457.784V329.544H459.368ZM465.896 329.224H467.192V341H465.896V329.224ZM476.797 332.952V341H475.517V339.544C475.282 340.045 474.925 340.435 474.445 340.712C473.976 340.979 473.426 341.112 472.797 341.112C472.082 341.112 471.453 340.941 470.909 340.6C470.376 340.259 469.96 339.779 469.661 339.16C469.373 338.531 469.229 337.8 469.229 336.968C469.229 336.136 469.378 335.405 469.677 334.776C469.976 334.136 470.392 333.64 470.925 333.288C471.469 332.936 472.093 332.76 472.797 332.76C473.426 332.76 473.976 332.899 474.445 333.176C474.914 333.453 475.272 333.843 475.517 334.344V332.952H476.797ZM473.053 340.04C473.842 340.04 474.45 339.773 474.877 339.24C475.304 338.696 475.517 337.928 475.517 336.936C475.517 335.944 475.304 335.181 474.877 334.648C474.45 334.115 473.842 333.848 473.053 333.848C472.264 333.848 471.645 334.125 471.197 334.68C470.76 335.224 470.541 335.987 470.541 336.968C470.541 337.949 470.76 338.707 471.197 339.24C471.634 339.773 472.253 340.04 473.053 340.04ZM486.471 332.952V340.936C486.471 342.131 486.161 343.032 485.543 343.64C484.935 344.259 484.033 344.568 482.839 344.568C481.612 344.568 480.556 344.291 479.671 343.736L479.895 342.68C480.407 342.968 480.887 343.176 481.335 343.304C481.793 343.432 482.295 343.496 482.839 343.496C483.617 343.496 484.204 343.288 484.599 342.872C484.993 342.467 485.191 341.859 485.191 341.048V339.144C484.945 339.656 484.583 340.056 484.103 340.344C483.633 340.621 483.073 340.76 482.423 340.76C481.719 340.76 481.089 340.595 480.535 340.264C479.991 339.933 479.569 339.464 479.271 338.856C478.972 338.248 478.823 337.549 478.823 336.76C478.823 335.971 478.972 335.272 479.271 334.664C479.569 334.056 479.991 333.587 480.535 333.256C481.089 332.925 481.719 332.76 482.423 332.76C483.063 332.76 483.617 332.899 484.087 333.176C484.567 333.453 484.929 333.843 485.175 334.344V332.952H486.471ZM482.679 339.672C483.457 339.672 484.065 339.416 484.503 338.904C484.951 338.381 485.175 337.667 485.175 336.76C485.175 335.853 484.951 335.144 484.503 334.632C484.065 334.109 483.457 333.848 482.679 333.848C481.889 333.848 481.265 334.109 480.807 334.632C480.359 335.144 480.135 335.853 480.135 336.76C480.135 337.667 480.359 338.381 480.807 338.904C481.265 339.416 481.889 339.672 482.679 339.672ZM488.959 332.952H490.255V341H488.959V332.952ZM490.415 329.544V331.016H488.831V329.544H490.415ZM500.959 332.76C502.89 332.76 503.855 333.821 503.855 335.944V341H502.559V336.008C502.559 335.261 502.41 334.717 502.111 334.376C501.813 334.024 501.343 333.848 500.703 333.848C499.957 333.848 499.359 334.077 498.911 334.536C498.463 334.995 498.239 335.613 498.239 336.392V341H496.943V335.208C496.943 334.376 496.901 333.624 496.815 332.952H498.047L498.175 334.392C498.421 333.869 498.789 333.469 499.279 333.192C499.77 332.904 500.33 332.76 500.959 332.76ZM513.391 332.952V341H512.111V339.544C511.876 340.045 511.519 340.435 511.039 340.712C510.569 340.979 510.02 341.112 509.391 341.112C508.676 341.112 508.047 340.941 507.503 340.6C506.969 340.259 506.553 339.779 506.255 339.16C505.967 338.531 505.823 337.8 505.823 336.968C505.823 336.136 505.972 335.405 506.271 334.776C506.569 334.136 506.985 333.64 507.519 333.288C508.063 332.936 508.687 332.76 509.391 332.76C510.02 332.76 510.569 332.899 511.039 333.176C511.508 333.453 511.865 333.843 512.111 334.344V332.952H513.391ZM509.647 340.04C510.436 340.04 511.044 339.773 511.471 339.24C511.897 338.696 512.111 337.928 512.111 336.936C512.111 335.944 511.897 335.181 511.471 334.648C511.044 334.115 510.436 333.848 509.647 333.848C508.857 333.848 508.239 334.125 507.791 334.68C507.353 335.224 507.135 335.987 507.135 336.968C507.135 337.949 507.353 338.707 507.791 339.24C508.228 339.773 508.847 340.04 509.647 340.04ZM519.912 332.76C521.843 332.76 522.808 333.821 522.808 335.944V341H521.512V336.008C521.512 335.261 521.363 334.717 521.064 334.376C520.766 334.024 520.296 333.848 519.656 333.848C518.91 333.848 518.312 334.077 517.864 334.536C517.416 334.995 517.192 335.613 517.192 336.392V341H515.896V335.208C515.896 334.376 515.854 333.624 515.768 332.952H517L517.128 334.392C517.374 333.869 517.742 333.469 518.232 333.192C518.723 332.904 519.283 332.76 519.912 332.76ZM526.984 333.976V338.376C526.984 338.973 527.106 339.395 527.352 339.64C527.597 339.875 527.944 339.992 528.392 339.992C528.69 339.992 528.978 339.944 529.256 339.848V340.952C528.925 341.059 528.552 341.112 528.136 341.112C527.368 341.112 526.765 340.899 526.328 340.472C525.901 340.035 525.688 339.395 525.688 338.552V333.976H524.12V332.952H525.688V330.888L526.984 330.424V332.952H529.288V333.976H526.984ZM530.85 332.952H532.146V341H530.85V332.952ZM532.306 329.544V331.016H530.722V329.544H532.306ZM536.086 339.352V340.52C536.086 340.968 536.011 341.379 535.862 341.752C535.713 342.125 535.462 342.488 535.11 342.84L534.502 342.376C534.918 341.896 535.153 341.437 535.206 341H534.438V339.352H536.086ZM549.609 332.952L545.849 341.736C545.454 342.653 544.958 343.325 544.361 343.752C543.764 344.179 543.028 344.472 542.153 344.632L541.881 343.624C542.638 343.453 543.209 343.224 543.593 342.936C543.988 342.659 544.313 342.227 544.569 341.64L544.889 340.92L541.481 332.952H542.841L545.561 339.592L548.313 332.952H549.609ZM558.031 332.952V341H556.751V339.544C556.517 340.045 556.159 340.435 555.679 340.712C555.21 340.979 554.661 341.112 554.031 341.112C553.317 341.112 552.687 340.941 552.143 340.6C551.61 340.259 551.194 339.779 550.895 339.16C550.607 338.531 550.463 337.8 550.463 336.968C550.463 336.136 550.613 335.405 550.911 334.776C551.21 334.136 551.626 333.64 552.159 333.288C552.703 332.936 553.327 332.76 554.031 332.76C554.661 332.76 555.21 332.899 555.679 333.176C556.149 333.453 556.506 333.843 556.751 334.344V332.952H558.031ZM554.287 340.04C555.077 340.04 555.685 339.773 556.111 339.24C556.538 338.696 556.751 337.928 556.751 336.936C556.751 335.944 556.538 335.181 556.111 334.648C555.685 334.115 555.077 333.848 554.287 333.848C553.498 333.848 552.879 334.125 552.431 334.68C551.994 335.224 551.775 335.987 551.775 336.968C551.775 337.949 551.994 338.707 552.431 339.24C552.869 339.773 553.487 340.04 554.287 340.04ZM561.961 339.352V341H560.313V339.352H561.961Z" fill="#828282"/>
</svg>
