<svg width="46" height="10" viewBox="0 0 46 10" fill="none" xmlns="http://www.w3.org/2000/svg">
<path d="M5.3 8.172V9H0.536V8.172H2.42V1.68L0.668 2.796V1.848L2.852 0.456H3.416V8.172H5.3ZM10.9713 4.608C11.4753 4.752 11.8593 5 12.1233 5.352C12.3873 5.704 12.5193 6.148 12.5193 6.684C12.5193 7.428 12.2673 8.016 11.7633 8.448C11.2593 8.872 10.5753 9.084 9.71131 9.084C9.15931 9.084 8.62731 8.992 8.11531 8.808C7.61131 8.624 7.18331 8.364 6.83131 8.028L7.21531 7.272C8.00731 7.928 8.83131 8.256 9.68731 8.256C10.2953 8.256 10.7553 8.12 11.0673 7.848C11.3873 7.576 11.5473 7.176 11.5473 6.648C11.5473 5.6 10.8913 5.076 9.57931 5.076H8.59531V4.248H9.38731C10.0193 4.248 10.5033 4.108 10.8393 3.828C11.1753 3.548 11.3433 3.148 11.3433 2.628C11.3433 2.164 11.2033 1.808 10.9233 1.56C10.6513 1.312 10.2633 1.188 9.75931 1.188C8.94331 1.188 8.13531 1.516 7.33531 2.172L6.96331 1.416C7.30731 1.088 7.72731 0.832 8.22331 0.648C8.72731 0.456 9.25131 0.36 9.79531 0.36C10.5633 0.36 11.1753 0.556 11.6313 0.948C12.0953 1.34 12.3273 1.868 12.3273 2.532C12.3273 3.02 12.2073 3.448 11.9673 3.816C11.7273 4.184 11.3953 4.448 10.9713 4.608ZM22.9635 9L18.5595 4.932V9H17.5755V0.456H18.5595V4.38L22.7595 0.456H24.0195L19.5555 4.62L24.2475 9H22.9635ZM30.0544 5.952H25.6264C25.6344 6.72 25.8104 7.3 26.1544 7.692C26.5064 8.084 27.0144 8.28 27.6784 8.28C28.3824 8.28 29.0304 8.044 29.6224 7.572L29.9464 8.28C29.6824 8.528 29.3424 8.724 28.9264 8.868C28.5184 9.012 28.0984 9.084 27.6664 9.084C26.7224 9.084 25.9824 8.808 25.4464 8.256C24.9104 7.696 24.6424 6.932 24.6424 5.964C24.6424 5.348 24.7624 4.804 25.0024 4.332C25.2424 3.852 25.5784 3.48 26.0104 3.216C26.4424 2.952 26.9344 2.82 27.4864 2.82C28.2864 2.82 28.9144 3.084 29.3704 3.612C29.8264 4.132 30.0544 4.852 30.0544 5.772V5.952ZM27.4984 3.576C26.9944 3.576 26.5824 3.728 26.2624 4.032C25.9504 4.336 25.7504 4.764 25.6624 5.316H29.1784C29.1304 4.748 28.9624 4.316 28.6744 4.02C28.3944 3.724 28.0024 3.576 27.4984 3.576ZM31.5298 0.167999H32.5018V9H31.5298V0.167999ZM39.7051 2.964V9H38.7451V7.908C38.5691 8.284 38.3011 8.576 37.9411 8.784C37.5891 8.984 37.1771 9.084 36.7051 9.084C36.1691 9.084 35.6971 8.956 35.2891 8.7C34.8891 8.444 34.5771 8.084 34.3531 7.62C34.1371 7.148 34.0291 6.6 34.0291 5.976C34.0291 5.352 34.1411 4.804 34.3651 4.332C34.5891 3.852 34.9011 3.48 35.3011 3.216C35.7091 2.952 36.1771 2.82 36.7051 2.82C37.1771 2.82 37.5891 2.924 37.9411 3.132C38.2931 3.34 38.5611 3.632 38.7451 4.008V2.964H39.7051ZM36.8971 8.28C37.4891 8.28 37.9451 8.08 38.2651 7.68C38.5851 7.272 38.7451 6.696 38.7451 5.952C38.7451 5.208 38.5851 4.636 38.2651 4.236C37.9451 3.836 37.4891 3.636 36.8971 3.636C36.3051 3.636 35.8411 3.844 35.5051 4.26C35.1771 4.668 35.0131 5.24 35.0131 5.976C35.0131 6.712 35.1771 7.28 35.5051 7.68C35.8331 8.08 36.2971 8.28 36.8971 8.28ZM43.6244 9.084C42.6084 9.084 41.8044 8.824 41.2124 8.304L41.5364 7.584C41.8644 7.84 42.1964 8.024 42.5324 8.136C42.8684 8.248 43.2444 8.304 43.6604 8.304C44.1164 8.304 44.4604 8.228 44.6924 8.076C44.9324 7.916 45.0524 7.688 45.0524 7.392C45.0524 7.152 44.9724 6.96 44.8124 6.816C44.6524 6.672 44.3884 6.56 44.0204 6.48L43.0004 6.24C42.4964 6.128 42.1044 5.928 41.8244 5.64C41.5524 5.352 41.4164 5.008 41.4164 4.608C41.4164 4.08 41.6284 3.652 42.0524 3.324C42.4764 2.988 43.0364 2.82 43.7324 2.82C44.1564 2.82 44.5564 2.888 44.9324 3.024C45.3084 3.16 45.6244 3.356 45.8804 3.612L45.5564 4.32C44.9884 3.848 44.3804 3.612 43.7324 3.612C43.3004 3.612 42.9644 3.696 42.7244 3.864C42.4924 4.024 42.3764 4.252 42.3764 4.548C42.3764 4.796 42.4484 4.992 42.5924 5.136C42.7444 5.28 42.9844 5.392 43.3124 5.472L44.3324 5.724C44.8924 5.852 45.3084 6.052 45.5804 6.324C45.8524 6.588 45.9884 6.936 45.9884 7.368C45.9884 7.888 45.7764 8.304 45.3524 8.616C44.9284 8.928 44.3524 9.084 43.6244 9.084Z" fill="#4F4F4F"/>
</svg>
