<svg width="16" height="16" viewBox="0 0 16 16" fill="none" xmlns="http://www.w3.org/2000/svg">
<path fill-rule="evenodd" clip-rule="evenodd" d="M14 2.66671V9.33337C14 10.0698 13.403 10.6667 12.6666 10.6667H8.66665V11.6226L11.6763 13.4284L10.9903 14.5717L8.66665 13.1775V14.6667H7.33331V13.1775L5.00964 14.5717L4.32365 13.4284L7.33331 11.6226V10.6667H3.33331C2.59693 10.6667 1.99998 10.0698 1.99998 9.33337V2.66671H1.33331V1.33337H14.6666V2.66671H14ZM3.33331 2.66671V9.33337H12.6666V2.66671H3.33331ZM6.66665 8.00004H5.33331V5.33337H6.66665V8.00004ZM8.66665 8.00004H7.33331V4.00004H8.66665V8.00004ZM10.6666 8.00004H9.33331V6.00004H10.6666V8.00004Z" fill="#4F4F4F"/>
</svg>
