<svg width="16" height="16" viewBox="0 0 16 16" fill="none" xmlns="http://www.w3.org/2000/svg">
<path fill-rule="evenodd" clip-rule="evenodd" d="M14 2.66668V9.33334C14 10.0697 13.403 10.6667 12.6666 10.6667H8.66665V11.6226L11.6763 13.4283L10.9903 14.5717L8.66665 13.1775V14.6667H7.33331V13.1775L5.00964 14.5717L4.32365 13.4283L7.33331 11.6226V10.6667H3.33331C2.59693 10.6667 1.99998 10.0697 1.99998 9.33334V2.66668H1.33331V1.33334H14.6666V2.66668H14ZM3.33331 2.66668V9.33334H12.6666V2.66668H3.33331ZM6.66665 8.00001H5.33331V5.33334H6.66665V8.00001ZM8.66665 8.00001H7.33331V4.00001H8.66665V8.00001ZM10.6666 8.00001H9.33331V6.00001H10.6666V8.00001Z" fill="#4F4F4F"/>
</svg>
