<svg width="16" height="16" viewBox="0 0 16 16" fill="none" xmlns="http://www.w3.org/2000/svg">
<path d="M7.40319 1.71534C7.6381 1.20605 8.36192 1.20605 8.59683 1.71534L10.0711 4.91163C10.1669 5.11919 10.3636 5.26211 10.5906 5.28902L14.086 5.70346C14.643 5.7695 14.8666 6.45789 14.4549 6.83868L11.8706 9.22854C11.7028 9.38373 11.6276 9.61497 11.6722 9.83917L12.3582 13.2916C12.4675 13.8417 11.8819 14.2671 11.3925 13.9932L8.32104 12.2739C8.12158 12.1623 7.87844 12.1623 7.67898 12.2739L4.60751 13.9932C4.11811 14.2672 3.53253 13.8417 3.64183 13.2916L4.32783 9.83917C4.37237 9.61497 4.29724 9.38373 4.12942 9.22854L1.54515 6.83868C1.13338 6.45789 1.35706 5.7695 1.91401 5.70346L5.40945 5.28902C5.63644 5.26211 5.83314 5.11919 5.92888 4.91163L7.40319 1.71534Z" fill="#F2C94C"/>
</svg>
