<svg width="128" height="41" viewBox="0 0 128 41" fill="none" xmlns="http://www.w3.org/2000/svg">
<g clip-path="url(#clip0)">
<path d="M69.1394 19.5414C77.1961 15.8871 78.3879 3.96191 66.9276 3.96191H53.6559L48.7511 13.579H51.0594L45.1929 36.5638H60.5801C71.8059 36.6598 76.8546 23.4409 69.1394 19.5414ZM60.5801 28.197H56.7334L58.1759 23.0039H61.8301C66.1579 23.8692 63.4654 28.3893 60.5801 28.197ZM62.8881 17.1371H59.6186L60.5801 12.6171H64.2344C67.7656 13.4828 64.7156 17.3296 62.8881 17.1371Z" fill="#005FAF"/>
<path d="M100.644 16.2435L105.683 7.34914L98.8653 3.79297L97.9758 4.89047C94.298 2.94362 75.0392 5.63172 73.8335 24.6295C74.5542 40.5665 92.4123 37.6998 94.1638 36.6885L99.0753 26.5353C94.265 29.7038 84.4155 31.2248 83.9988 21.7071C84.8628 13.8584 94.1293 10.9274 100.644 16.2435ZM125.786 3.96117H110.297L105.374 13.2904H107.903L96.2303 36.563H107.529L109.849 30.9498H116.784L116.957 36.563H127.358L125.786 3.96117ZM112.991 23.3919L116.784 14.338L116.957 23.3919H112.991Z" fill="#005FAF"/>
<path d="M29.06 35.0064L29.6618 34.8319L29.0018 33.9199L29.06 35.0064ZM19.1818 34.8512L19.0654 35.6664C19.3649 35.6372 19.7336 35.8952 19.8805 35.3169C19.8695 34.8664 19.5265 34.8417 19.1818 34.8512ZM23.9756 34.8319C23.9256 34.6099 23.7403 34.4464 23.2768 34.5992L23.432 35.4334C23.8129 35.3489 24.0087 35.1237 23.9756 34.8319ZM13.1463 34.1492L12.9609 34.8904C13.2588 34.9029 13.6076 35.1444 13.8053 34.7052C13.8186 34.4299 13.8299 34.1557 13.1463 34.1492ZM23.568 36.0547L23.7039 36.9087C24.0219 36.9167 24.312 36.7257 24.2279 36.3267C24.1468 35.9427 23.8244 36.0034 23.568 36.0547Z" fill="#005FAF"/>
<path d="M36.189 4.40045C25.9123 -0.834813 13.639 -0.68921 3.84738 4.17213C-1.20176 13.0607 -1.36253 25.4971 3.84738 36.512C14.6348 41.971 26.5658 41.6113 36.2648 36.7403C40.823 27.3885 41.5758 16.1354 36.189 4.40045ZM18.8326 30.9418L18.2235 30.9485C18.0727 29.2653 17.6703 27.8508 16.8072 26.768C12.8492 21.8047 4.75848 25.5415 6.83743 17.1063C7.9184 12.794 20.2484 10.2507 18.8326 30.9418ZM6.85205 22.6104C7.71628 24.3695 13.1308 24.6577 15.0103 26.0043C17.9918 28.14 17.5639 30.9493 17.5639 30.9493H16.8607C15.4764 26.7063 11.5912 30.0658 8.4793 28.923C6.52555 28.2283 5.10705 25.2161 6.85205 22.6104ZM16.717 36.4428L17.0082 34.1333L17.5322 34.1723L17.2992 36.7143C17.0642 37.8343 15.3945 37.6845 15.1838 36.6173L15.4554 33.978L16.0764 34.0753L15.8048 36.2875C15.8393 37.0198 16.5736 36.9758 16.717 36.4428ZM13.9288 37.0735L13.3315 36.9293C13.4016 36.4355 13.987 35.4313 12.8299 35.4313L12.5078 36.744L11.8488 36.6203L12.5489 33.4693C14.2603 33.6558 14.41 34.132 14.4439 34.6433C14.3764 35.0398 14.2708 35.3165 13.9291 35.3845C14.3289 35.7473 13.9338 36.5078 13.9288 37.0735ZM10.1352 33.544C9.9706 33.7625 9.64105 34.5255 9.59335 35.1335C9.54263 35.778 10.1617 35.6423 10.3158 35.567C10.4402 35.5065 10.5326 34.989 10.5326 34.989L10.0991 34.8445L10.2436 34.4113L11.2192 34.7363L10.7496 36.3623L10.3523 36.2535L10.3884 36.0008C9.90193 36.2225 9.0115 36.0563 8.907 35.495C8.80247 35.044 9.11905 33.6773 9.62948 33.0385C10.1256 32.4175 11.3342 33.0245 11.3637 33.3997C11.3929 33.7738 11.2454 34.1945 11.2454 34.1945L10.7904 34.1087C10.7904 34.1087 10.8183 33.9735 10.858 33.7608C10.8999 33.5353 10.3117 33.3093 10.1352 33.544ZM19.0072 36.1903L18.8908 37.5878L18.4058 37.5685L18.5803 34.2498C19.7917 34.2748 20.4861 34.4425 20.4629 35.2978C20.3907 36.4665 19.4443 36.2038 19.0072 36.1903ZM20.2148 30.949H19.4032C19.3312 28.0753 19.8838 22.8184 18.3738 18.9498C17.2297 16.0171 14.3342 14.6978 13.6925 12.3288C12.6766 8.57903 14.4056 4.5218 20.2148 4.20935C25.251 4.7264 26.7983 8.61433 25.9393 12.2342C24.4622 15.8535 22.985 15.3335 21.146 18.9387C19.6439 22.8035 20.2159 27.8668 20.2148 30.949ZM29.2153 36.268L28.6525 36.462L28.4775 33.124L29.1375 32.9495L30.7677 35.705L30.3213 35.9963L29.7778 35.2203L29.1567 35.453L29.2153 36.268ZM22.6492 30.949H22C22.535 23.5682 31.81 25.1717 32.6577 22.6104C34.1237 25.1496 33.5967 27.2905 32.066 28.388C28.2622 31.1165 24.6147 26.369 22.6492 30.949ZM26.091 34.6768L26.382 36.21C26.5632 36.5633 26.6862 36.498 26.9642 36.4623C27.2865 36.229 27.2193 36.0018 27.1583 35.7053L27.7213 35.628C27.8678 36.7388 27.3398 36.852 26.945 36.928C26.098 36.9888 25.932 36.8238 25.703 35.725C25.5695 34.7843 25.339 33.791 26.1297 33.6095C27.428 33.4113 27.3512 33.9958 27.4688 34.4053L26.906 34.5025C26.8162 34.1508 26.6868 34.011 26.4015 34.037C26.1413 34.1565 26.0348 34.3498 26.091 34.6768ZM24.9071 36.268C24.9341 36.7513 24.77 37.0723 24.4606 37.18L23.1408 37.4518L22.6169 34.2498C22.8877 34.2055 24.2155 33.719 24.5381 34.5993C24.6972 35.1368 24.5323 35.3295 24.344 35.5695C24.701 35.6842 24.8216 35.962 24.9071 36.268ZM21.518 20.1987C24.4581 11.9204 31.1858 13.3833 32.678 17.1066C34.722 24.5777 28.1398 22.5288 23.9234 25.5925C22.3298 26.9785 21.4912 28.5685 21.4788 30.979H20.7563C20.7131 26.1238 20.6345 22.686 21.518 20.1987Z" fill="#005FAF"/>
</g>
<defs>
<clipPath id="clip0">
<rect width="127.5" height="40" fill="white" transform="translate(0 0.5)"/>
</clipPath>
</defs>
</svg>
