<svg width="72" height="73" viewBox="0 0 72 73" fill="none" xmlns="http://www.w3.org/2000/svg">
<path fill-rule="evenodd" clip-rule="evenodd" d="M36 67.3571C53.0419 67.3571 66.8571 53.5419 66.8571 36.5C66.8571 19.4581 53.0419 5.64286 36 5.64286C18.9581 5.64286 5.14286 19.4581 5.14286 36.5C5.14286 53.5419 18.9581 67.3571 36 67.3571ZM36 72.5C55.8823 72.5 72 56.3823 72 36.5C72 16.6177 55.8823 0.5 36 0.5C16.1177 0.5 0 16.6177 0 36.5C0 56.3823 16.1177 72.5 36 72.5Z" fill="#4F4F4F"/>
<path fill-rule="evenodd" clip-rule="evenodd" d="M36.0001 64.7853C51.6218 64.7853 64.2858 52.1213 64.2858 36.4996C64.2858 20.8778 51.6218 8.21387 36.0001 8.21387C20.3783 8.21387 7.71436 20.8778 7.71436 36.4996C7.71436 52.1213 20.3783 64.7853 36.0001 64.7853ZM55.7485 28.0994C56.7898 27.1338 56.8512 25.5068 55.8856 24.4655C54.92 23.4241 53.293 23.3627 52.2517 24.3283L29.0461 45.8462L19.7528 37.1894C18.7136 36.2215 17.0865 36.2792 16.1185 37.3183C15.1505 38.3575 15.2082 39.9846 16.2474 40.9526L27.2894 51.2383C28.2752 52.1566 29.8026 52.1583 30.7905 51.2423L55.7485 28.0994Z" fill="#27AE60"/>
</svg>
