<svg width="128" height="128" viewBox="0 0 128 128" fill="none" xmlns="http://www.w3.org/2000/svg">
<path fill-rule="evenodd" clip-rule="evenodd" d="M8 64C8 33.072 33.0721 7.99999 64 8C94.928 8 120 33.0721 120 64C120 94.9279 94.9279 120 64 120C33.072 120 7.99999 94.9279 8 64ZM64 18.1818C38.6953 18.1818 18.1818 38.6953 18.1818 64C18.1818 89.3047 38.6953 109.818 64 109.818C89.3047 109.818 109.818 89.3047 109.818 64C109.818 38.6953 89.3047 18.1818 64 18.1818Z" fill="#602A82"/>
<path d="M60.1285 86.0977L60.9227 56.4686L66.7263 56.4686L67.5205 86.0977L60.1285 86.0977ZM63.6107 43.2118C64.8732 43.2118 65.9321 43.6395 66.7874 44.4947C67.6427 45.35 68.0703 46.4089 68.0703 47.6715C68.0703 48.934 67.6427 49.9929 66.7874 50.8482C65.9321 51.7035 64.8732 52.1311 63.6107 52.1311C62.3889 52.1311 61.3503 51.7035 60.495 50.8482C59.6398 49.9929 59.2121 48.934 59.2121 47.6715C59.2121 46.4089 59.6398 45.35 60.495 44.4947C61.3503 43.6395 62.3889 43.2118 63.6107 43.2118Z" fill="#602A82"/>
</svg>
