<svg width="41" height="40" viewBox="0 0 41 40" fill="none" xmlns="http://www.w3.org/2000/svg">
<path fill-rule="evenodd" clip-rule="evenodd" d="M32.5 7.99996H36.5C38.7091 7.99996 40.5 9.79082 40.5 12V36C40.5 38.2091 38.7091 40 36.5 40H4.5C2.29086 40 0.5 38.2091 0.5 36H0.553407C0.517904 35.7849 0.5 35.567 0.5 35.3485V11.5086C0.5 9.72264 1.68391 8.1531 3.40112 7.66247L27.4011 0.805325C29.5253 0.198427 31.7392 1.4284 32.3461 3.55254C32.4482 3.9099 32.5 4.27975 32.5 4.65142V7.99996ZM32.5 12V28.4914C32.5 30.2773 31.3161 31.8468 29.5989 32.3375L16.7801 36H36.5V12H32.5ZM4.5 11.5086V35.3485L28.5 28.4914V4.65142L4.5 11.5086ZM32.5 20V16H36.5V20H32.5ZM22.5 18C21.3954 18 20.5 17.1045 20.5 16C20.5 14.8954 21.3954 14 22.5 14C23.6046 14 24.5 14.8954 24.5 16C24.5 17.1045 23.6046 18 22.5 18Z" fill="#2A0F44"/>
</svg>
