<svg width="29" height="40" viewBox="0 0 29 40" fill="none" xmlns="http://www.w3.org/2000/svg">
<path fill-rule="evenodd" clip-rule="evenodd" d="M18.5 31.3249C17.2351 31.7738 15.8987 32 14.5 32C13.1013 32 11.7649 31.7738 10.5 31.3249V32C10.5 34.2091 12.2909 36 14.5 36C16.7091 36 18.5 34.2091 18.5 32V31.3249ZM10.4224 26.8845C11.6687 27.6326 13.016 28 14.5 28C15.9879 28 17.3383 27.6307 18.5874 26.8786C18.6894 26.3254 18.8791 25.7827 19.1477 25.2382C19.4634 24.5982 19.8649 23.9885 20.4543 23.2043C20.5813 23.0353 21.5939 21.727 21.8888 21.326C23.6661 18.9096 24.5 16.8558 24.5 14C24.5 8.47715 20.0228 4 14.5 4C8.97715 4 4.5 8.47715 4.5 14C4.5 16.7571 5.31332 18.7132 7.1074 21.1364C7.36543 21.4849 8.25405 22.6394 8.32695 22.7359C8.82949 23.4007 9.18501 23.9132 9.49134 24.4391C9.96844 25.2582 10.2852 26.0566 10.4224 26.8845ZM22.5 27.83V32C22.5 36.4183 18.9183 40 14.5 40C10.0817 40 6.5 36.4183 6.5 32V27.83C6.5 27.4395 6.36165 27.0133 6.03492 26.4524C5.82499 26.092 5.55036 25.6961 5.13601 25.1479C5.08343 25.0783 4.1774 23.9012 3.8926 23.5166C1.63288 20.4644 0.5 17.7397 0.5 14C0.5 6.26801 6.76801 0 14.5 0C22.232 0 28.5 6.26801 28.5 14C28.5 17.8215 27.3517 20.6497 25.1112 23.696C24.7808 24.1452 23.7505 25.4764 23.6518 25.6077C23.1991 26.21 22.9178 26.6371 22.7349 27.0078C22.5694 27.3434 22.5 27.6026 22.5 27.83Z" fill="#2A0F44"/>
</svg>
