<svg width="41" height="37" viewBox="0 0 41 37" fill="none" xmlns="http://www.w3.org/2000/svg">
<path fill-rule="evenodd" clip-rule="evenodd" d="M30.7897 17.7257C31.1929 18.5573 31.5487 19.5097 31.883 20.5912C32.6394 23.0381 32.7633 23.4062 33.2232 24.4006C33.5812 25.1746 33.9915 25.8729 34.4808 26.5174C34.911 25.989 35.2606 25.454 35.5154 24.9233C35.9936 23.9276 36.8954 23.0002 38 23.0002C39.1046 23.0002 40.0177 23.91 39.7292 24.9763C38.0383 31.2249 28.7201 37.0002 20 37.0002C11.2799 37.0002 1.96168 31.2249 0.270815 24.9763C-0.0177021 23.91 0.895419 23.0002 1.99999 23.0002C3.10456 23.0002 4.00637 23.9276 4.48455 24.9233C4.61983 25.205 4.78181 25.488 4.96837 25.7705L7.84065 17.1536L7.10556 15.6834L6.15933 16.1566C4.63396 16.9192 2.79169 16.6203 1.58577 15.4144C0.379864 14.2085 0.0809047 12.3662 0.84359 10.8408L3.99999 4.52802V0.560547L6.39222 1.03899C13.8826 2.53707 18 5.83098 18 11.0002C18 11.8956 19.1046 13.0002 20 13.0002H22C24.7934 13.0002 26.7654 13.4723 28.2443 14.5236C31.9211 12.559 35.698 12.4945 39.3813 14.3303C40.3699 14.823 40.6127 16.0811 40 17.0002C39.3873 17.9192 38.1546 18.1398 37.1431 17.6959C35.007 16.7584 32.927 16.7683 30.7897 17.7257ZM8.12694 28.9439C8.53394 29.2437 8.96376 29.5342 9.41299 29.8128C12.1356 24.9113 14.4608 23.0002 19 23.0002C24.0433 23.0002 28.3496 26.0968 29.6201 30.3771C30.2852 30.0119 30.917 29.6197 31.5058 29.2075C30.7422 28.2508 30.1181 27.2155 29.5927 26.0797C29.0257 24.8537 28.8815 24.4253 28.0614 21.7726C26.8544 17.8679 25.9732 17.0002 22 17.0002H20C16.8954 17.0002 14 14.1047 14 11.0002C14 8.58485 12.1442 6.74566 7.97016 5.53194L4.47212 12.528L8.89442 10.3169L12.1593 16.8467L8.12694 28.9439ZM12.9962 31.5983C15.2178 32.4653 17.6392 33.0002 20 33.0002C21.9754 33.0002 23.9932 32.6257 25.9009 31.9955C25.3443 29.1977 22.5047 27.0002 19 27.0002C16.3971 27.0002 14.9605 28.1053 12.9962 31.5983Z" fill="#2A0F44"/>
</svg>
