<svg width="41" height="40" viewBox="0 0 41 40" fill="none" xmlns="http://www.w3.org/2000/svg">
<path fill-rule="evenodd" clip-rule="evenodd" d="M36.5 12V6H32.5C32.5 7.10457 31.6046 8 30.5 8C29.3954 8 28.5 7.10457 28.5 6H12.5C12.5 7.10457 11.6046 8 10.5 8C9.39543 8 8.5 7.10457 8.5 6H4.5V12H36.5ZM36.5 16H4.5V36H36.5V16ZM32.5 2H36.5C38.7091 2 40.5 3.79086 40.5 6V36C40.5 38.2091 38.7091 40 36.5 40H4.5C2.29086 40 0.5 38.2091 0.5 36V6C0.5 3.79086 2.29086 2 4.5 2H8.5C8.5 0.895431 9.39543 0 10.5 0C11.6046 0 12.5 0.895431 12.5 2H28.5C28.5 0.895431 29.3954 0 30.5 0C31.6046 0 32.5 0.895431 32.5 2ZM18.5 27.1716L25.6716 20C26.4526 19.219 27.719 19.219 28.5 20C29.281 20.781 29.281 22.0474 28.5 22.8284L19.9142 31.4142C19.1332 32.1953 17.8668 32.1953 17.0858 31.4142L12.5 26.8284C11.719 26.0474 11.719 24.781 12.5 24C13.281 23.219 14.5474 23.219 15.3284 24L18.5 27.1716Z" fill="#2A0F44"/>
</svg>
