<svg width="41" height="40" viewBox="0 0 41 40" fill="none" xmlns="http://www.w3.org/2000/svg">
<path fill-rule="evenodd" clip-rule="evenodd" d="M21.5899 7.96621C20.8971 9.15051 20.5 10.5289 20.5 12C20.5 16.4183 24.0817 20 28.5 20C29.9846 20 31.3747 19.5956 32.5662 18.891C30.1678 17.7721 27.6614 15.9898 26.0858 14.4142C24.4898 12.8182 22.7033 10.3341 21.5899 7.96621ZM24.6705 4.97439C25.2755 6.86225 27.3564 10.0279 28.9142 11.5858C30.4466 13.1182 33.5576 15.1526 35.5435 15.7966C36.1537 14.667 36.5 13.374 36.5 12C36.5 7.58172 32.9183 4 28.5 4C27.1127 4 25.8079 4.35312 24.6705 4.97439ZM24.2409 23.2222C21.0396 22.0065 18.4935 19.4604 17.2778 16.2591L5.09722 33.7688L6.73126 35.4028L24.2409 23.2222ZM30.3256 23.862L7.64215 39.6418C6.84729 40.1948 5.77049 40.0989 5.08581 39.4142L1.08581 35.4142C0.401137 34.7295 0.305267 33.6527 0.858215 32.8579L16.638 10.1744C17.5173 4.41342 22.4933 0 28.5 0C35.1274 0 40.5 5.37258 40.5 12C40.5 18.0068 36.0866 22.9827 30.3256 23.862Z" fill="#2A0F44"/>
</svg>
